<svg xmlns="http://www.w3.org/2000/svg" width="87.34mm" height="36.15mm" viewBox="0 0 247.59 102.47"><defs><style>.cls-1{fill:#6ab42d;}.cls-2{fill:#fff;}</style></defs><title>afslut</title><g id="startknap"><rect class="cls-1" x="5.49" y="10.98" width="234.23" height="84.63"/><path class="cls-2" d="M24.41,64.36l7-25.61h6.22l7,25.61H41.87L40,57.77h-11l-1.85,6.59Zm9.18-23.17-3.89,14h9.7l-3.89-14Z"/><path class="cls-2" d="M51.53,48.26v16.1H48.76V48.26H46.43v-2.4h2.33V44.19c0-2.61.37-4.4,1.11-5.35s2-1.42,3.88-1.42l3.74.26,0,2.29c-1.38,0-2.52-.07-3.42-.07a2.09,2.09,0,0,0-1.92.89,6.9,6.9,0,0,0-.58,3.44v1.63H56.9v2.4Z"/><path class="cls-2" d="M66,48c-2.69,0-4,.93-4,2.81a1.94,1.94,0,0,0,.93,1.83,15.4,15.4,0,0,0,4.22,1.11,11.27,11.27,0,0,1,4.66,1.61c.91.69,1.37,2,1.37,3.88a4.81,4.81,0,0,1-1.83,4.18A9,9,0,0,1,66,64.73a34.06,34.06,0,0,1-5.4-.52L59.49,64l.14-2.4a47.28,47.28,0,0,0,6.37.63,6.32,6.32,0,0,0,3.27-.69,2.45,2.45,0,0,0,1.13-2.29,2.33,2.33,0,0,0-1-2.18A14.07,14.07,0,0,0,65.22,56a11.13,11.13,0,0,1-4.62-1.51c-.92-.67-1.37-1.9-1.37-3.7a4.5,4.5,0,0,1,1.9-4,8.31,8.31,0,0,1,4.76-1.29,39.55,39.55,0,0,1,5.66.51l1,.19-.07,2.37A47.3,47.3,0,0,0,66,48Z"/><path class="cls-2" d="M77.65,64.36V37.79h2.78V64.36Z"/><path class="cls-2" d="M97.52,45.86h2.78v18.5H97.52v-1.3a10.59,10.59,0,0,1-5.47,1.67q-3.78,0-5-2c-.82-1.3-1.24-3.72-1.24-7.25V45.86h2.78v9.62c0,2.68.23,4.49.7,5.4s1.53,1.37,3.18,1.37a9,9,0,0,0,2.48-.36,11.42,11.42,0,0,0,1.93-.68l.66-.33Z"/><path class="cls-2" d="M115.21,48.26h-5.89V57.1a11.78,11.78,0,0,0,.47,4.18c.31.67,1,1,2.2,1l3.29-.22.19,2.3a25.35,25.35,0,0,1-3.78.4c-1.92,0-3.25-.47-4-1.4s-1.11-2.73-1.11-5.37V48.26H104v-2.4h2.63V40.19h2.73v5.67h5.89Z"/><path class="cls-2" d="M136.33,48.26h-5.88V57.1a11.86,11.86,0,0,0,.46,4.18c.31.67,1,1,2.2,1l3.3-.22.18,2.3a25.24,25.24,0,0,1-3.77.4c-1.92,0-3.26-.47-4-1.4s-1.11-2.73-1.11-5.37V48.26h-2.62v-2.4h2.62V40.19h2.74v5.67h5.88Z"/><path class="cls-2" d="M152.32,62.06l1.07-.11.07,2.18a52.31,52.31,0,0,1-7.21.6q-4,0-5.66-2.32t-1.67-7.19q0-9.73,7.74-9.73c2.49,0,4.35.69,5.58,2.09s1.85,3.58,1.85,6.56L154,56.25H141.74a7.56,7.56,0,0,0,1.11,4.55c.74,1,2,1.48,3.86,1.48S150.42,62.21,152.32,62.06Zm-1-8c0-2.27-.37-3.87-1.09-4.81a4.24,4.24,0,0,0-3.55-1.4A4.52,4.52,0,0,0,143,49.3,7.39,7.39,0,0,0,141.7,54Z"/><path class="cls-2" d="M164.23,48c-2.69,0-4,.93-4,2.81a2,2,0,0,0,.92,1.83,15.64,15.64,0,0,0,4.22,1.11A11.16,11.16,0,0,1,170,55.33c.92.69,1.37,2,1.37,3.88a4.81,4.81,0,0,1-1.83,4.18,9,9,0,0,1-5.35,1.34,34.06,34.06,0,0,1-5.4-.52L157.68,64l.15-2.4a47,47,0,0,0,6.36.63,6.36,6.36,0,0,0,3.28-.69,2.46,2.46,0,0,0,1.13-2.29,2.33,2.33,0,0,0-1-2.18,14.16,14.16,0,0,0-4.22-1.1,11.19,11.19,0,0,1-4.63-1.51c-.91-.67-1.37-1.9-1.37-3.7a4.5,4.5,0,0,1,1.91-4,8.28,8.28,0,0,1,4.75-1.29,39.43,39.43,0,0,1,5.66.51l1,.19-.07,2.37A47.29,47.29,0,0,0,164.23,48Z"/><path class="cls-2" d="M185.21,48.26h-5.88V57.1a11.86,11.86,0,0,0,.46,4.18c.31.67,1,1,2.2,1l3.29-.22.19,2.3a25.22,25.22,0,0,1-3.78.4c-1.92,0-3.25-.47-4-1.4s-1.11-2.73-1.11-5.37V48.26H174v-2.4h2.63V40.19h2.74v5.67h5.88Z"/><path class="cls-2" d="M201.19,62.06l1.08-.11.07,2.18a52.43,52.43,0,0,1-7.21.6q-4,0-5.66-2.32t-1.67-7.19q0-9.73,7.73-9.73c2.49,0,4.36.69,5.59,2.09S203,51.16,203,54.14l-.15,2.11H190.61a7.56,7.56,0,0,0,1.11,4.55c.74,1,2,1.48,3.87,1.48S199.29,62.21,201.19,62.06Zm-1-8c0-2.27-.36-3.87-1.09-4.81a4.22,4.22,0,0,0-3.55-1.4,4.55,4.55,0,0,0-3.7,1.48A7.51,7.51,0,0,0,190.57,54Z"/><path class="cls-2" d="M210.07,64.36H207.3V45.86H210v1.29a11.79,11.79,0,0,1,5.73-1.66q3.71,0,5,2c.85,1.34,1.28,3.7,1.28,7.11v9.77h-2.74v-9.7a12.59,12.59,0,0,0-.76-5.27c-.51-1-1.59-1.42-3.24-1.42a9.46,9.46,0,0,0-2.5.35,12.1,12.1,0,0,0-2,.68l-.71.33Z"/></g></svg>
