<svg xmlns="http://www.w3.org/2000/svg" width="170.68mm" height="39.84mm" viewBox="0 0 483.81 112.93"><defs><style>.cls-1{fill:#28292c;}.cls-2{fill:#fff;}</style></defs><title>forkert</title><g id="overskrift"><rect class="cls-1" x="34.03" y="13.1" width="438.93" height="84"/><path class="cls-2" d="M169.92,69.35V34.75h20.7v3.4H173.77v13.5H188v3.4H173.77v14.3Z"/><path class="cls-2" d="M193.57,56.8q0-6.84,2.45-9.9t8.27-3q5.82,0,8.25,3T215,56.8q0,6.86-2.3,10t-8.4,3.1q-6.11,0-8.4-3.1T193.57,56.8Zm3.85-.07q0,5.48,1.32,7.67t5.55,2.2q4.23,0,5.53-2.17c.86-1.45,1.3-4,1.3-7.68s-.49-6.19-1.45-7.57-2.76-2.08-5.38-2.08-4.42.69-5.4,2.08S197.42,53.08,197.42,56.73Z"/><path class="cls-2" d="M221.07,69.35v-25h3.7v3.4a24.46,24.46,0,0,1,9.15-4v3.8a28.14,28.14,0,0,0-4.38,1.25,29.72,29.72,0,0,0-3.47,1.5l-1.25.65V69.35Z"/><path class="cls-2" d="M242.12,69.35h-3.75V33.45h3.75v21.2l3.9-.2,7.15-10.1h4.25l-8.15,11.5,8.5,13.5h-4.25l-7.45-11.6-3.95.15Z"/><path class="cls-2" d="M278.67,66.25l1.45-.15.1,3a72.32,72.32,0,0,1-9.75.8q-5.4,0-7.65-3.12T260.57,57q0-13.14,10.45-13.15,5,0,7.55,2.83c1.66,1.88,2.5,4.84,2.5,8.87l-.2,2.85h-16.5q0,4.16,1.5,6.15c1,1.34,2.74,2,5.22,2S276.1,66.45,278.67,66.25ZM277.32,55.4c0-3.06-.5-5.23-1.48-6.5S273.26,47,271,47a6.16,6.16,0,0,0-5,2q-1.68,2-1.72,6.4Z"/><path class="cls-2" d="M286.92,69.35v-25h3.7v3.4a24.46,24.46,0,0,1,9.15-4v3.8a28.14,28.14,0,0,0-4.38,1.25,29.72,29.72,0,0,0-3.47,1.5l-1.25.65V69.35Z"/><path class="cls-2" d="M317.17,47.6h-7.95V59.55c0,2.87.2,4.75.62,5.65s1.41,1.35,3,1.35l4.45-.3.25,3.1a33.92,33.92,0,0,1-5.1.55q-3.9,0-5.4-1.9t-1.5-7.25V47.6H302V44.35h3.55V36.7h3.7v7.65h7.95Z"/><path class="cls-2" d="M333.32,69.35v-5.6h4.1v5.6Zm.3-11.4-.25-23.2h3.95L337.07,58Z"/></g></svg>
