<svg xmlns="http://www.w3.org/2000/svg" width="23.23mm" height="35.97mm" viewBox="0 0 65.85 101.97"><defs><style>.cls-1{fill:#cbcdd2;}</style></defs><title>luk</title><g id="arbejdslag_start"><rect class="cls-1" x="29.58" y="1.03" width="5.49" height="65.36" transform="translate(-14.34 31.78) rotate(-43.82)"/><rect class="cls-1" x="-0.08" y="31.04" width="65.36" height="5.49" transform="translate(-14.34 32.94) rotate(-45)"/><path class="cls-1" d="M23.11,90.13H9.77V65.91h2.7V87.72H23.11Z"/><path class="cls-1" d="M36.83,72.63h2.62v17.5H36.83V88.91a10,10,0,0,1-5.18,1.57q-3.57,0-4.74-1.85t-1.18-6.86V72.63h2.63v9.1c0,2.55.22,4.25.66,5.11s1.45,1.3,3,1.3a8.77,8.77,0,0,0,2.35-.33,11.58,11.58,0,0,0,1.82-.65l.63-.32Z"/><path class="cls-1" d="M47.12,90.13H44.49V65h2.63V79.84l2.73-.14,5-7.07h3l-5.71,8.05,6,9.45h-3L49.88,82l-2.76.11Z"/></g></svg>
