<svg id="Layer_1" data-name="Layer 1" xmlns="http://www.w3.org/2000/svg" width="87.34mm" height="36.15mm" viewBox="0 0 247.58 102.47"><defs><style>.cls-1{fill:#6ab42d;}.cls-2{fill:#fff;}</style></defs><title>Artboard 1</title><g id="startknap"><rect class="cls-1" x="5.49" y="10.98" width="234.22" height="84.63"/><path class="cls-2" d="M23.78,65.26V46.57h3.88l7.16,16.85h.57V46.57h2V65.26H33.63L26.37,48.41h-.52V65.26Z"/><path class="cls-2" d="M58.9,63.5h.79l.05,1.64a38.79,38.79,0,0,1-5.48.43,4.74,4.74,0,0,1-3.73-1.45l-.86.38a12.23,12.23,0,0,1-5.19,1.07,3.47,3.47,0,0,1-2.74-1.06,4.68,4.68,0,0,1-.93-3.15,3.38,3.38,0,0,1,1.11-2.9,8,8,0,0,1,3.78-1.09L49.18,57V55.9c0-1.64-.78-2.46-2.35-2.46-1.18,0-2.62.07-4.29.21l-.84.06-.08-1.81a45,45,0,0,1,5.32-.4c1.84,0,3.05.65,3.65,2a4.54,4.54,0,0,1,4.11-2A5.32,5.32,0,0,1,58.88,53a7.12,7.12,0,0,1,1.35,4.79l-.11,1.57H51.21A5.33,5.33,0,0,0,52,62.64a2.93,2.93,0,0,0,2.47,1A40.94,40.94,0,0,0,58.9,63.5Zm-14.09.27a12.37,12.37,0,0,0,2.83-.39,11,11,0,0,0,2-.61,12.53,12.53,0,0,1-.51-4.13L45.19,59a2.67,2.67,0,0,0-1.74.68,2.3,2.3,0,0,0-.56,1.7C42.89,63,43.53,63.77,44.81,63.77Zm6.4-6.05h7a5.67,5.67,0,0,0-.8-3.41,3.1,3.1,0,0,0-2.59-1,3.37,3.37,0,0,0-2.7,1.06A5.07,5.07,0,0,0,51.21,57.72Z"/><path class="cls-2" d="M67.62,53.29c-2,0-2.94.69-2.94,2.06a1.39,1.39,0,0,0,.68,1.33,11.23,11.23,0,0,0,3.07.81,8.32,8.32,0,0,1,3.41,1.18,3.42,3.42,0,0,1,1,2.83,3.52,3.52,0,0,1-1.33,3,6.63,6.63,0,0,1-3.9,1,24.8,24.8,0,0,1-4-.37L62.84,65,63,63.26a34.54,34.54,0,0,0,4.65.46,4.73,4.73,0,0,0,2.39-.5,1.84,1.84,0,0,0,.82-1.68,1.7,1.7,0,0,0-.7-1.59,10.6,10.6,0,0,0-3.08-.8,8.22,8.22,0,0,1-3.38-1.1,3.15,3.15,0,0,1-1-2.7,3.25,3.25,0,0,1,1.39-2.92,6,6,0,0,1,3.47-.94,28.68,28.68,0,0,1,4.13.37l.75.14,0,1.73A36.46,36.46,0,0,0,67.62,53.29Z"/><path class="cls-2" d="M82.93,53.51H78.64V60A8.47,8.47,0,0,0,79,63c.22.49.76.73,1.6.73l2.4-.15.13,1.68a19.58,19.58,0,0,1-2.75.29,3.55,3.55,0,0,1-2.92-1c-.54-.69-.81-2-.81-3.92v-7.1H74.72V51.76h1.92V47.62h2v4.14h4.29Z"/><path class="cls-2" d="M94.6,63.58l.78-.08.05,1.59a38.73,38.73,0,0,1-5.26.43c-2,0-3.32-.56-4.13-1.68a9,9,0,0,1-1.22-5.25q0-7.11,5.65-7.1A5.15,5.15,0,0,1,94.54,53a7.12,7.12,0,0,1,1.35,4.79l-.11,1.54H86.87a5.45,5.45,0,0,0,.81,3.32,3.28,3.28,0,0,0,2.83,1.08C91.85,63.74,93.21,63.69,94.6,63.58Zm-.73-5.86a6,6,0,0,0-.8-3.51,3.1,3.1,0,0,0-2.59-1,3.31,3.31,0,0,0-2.7,1.08,5.36,5.36,0,0,0-.93,3.45Z"/><path class="cls-2" d="M109.22,53.29c-2,0-2.94.69-2.94,2.06a1.4,1.4,0,0,0,.67,1.33,11.87,11.87,0,0,0,3.08.81,8.08,8.08,0,0,1,3.4,1.18,3.29,3.29,0,0,1,1,2.83,3.5,3.5,0,0,1-1.34,3,6.6,6.6,0,0,1-3.9,1,24.9,24.9,0,0,1-3.94-.37l-.81-.14.11-1.75a34.56,34.56,0,0,0,4.64.46,4.59,4.59,0,0,0,2.39-.5,1.8,1.8,0,0,0,.83-1.68,1.67,1.67,0,0,0-.71-1.59,10.46,10.46,0,0,0-3.07-.8,8.32,8.32,0,0,1-3.38-1.1,3.14,3.14,0,0,1-1-2.7,3.29,3.29,0,0,1,1.39-2.92,6,6,0,0,1,3.47-.94,28.43,28.43,0,0,1,4.13.37L114,52v1.73A36.14,36.14,0,0,0,109.22,53.29Z"/><path class="cls-2" d="M117.53,71.25V51.76h2v1a7.81,7.81,0,0,1,4-1.24,4.26,4.26,0,0,1,3.73,1.63c.77,1.09,1.16,2.88,1.16,5.39s-.45,4.29-1.36,5.38-2.42,1.63-4.53,1.63a14.46,14.46,0,0,1-3-.29v6Zm5.76-18a6.51,6.51,0,0,0-1.75.27,10,10,0,0,0-1.47.54l-.51.27v9.1a20.5,20.5,0,0,0,2.92.3,3.47,3.47,0,0,0,3.06-1.24,7.06,7.06,0,0,0,.88-4.05,7.4,7.4,0,0,0-.8-4,2.65,2.65,0,0,0-2.33-1.15Z"/><path class="cls-2" d="M137,51.49a9.5,9.5,0,0,1,2,.21l1.16-2.81,1.35.52-1.16,2.8c1.62.9,2.43,2.95,2.43,6.13,0,2.56-.41,4.4-1.25,5.51s-2.34,1.67-4.53,1.67a8.87,8.87,0,0,1-2.05-.21l-1.17,3-1.35-.49,1.19-2.94a4,4,0,0,1-1.86-2.29,13.67,13.67,0,0,1-.54-4.22q0-3.55,1.32-5.21C133.37,52,134.86,51.49,137,51.49Zm0,1.75a3.32,3.32,0,0,0-2.9,1.12,6.25,6.25,0,0,0-.8,3.54,19.71,19.71,0,0,0,.23,3.52,2.87,2.87,0,0,0,.9,1.68l3.92-9.7A5.09,5.09,0,0,0,137,53.24Zm0,10.53q2.3,0,3-1.17a9.25,9.25,0,0,0,.71-4.38c0-2.13-.38-3.54-1.14-4.22l-3.94,9.64A5.27,5.27,0,0,0,137,63.77Z"/><path class="cls-2" d="M146,65.26V51.76h2v1.83a13.07,13.07,0,0,1,5-2.13v2A18,18,0,0,0,148.72,55l-.68.35v9.91Z"/><path class="cls-2" d="M160.38,71.6c-2.16,0-3.66-.29-4.52-.88a3.61,3.61,0,0,1-1.28-3.2,3,3,0,0,1,.49-1.79,7.53,7.53,0,0,1,1.64-1.55,2.12,2.12,0,0,1-.75-1.87,4.8,4.8,0,0,1,.67-1.7l.24-.43q-2.13-1-2.13-4.08c0-3.08,1.68-4.61,5-4.61a10.7,10.7,0,0,1,2.4.27l.41.08,4-.11v1.73L164,53.4a3.66,3.66,0,0,1,.89,2.7,4.31,4.31,0,0,1-1.26,3.55,6.19,6.19,0,0,1-4,1,7.35,7.35,0,0,1-1.32-.11,5.64,5.64,0,0,0-.49,1.54c0,.55.17.9.51,1a13,13,0,0,0,3.11.2,6.61,6.61,0,0,1,3.72.81c.76.54,1.14,1.59,1.14,3.16Q166.39,71.6,160.38,71.6Zm-3.8-4.24a2.27,2.27,0,0,0,.79,2,5.56,5.56,0,0,0,3,.55,6,6,0,0,0,3.07-.59,2.14,2.14,0,0,0,.94-2c0-.93-.23-1.52-.68-1.8a6,6,0,0,0-2.65-.4l-3-.12a4.78,4.78,0,0,0-1.2,1.13A2.3,2.3,0,0,0,156.58,67.36Zm.19-11.26a3,3,0,0,0,.71,2.27,3.4,3.4,0,0,0,2.36.68,3.32,3.32,0,0,0,2.35-.68,3,3,0,0,0,.71-2.28,3.05,3.05,0,0,0-.71-2.28,4.4,4.4,0,0,0-4.71,0A3.08,3.08,0,0,0,156.77,56.1Z"/><path class="cls-2" d="M173.29,53.29c-2,0-2.94.69-2.94,2.06a1.4,1.4,0,0,0,.67,1.33,11.77,11.77,0,0,0,3.08.81,8.08,8.08,0,0,1,3.4,1.18,3.35,3.35,0,0,1,1,2.83,3.49,3.49,0,0,1-1.34,3,6.61,6.61,0,0,1-3.9,1,24.79,24.79,0,0,1-3.94-.37l-.81-.14.11-1.75a34.56,34.56,0,0,0,4.64.46,4.61,4.61,0,0,0,2.39-.5,1.8,1.8,0,0,0,.83-1.68,1.71,1.71,0,0,0-.71-1.59,10.54,10.54,0,0,0-3.07-.8,8.27,8.27,0,0,1-3.38-1.1,3.14,3.14,0,0,1-1-2.7,3.3,3.3,0,0,1,1.39-2.92,6.1,6.1,0,0,1,3.47-.94,28.43,28.43,0,0,1,4.13.37l.76.14L178,53.73A35.1,35.1,0,0,0,173.29,53.29Z"/><path class="cls-2" d="M183.63,65.26h-2V51.76h2v.94a7.7,7.7,0,0,1,4-1.21,4.06,4.06,0,0,1,3.51,1.37,10,10,0,0,1,2.3-1,9.21,9.21,0,0,1,2.5-.41q2.7,0,3.63,1.44c.62,1,.93,2.7.93,5.2v7.13h-2v-7a9.33,9.33,0,0,0-.54-3.85,2.34,2.34,0,0,0-2.3-1,7.09,7.09,0,0,0-1.83.26,9.31,9.31,0,0,0-1.46.5l-.51.24a13.81,13.81,0,0,1,.35,4v7h-2v-7a10.09,10.09,0,0,0-.52-4,2.36,2.36,0,0,0-2.31-1,6.65,6.65,0,0,0-1.77.26,8.53,8.53,0,0,0-1.39.5l-.46.24Z"/><path class="cls-2" d="M213.71,55.83v6.91c0,.67.57,1.07,1.56,1.19l-.08,1.59a4.35,4.35,0,0,1-3.2-1.07,11.82,11.82,0,0,1-4.86,1.07,3.66,3.66,0,0,1-2.83-1,4.32,4.32,0,0,1-1-3,3.78,3.78,0,0,1,1-2.9,5.32,5.32,0,0,1,3.13-1.15l4.24-.41V55.83a2.68,2.68,0,0,0-.59-2,2.2,2.2,0,0,0-1.62-.59,37.28,37.28,0,0,0-4.48.27l-.84.08-.08-1.54a26.58,26.58,0,0,1,5.26-.59,4.59,4.59,0,0,1,3.34,1A4.54,4.54,0,0,1,213.71,55.83Zm-8.32,5.51c0,1.66.69,2.48,2,2.48A10.89,10.89,0,0,0,211,63.2l.62-.21V58.53l-4,.38a2.67,2.67,0,0,0-1.76.7A2.49,2.49,0,0,0,205.39,61.34Zm1.73-11.5a2.81,2.81,0,0,1,2-4.81,2.68,2.68,0,0,1,2,.81,2.89,2.89,0,0,1,0,4,2.64,2.64,0,0,1-2,.81,2.71,2.71,0,0,1-2-.81Zm2-3.51a1.44,1.44,0,0,0-1,.44,1.48,1.48,0,0,0-.44,1.08,1.45,1.45,0,0,0,.44,1.08,1.37,1.37,0,0,0,1,.45,1.39,1.39,0,0,0,1-.45,1.44,1.44,0,0,0,.43-1.08,1.51,1.51,0,0,0-.43-1.08,1.46,1.46,0,0,0-1-.44Z"/><path class="cls-2" d="M217.87,65.26V45.87h2V65.26Z"/></g></svg>
