<svg xmlns="http://www.w3.org/2000/svg" width="87.34mm" height="36.15mm" viewBox="0 0 247.59 102.47"><defs><style>.cls-1{fill:#6ab42d;}.cls-2{fill:#fff;}</style></defs><title>nyhed</title><g id="startknap"><rect class="cls-1" x="5.49" y="10.98" width="234.23" height="84.63"/><path class="cls-2" d="M35,64.36V38.75h5.33l9.8,23.09h.78V38.75h2.81V64.36H48.5l-10-23.09h-.7V64.36Z"/><path class="cls-2" d="M57.78,45.86h2.78L65.18,62H66.4l4.67-16.09h2.77L66.15,72.57H63.37l2.41-8.21H63Z"/><path class="cls-2" d="M80.17,64.36H77.39V37.79h2.78v9.1a13.19,13.19,0,0,1,5.7-1.4q3.69,0,5,2c.85,1.34,1.28,3.7,1.28,7.11v9.77H89.34v-9.7a12.63,12.63,0,0,0-.75-5.27c-.51-1-1.58-1.43-3.2-1.43a12.3,12.3,0,0,0-4.52.86l-.7.25Z"/><path class="cls-2" d="M109.84,62.06l1.07-.11.08,2.18a52.44,52.44,0,0,1-7.22.6c-2.66,0-4.55-.78-5.66-2.32s-1.66-3.94-1.66-7.19q0-9.73,7.73-9.73c2.49,0,4.35.69,5.59,2.09s1.85,3.58,1.85,6.56l-.15,2.11H99.26a7.56,7.56,0,0,0,1.11,4.55c.74,1,2,1.48,3.87,1.48S107.94,62.21,109.84,62.06Zm-1-8c0-2.27-.36-3.87-1.09-4.81a4.21,4.21,0,0,0-3.55-1.4,4.55,4.55,0,0,0-3.7,1.48c-.83,1-1.25,2.56-1.28,4.73Z"/><path class="cls-2" d="M130.15,37.79V64.36h-2.73V63.1a11.36,11.36,0,0,1-5.63,1.63,8.43,8.43,0,0,1-2.59-.37A5.37,5.37,0,0,1,117.13,63q-2-2-2-7.38t1.8-7.77q1.78-2.38,5.94-2.38a23.34,23.34,0,0,1,4.55.48V37.79ZM120.53,62a4.93,4.93,0,0,0,1.73.26,9,9,0,0,0,2.36-.36,14.1,14.1,0,0,0,2.06-.68l.74-.33V48.33a24.55,24.55,0,0,0-4.41-.44,4.25,4.25,0,0,0-3.92,1.79A10.9,10.9,0,0,0,118,55.25q0,4.29,1.3,5.78A3.21,3.21,0,0,0,120.53,62Z"/><path class="cls-2" d="M141.33,48q-4,0-4,2.82a1.94,1.94,0,0,0,.92,1.83,15.52,15.52,0,0,0,4.22,1.11,11.21,11.21,0,0,1,4.66,1.61c.91.69,1.37,2,1.37,3.88a4.81,4.81,0,0,1-1.83,4.18,9,9,0,0,1-5.35,1.34,34.06,34.06,0,0,1-5.4-.52L134.78,64l.15-2.4a47,47,0,0,0,6.36.63,6.38,6.38,0,0,0,3.28-.69,2.46,2.46,0,0,0,1.12-2.29,2.35,2.35,0,0,0-1-2.19A14.48,14.48,0,0,0,140.51,56a11.13,11.13,0,0,1-4.62-1.51c-.91-.67-1.37-1.9-1.37-3.7a4.48,4.48,0,0,1,1.91-4,8.28,8.28,0,0,1,4.75-1.29,39.55,39.55,0,0,1,5.66.51l1,.19-.08,2.37A47.34,47.34,0,0,0,141.33,48Z"/><path class="cls-2" d="M155.5,64.36h-2.78V45.86h2.74v1.29a10.47,10.47,0,0,1,5.4-1.66c2.3,0,3.9.62,4.81,1.88a13.71,13.71,0,0,1,3.17-1.31,12.3,12.3,0,0,1,3.42-.57q3.7,0,5,2t1.27,7.13v9.77h-2.77v-9.7a12.84,12.84,0,0,0-.74-5.27c-.5-1-1.54-1.43-3.15-1.43a9.34,9.34,0,0,0-2.51.36,12.26,12.26,0,0,0-2,.68l-.7.33a18.63,18.63,0,0,1,.48,5.41v9.62h-2.78V54.81q0-4-.72-5.42c-.48-1-1.54-1.43-3.16-1.43a8.73,8.73,0,0,0-2.43.36,11.26,11.26,0,0,0-1.9.68l-.63.33Z"/><path class="cls-2" d="M196.72,51.44v9.47c.07.92.79,1.46,2.14,1.63l-.11,2.19a6,6,0,0,1-4.4-1.49,16.24,16.24,0,0,1-6.66,1.49,5.05,5.05,0,0,1-3.89-1.45,5.92,5.92,0,0,1-1.33-4.14,5.22,5.22,0,0,1,1.37-4,7.26,7.26,0,0,1,4.29-1.57l5.81-.56V51.44a3.73,3.73,0,0,0-.81-2.7,3,3,0,0,0-2.22-.81,52.33,52.33,0,0,0-6.14.37l-1.15.11-.11-2.11a37.45,37.45,0,0,1,7.21-.81q3.15,0,4.57,1.44A6.21,6.21,0,0,1,196.72,51.44ZM185.32,59q0,3.4,2.81,3.4a14.91,14.91,0,0,0,5-.85l.85-.29V55.14l-5.47.52a3.59,3.59,0,0,0-2.41,1A3.42,3.42,0,0,0,185.32,59Z"/><path class="cls-2" d="M202.19,41.67V38.45H205v3.22Zm0,22.69V45.86H205v18.5Z"/><path class="cls-2" d="M210.52,64.36V37.79h2.77V64.36Z"/></g></svg>
