<svg xmlns="http://www.w3.org/2000/svg" width="160.62mm" height="34.85mm" viewBox="0 0 455.31 98.79"><defs><style>.cls-1{fill:#28292c;}.cls-2{fill:#fff;}</style></defs><title>overskrift_navn</title><g id="overskrift"><rect class="cls-1" x="6.22" y="6.43" width="438.93" height="84"/><path class="cls-2" d="M79.2,59.35V48.12H66V59.35H63.84V35H66V46.19H79.2V35h2.14V59.35Z"/><path class="cls-2" d="M99.08,47.07v9.38c.09.86.85,1.37,2.27,1.54l-.1,1.68a5.09,5.09,0,0,1-4-1.4,16.41,16.41,0,0,1-6.58,1.43,4.59,4.59,0,0,1-3.57-1.35,5.54,5.54,0,0,1-1.22-3.85,5,5,0,0,1,1.24-3.71,6.44,6.44,0,0,1,3.9-1.48l6-.6V47.07a3.88,3.88,0,0,0-.85-2.82,3.12,3.12,0,0,0-2.3-.86,51.91,51.91,0,0,0-5.81.42L87,43.92l-.11-1.68a36.69,36.69,0,0,1,6.74-.74,5.53,5.53,0,0,1,4.18,1.37A5.89,5.89,0,0,1,99.08,47.07Zm-11,7.31q0,3.54,2.9,3.54a14.25,14.25,0,0,0,2.77-.3A17.41,17.41,0,0,0,96.14,57l.87-.32V50.36l-5.7.59a3,3,0,0,0-3.22,3.43Z"/><path class="cls-2" d="M102.65,41.85H105l4.37,15.68h1.4l4.55-15.68h2.17l-5.11,17.5h-4.58Z"/><path class="cls-2" d="M134,43.43q-4.12,0-4.13,3a2.09,2.09,0,0,0,.91,1.93,14.07,14.07,0,0,0,4.11,1.1,11.37,11.37,0,0,1,4.52,1.49c.87.63,1.31,1.83,1.31,3.62A4.51,4.51,0,0,1,139,58.46a8.52,8.52,0,0,1-5,1.24,32.23,32.23,0,0,1-5-.49l-1-.14.14-1.85a44.13,44.13,0,0,0,6,.59,6.14,6.14,0,0,0,3.27-.73,2.71,2.71,0,0,0,1.17-2.49,2.51,2.51,0,0,0-1-2.33,13.52,13.52,0,0,0-4.13-1.06A11.29,11.29,0,0,1,129,49.8c-.86-.61-1.3-1.75-1.3-3.43a4.07,4.07,0,0,1,1.79-3.68,8,8,0,0,1,4.41-1.15,38.34,38.34,0,0,1,5.25.45l.94.14L140.06,44A41.75,41.75,0,0,0,134,43.43Z"/><path class="cls-2" d="M153.82,43.71H148v8.64a12.89,12.89,0,0,0,.49,4.45q.49,1.05,2.31,1.05L154,57.6l.14,1.79a26,26,0,0,1-3.53.35c-1.77,0-3-.44-3.69-1.32s-1-2.55-1-5V43.71h-2.59V41.85h2.59V36.36H148v5.49h5.85Z"/><path class="cls-2" d="M155.43,41.85h2.13l4.66,15.68h1.26l4.69-15.68h2.13l-7.56,25.38h-2.1L163,59.35h-2.42Z"/><path class="cls-2" d="M173.84,59.35V41.85h2.06v2.52a19.18,19.18,0,0,1,3.17-1.75,15.11,15.11,0,0,1,3.45-1.12v2.1a19.33,19.33,0,0,0-3.15,1,26,26,0,0,0-2.56,1.14l-.91.53V59.35Z"/><path class="cls-2" d="M193.4,67.23V41.85h2.07v1.33a10.82,10.82,0,0,1,5.76-1.68,5.12,5.12,0,0,1,4.51,2.14c1,1.42,1.49,3.74,1.49,6.94s-.59,5.53-1.75,7-3.11,2.15-5.81,2.15a19.31,19.31,0,0,1-4.2-.45v8Zm7.39-23.84a8.91,8.91,0,0,0-2.49.39,9.52,9.52,0,0,0-2.06.8l-.77.39V57.43a24.12,24.12,0,0,0,4.13.42c2,0,3.42-.57,4.23-1.7s1.23-3,1.23-5.6S204.7,46.1,204,45A3.56,3.56,0,0,0,200.79,43.39Z"/><path class="cls-2" d="M223.75,47.07v9.38c.09.86.85,1.37,2.27,1.54l-.1,1.68a5.09,5.09,0,0,1-4-1.4,16.41,16.41,0,0,1-6.58,1.43,4.59,4.59,0,0,1-3.57-1.35,5.54,5.54,0,0,1-1.22-3.85,5,5,0,0,1,1.24-3.71,6.44,6.44,0,0,1,3.9-1.48l6-.6V47.07a3.88,3.88,0,0,0-.85-2.82,3.13,3.13,0,0,0-2.3-.86,51.91,51.91,0,0,0-5.81.42l-1.08.11-.11-1.68a36.69,36.69,0,0,1,6.74-.74,5.55,5.55,0,0,1,4.18,1.37A5.89,5.89,0,0,1,223.75,47.07Zm-11,7.31q0,3.54,2.9,3.54a14.33,14.33,0,0,0,2.77-.3,17.81,17.81,0,0,0,2.38-.61l.87-.32V50.36L216,51a3,3,0,0,0-3.22,3.43Zm5.16-14.14a3.54,3.54,0,0,1-2.5-6,3.54,3.54,0,0,1,5,5A3.41,3.41,0,0,1,217.92,40.24Zm0-5.56a1.92,1.92,0,0,0-1.44.59,2,2,0,0,0-.57,1.45,2.05,2.05,0,0,0,.57,1.47,2,2,0,0,0,2.88,0,2.05,2.05,0,0,0,.57-1.47,2,2,0,0,0-.57-1.45A1.92,1.92,0,0,0,217.92,34.68Z"/><path class="cls-2" d="M250,34.08V59.35h-2.1V58.06a10.89,10.89,0,0,1-5.6,1.64,7.45,7.45,0,0,1-2.24-.3,5.26,5.26,0,0,1-1.92-1.17q-2-1.78-2-7t1.68-7.47q1.68-2.28,5.67-2.28a29.53,29.53,0,0,1,4.41.46V34.08Zm-9,23.49a4.9,4.9,0,0,0,1.68.24,9,9,0,0,0,2.38-.38,17.1,17.1,0,0,0,2.12-.74l.73-.38V43.78a31.24,31.24,0,0,0-4.34-.42c-2,0-3.35.6-4.11,1.82a10.85,10.85,0,0,0-1.14,5.63q0,4.48,1.37,5.85A3.94,3.94,0,0,0,241,57.57Z"/><path class="cls-2" d="M255.18,37.48V34.85h2.06v2.63Zm0,21.87V41.85h2.06v17.5Z"/><path class="cls-2" d="M271.35,43.71H265.5v8.64A12.89,12.89,0,0,0,266,56.8q.5,1.05,2.31,1.05l3.22-.25.14,1.79a26.1,26.1,0,0,1-3.53.35q-2.67,0-3.69-1.32c-.69-.87-1-2.55-1-5V43.71h-2.59V41.85h2.59V36.36h2.1v5.49h5.85Z"/><path class="cls-2" d="M293.4,41.85h2.06v17.5H293.4V58.06A10.35,10.35,0,0,1,288,59.7q-3.57,0-4.71-1.82T282.16,51V41.85h2.07V51q0,4.06.75,5.46c.5.93,1.59,1.4,3.27,1.4a9,9,0,0,0,2.52-.37,8.57,8.57,0,0,0,2-.75l.67-.35Z"/><path class="cls-2" d="M313.8,34.08V59.35h-2.1V58.06a10.89,10.89,0,0,1-5.6,1.64,7.45,7.45,0,0,1-2.24-.3,5.26,5.26,0,0,1-1.92-1.17q-2-1.78-2-7t1.68-7.47q1.68-2.28,5.67-2.28a29.53,29.53,0,0,1,4.41.46V34.08Zm-9,23.49a4.9,4.9,0,0,0,1.68.24,9,9,0,0,0,2.38-.38,17.1,17.1,0,0,0,2.12-.74l.73-.38V43.78a31.37,31.37,0,0,0-4.34-.42c-2,0-3.35.6-4.11,1.82a10.85,10.85,0,0,0-1.14,5.63q0,4.48,1.37,5.85A3.94,3.94,0,0,0,304.79,57.57Z"/><path class="cls-2" d="M324.3,43.43q-4.12,0-4.13,3a2.09,2.09,0,0,0,.91,1.93,14.07,14.07,0,0,0,4.11,1.1,11.37,11.37,0,0,1,4.52,1.49c.87.63,1.31,1.83,1.31,3.62a4.53,4.53,0,0,1-1.71,3.92,8.56,8.56,0,0,1-5,1.24,32.12,32.12,0,0,1-5-.49l-1-.14.14-1.85a44.13,44.13,0,0,0,6,.59,6.14,6.14,0,0,0,3.27-.73,2.71,2.71,0,0,0,1.18-2.49,2.49,2.49,0,0,0-1-2.33,13.52,13.52,0,0,0-4.13-1.06,11.29,11.29,0,0,1-4.46-1.4c-.86-.61-1.29-1.75-1.29-3.43a4.06,4.06,0,0,1,1.78-3.68,8,8,0,0,1,4.41-1.15,38.34,38.34,0,0,1,5.25.45l.95.14L330.36,44A42,42,0,0,0,324.3,43.43Z"/><path class="cls-2" d="M344.11,43.71h-5.84v8.64a12.64,12.64,0,0,0,.49,4.45q.48,1.05,2.31,1.05l3.22-.25.14,1.79a26.07,26.07,0,0,1-3.54.35q-2.65,0-3.69-1.32c-.69-.87-1-2.55-1-5V43.71h-2.59V41.85h2.59V36.36h2.1v5.49h5.84Z"/><path class="cls-2" d="M345.72,41.85h2.14l4.65,15.68h1.26l4.69-15.68h2.14L353,67.23h-2.09l2.34-7.88h-2.42Z"/><path class="cls-2" d="M364.13,59.35V41.85h2.06v2.52a19.18,19.18,0,0,1,3.17-1.75,15.11,15.11,0,0,1,3.45-1.12v2.1a20,20,0,0,0-3.15,1,26,26,0,0,0-2.56,1.14l-.91.53V59.35Z"/><path class="cls-2" d="M384.11,59.35v-3.5h2.31v3.5Zm.14-7.8L384.15,35h2.2l-.14,16.52Z"/></g></svg>
