<svg xmlns="http://www.w3.org/2000/svg" width="156.08mm" height="26.93mm" viewBox="0 0 442.44 76.33"><defs><style>.cls-1{fill:none;}.cls-1,.cls-2,.cls-3{stroke:#cbcdd2;stroke-miterlimit:10;stroke-width:2px;}.cls-2{fill:#6ab42d;}.cls-3{fill:#414b5a;}.cls-4{fill:#fff;}</style></defs><title>progres5</title><g id="arbejdslag_start"><line class="cls-1" x1="32.99" y1="37.91" x2="414.72" y2="37.91"/><circle class="cls-2" cx="407" cy="37.91" r="25.83"/><circle class="cls-3" cx="131.3" cy="37.91" r="22.04"/><circle class="cls-3" cx="221.94" cy="37.91" r="22.04"/><circle class="cls-3" cx="312.58" cy="37.91" r="22.04"/><circle class="cls-3" cx="40.67" cy="37.91" r="22.04"/><path class="cls-4" d="M44.05,29.15V46.31h-2V31.39L37.63,34.3l-.91-1.5,5.46-3.65Z"/><path class="cls-4" d="M137.57,45.66h-11V44l5-5.28c.87-.9,1.5-1.58,1.9-2A8,8,0,0,0,134.59,35a4.26,4.26,0,0,0,.48-1.92,2.72,2.72,0,0,0-.91-2.34,4.77,4.77,0,0,0-2.83-.68,17.91,17.91,0,0,0-3.77.45l-.68.13-.16-1.67a18.52,18.52,0,0,1,5.1-.7,6.07,6.07,0,0,1,4,1.11,4.24,4.24,0,0,1,1.34,3.49,6.12,6.12,0,0,1-.8,3.17,16.81,16.81,0,0,1-2.78,3.25L129,43.92h8.61Z"/><path class="cls-4" d="M217.56,29.23a18.48,18.48,0,0,1,5.24-.72,6.19,6.19,0,0,1,4,1.06A4.23,4.23,0,0,1,228.09,33a3.58,3.58,0,0,1-.32,1.73c-.22.35-.39.63-.52.82a2.57,2.57,0,0,1-.51.54,7.35,7.35,0,0,1-.91.63l-.29.18a5.19,5.19,0,0,1,2.24,1.39,4.2,4.2,0,0,1,.73,2.77,5.16,5.16,0,0,1-1.34,3.9,6,6,0,0,1-4.23,1.27,24,24,0,0,1-4.83-.52l-.81-.18.18-1.64a26.62,26.62,0,0,0,5.26.57q3.7,0,3.71-3.32c0-2.07-1.17-3.14-3.53-3.23h-3.46V36.18h3.46a3.14,3.14,0,0,0,2.1-.88,2.86,2.86,0,0,0,1-2.3,2.45,2.45,0,0,0-.81-2.06,4.39,4.39,0,0,0-2.7-.64,21.68,21.68,0,0,0-4.11.39l-.68.13Z"/><path class="cls-4" d="M315.18,46V42.6h-8.32V41l4.89-12.25h2.18l-5,12h6.21V35.47h2v5.36h2.19V42.6h-2.19V46Z"/><path class="cls-4" d="M412.13,27.79v1.82h-8.35l-.47,5.59a8.52,8.52,0,0,1,4-1.06q5.46,0,5.46,5.07a6,6,0,0,1-1.51,4.44,5.66,5.66,0,0,1-4.23,1.54,23.26,23.26,0,0,1-4.84-.58l-.86-.18.24-1.58a27.64,27.64,0,0,0,5,.57,4.13,4.13,0,0,0,3.08-1.06,4,4,0,0,0,1-3,3.35,3.35,0,0,0-.95-2.69,4.07,4.07,0,0,0-2.69-.79,8.21,8.21,0,0,0-2,.26,9.21,9.21,0,0,0-1.57.52L403,37l-1.38-.26.47-8.92Z"/></g></svg>
