<svg xmlns="http://www.w3.org/2000/svg" width="151.58mm" height="22.06mm" viewBox="0 0 429.67 62.53"><defs><style>.cls-1{fill:none;}.cls-1,.cls-2,.cls-3{stroke:#cbcdd2;stroke-miterlimit:10;stroke-width:2px;}.cls-2{fill:#6ab42d;}.cls-3{fill:#414b5a;}.cls-4{fill:#fff;}</style></defs><title>progres2</title><g id="arbejdslag_start"><line class="cls-1" x1="11.99" y1="31.26" x2="393.72" y2="31.26"/><circle class="cls-2" cx="123.22" cy="31.26" r="25.83"/><circle class="cls-3" cx="30.13" cy="27.95" r="22.04"/><circle class="cls-3" cx="216.31" cy="27.72" r="22.04"/><circle class="cls-3" cx="305.62" cy="27.84" r="22.04"/><circle class="cls-3" cx="394.93" cy="27.6" r="22.04"/><path class="cls-4" d="M32.67,19.69V36.85h-2V21.93l-4.42,2.91-.91-1.51,5.46-3.64Z"/><path class="cls-4" d="M128.26,38.67h-11V37l5-5.28c.87-.9,1.5-1.58,1.9-2.05A8.28,8.28,0,0,0,125.29,28a4.26,4.26,0,0,0,.48-1.92,2.75,2.75,0,0,0-.91-2.34A4.79,4.79,0,0,0,122,23a18.06,18.06,0,0,0-3.77.45l-.67.13L117.42,22a18.52,18.52,0,0,1,5.1-.7,6.13,6.13,0,0,1,4,1.1,4.3,4.3,0,0,1,1.34,3.5A6.14,6.14,0,0,1,127,29a16.86,16.86,0,0,1-2.79,3.25l-4.57,4.66h8.6Z"/><path class="cls-4" d="M210.31,18.36a18.08,18.08,0,0,1,5.24-.73,6.18,6.18,0,0,1,4,1.07,4.24,4.24,0,0,1,1.25,3.4,3.4,3.4,0,0,1-.33,1.73c-.21.36-.39.63-.52.82a2.54,2.54,0,0,1-.5.55,7.84,7.84,0,0,1-.91.62l-.29.18a5.26,5.26,0,0,1,2.24,1.4,4.22,4.22,0,0,1,.73,2.76,5.16,5.16,0,0,1-1.34,3.9,6,6,0,0,1-4.23,1.28,24.63,24.63,0,0,1-4.83-.52l-.81-.18.18-1.64a26.44,26.44,0,0,0,5.25.57q3.72,0,3.72-3.33,0-3.09-3.53-3.22h-3.46V25.3h3.46a3.2,3.2,0,0,0,2.1-.87,2.88,2.88,0,0,0,1-2.3,2.49,2.49,0,0,0-.81-2.07,4.47,4.47,0,0,0-2.7-.63,21.68,21.68,0,0,0-4.11.39l-.68.13Z"/><path class="cls-4" d="M307.74,36.26V32.91h-8.32V31.35l4.89-12.25h2.18l-5,12h6.22V25.78h2v5.36h2.18v1.77h-2.18v3.35Z"/><path class="cls-4" d="M400.72,19.33v1.82h-8.35l-.46,5.59a8.48,8.48,0,0,1,4-1.07q5.46,0,5.46,5.07a6.13,6.13,0,0,1-1.51,4.45,5.69,5.69,0,0,1-4.24,1.53,23.2,23.2,0,0,1-4.84-.57L390,36l.23-1.59a27.64,27.64,0,0,0,5,.57,4.15,4.15,0,0,0,3.08-1.05,4,4,0,0,0,1-2.95,3.3,3.3,0,0,0-.95-2.69,4.07,4.07,0,0,0-2.69-.8,7.69,7.69,0,0,0-2,.27,7.91,7.91,0,0,0-1.57.52l-.55.25-1.38-.25.47-8.92Z"/></g></svg>
