<svg xmlns="http://www.w3.org/2000/svg" width="153.81mm" height="27.7mm" viewBox="0 0 435.99 78.52"><defs><style>.cls-1{fill:none;}.cls-1,.cls-2,.cls-3{stroke:#cbcdd2;stroke-miterlimit:10;stroke-width:2px;}.cls-2{fill:#6ab42d;}.cls-3{fill:#414b5a;}.cls-4{fill:#fff;}</style></defs><title>progres3</title><g id="arbejdslag_start"><line class="cls-1" x1="12.66" y1="42.3" x2="394.4" y2="42.3"/><circle class="cls-2" cx="217.85" cy="42.3" r="25.83"/><circle class="cls-3" cx="124.35" cy="39.93" r="22.04"/><circle class="cls-3" cx="34.64" cy="39.46" r="22.04"/><circle class="cls-3" cx="311.35" cy="40.41" r="22.04"/><circle class="cls-3" cx="401.07" cy="38.99" r="22.04"/><path class="cls-4" d="M38,30.71V47.87H36V32.94L31.6,35.85l-.91-1.5,5.46-3.64Z"/><path class="cls-4" d="M130.61,47.68h-11V46l5-5.27c.87-.91,1.5-1.59,1.9-2.06A8.2,8.2,0,0,0,127.64,37a4.3,4.3,0,0,0,.48-1.93,2.72,2.72,0,0,0-.91-2.34,4.79,4.79,0,0,0-2.84-.67,18,18,0,0,0-3.77.44l-.67.13L119.77,31a18.53,18.53,0,0,1,5.1-.71,6.07,6.07,0,0,1,4,1.11,4.24,4.24,0,0,1,1.34,3.49,6.15,6.15,0,0,1-.8,3.18,17.17,17.17,0,0,1-2.79,3.25L122,45.94h8.6Z"/><path class="cls-4" d="M212.66,32.37a18.48,18.48,0,0,1,5.24-.72,6.19,6.19,0,0,1,4,1.06,4.23,4.23,0,0,1,1.25,3.41,3.56,3.56,0,0,1-.32,1.73c-.22.35-.39.63-.52.82a2.57,2.57,0,0,1-.51.54,7,7,0,0,1-.91.63l-.29.18a5.25,5.25,0,0,1,2.24,1.39,4.25,4.25,0,0,1,.73,2.77,5.16,5.16,0,0,1-1.34,3.9A6,6,0,0,1,218,49.35a24,24,0,0,1-4.83-.52l-.81-.18.18-1.64a26.62,26.62,0,0,0,5.26.57q3.71,0,3.71-3.32c0-2.07-1.18-3.14-3.53-3.23h-3.46V39.32H218a3.14,3.14,0,0,0,2.1-.88,2.86,2.86,0,0,0,1-2.3,2.45,2.45,0,0,0-.81-2.06,4.39,4.39,0,0,0-2.7-.64,21.68,21.68,0,0,0-4.11.39l-.68.13Z"/><path class="cls-4" d="M313.09,47.27V43.92h-8.32V42.36l4.89-12.25h2.18l-5,12h6.21V36.8h2v5.35h2.19v1.77h-2.19v3.35Z"/><path class="cls-4" d="M406.07,29.34v1.82h-8.34l-.47,5.59a8.51,8.51,0,0,1,4-1.07c3.64,0,5.46,1.7,5.46,5.08a6,6,0,0,1-1.51,4.44A5.68,5.68,0,0,1,401,46.74a23.25,23.25,0,0,1-4.83-.58l-.86-.18.23-1.59a27,27,0,0,0,5,.58,4.11,4.11,0,0,0,3.08-1.06,4,4,0,0,0,1-2.95,3.35,3.35,0,0,0-.94-2.69,4.1,4.1,0,0,0-2.7-.79,8.2,8.2,0,0,0-2,.26,8.91,8.91,0,0,0-1.57.52l-.55.26-1.38-.26.47-8.92Z"/></g></svg>
