<svg xmlns="http://www.w3.org/2000/svg" width="150.73mm" height="24.8mm" viewBox="0 0 427.27 70.3"><defs><style>.cls-1{fill:none;}.cls-1,.cls-2,.cls-3{stroke:#cbcdd2;stroke-miterlimit:10;stroke-width:2px;}.cls-2{fill:#6ab42d;}.cls-3{fill:#414b5a;}.cls-4{fill:#fff;}</style></defs><title>progres1</title><g id="arbejdslag_start"><line class="cls-1" x1="5.25" y1="35.68" x2="386.99" y2="35.68"/><circle class="cls-2" cx="31.08" cy="33.79" r="25.83"/><circle class="cls-3" cx="124.38" cy="32.84" r="22.04"/><circle class="cls-3" cx="213.9" cy="31.9" r="22.04"/><circle class="cls-3" cx="303.42" cy="33.79" r="22.04"/><circle class="cls-3" cx="392.94" cy="30.95" r="22.04"/><path class="cls-4" d="M32.91,24.22V41.38h-2V26.46l-4.42,2.91-.91-1.51L31,24.22Z"/><path class="cls-4" d="M130.51,40.2h-11V38.51l5-5.28c.87-.9,1.5-1.58,1.9-2a8,8,0,0,0,1.08-1.67,4.26,4.26,0,0,0,.48-1.92,2.72,2.72,0,0,0-.91-2.34,4.77,4.77,0,0,0-2.83-.68,17.91,17.91,0,0,0-3.77.45l-.68.13-.16-1.67a18.52,18.52,0,0,1,5.1-.7,6.07,6.07,0,0,1,4,1.11,4.24,4.24,0,0,1,1.34,3.49,6,6,0,0,1-.8,3.17,16.81,16.81,0,0,1-2.78,3.25l-4.58,4.66h8.61Z"/><path class="cls-4" d="M207.55,22.89a18.48,18.48,0,0,1,5.24-.73,6.16,6.16,0,0,1,4,1.07,4.23,4.23,0,0,1,1.25,3.41,3.51,3.51,0,0,1-.32,1.72c-.22.36-.39.63-.52.82a2.6,2.6,0,0,1-.51.55,7.06,7.06,0,0,1-.91.62l-.29.19a5.1,5.1,0,0,1,2.24,1.39,4.18,4.18,0,0,1,.73,2.77,5.16,5.16,0,0,1-1.34,3.9,6,6,0,0,1-4.23,1.27,24,24,0,0,1-4.83-.52l-.81-.18.18-1.64a26.62,26.62,0,0,0,5.26.57q3.72,0,3.72-3.33,0-3.09-3.54-3.22h-3.46V29.83h3.46A3.18,3.18,0,0,0,215,29a2.86,2.86,0,0,0,1-2.3,2.45,2.45,0,0,0-.81-2.06,4.37,4.37,0,0,0-2.7-.64,21.68,21.68,0,0,0-4.11.39l-.67.13Z"/><path class="cls-4" d="M306,40.79V37.44h-8.32V35.88l4.89-12.25h2.18l-5,12H306V30.31h2v5.36h2.19v1.77H308v3.35Z"/><path class="cls-4" d="M399,22.86v1.82h-8.34l-.47,5.59a8.51,8.51,0,0,1,4-1.07q5.46,0,5.46,5.07a6.07,6.07,0,0,1-1.51,4.45,5.68,5.68,0,0,1-4.24,1.53,23.19,23.19,0,0,1-4.83-.57l-.86-.18.23-1.59a27.74,27.74,0,0,0,5,.57,4.16,4.16,0,0,0,3.08-1,4,4,0,0,0,1-3,3.35,3.35,0,0,0-.95-2.69A4.09,4.09,0,0,0,394,31a7.74,7.74,0,0,0-2,.26,8.15,8.15,0,0,0-1.57.52l-.55.26-1.37-.26.46-8.92Z"/></g></svg>
