<svg xmlns="http://www.w3.org/2000/svg" width="156.04mm" height="26.41mm" viewBox="0 0 442.33 74.87"><defs><style>.cls-1{fill:none;}.cls-1,.cls-2,.cls-3{stroke:#cbcdd2;stroke-miterlimit:10;stroke-width:2px;}.cls-2{fill:#6ab42d;}.cls-3{fill:#414b5a;}.cls-4{fill:#fff;}</style></defs><title>progres4</title><g id="arbejdslag_start"><line class="cls-1" x1="22.32" y1="36.35" x2="404.06" y2="36.35"/><circle class="cls-2" cx="309.19" cy="36.35" r="25.83"/><circle class="cls-3" cx="126.73" cy="33.99" r="22.04"/><circle class="cls-3" cx="216.07" cy="33.52" r="22.04"/><circle class="cls-3" cx="37.39" cy="33.04" r="22.04"/><circle class="cls-3" cx="402.31" cy="34.46" r="22.04"/><path class="cls-4" d="M40.78,25.29V42.45h-2V27.53l-4.42,2.91-.91-1.51,5.46-3.64Z"/><path class="cls-4" d="M133,41.74H122V40.05l5-5.28c.87-.9,1.5-1.58,1.9-2.05A8,8,0,0,0,130,31.05a4.26,4.26,0,0,0,.48-1.92,2.75,2.75,0,0,0-.91-2.34,4.79,4.79,0,0,0-2.84-.68,18.06,18.06,0,0,0-3.77.45l-.67.13L122.15,25a18.52,18.52,0,0,1,5.1-.7,6.13,6.13,0,0,1,4,1.1,4.27,4.27,0,0,1,1.34,3.5,6.12,6.12,0,0,1-.8,3.17A16.57,16.57,0,0,1,129,35.34L124.39,40H133Z"/><path class="cls-4" d="M210.66,24.73A18.48,18.48,0,0,1,215.9,24a6.21,6.21,0,0,1,4,1.07,4.26,4.26,0,0,1,1.24,3.41,3.51,3.51,0,0,1-.32,1.72c-.22.36-.39.63-.52.82a2.6,2.6,0,0,1-.51.55,7.06,7.06,0,0,1-.91.62l-.28.19a5.12,5.12,0,0,1,2.23,1.39,4.18,4.18,0,0,1,.73,2.77,5.16,5.16,0,0,1-1.34,3.9,6,6,0,0,1-4.22,1.27,24,24,0,0,1-4.84-.52L210.4,41l.19-1.64a26.44,26.44,0,0,0,5.25.57q3.72,0,3.72-3.33,0-3.09-3.54-3.22h-3.46V31.67H216a3.22,3.22,0,0,0,2.11-.87,2.89,2.89,0,0,0,1-2.3,2.49,2.49,0,0,0-.81-2.07,4.45,4.45,0,0,0-2.7-.63,21.68,21.68,0,0,0-4.11.39l-.67.13Z"/><path class="cls-4" d="M311.27,44.05V40.7H303V39.14l4.89-12.25H310l-5,12h6.21V33.58h2v5.35h2.19V40.7h-2.19v3.35Z"/><path class="cls-4" d="M408.32,25.82v1.82H400l-.46,5.59a8.48,8.48,0,0,1,4-1.07q5.46,0,5.46,5.07a6.13,6.13,0,0,1-1.51,4.45,5.69,5.69,0,0,1-4.24,1.53,23.2,23.2,0,0,1-4.84-.57l-.85-.18.23-1.59a27.64,27.64,0,0,0,5,.57,4.15,4.15,0,0,0,3.08-1,4,4,0,0,0,1-3,3.3,3.3,0,0,0-.95-2.69,4.07,4.07,0,0,0-2.69-.8,8.13,8.13,0,0,0-2,.26,9.49,9.49,0,0,0-1.57.52l-.55.26-1.38-.26.47-8.91Z"/></g></svg>
