<svg xmlns="http://www.w3.org/2000/svg" width="173.74mm" height="43.91mm" viewBox="0 0 492.49 124.47"><defs><style>.cls-1{fill:#28292c;}.cls-2{fill:#fff;}</style></defs><title>rigtig</title><g id="overskrift"><rect class="cls-1" x="29.97" y="22" width="438.93" height="84"/><path class="cls-2" d="M176.75,65V78.25H172.9V43.65h12.8q5.49,0,8.27,2.55t2.78,7.95q0,8-6.35,10.05l6.65,14H192.8L186.55,65Zm9-3.4q7,0,7.05-7.27t-7.1-7.28h-8.95V61.6Z"/><path class="cls-2" d="M203.05,47.6V43.25h3.75V47.6Zm0,30.65v-25h3.75v25Z"/><path class="cls-2" d="M223.65,90c-4,0-6.8-.54-8.38-1.62s-2.37-3.06-2.37-5.93a5.64,5.64,0,0,1,.9-3.32,13.89,13.89,0,0,1,3-2.88c-.94-.63-1.4-1.78-1.4-3.45a8.55,8.55,0,0,1,1.25-3.15l.45-.8c-2.64-1.2-4-3.71-4-7.55q0-8.55,9.35-8.55a19,19,0,0,1,4.45.5l.75.15,7.4-.2v3.2l-4.75-.1a6.8,6.8,0,0,1,1.65,5q0,4.71-2.33,6.58t-7.32,1.87a13.13,13.13,0,0,1-2.45-.2,10.56,10.56,0,0,0-.9,2.85c0,1,.31,1.68.95,1.93a23.86,23.86,0,0,0,5.75.37q4.8,0,6.9,1.5t2.1,5.85Q234.75,90,223.65,90Zm-7.05-7.85c0,1.77.49,3,1.47,3.68s2.8,1,5.45,1,4.55-.36,5.7-1.1A4,4,0,0,0,231,82.08c0-1.72-.42-2.83-1.25-3.33s-2.47-.75-4.9-.75l-5.4-.25a8.82,8.82,0,0,0-2.23,2.1A4.24,4.24,0,0,0,216.6,82.15ZM217,61.3q0,3,1.32,4.2c.88.84,2.34,1.25,4.38,1.25s3.48-.41,4.35-1.25,1.3-2.24,1.3-4.22-.44-3.39-1.3-4.23-2.32-1.25-4.35-1.25-3.5.43-4.38,1.28S217,59.34,217,61.3Z"/><path class="cls-2" d="M252.65,56.5h-8v12c0,2.87.2,4.75.62,5.65s1.41,1.35,3,1.35l4.45-.3.25,3.1a33.92,33.92,0,0,1-5.1.55q-3.9,0-5.4-1.9T241,69.65V56.5h-3.55V53.25H241V45.6h3.7v7.65h8Z"/><path class="cls-2" d="M257.25,47.6V43.25H261V47.6Zm0,30.65v-25H261v25Z"/><path class="cls-2" d="M277.85,90c-4,0-6.8-.54-8.38-1.62s-2.37-3.06-2.37-5.93a5.64,5.64,0,0,1,.9-3.32,13.89,13.89,0,0,1,3.05-2.88c-.94-.63-1.4-1.78-1.4-3.45a8.55,8.55,0,0,1,1.25-3.15l.45-.8c-2.64-1.2-4-3.71-4-7.55q0-8.55,9.35-8.55a19,19,0,0,1,4.45.5l.75.15,7.4-.2v3.2l-4.75-.1a6.8,6.8,0,0,1,1.65,5q0,4.71-2.33,6.58t-7.32,1.87a13.13,13.13,0,0,1-2.45-.2,10.56,10.56,0,0,0-.9,2.85c0,1,.31,1.68.95,1.93a23.86,23.86,0,0,0,5.75.37q4.8,0,6.9,1.5t2.1,5.85Q289,90,277.85,90Zm-7.05-7.85c0,1.77.49,3,1.47,3.68s2.8,1,5.45,1,4.55-.36,5.7-1.1a4,4,0,0,0,1.73-3.67c0-1.72-.42-2.83-1.25-3.33S281.43,78,279,78l-5.4-.25a8.82,8.82,0,0,0-2.23,2.1A4.24,4.24,0,0,0,270.8,82.15Zm.35-20.85q0,3,1.32,4.2c.88.84,2.34,1.25,4.38,1.25s3.48-.41,4.35-1.25,1.3-2.24,1.3-4.22-.44-3.39-1.3-4.23-2.32-1.25-4.35-1.25-3.5.43-4.38,1.28S271.15,59.34,271.15,61.3Z"/><path class="cls-2" d="M306.85,56.5h-8v12c0,2.87.2,4.75.62,5.65s1.41,1.35,3,1.35l4.45-.3.25,3.1a33.92,33.92,0,0,1-5.1.55q-3.9,0-5.4-1.9t-1.5-7.25V56.5h-3.55V53.25h3.55V45.6h3.7v7.65h8Z"/><path class="cls-2" d="M323,78.25v-5.6h4.1v5.6Zm.31-11.4-.25-23.2H327l-.25,23.2Z"/></g></svg>
