<svg xmlns="http://www.w3.org/2000/svg" width="213.8mm" height="95.64mm" viewBox="0 0 606.04 271.11"><defs><style>.cls-1{fill:#28292c;}.cls-2{fill:#fff;}</style></defs><title>spørgsmål 5</title><g id="arbejdslag_start"><polygon class="cls-1" points="570.25 222.09 564.5 185.86 586.99 185.86 586.99 9.09 36.36 9.09 36.36 164.36 36.36 185.86 80.41 185.86 76.36 218.91 58.13 216.07 82.59 256.28 120.54 229.97 104.82 224.65 130.06 185.86 290.92 185.86 296.23 223.06 277.99 225.87 313.46 256.8 341.68 220.24 325.08 219.93 332.1 185.86 516.69 185.86 541.81 227.91 526.11 233.27 564.13 259.47 588.48 219.2 570.25 222.09"/><path class="cls-2" d="M274.93,57.43a38.51,38.51,0,0,1-7.39.88,15.44,15.44,0,0,1-4.93-.65,7.87,7.87,0,0,1-3.05-1.83,8.15,8.15,0,0,1-1.85-3.07,28,28,0,0,1-1.26-9.36q0-9.49,3-12.56Q262,28.28,267,28.28a40.52,40.52,0,0,1,7.89.88l-.12,2.27a41.37,41.37,0,0,0-7-.8,11.56,11.56,0,0,0-4.09.57,6.28,6.28,0,0,0-2.35,1.51A6,6,0,0,0,260,35.33a25.78,25.78,0,0,0-.84,7.14,52.28,52.28,0,0,0,.29,6.41,12.83,12.83,0,0,0,1.14,3.84,5,5,0,0,0,2.48,2.48,11.08,11.08,0,0,0,4.53.76,41.5,41.5,0,0,0,7.23-.8Z"/><path class="cls-2" d="M277.07,36.89h2.57l5.58,18.81h1.52l5.62-18.81h2.57l-9.08,30.45h-2.52l2.82-9.45h-2.9Z"/><path class="cls-2" d="M301.64,57.89h-2.47V27.56h2.47V45.62l3.58-.08,6.46-8.65h2.9l-7.18,9.62,7.52,11.38H312l-6.72-10.12-3.62.08Z"/><path class="cls-2" d="M319.16,57.89V27.56h2.48V57.89Z"/><path class="cls-2" d="M342.09,55.79l1.26-.13.08,2.06a67.31,67.31,0,0,1-8,.59c-3,0-5.14-.93-6.34-2.69s-1.81-4.48-1.81-8.15q0-11,8.66-11,4.15,0,6.21,2.37t2.06,7.58l-.08,2H329.83c0,2.57.44,4.49,1.32,5.73S333.54,56,335.68,56,340,56,342.09,55.79Zm-12.26-9.45h11.84c0-2.77-.46-4.75-1.37-5.92a5.16,5.16,0,0,0-4.36-1.77,5.65,5.65,0,0,0-4.56,1.83C330.34,41.7,329.83,43.65,329.83,46.34Z"/><path class="cls-2" d="M351.83,57.89h-2.47v-21h2.47v1.55a14.1,14.1,0,0,1,6.85-2q4.2,0,5.61,2.22c.93,1.49,1.4,4.2,1.4,8.15v11h-2.52V47c0-3.22-.3-5.4-.92-6.53s-1.93-1.7-3.95-1.7a11.52,11.52,0,0,0-3.09.44,12.43,12.43,0,0,0-2.49.9l-.89.42Z"/><path class="cls-2" d="M184.63,103.94h-1.74v-7H175v7h-1.74V89H175v6.38h7.9V89h1.74Z"/><path class="cls-2" d="M191,103.94l-4.27-11.23h1.83l2.42,6.66a28.35,28.35,0,0,1,1,3H192a20.11,20.11,0,0,1,.71-2.25c.4-1.14,1.3-3.63,2.69-7.45h1.82l-4.26,11.23Z"/><path class="cls-2" d="M205.92,103.94l-.34-1.6h-.08a4.69,4.69,0,0,1-1.68,1.44,5.23,5.23,0,0,1-2.08.37,3.76,3.76,0,0,1-2.62-.86,3.12,3.12,0,0,1-1-2.45q0-3.41,5.44-3.57l1.91-.06v-.7a2.84,2.84,0,0,0-.57-2,2.33,2.33,0,0,0-1.82-.63,7.38,7.38,0,0,0-3.18.86l-.52-1.3a7.49,7.49,0,0,1,1.82-.71,7.92,7.92,0,0,1,2-.26,4.3,4.3,0,0,1,3,.89,3.72,3.72,0,0,1,1,2.86v7.67Zm-3.84-1.2a3.45,3.45,0,0,0,2.49-.87,3.2,3.2,0,0,0,.91-2.44v-1l-1.7.07a6.25,6.25,0,0,0-2.93.63,1.9,1.9,0,0,0-.9,1.74,1.76,1.76,0,0,0,.56,1.4A2.34,2.34,0,0,0,202.08,102.74Z"/><path class="cls-2" d="M218.34,102.44h-.09a4,4,0,0,1-3.53,1.71,4.16,4.16,0,0,1-3.43-1.51,6.59,6.59,0,0,1-1.23-4.28A6.73,6.73,0,0,1,211.29,94a4.14,4.14,0,0,1,3.43-1.54,4.1,4.1,0,0,1,3.51,1.66h.13l-.07-.81,0-.79V88H220v16h-1.39Zm-3.41.28a3.09,3.09,0,0,0,2.53-.94,4.85,4.85,0,0,0,.79-3.07v-.35a5.62,5.62,0,0,0-.8-3.41,3,3,0,0,0-2.54-1,2.6,2.6,0,0,0-2.29,1.16,5.8,5.8,0,0,0-.79,3.29,5.53,5.53,0,0,0,.79,3.25A2.66,2.66,0,0,0,214.93,102.72Z"/><path class="cls-2" d="M233.76,104.15a5.17,5.17,0,0,1-3.93-1.52,5.86,5.86,0,0,1-1.44-4.21,6.49,6.49,0,0,1,1.34-4.32,4.43,4.43,0,0,1,3.59-1.6,4.22,4.22,0,0,1,3.34,1.39,5.34,5.34,0,0,1,1.23,3.67v1.07h-7.74a4.47,4.47,0,0,0,1,3,3.46,3.46,0,0,0,2.67,1,9,9,0,0,0,3.59-.76v1.52a8.72,8.72,0,0,1-1.71.56A9.7,9.7,0,0,1,233.76,104.15Zm-.46-10.22a2.78,2.78,0,0,0-2.16.88,4.07,4.07,0,0,0-.95,2.44h5.88a3.75,3.75,0,0,0-.72-2.47A2.52,2.52,0,0,0,233.3,93.93Z"/><path class="cls-2" d="M245.92,92.5a6.74,6.74,0,0,1,1.34.12L247,94.2a6,6,0,0,0-1.23-.15,3,3,0,0,0-2.33,1.11,4,4,0,0,0-1,2.75v6h-1.71V92.71h1.41l.19,2.08h.09A4.88,4.88,0,0,1,244,93.1,3.39,3.39,0,0,1,245.92,92.5Z"/><path class="cls-2" d="M262.47,102.44h-.09a4,4,0,0,1-3.53,1.71,4.16,4.16,0,0,1-3.43-1.51,6.59,6.59,0,0,1-1.22-4.28A6.73,6.73,0,0,1,255.43,94a4.55,4.55,0,0,1,6.93.12h.13l-.07-.81,0-.79V88h1.7v16H262.7Zm-3.4.28a3.09,3.09,0,0,0,2.52-.94,4.79,4.79,0,0,0,.79-3.07v-.35a5.62,5.62,0,0,0-.8-3.41,3,3,0,0,0-2.53-1,2.61,2.61,0,0,0-2.3,1.16,5.8,5.8,0,0,0-.79,3.29,5.53,5.53,0,0,0,.79,3.25A2.68,2.68,0,0,0,259.07,102.72Z"/><path class="cls-2" d="M272.44,104.15a5.17,5.17,0,0,1-3.93-1.52,5.82,5.82,0,0,1-1.45-4.21,6.55,6.55,0,0,1,1.34-4.32,4.44,4.44,0,0,1,3.6-1.6,4.23,4.23,0,0,1,3.34,1.39,5.34,5.34,0,0,1,1.23,3.67v1.07h-7.74a4.47,4.47,0,0,0,1,3,3.46,3.46,0,0,0,2.67,1,9,9,0,0,0,3.59-.76v1.52a8.72,8.72,0,0,1-1.71.56A9.78,9.78,0,0,1,272.44,104.15ZM272,93.93a2.75,2.75,0,0,0-2.16.88,4.07,4.07,0,0,0-.95,2.44h5.87a3.75,3.75,0,0,0-.71-2.47A2.54,2.54,0,0,0,272,93.93Z"/><path class="cls-2" d="M287.16,103.94V96.67a3,3,0,0,0-.62-2,2.56,2.56,0,0,0-2-.67,3.23,3.23,0,0,0-2.59,1,4.88,4.88,0,0,0-.82,3.15v5.89h-1.7V92.71h1.39l.27,1.53h.09A3.38,3.38,0,0,1,282.68,93a4.69,4.69,0,0,1,2.1-.46,4.28,4.28,0,0,1,3.06,1,4.18,4.18,0,0,1,1,3.13v7.33Z"/><path class="cls-2" d="M306.33,92.48a3.41,3.41,0,0,1-.81,2.35,4,4,0,0,1-2.28,1.22v.08a4.28,4.28,0,0,1,2.68,1.15,3.37,3.37,0,0,1,.87,2.42,3.94,3.94,0,0,1-1.49,3.3,6.81,6.81,0,0,1-4.22,1.15,12.17,12.17,0,0,1-2.18-.18,7.45,7.45,0,0,1-1.92-.63v-1.62a9.4,9.4,0,0,0,2.07.73,9.29,9.29,0,0,0,2.09.25q3.89,0,3.88-3c0-1.82-1.42-2.73-4.28-2.73h-1.48V95.46h1.5a4.5,4.5,0,0,0,2.78-.77,2.55,2.55,0,0,0,1-2.15,2.12,2.12,0,0,0-.75-1.72,3.08,3.08,0,0,0-2.05-.63,6.22,6.22,0,0,0-1.85.27,8.62,8.62,0,0,0-2,1l-.86-1.14a7,7,0,0,1,2.13-1.15,7.85,7.85,0,0,1,2.53-.41,5.18,5.18,0,0,1,3.4,1A3.37,3.37,0,0,1,306.33,92.48Z"/><path class="cls-2" d="M309.58,102.86a1.5,1.5,0,0,1,.31-1,1.13,1.13,0,0,1,.9-.36,1.23,1.23,0,0,1,.93.36,1.46,1.46,0,0,1,.33,1,1.41,1.41,0,0,1-.34,1,1.21,1.21,0,0,1-.92.36,1.24,1.24,0,0,1-.87-.32A1.41,1.41,0,0,1,309.58,102.86Z"/><path class="cls-2" d="M328.12,100.88A2.82,2.82,0,0,1,327,103.3a5.49,5.49,0,0,1-3.28.85,7.16,7.16,0,0,1-3.49-.71v-1.58a8.22,8.22,0,0,0,1.74.65,7.09,7.09,0,0,0,1.79.23,4.1,4.1,0,0,0,2.05-.42,1.42,1.42,0,0,0,.72-1.3,1.4,1.4,0,0,0-.57-1.12,8.89,8.89,0,0,0-2.22-1.1,11.94,11.94,0,0,1-2.23-1,3.11,3.11,0,0,1-1-1,2.64,2.64,0,0,1-.32-1.33,2.49,2.49,0,0,1,1.12-2.16,5.17,5.17,0,0,1,3.06-.8,9,9,0,0,1,3.55.74l-.6,1.38a8.23,8.23,0,0,0-3.07-.69,3.47,3.47,0,0,0-1.83.38,1.16,1.16,0,0,0-.61,1,1.3,1.3,0,0,0,.23.77,2.38,2.38,0,0,0,.74.61,19.34,19.34,0,0,0,2,.83,7.17,7.17,0,0,1,2.7,1.46A2.58,2.58,0,0,1,328.12,100.88Z"/><path class="cls-2" d="M334.51,102.74a6.19,6.19,0,0,0,.88-.06,6,6,0,0,0,.66-.14v1.3a3,3,0,0,1-.81.22,5.93,5.93,0,0,1-1,.09c-2.18,0-3.26-1.15-3.26-3.44V94H329.4v-.82L331,92.5l.72-2.4h1v2.61H336V94h-3.26v6.61a2.28,2.28,0,0,0,.48,1.56A1.68,1.68,0,0,0,334.51,102.74Z"/><path class="cls-2" d="M348,98.32a6.17,6.17,0,0,1-1.39,4.29,4.88,4.88,0,0,1-3.82,1.54,5.14,5.14,0,0,1-2.73-.71l-.86,1.2-1.17-.8,1-1.34a7.3,7.3,0,0,1,.05-8.47,4.84,4.84,0,0,1,3.81-1.53,4.94,4.94,0,0,1,2.77.78l.86-1.22,1.2.78-1,1.36A6.26,6.26,0,0,1,348,98.32Zm-8.56,0a6.1,6.1,0,0,0,.54,2.79l4.77-6.62a3.29,3.29,0,0,0-1.94-.54A3,3,0,0,0,340.29,95,5.31,5.31,0,0,0,339.44,98.32Zm6.8,0a5.93,5.93,0,0,0-.53-2.71l-4.77,6.59a3.17,3.17,0,0,0,1.89.52,3,3,0,0,0,2.54-1.12A5.28,5.28,0,0,0,346.24,98.32Z"/><path class="cls-2" d="M356.11,92.5a6.74,6.74,0,0,1,1.34.12l-.23,1.58a6,6,0,0,0-1.23-.15,3,3,0,0,0-2.34,1.11,4.05,4.05,0,0,0-1,2.75v6H351V92.71h1.41l.19,2.08h.08a4.9,4.9,0,0,1,1.51-1.69A3.39,3.39,0,0,1,356.11,92.5Z"/><path class="cls-2" d="M366.8,100.88a2.84,2.84,0,0,1-1.16,2.42,5.5,5.5,0,0,1-3.29.85,7.11,7.11,0,0,1-3.48-.71v-1.58a8.22,8.22,0,0,0,1.74.65,7,7,0,0,0,1.79.23,4.13,4.13,0,0,0,2.05-.42,1.43,1.43,0,0,0,.71-1.3,1.4,1.4,0,0,0-.57-1.12,8.53,8.53,0,0,0-2.22-1.1,12.6,12.6,0,0,1-2.23-1,3.07,3.07,0,0,1-1-1,2.55,2.55,0,0,1-.32-1.33A2.51,2.51,0,0,1,360,93.3a5.23,5.23,0,0,1,3.07-.8,9,9,0,0,1,3.55.74L366,94.62a8.18,8.18,0,0,0-3.06-.69,3.47,3.47,0,0,0-1.83.38,1.16,1.16,0,0,0-.61,1,1.23,1.23,0,0,0,.23.77,2.38,2.38,0,0,0,.74.61,18.36,18.36,0,0,0,2,.83A7.35,7.35,0,0,1,366.1,99,2.57,2.57,0,0,1,366.8,100.88Z"/><path class="cls-2" d="M373.2,102.74a6.15,6.15,0,0,0,.87-.06,6.26,6.26,0,0,0,.67-.14v1.3a3.15,3.15,0,0,1-.81.22,6,6,0,0,1-1,.09c-2.18,0-3.26-1.15-3.26-3.44V94h-1.61v-.82l1.61-.71.71-2.4h1v2.61h3.26V94H371.4v6.61a2.28,2.28,0,0,0,.48,1.56A1.68,1.68,0,0,0,373.2,102.74Z"/><path class="cls-2" d="M381.73,104.15a5.17,5.17,0,0,1-3.93-1.52,5.86,5.86,0,0,1-1.44-4.21,6.55,6.55,0,0,1,1.34-4.32,4.43,4.43,0,0,1,3.59-1.6,4.24,4.24,0,0,1,3.35,1.39,5.34,5.34,0,0,1,1.23,3.67v1.07h-7.75a4.52,4.52,0,0,0,1,3,3.5,3.5,0,0,0,2.68,1,8.93,8.93,0,0,0,3.58-.76v1.52a8.86,8.86,0,0,1-1.7.56A9.88,9.88,0,0,1,381.73,104.15Zm-.46-10.22a2.78,2.78,0,0,0-2.16.88,4.07,4.07,0,0,0-.94,2.44H384a3.75,3.75,0,0,0-.72-2.47A2.52,2.52,0,0,0,381.27,93.93Z"/><path class="cls-2" d="M401.13,103.94l-.33-1.6h-.09a4.75,4.75,0,0,1-1.67,1.44,5.32,5.32,0,0,1-2.09.37,3.78,3.78,0,0,1-2.62-.86,3.16,3.16,0,0,1-.95-2.45q0-3.41,5.45-3.57l1.9-.06v-.7a2.89,2.89,0,0,0-.56-2,2.35,2.35,0,0,0-1.82-.63,7.31,7.31,0,0,0-3.18.86l-.53-1.3a7.66,7.66,0,0,1,1.82-.71,7.94,7.94,0,0,1,2-.26,4.31,4.31,0,0,1,3,.89,3.76,3.76,0,0,1,1,2.86v7.67Zm-3.84-1.2a3.47,3.47,0,0,0,2.5-.87,3.23,3.23,0,0,0,.9-2.44v-1l-1.7.07a6.28,6.28,0,0,0-2.93.63,1.91,1.91,0,0,0-.89,1.74,1.73,1.73,0,0,0,.56,1.4A2.31,2.31,0,0,0,397.29,102.74ZM400.66,89a2.16,2.16,0,0,1-.63,1.62,2.59,2.59,0,0,1-3.33,0,2.15,2.15,0,0,1-.61-1.61,2.09,2.09,0,0,1,.62-1.59,2.6,2.6,0,0,1,3.32,0A2.08,2.08,0,0,1,400.66,89Zm-1.1,0a1.16,1.16,0,0,0-.34-.88,1.36,1.36,0,0,0-1.73,0,1.15,1.15,0,0,0-.33.88,1.23,1.23,0,0,0,.3.89,1.22,1.22,0,0,0,.9.31,1.2,1.2,0,0,0,.86-.31A1.17,1.17,0,0,0,399.56,89Z"/><path class="cls-2" d="M411,92.5a6.74,6.74,0,0,1,1.34.12l-.23,1.58a6,6,0,0,0-1.23-.15,3,3,0,0,0-2.34,1.11,4.05,4.05,0,0,0-1,2.75v6h-1.7V92.71h1.41l.19,2.08h.08a4.9,4.9,0,0,1,1.51-1.69A3.39,3.39,0,0,1,411,92.5Z"/><path class="cls-2" d="M421.72,100.88a2.84,2.84,0,0,1-1.16,2.42,5.5,5.5,0,0,1-3.29.85,7.11,7.11,0,0,1-3.48-.71v-1.58a8.22,8.22,0,0,0,1.74.65,7,7,0,0,0,1.79.23,4.13,4.13,0,0,0,2.05-.42,1.43,1.43,0,0,0,.71-1.3,1.4,1.4,0,0,0-.57-1.12,8.71,8.71,0,0,0-2.22-1.1,12.6,12.6,0,0,1-2.23-1,3.07,3.07,0,0,1-1-1,2.55,2.55,0,0,1-.32-1.33,2.51,2.51,0,0,1,1.11-2.16,5.23,5.23,0,0,1,3.07-.8,9,9,0,0,1,3.55.74l-.61,1.38a8.18,8.18,0,0,0-3.06-.69,3.47,3.47,0,0,0-1.83.38,1.16,1.16,0,0,0-.61,1,1.23,1.23,0,0,0,.23.77,2.38,2.38,0,0,0,.74.61,18.36,18.36,0,0,0,2,.83A7.35,7.35,0,0,1,421,99,2.57,2.57,0,0,1,421.72,100.88Z"/><path class="cls-2" d="M431.4,103.94l-.33-1.6H431a4.75,4.75,0,0,1-1.67,1.44,5.32,5.32,0,0,1-2.09.37,3.78,3.78,0,0,1-2.62-.86,3.16,3.16,0,0,1-1-2.45q0-3.41,5.45-3.57l1.9-.06v-.7a2.89,2.89,0,0,0-.56-2,2.36,2.36,0,0,0-1.83-.63,7.31,7.31,0,0,0-3.17.86l-.53-1.3a7.66,7.66,0,0,1,1.82-.71,7.94,7.94,0,0,1,2-.26,4.31,4.31,0,0,1,3,.89,3.76,3.76,0,0,1,1,2.86v7.67Zm-3.84-1.2a3.47,3.47,0,0,0,2.5-.87,3.23,3.23,0,0,0,.9-2.44v-1l-1.7.07a6.28,6.28,0,0,0-2.93.63,1.91,1.91,0,0,0-.89,1.74,1.75,1.75,0,0,0,.55,1.4A2.36,2.36,0,0,0,427.56,102.74Z"/><path class="cls-2" d="M445.37,92.71v1.07l-2.08.25a3.73,3.73,0,0,1,.74,2.24,3.35,3.35,0,0,1-1.13,2.64,4.54,4.54,0,0,1-3.1,1,4.7,4.7,0,0,1-.94-.08,1.68,1.68,0,0,0-1.09,1.45.74.74,0,0,0,.38.68,2.73,2.73,0,0,0,1.3.22h2a4.5,4.5,0,0,1,2.81.77,2.68,2.68,0,0,1,1,2.23,3.19,3.19,0,0,1-1.5,2.85,8,8,0,0,1-4.37,1,6,6,0,0,1-3.4-.82,2.66,2.66,0,0,1-1.19-2.32,2.63,2.63,0,0,1,.65-1.77,3.39,3.39,0,0,1,1.85-1,1.74,1.74,0,0,1-.72-.6,1.59,1.59,0,0,1-.3-1,1.79,1.79,0,0,1,.33-1.07,3.53,3.53,0,0,1,1-.9,3,3,0,0,1-1.42-1.21,3.59,3.59,0,0,1-.55-2,3.65,3.65,0,0,1,1.11-2.85,4.48,4.48,0,0,1,3.13-1,5.57,5.57,0,0,1,1.59.21Zm-9,13.12a1.53,1.53,0,0,0,.77,1.39,4.26,4.26,0,0,0,2.2.47,6.19,6.19,0,0,0,3.17-.64,2,2,0,0,0,1-1.74A1.38,1.38,0,0,0,443,104a4.43,4.43,0,0,0-2.12-.35h-2a2.7,2.7,0,0,0-1.81.55A2,2,0,0,0,436.41,105.83Zm.92-9.52a2.26,2.26,0,0,0,.67,1.78,2.66,2.66,0,0,0,1.85.6,2.17,2.17,0,0,0,2.49-2.42,2.23,2.23,0,0,0-2.52-2.53,2.49,2.49,0,0,0-1.84.65A2.61,2.61,0,0,0,437.33,96.31Z"/><path class="cls-2" d="M456.76,102.74a6.15,6.15,0,0,0,.87-.06,6.26,6.26,0,0,0,.67-.14v1.3a3.12,3.12,0,0,1-.82.22,5.81,5.81,0,0,1-1,.09c-2.18,0-3.26-1.15-3.26-3.44V94h-1.61v-.82l1.61-.71.71-2.4h1v2.61h3.26V94H455v6.61a2.28,2.28,0,0,0,.48,1.56A1.68,1.68,0,0,0,456.76,102.74Z"/><path class="cls-2" d="M460.4,89.66a1.16,1.16,0,0,1,.29-.86,1,1,0,0,1,.72-.27,1,1,0,0,1,.7.28,1.1,1.1,0,0,1,.3.85,1.14,1.14,0,0,1-.3.86,1,1,0,0,1-.7.28,1,1,0,0,1-.72-.28A1.18,1.18,0,0,1,460.4,89.66Zm1.85,14.28h-1.7V92.71h1.7Z"/><path class="cls-2" d="M467.56,103.94h-1.7V88h1.7Z"/><path class="cls-2" d="M169.93,129.35a4.79,4.79,0,0,1-3.77-1.5,6.14,6.14,0,0,1-1.34-4.25,6.35,6.35,0,0,1,1.36-4.36,4.86,4.86,0,0,1,3.87-1.54,8.1,8.1,0,0,1,1.62.17,5.92,5.92,0,0,1,1.27.41l-.52,1.45a8.45,8.45,0,0,0-1.23-.37,5.51,5.51,0,0,0-1.18-.15c-2.29,0-3.43,1.45-3.43,4.37a5.19,5.19,0,0,0,.84,3.18,2.91,2.91,0,0,0,2.47,1.1,7.68,7.68,0,0,0,2.89-.6v1.51A6.31,6.31,0,0,1,169.93,129.35Z"/><path class="cls-2" d="M173.66,117.91h1.82l2.46,6.4a25,25,0,0,1,1,3.17H179c.09-.35.27-.94.56-1.79s1.21-3.44,2.78-7.78h1.83l-4.83,12.79a6.29,6.29,0,0,1-1.68,2.69,3.56,3.56,0,0,1-2.35.8,7.27,7.27,0,0,1-1.54-.17v-1.37a6.13,6.13,0,0,0,1.26.12,2.59,2.59,0,0,0,2.5-2l.63-1.6Z"/><path class="cls-2" d="M187.7,123.39c.3-.41.75-1,1.35-1.64l3.63-3.84h2l-4.55,4.79,4.87,6.44H193l-4-5.31-1.29,1.11v4.2H186V113.19h1.68v8.46c0,.38,0,1-.08,1.74Z"/><path class="cls-2" d="M201.79,129.35a5.17,5.17,0,0,1-3.93-1.52,5.86,5.86,0,0,1-1.44-4.21,6.55,6.55,0,0,1,1.34-4.32,4.43,4.43,0,0,1,3.59-1.6,4.24,4.24,0,0,1,3.35,1.39,5.34,5.34,0,0,1,1.23,3.67v1.07h-7.75a4.52,4.52,0,0,0,1,3,3.5,3.5,0,0,0,2.68,1,8.93,8.93,0,0,0,3.58-.76v1.52a8.86,8.86,0,0,1-1.7.56A9.88,9.88,0,0,1,201.79,129.35Zm-.46-10.22a2.78,2.78,0,0,0-2.16.88,4.07,4.07,0,0,0-.94,2.44h5.87a3.75,3.75,0,0,0-.72-2.47A2.52,2.52,0,0,0,201.33,119.13Z"/><path class="cls-2" d="M210.53,129.14h-1.7V113.19h1.7Z"/><path class="cls-2" d="M215.74,117.91v7.29a3,3,0,0,0,.62,2,2.56,2.56,0,0,0,2,.67,3.19,3.19,0,0,0,2.58-1,4.82,4.82,0,0,0,.82-3.15v-5.9h1.7v11.23H222l-.24-1.5h-.09a3.44,3.44,0,0,1-1.45,1.27,5,5,0,0,1-2.12.44,4.24,4.24,0,0,1-3.07-1,4.11,4.11,0,0,1-1-3.11v-7.35Z"/><path class="cls-2" d="M234.72,129.14v-7.27a2.94,2.94,0,0,0-.63-2.05,2.54,2.54,0,0,0-2-.67,3.19,3.19,0,0,0-2.58,1,4.85,4.85,0,0,0-.82,3.16v5.87H227V113.19h1.7V118a11.26,11.26,0,0,1-.08,1.44h.1a3.47,3.47,0,0,1,1.43-1.27,4.69,4.69,0,0,1,2.12-.47,4.36,4.36,0,0,1,3.09,1,4.11,4.11,0,0,1,1,3.11v7.33Z"/><path class="cls-2" d="M244.67,129.35a5.17,5.17,0,0,1-3.94-1.52,5.86,5.86,0,0,1-1.44-4.21,6.55,6.55,0,0,1,1.34-4.32,4.43,4.43,0,0,1,3.59-1.6,4.24,4.24,0,0,1,3.35,1.39,5.34,5.34,0,0,1,1.23,3.67v1.07h-7.74a4.42,4.42,0,0,0,1,3,3.46,3.46,0,0,0,2.67,1,9,9,0,0,0,3.59-.76v1.52a9.17,9.17,0,0,1-1.71.56A9.85,9.85,0,0,1,244.67,129.35Zm-.47-10.22a2.75,2.75,0,0,0-2.15.88,4,4,0,0,0-1,2.44H247a3.75,3.75,0,0,0-.72-2.47A2.51,2.51,0,0,0,244.2,119.13Z"/><path class="cls-2" d="M253.4,129.14h-1.7V113.19h1.7Z"/><path class="cls-2" d="M264.66,127.64h-.09a4,4,0,0,1-3.53,1.71,4.16,4.16,0,0,1-3.43-1.51,6.59,6.59,0,0,1-1.22-4.28,6.73,6.73,0,0,1,1.23-4.32,4.55,4.55,0,0,1,6.93.12h.13l-.07-.81,0-.79v-4.57h1.7v15.95h-1.38Zm-3.4.28a3.09,3.09,0,0,0,2.52-.94,4.79,4.79,0,0,0,.79-3.07v-.35a5.62,5.62,0,0,0-.8-3.41,3,3,0,0,0-2.53-1,2.61,2.61,0,0,0-2.3,1.16,5.8,5.8,0,0,0-.79,3.29,5.53,5.53,0,0,0,.79,3.25A2.68,2.68,0,0,0,261.26,127.92Z"/><path class="cls-2" d="M280.56,117.72a4.19,4.19,0,0,1,3.44,1.51,8.09,8.09,0,0,1,0,8.59,4.15,4.15,0,0,1-3.43,1.53,4.83,4.83,0,0,1-2-.41A3.72,3.72,0,0,1,277,127.7h-.13l-.36,1.44h-1.22V113.19H277v3.88c0,.86,0,1.64-.09,2.33H277A4,4,0,0,1,280.56,117.72Zm-.24,1.43a3,3,0,0,0-2.51,1,7.69,7.69,0,0,0,0,6.75,3,3,0,0,0,2.53,1,2.65,2.65,0,0,0,2.34-1.14,5.9,5.9,0,0,0,.77-3.29,5.68,5.68,0,0,0-.77-3.27A2.76,2.76,0,0,0,280.32,119.15Z"/><path class="cls-2" d="M289.91,129.14H288.2V113.19h1.71Z"/><path class="cls-2" d="M300.43,129.14l-.34-1.6H300a4.69,4.69,0,0,1-1.68,1.44,5.28,5.28,0,0,1-2.09.37,3.78,3.78,0,0,1-2.62-.86,3.16,3.16,0,0,1-.95-2.45q0-3.41,5.45-3.57l1.91-.06v-.7a2.84,2.84,0,0,0-.57-1.95,2.35,2.35,0,0,0-1.82-.63,7.31,7.31,0,0,0-3.18.86l-.52-1.3a7.49,7.49,0,0,1,1.82-.71,7.86,7.86,0,0,1,2-.26,4.31,4.31,0,0,1,3,.89,3.76,3.76,0,0,1,1,2.86v7.67ZM296.58,128a3.48,3.48,0,0,0,2.5-.88,3.24,3.24,0,0,0,.91-2.44v-1l-1.71.07a6.2,6.2,0,0,0-2.92.63,1.9,1.9,0,0,0-.9,1.74,1.73,1.73,0,0,0,.56,1.4A2.31,2.31,0,0,0,296.58,128Z"/><path class="cls-2" d="M312.88,129.14v-7.27a2.94,2.94,0,0,0-.62-2.05,2.56,2.56,0,0,0-2-.67,3.19,3.19,0,0,0-2.58.95,4.82,4.82,0,0,0-.82,3.15v5.89h-1.71V117.91h1.39l.28,1.53h.08a3.44,3.44,0,0,1,1.46-1.28,4.7,4.7,0,0,1,2.11-.46,4.27,4.27,0,0,1,3.05,1,4.18,4.18,0,0,1,1,3.13v7.33Z"/><path class="cls-2" d="M325.73,127.64h-.09a4,4,0,0,1-3.53,1.71,4.16,4.16,0,0,1-3.43-1.51,6.65,6.65,0,0,1-1.22-4.28,6.73,6.73,0,0,1,1.23-4.32,4.12,4.12,0,0,1,3.42-1.54,4.07,4.07,0,0,1,3.51,1.66h.13l-.07-.81,0-.79v-4.57h1.7v15.95H326Zm-3.4.28a3.12,3.12,0,0,0,2.53-.94,4.85,4.85,0,0,0,.78-3.07v-.35a5.63,5.63,0,0,0-.79-3.41,3,3,0,0,0-2.54-1,2.59,2.59,0,0,0-2.29,1.16,5.79,5.79,0,0,0-.8,3.29,5.53,5.53,0,0,0,.79,3.25A2.68,2.68,0,0,0,322.33,127.92Z"/><path class="cls-2" d="M334.58,128a6.13,6.13,0,0,0,.87-.07,6.26,6.26,0,0,0,.67-.14V129a3.12,3.12,0,0,1-.82.22,5.81,5.81,0,0,1-1,.09q-3.27,0-3.27-3.44v-6.68h-1.6v-.82l1.6-.71.72-2.4h1v2.61H336v1.32h-3.26v6.61a2.28,2.28,0,0,0,.48,1.56A1.68,1.68,0,0,0,334.58,128Z"/><path class="cls-2" d="M351.47,127.64h-.09a4,4,0,0,1-3.53,1.71,4.16,4.16,0,0,1-3.43-1.51,6.59,6.59,0,0,1-1.22-4.28,6.73,6.73,0,0,1,1.23-4.32,4.55,4.55,0,0,1,6.93.12h.13l-.07-.81,0-.79v-4.57h1.7v15.95H351.7Zm-3.4.28a3.09,3.09,0,0,0,2.52-.94,4.79,4.79,0,0,0,.79-3.07v-.35a5.62,5.62,0,0,0-.8-3.41,3,3,0,0,0-2.53-1,2.61,2.61,0,0,0-2.3,1.16,5.8,5.8,0,0,0-.79,3.29,5.53,5.53,0,0,0,.79,3.25A2.67,2.67,0,0,0,348.07,127.92Z"/><path class="cls-2" d="M361.44,129.35a5.19,5.19,0,0,1-3.94-1.52,5.86,5.86,0,0,1-1.44-4.21,6.55,6.55,0,0,1,1.34-4.32,4.44,4.44,0,0,1,3.6-1.6,4.23,4.23,0,0,1,3.34,1.39,5.34,5.34,0,0,1,1.23,3.67v1.07h-7.74a4.42,4.42,0,0,0,1,3,3.46,3.46,0,0,0,2.67,1,9,9,0,0,0,3.59-.76v1.52a8.72,8.72,0,0,1-1.71.56A9.78,9.78,0,0,1,361.44,129.35ZM361,119.13a2.75,2.75,0,0,0-2.16.88,4,4,0,0,0-.95,2.44h5.87A3.81,3.81,0,0,0,363,120,2.54,2.54,0,0,0,361,119.13Z"/><path class="cls-2" d="M373.32,122.74q0-4.42,1.72-6.61a6.06,6.06,0,0,1,5.08-2.19,6.74,6.74,0,0,1,1.82.19v1.47a5.79,5.79,0,0,0-1.8-.26,4.55,4.55,0,0,0-3.68,1.5,7.77,7.77,0,0,0-1.4,4.73h.13a3.92,3.92,0,0,1,3.57-1.77,4.21,4.21,0,0,1,3.18,1.22,4.6,4.6,0,0,1,1.16,3.32,5.1,5.1,0,0,1-1.27,3.67,4.55,4.55,0,0,1-3.45,1.34,4.43,4.43,0,0,1-3.7-1.75A7.78,7.78,0,0,1,373.32,122.74Zm5,5.16a2.85,2.85,0,0,0,2.26-.91,4,4,0,0,0,.8-2.65,3.41,3.41,0,0,0-.75-2.34,2.8,2.8,0,0,0-2.23-.85,3.65,3.65,0,0,0-1.69.38,3.06,3.06,0,0,0-1.23,1,2.48,2.48,0,0,0-.46,1.39,4.75,4.75,0,0,0,.41,2,3.52,3.52,0,0,0,1.17,1.45A2.85,2.85,0,0,0,378.36,127.9Z"/><path class="cls-2" d="M389.84,120a5.54,5.54,0,0,1,3.73,1.17,4.05,4.05,0,0,1,1.36,3.22,4.65,4.65,0,0,1-1.49,3.65,5.91,5.91,0,0,1-4.08,1.32,7.54,7.54,0,0,1-3.87-.81V126.9a5.77,5.77,0,0,0,1.79.72,8.5,8.5,0,0,0,2.1.26,4.16,4.16,0,0,0,2.8-.85,3,3,0,0,0,1-2.46q0-3.13-3.84-3.14a15.26,15.26,0,0,0-2.61.3l-.88-.56.57-7h7.45v1.57h-6l-.38,4.5A12.56,12.56,0,0,1,389.84,120Z"/><path class="cls-2" d="M402.83,121h4.23v1.42h-4.23v4.37h-1.42v-4.37H397.2V121h4.21v-4.39h1.42Z"/><path class="cls-2" d="M422.31,129.14l-.33-1.6h-.09a4.75,4.75,0,0,1-1.67,1.44,5.32,5.32,0,0,1-2.09.37,3.78,3.78,0,0,1-2.62-.86,3.16,3.16,0,0,1-.95-2.45q0-3.41,5.45-3.57l1.9-.06v-.7a2.89,2.89,0,0,0-.56-1.95,2.35,2.35,0,0,0-1.82-.63,7.31,7.31,0,0,0-3.18.86l-.53-1.3a7.66,7.66,0,0,1,1.82-.71,7.94,7.94,0,0,1,2-.26,4.31,4.31,0,0,1,3,.89,3.76,3.76,0,0,1,1,2.86v7.67ZM418.47,128a3.48,3.48,0,0,0,2.5-.88,3.23,3.23,0,0,0,.9-2.44v-1l-1.7.07a6.28,6.28,0,0,0-2.93.63,1.91,1.91,0,0,0-.89,1.74,1.75,1.75,0,0,0,.55,1.4A2.36,2.36,0,0,0,418.47,128Zm3.37-13.76a2.16,2.16,0,0,1-.63,1.62,2.59,2.59,0,0,1-3.33,0,2.15,2.15,0,0,1-.61-1.61,2.09,2.09,0,0,1,.62-1.59,2.6,2.6,0,0,1,3.32,0A2.08,2.08,0,0,1,421.84,114.19Zm-1.1,0a1.16,1.16,0,0,0-.34-.88,1.36,1.36,0,0,0-1.73,0,1.15,1.15,0,0,0-.33.88,1.23,1.23,0,0,0,.3.89,1.22,1.22,0,0,0,.9.31,1.2,1.2,0,0,0,.86-.31A1.17,1.17,0,0,0,420.74,114.21Z"/><path class="cls-2" d="M432.21,117.7a6.74,6.74,0,0,1,1.34.12l-.23,1.58a6,6,0,0,0-1.23-.15,3,3,0,0,0-2.34,1.11,4.06,4.06,0,0,0-1,2.76v6h-1.7V117.91h1.41l.19,2.08h.08a4.9,4.9,0,0,1,1.51-1.69A3.39,3.39,0,0,1,432.21,117.7Z"/><path class="cls-2" d="M435.51,114.86a1.16,1.16,0,0,1,.29-.86,1,1,0,0,1,.72-.27,1,1,0,0,1,.7.28,1.1,1.1,0,0,1,.3.85,1.14,1.14,0,0,1-.3.86,1,1,0,0,1-.7.28,1,1,0,0,1-.72-.28A1.18,1.18,0,0,1,435.51,114.86Zm1.85,14.28h-1.71V117.91h1.71Z"/><path class="cls-2" d="M450.16,117.91V119l-2.08.25a3.57,3.57,0,0,1,.51.94,3.69,3.69,0,0,1-.9,3.94,4.51,4.51,0,0,1-3.09,1,4.81,4.81,0,0,1-1-.08,1.69,1.69,0,0,0-1.08,1.45.72.72,0,0,0,.38.68,2.7,2.7,0,0,0,1.3.22h2a4.47,4.47,0,0,1,2.8.77,2.68,2.68,0,0,1,1,2.24,3.18,3.18,0,0,1-1.5,2.84,8,8,0,0,1-4.37,1,5.92,5.92,0,0,1-3.39-.82,2.65,2.65,0,0,1-1.2-2.32,2.59,2.59,0,0,1,.66-1.77,3.32,3.32,0,0,1,1.84-1,1.87,1.87,0,0,1-.72-.6,1.65,1.65,0,0,1-.29-1,1.79,1.79,0,0,1,.33-1.07,3.21,3.21,0,0,1,1-.89,3.09,3.09,0,0,1-1.42-1.22,4,4,0,0,1,.56-4.82,4.5,4.5,0,0,1,3.14-1,5.57,5.57,0,0,1,1.59.21Zm-9,13.12a1.54,1.54,0,0,0,.77,1.39,4.3,4.3,0,0,0,2.21.47,6.24,6.24,0,0,0,3.17-.64,2,2,0,0,0,1-1.74,1.4,1.4,0,0,0-.56-1.27,4.51,4.51,0,0,0-2.13-.35h-2a2.67,2.67,0,0,0-1.8.55A2,2,0,0,0,441.2,131Zm.92-9.52a2.3,2.3,0,0,0,.67,1.78,2.68,2.68,0,0,0,1.86.6,2.17,2.17,0,0,0,2.49-2.42,2.23,2.23,0,0,0-2.52-2.53,2.51,2.51,0,0,0-1.85.65A2.61,2.61,0,0,0,442.12,121.51Z"/><path class="cls-2" d="M457.22,129.35a5.17,5.17,0,0,1-3.93-1.52,5.86,5.86,0,0,1-1.44-4.21,6.54,6.54,0,0,1,1.33-4.32,4.45,4.45,0,0,1,3.6-1.6,4.22,4.22,0,0,1,3.34,1.39,5.34,5.34,0,0,1,1.23,3.67v1.07h-7.74a4.47,4.47,0,0,0,1,3,3.46,3.46,0,0,0,2.67,1,9,9,0,0,0,3.59-.76v1.52a8.72,8.72,0,0,1-1.71.56A9.78,9.78,0,0,1,457.22,129.35Zm-.46-10.22a2.75,2.75,0,0,0-2.16.88,4.07,4.07,0,0,0-1,2.44h5.88a3.75,3.75,0,0,0-.72-2.47A2.52,2.52,0,0,0,456.76,119.13Z"/><path class="cls-2" d="M470.87,125v-.55a4.57,4.57,0,0,1,.37-2,5.19,5.19,0,0,1,1.37-1.63,9.19,9.19,0,0,0,1.76-1.78,2.69,2.69,0,0,0,.36-1.43,2,2,0,0,0-.67-1.62,3,3,0,0,0-1.93-.57,6.39,6.39,0,0,0-1.58.2,8.15,8.15,0,0,0-1.77.69l-.6-1.39a8.68,8.68,0,0,1,4.05-1,4.46,4.46,0,0,1,3,1,3.45,3.45,0,0,1,1.08,2.72,3.82,3.82,0,0,1-.2,1.32,3.76,3.76,0,0,1-.59,1.07,13.87,13.87,0,0,1-1.68,1.64,6.33,6.33,0,0,0-1.37,1.47,3.1,3.1,0,0,0-.33,1.55V125Zm-.51,3c0-.93.41-1.4,1.23-1.4a1.16,1.16,0,0,1,.92.36,1.77,1.77,0,0,1,0,2.06,1.19,1.19,0,0,1-.92.36,1.29,1.29,0,0,1-.88-.32A1.41,1.41,0,0,1,470.36,128.06Z"/></g></svg>