<svg xmlns="http://www.w3.org/2000/svg" width="213.8mm" height="95.64mm" viewBox="0 0 606.04 271.11"><defs><style>.cls-1{fill:#28292c;}.cls-2{fill:#fff;}</style></defs><title>spørgsmål 2</title><g id="arbejdslag_start"><polygon class="cls-1" points="570.25 222.09 564.5 185.86 586.99 185.86 586.99 9.09 36.36 9.09 36.36 164.36 36.36 185.86 80.41 185.86 76.36 218.91 58.13 216.07 82.59 256.28 120.54 229.97 104.82 224.65 130.06 185.86 290.92 185.86 296.23 223.06 277.99 225.87 313.46 256.8 341.68 220.24 325.08 219.93 332.1 185.86 516.69 185.86 541.81 227.91 526.11 233.27 564.13 259.47 588.48 219.2 570.25 222.09"/><path class="cls-2" d="M226.41,41.38h-8.06V51.54h-2.61V22.35h10.67q4.67,0,6.87,2.27c1.47,1.51,2.2,3.84,2.2,7Q235.48,41.39,226.41,41.38Zm-8.06-2.31h8.06q6.38,0,6.38-7.48c0-2.37-.5-4.13-1.51-5.25s-2.63-1.68-4.87-1.68h-8.06Z"/><path class="cls-2" d="M254.38,36.8V48.06c.11,1,1,1.65,2.73,1.85l-.12,2a6.09,6.09,0,0,1-4.75-1.68,19.59,19.59,0,0,1-7.9,1.72,5.49,5.49,0,0,1-4.28-1.61,6.64,6.64,0,0,1-1.47-4.62,6,6,0,0,1,1.49-4.45,7.72,7.72,0,0,1,4.68-1.79l7.14-.71v-2a4.63,4.63,0,0,0-1-3.38,3.73,3.73,0,0,0-2.75-1,61.57,61.57,0,0,0-7,.51l-1.3.12-.13-2a43.8,43.8,0,0,1,8.09-.89q3.47,0,5,1.64A7.12,7.12,0,0,1,254.38,36.8Zm-13.19,8.78q0,4.24,3.49,4.24a17.87,17.87,0,0,0,3.32-.35,21.06,21.06,0,0,0,2.85-.74l1.05-.38v-7.6l-6.84.71a4.32,4.32,0,0,0-3,1.18A4.23,4.23,0,0,0,241.19,45.58Z"/><path class="cls-2" d="M263.37,51.54h-2.48v-21h2.48V32.1a14,14,0,0,1,6.84-2c2.8,0,4.67.75,5.61,2.23s1.41,4.2,1.41,8.15v11h-2.52V40.62c0-3.22-.31-5.39-.93-6.53s-1.93-1.7-3.94-1.7a11.93,11.93,0,0,0-3.09.44,13.14,13.14,0,0,0-2.5.91l-.88.42Z"/><path class="cls-2" d="M300.29,54.74c0,2.38-.77,4.1-2.29,5.16s-3.9,1.6-7.12,1.6-5.45-.46-6.68-1.39-1.85-2.62-1.85-5.08a4.74,4.74,0,0,1,.76-2.83,11.51,11.51,0,0,1,2.64-2.46c-.7-.45-1.05-1.4-1.05-2.86a7.79,7.79,0,0,1,1-2.64l.34-.63c-2.3-1-3.45-3.07-3.45-6.35q0-7.14,7.61-7.14a15.38,15.38,0,0,1,3.78.42l.63.13,6.09-.13v2.23l-4.2-.08c1,1,1.51,2.66,1.51,5s-.64,4-1.91,5-3.29,1.58-6,1.58a12.21,12.21,0,0,1-2.14-.17,10.16,10.16,0,0,0-.84,2.6c0,.93.27,1.5.82,1.71a20.67,20.67,0,0,0,4.89.33c2.72,0,4.64.42,5.78,1.22S300.29,52.36,300.29,54.74Zm-15.42.12c0,1.68.42,2.84,1.26,3.49s2.47,1,4.87,1,4.13-.34,5.17-1a3.82,3.82,0,0,0,1.55-3.45c0-1.61-.37-2.65-1.13-3.13a9.06,9.06,0,0,0-4.33-.71l-4.74-.17a8.3,8.3,0,0,0-2.1,1.91A3.71,3.71,0,0,0,284.87,54.86Zm.3-17.62a5.16,5.16,0,0,0,1.17,3.83,5.73,5.73,0,0,0,4,1.11,5.82,5.82,0,0,0,4-1.09c.78-.73,1.18-2,1.18-3.85a5.26,5.26,0,0,0-1.18-3.88,7.43,7.43,0,0,0-7.94,0A5.29,5.29,0,0,0,285.17,37.24Z"/><path class="cls-2" d="M308,32.77V51.54h-2.52V32.77h-2.73V30.54h2.73V28.4c0-3,.41-5,1.22-6S309,20.8,311,20.8l4.07.21v2.14c-1.65,0-2.88-.08-3.69-.08a3,3,0,0,0-2.69,1.09c-.48.73-.72,2.16-.72,4.28v2.1h6.35v2.23Z"/><path class="cls-2" d="M332.71,36.8V48.06c.11,1,1,1.65,2.73,1.85l-.13,2a6.08,6.08,0,0,1-4.74-1.68,19.63,19.63,0,0,1-7.9,1.72,5.47,5.47,0,0,1-4.28-1.61,6.64,6.64,0,0,1-1.47-4.62,5.92,5.92,0,0,1,1.49-4.45,7.72,7.72,0,0,1,4.68-1.79l7.14-.71v-2a4.63,4.63,0,0,0-1-3.38,3.73,3.73,0,0,0-2.75-1,61.57,61.57,0,0,0-7,.51l-1.3.12-.13-2a43.8,43.8,0,0,1,8.09-.89q3.47,0,5,1.64A7.12,7.12,0,0,1,332.71,36.8Zm-13.19,8.78q0,4.24,3.49,4.24a17.87,17.87,0,0,0,3.32-.35,21.06,21.06,0,0,0,2.85-.74l1.05-.38v-7.6l-6.84.71a4.37,4.37,0,0,0-3,1.18A4.27,4.27,0,0,0,319.52,45.58Z"/><path class="cls-2" d="M339.22,51.54v-21h2.48v3a22.41,22.41,0,0,1,3.8-2.1,18.3,18.3,0,0,1,4.13-1.35v2.52a24.43,24.43,0,0,0-3.78,1.16,31.49,31.49,0,0,0-3.06,1.36l-1.09.63V51.54Z"/><path class="cls-2" d="M351.44,30.54h2.77l5.25,18.82h1.68l5.46-18.82h2.61l-6.14,21h-5.5Z"/><path class="cls-2" d="M387,49.44l1.26-.12.09,2.06a67.32,67.32,0,0,1-8,.58c-3,0-5.14-.92-6.34-2.68s-1.81-4.48-1.81-8.15q0-11,8.65-11c2.77,0,4.84.8,6.22,2.38s2.05,4.11,2.05,7.58l-.08,2H374.75q0,3.87,1.32,5.74c.89,1.24,2.4,1.87,4.54,1.87S384.89,49.61,387,49.44ZM374.75,40h11.84q0-4.16-1.36-5.92a5.2,5.2,0,0,0-4.37-1.76,5.66,5.66,0,0,0-4.56,1.83C375.27,35.35,374.75,37.31,374.75,40Z"/><path class="cls-2" d="M394.28,51.54v-21h2.48v3a22.41,22.41,0,0,1,3.8-2.1,18.37,18.37,0,0,1,4.14-1.35v2.52a23.79,23.79,0,0,0-3.78,1.16,30.77,30.77,0,0,0-3.07,1.36l-1.09.63V51.54Z"/><path class="cls-2" d="M115.13,122.42h-1.66V115.7H106v6.72h-1.66V108.14H106v6.07h7.52v-6.07h1.66Z"/><path class="cls-2" d="M121.14,122.42l-4.06-10.71h1.74l2.3,6.35A30,30,0,0,1,122,121h.08a21.89,21.89,0,0,1,.68-2.14c.38-1.09,1.23-3.45,2.56-7.1h1.74L123,122.42Z"/><path class="cls-2" d="M128.68,108.81A1,1,0,0,1,129,108a.92.92,0,0,1,.68-.26,1,1,0,0,1,.67.26,1.29,1.29,0,0,1,0,1.63.94.94,0,0,1-.67.27.93.93,0,0,1-.68-.27A1.07,1.07,0,0,1,128.68,108.81Zm1.76,13.61h-1.62V111.71h1.62Z"/><path class="cls-2" d="M135.5,122.42h-1.62v-15.2h1.62Z"/><path class="cls-2" d="M140.54,116.94a18,18,0,0,1,1.28-1.57l3.45-3.66h1.93l-4.34,4.56,4.64,6.15h-2l-3.78-5.06-1.22,1v4h-1.6v-15.2h1.6v8.06c0,.36,0,.91-.08,1.66Z"/><path class="cls-2" d="M154,122.61a4.93,4.93,0,0,1-3.75-1.44,5.65,5.65,0,0,1-1.37-4,6.22,6.22,0,0,1,1.27-4.11,4.22,4.22,0,0,1,3.43-1.52,4,4,0,0,1,3.18,1.32,5.08,5.08,0,0,1,1.17,3.49v1h-7.37a4.25,4.25,0,0,0,.95,2.86,3.29,3.29,0,0,0,2.54,1,8.61,8.61,0,0,0,3.42-.72v1.45a9.23,9.23,0,0,1-1.62.53A9,9,0,0,1,154,122.61Zm-.44-9.74a2.65,2.65,0,0,0-2.06.84,3.89,3.89,0,0,0-.9,2.33h5.59a3.54,3.54,0,0,0-.68-2.35A2.43,2.43,0,0,0,153.52,112.87Z"/><path class="cls-2" d="M168,122.42v-6.93a2.78,2.78,0,0,0-.6-1.95,2.41,2.41,0,0,0-1.86-.65,3.09,3.09,0,0,0-2.46.91,4.61,4.61,0,0,0-.78,3v5.62h-1.62V111.71H162l.27,1.47h.08a3.27,3.27,0,0,1,1.39-1.23,4.54,4.54,0,0,1,2-.43,4.07,4.07,0,0,1,2.91.93,4,4,0,0,1,1,3v7Z"/><path class="cls-2" d="M181.58,121.27a5.49,5.49,0,0,0,.83-.06,6.4,6.4,0,0,0,.64-.13v1.24a3.51,3.51,0,0,1-.78.21,6.48,6.48,0,0,1-.92.08q-3.1,0-3.11-3.27V113h-1.53v-.78l1.53-.67.69-2.29h.93v2.48H183V113h-3.11v6.3a2.21,2.21,0,0,0,.46,1.49A1.62,1.62,0,0,0,181.58,121.27Z"/><path class="cls-2" d="M185.05,108.81a1.07,1.07,0,0,1,.27-.81.94.94,0,0,1,.69-.26,1,1,0,0,1,.67.26,1.33,1.33,0,0,1,0,1.63.94.94,0,0,1-.67.27,1,1,0,0,1-.69-.27A1.11,1.11,0,0,1,185.05,108.81Zm1.76,13.61h-1.62V111.71h1.62Z"/><path class="cls-2" d="M197.53,121h-.09a3.81,3.81,0,0,1-3.36,1.63,4,4,0,0,1-3.26-1.43,6.33,6.33,0,0,1-1.17-4.09,6.44,6.44,0,0,1,1.17-4.11,4,4,0,0,1,3.26-1.46,3.87,3.87,0,0,1,3.34,1.58h.13l-.07-.77,0-.75v-4.36h1.62v15.2h-1.31Zm-3.24.27a3,3,0,0,0,2.41-.9,4.61,4.61,0,0,0,.74-2.92v-.34a5.38,5.38,0,0,0-.75-3.24,2.88,2.88,0,0,0-2.42-1,2.47,2.47,0,0,0-2.18,1.11,5.46,5.46,0,0,0-.76,3.13,5.31,5.31,0,0,0,.75,3.1A2.56,2.56,0,0,0,194.29,121.25Z"/><path class="cls-2" d="M212.68,122.61a4.56,4.56,0,0,1-1.91-.39,3.52,3.52,0,0,1-1.45-1.18h-.12a14,14,0,0,1,.12,1.78v4.4H207.7V111.71H209l.23,1.47h.08a3.69,3.69,0,0,1,1.45-1.27,4.46,4.46,0,0,1,1.91-.39A3.94,3.94,0,0,1,216,113a6.41,6.41,0,0,1,1.16,4.08,6.34,6.34,0,0,1-1.18,4.1A4,4,0,0,1,212.68,122.61Zm-.24-9.72a2.89,2.89,0,0,0-2.37.91,4.65,4.65,0,0,0-.75,2.89v.36a5.37,5.37,0,0,0,.75,3.23,2.84,2.84,0,0,0,2.41,1,2.49,2.49,0,0,0,2.17-1.12,5.29,5.29,0,0,0,.79-3.1,5.1,5.1,0,0,0-.79-3.07A2.59,2.59,0,0,0,212.44,112.89Z"/><path class="cls-2" d="M226.53,122.42l-.32-1.53h-.08a4.38,4.38,0,0,1-1.59,1.36,4.85,4.85,0,0,1-2,.36,3.59,3.59,0,0,1-2.5-.82,3,3,0,0,1-.9-2.33c0-2.16,1.73-3.3,5.19-3.4l1.81-.06v-.66a2.76,2.76,0,0,0-.54-1.87,2.23,2.23,0,0,0-1.73-.6,7.19,7.19,0,0,0-3,.82l-.5-1.24a7.86,7.86,0,0,1,1.74-.67,7.53,7.53,0,0,1,1.89-.24,4,4,0,0,1,2.83.85,3.51,3.51,0,0,1,.93,2.72v7.31Zm-3.66-1.15a3.27,3.27,0,0,0,2.38-.83,3,3,0,0,0,.86-2.32v-1l-1.62.07a6,6,0,0,0-2.79.6,1.84,1.84,0,0,0-.85,1.66,1.67,1.67,0,0,0,.53,1.33A2.2,2.2,0,0,0,222.87,121.27Zm3.21-13.09a2.06,2.06,0,0,1-.6,1.54,2.22,2.22,0,0,1-1.59.58,2.11,2.11,0,0,1-1.57-.58,2.25,2.25,0,0,1,0-3,2.48,2.48,0,0,1,3.16,0A2,2,0,0,1,226.08,108.18Zm-1.05,0a1.12,1.12,0,0,0-.32-.85,1.17,1.17,0,0,0-.82-.3,1.15,1.15,0,0,0-.82.3,1.08,1.08,0,0,0-.32.85,1.18,1.18,0,0,0,2,.84A1.11,1.11,0,0,0,225,108.2Z"/><path class="cls-2" d="M243.56,121h-.09a3.81,3.81,0,0,1-3.36,1.63,4,4,0,0,1-3.27-1.43,6.33,6.33,0,0,1-1.17-4.09,6.44,6.44,0,0,1,1.18-4.11,4,4,0,0,1,3.26-1.46,3.89,3.89,0,0,1,3.34,1.58h.13l-.07-.77,0-.75v-4.36h1.62v15.2h-1.32Zm-3.25.27a3,3,0,0,0,2.41-.9,4.55,4.55,0,0,0,.75-2.92v-.34a5.3,5.3,0,0,0-.76-3.24,2.87,2.87,0,0,0-2.42-1,2.48,2.48,0,0,0-2.18,1.11,5.54,5.54,0,0,0-.76,3.13,5.23,5.23,0,0,0,.76,3.1A2.54,2.54,0,0,0,240.31,121.25Z"/><path class="cls-2" d="M257.76,117.05a5.9,5.9,0,0,1-1.31,4.09,4.66,4.66,0,0,1-3.65,1.47,4.8,4.8,0,0,1-2.59-.67l-.82,1.14-1.12-.76.92-1.28a6,6,0,0,1-1.26-4,5.89,5.89,0,0,1,1.31-4.07,4.6,4.6,0,0,1,3.63-1.46,4.69,4.69,0,0,1,2.64.74l.82-1.16,1.14.74-1,1.3A5.88,5.88,0,0,1,257.76,117.05Zm-8.15,0a5.73,5.73,0,0,0,.52,2.67l4.54-6.31a3.16,3.16,0,0,0-1.85-.52,2.84,2.84,0,0,0-2.4,1A5,5,0,0,0,249.61,117.05Zm6.47,0a5.71,5.71,0,0,0-.49-2.57l-4.54,6.28a3,3,0,0,0,1.79.49,2.86,2.86,0,0,0,2.42-1.07A5,5,0,0,0,256.08,117.05Z"/><path class="cls-2" d="M269.37,111.71v1l-2,.23a3.16,3.16,0,0,1,.49.9,3.23,3.23,0,0,1,.22,1.24,3.15,3.15,0,0,1-1.08,2.51,4.3,4.3,0,0,1-2.95.94,5.11,5.11,0,0,1-.9-.08,1.6,1.6,0,0,0-1,1.38.7.7,0,0,0,.36.65,2.65,2.65,0,0,0,1.24.21h1.9a4.24,4.24,0,0,1,2.67.73,2.55,2.55,0,0,1,.93,2.13,3,3,0,0,1-1.43,2.71,7.63,7.63,0,0,1-4.16.93,5.65,5.65,0,0,1-3.23-.78,2.67,2.67,0,0,1-.52-3.9,3.19,3.19,0,0,1,1.76-1A1.82,1.82,0,0,1,261,121a1.56,1.56,0,0,1-.28-.91,1.7,1.7,0,0,1,.32-1,3.13,3.13,0,0,1,1-.85,2.92,2.92,0,0,1-1.35-1.17,3.37,3.37,0,0,1-.52-1.87,3.47,3.47,0,0,1,1.05-2.71,4.3,4.3,0,0,1,3-1,5.38,5.38,0,0,1,1.51.19Zm-8.54,12.5a1.47,1.47,0,0,0,.73,1.32,4,4,0,0,0,2.1.45,5.87,5.87,0,0,0,3-.61,1.88,1.88,0,0,0,1-1.66,1.3,1.3,0,0,0-.54-1.2,4.1,4.1,0,0,0-2-.34h-1.95a2.55,2.55,0,0,0-1.71.53A1.89,1.89,0,0,0,260.83,124.21Zm.88-9.07a2.18,2.18,0,0,0,.63,1.7,2.58,2.58,0,0,0,1.77.58,2.08,2.08,0,0,0,2.38-2.31,2.13,2.13,0,0,0-2.41-2.41,2.36,2.36,0,0,0-1.75.61A2.44,2.44,0,0,0,261.71,115.14Z"/><path class="cls-2" d="M278.89,122.42v-6.93a2.78,2.78,0,0,0-.6-1.95,2.43,2.43,0,0,0-1.86-.65,3.09,3.09,0,0,0-2.46.91,4.55,4.55,0,0,0-.79,3v5.62h-1.62V111.71h1.32l.27,1.47h.07a3.35,3.35,0,0,1,1.4-1.23,4.54,4.54,0,0,1,2-.43,4.07,4.07,0,0,1,2.91.93,4,4,0,0,1,1,3v7Z"/><path class="cls-2" d="M288.36,122.61a4.91,4.91,0,0,1-3.74-1.44,5.61,5.61,0,0,1-1.38-4,6.22,6.22,0,0,1,1.28-4.11,4.22,4.22,0,0,1,3.42-1.52,4,4,0,0,1,3.18,1.32,5,5,0,0,1,1.18,3.49v1h-7.38a4.3,4.3,0,0,0,.95,2.86,3.32,3.32,0,0,0,2.55,1,8.68,8.68,0,0,0,3.42-.72v1.45a9.6,9.6,0,0,1-1.63.53A9,9,0,0,1,288.36,122.61Zm-.44-9.74a2.63,2.63,0,0,0-2.05.84A3.83,3.83,0,0,0,285,116h5.6a3.54,3.54,0,0,0-.69-2.35A2.4,2.4,0,0,0,287.92,112.87Z"/><path class="cls-2" d="M298.52,121.27a5.69,5.69,0,0,0,.83-.06,6.11,6.11,0,0,0,.63-.13v1.24a3.22,3.22,0,0,1-.78.21,6.36,6.36,0,0,1-.92.08q-3.11,0-3.1-3.27V113h-1.54v-.78l1.54-.67.68-2.29h.94v2.48h3.1V113h-3.1v6.3a2.16,2.16,0,0,0,.46,1.49A1.59,1.59,0,0,0,298.52,121.27Z"/><path class="cls-2" d="M314.22,119.5a2.68,2.68,0,0,1-1.11,2.3,5.27,5.27,0,0,1-3.13.81,6.8,6.8,0,0,1-3.32-.67v-1.51a8.23,8.23,0,0,0,1.66.62,6.84,6.84,0,0,0,1.7.22,3.83,3.83,0,0,0,2-.4,1.34,1.34,0,0,0,.69-1.24,1.36,1.36,0,0,0-.54-1.07,9.22,9.22,0,0,0-2.12-1,11,11,0,0,1-2.12-1,2.9,2.9,0,0,1-.94-.94,2.59,2.59,0,0,1,.76-3.33,5,5,0,0,1,2.92-.75,8.57,8.57,0,0,1,3.38.7l-.58,1.32a7.86,7.86,0,0,0-2.92-.67,3.26,3.26,0,0,0-1.74.37,1.12,1.12,0,0,0-.59,1,1.24,1.24,0,0,0,.22.73,2.15,2.15,0,0,0,.71.58,15.5,15.5,0,0,0,1.88.79,7,7,0,0,1,2.57,1.4A2.45,2.45,0,0,1,314.22,119.5Z"/><path class="cls-2" d="M321.38,122.61a5,5,0,0,1-3.75-1.44,5.65,5.65,0,0,1-1.37-4,6.22,6.22,0,0,1,1.28-4.11,4.2,4.2,0,0,1,3.42-1.52,4,4,0,0,1,3.18,1.32,5.08,5.08,0,0,1,1.17,3.49v1h-7.37a4.25,4.25,0,0,0,.95,2.86,3.29,3.29,0,0,0,2.55,1,8.6,8.6,0,0,0,3.41-.72v1.45a9.23,9.23,0,0,1-1.62.53A9,9,0,0,1,321.38,122.61Zm-.44-9.74a2.65,2.65,0,0,0-2.06.84A3.89,3.89,0,0,0,318,116h5.6a3.54,3.54,0,0,0-.69-2.35A2.41,2.41,0,0,0,320.94,112.87Z"/><path class="cls-2" d="M335,119.5a2.68,2.68,0,0,1-1.11,2.3,5.25,5.25,0,0,1-3.13.81,6.8,6.8,0,0,1-3.32-.67v-1.51a8.23,8.23,0,0,0,1.66.62,6.9,6.9,0,0,0,1.7.22,3.9,3.9,0,0,0,2-.4,1.4,1.4,0,0,0,.14-2.31,9,9,0,0,0-2.12-1,11.32,11.32,0,0,1-2.12-1,3,3,0,0,1-.94-.94,2.5,2.5,0,0,1-.31-1.26,2.42,2.42,0,0,1,1.07-2.07,5,5,0,0,1,2.92-.75,8.53,8.53,0,0,1,3.38.7l-.58,1.32a7.82,7.82,0,0,0-2.92-.67,3.26,3.26,0,0,0-1.74.37,1.11,1.11,0,0,0-.58,1,1.17,1.17,0,0,0,.22.73,2,2,0,0,0,.7.58,15.5,15.5,0,0,0,1.88.79,6.87,6.87,0,0,1,2.57,1.4A2.45,2.45,0,0,1,335,119.5Z"/><path class="cls-2" d="M347.79,122.61a4.63,4.63,0,0,1-1.91-.39,3.65,3.65,0,0,1-1.45-1.18h-.11a13.93,13.93,0,0,1,.11,1.78v4.4h-1.62V111.71h1.32l.23,1.47h.07a3.79,3.79,0,0,1,1.46-1.27,4.42,4.42,0,0,1,1.9-.39,4,4,0,0,1,3.29,1.45,6.41,6.41,0,0,1,1.16,4.08,6.34,6.34,0,0,1-1.18,4.1A4,4,0,0,1,347.79,122.61Zm-.23-9.72a2.88,2.88,0,0,0-2.37.91,4.72,4.72,0,0,0-.76,2.89v.36a5.29,5.29,0,0,0,.76,3.23,2.84,2.84,0,0,0,2.41,1,2.5,2.5,0,0,0,2.17-1.12,5.29,5.29,0,0,0,.79-3.1,5.1,5.1,0,0,0-.79-3.07A2.59,2.59,0,0,0,347.56,112.89Z"/><path class="cls-2" d="M361.65,122.42l-.32-1.53h-.08a4.4,4.4,0,0,1-1.6,1.36,4.8,4.8,0,0,1-2,.36,3.57,3.57,0,0,1-2.5-.82,3,3,0,0,1-.9-2.33c0-2.16,1.73-3.3,5.18-3.4l1.82-.06v-.66a2.76,2.76,0,0,0-.54-1.87,2.23,2.23,0,0,0-1.73-.6,7.12,7.12,0,0,0-3,.82l-.5-1.24a7.78,7.78,0,0,1,1.73-.67,7.65,7.65,0,0,1,1.89-.24,4.07,4.07,0,0,1,2.84.85,3.54,3.54,0,0,1,.92,2.72v7.31ZM358,121.27a3.27,3.27,0,0,0,2.38-.83,3.09,3.09,0,0,0,.86-2.32v-1l-1.62.07a6,6,0,0,0-2.79.6,1.82,1.82,0,0,0-.85,1.66,1.64,1.64,0,0,0,.53,1.33A2.18,2.18,0,0,0,358,121.27Z"/><path class="cls-2" d="M373.52,122.42v-6.93a2.78,2.78,0,0,0-.6-1.95,2.43,2.43,0,0,0-1.86-.65,3.13,3.13,0,0,0-2.47.91,4.61,4.61,0,0,0-.78,3v5.62h-1.62V111.71h1.32l.26,1.47h.08a3.3,3.3,0,0,1,1.4-1.23,4.54,4.54,0,0,1,2-.43,4.07,4.07,0,0,1,2.91.93,4,4,0,0,1,1,3v7Z"/><path class="cls-2" d="M387.23,111.71v1l-2,.23a3.43,3.43,0,0,1,.48.9,3.23,3.23,0,0,1,.22,1.24,3.15,3.15,0,0,1-1.08,2.51,4.3,4.3,0,0,1-2.95.94,5.08,5.08,0,0,1-.89-.08,1.59,1.59,0,0,0-1,1.38.7.7,0,0,0,.36.65,2.65,2.65,0,0,0,1.24.21h1.9a4.22,4.22,0,0,1,2.67.73,2.55,2.55,0,0,1,.93,2.13,3,3,0,0,1-1.43,2.71,7.63,7.63,0,0,1-4.16.93,5.67,5.67,0,0,1-3.23-.78,2.67,2.67,0,0,1-.52-3.9,3.19,3.19,0,0,1,1.76-1,1.82,1.82,0,0,1-.69-.58,1.55,1.55,0,0,1-.27-.91,1.69,1.69,0,0,1,.31-1,3.24,3.24,0,0,1,1-.85,2.92,2.92,0,0,1-1.35-1.17,3.37,3.37,0,0,1-.52-1.87,3.47,3.47,0,0,1,1-2.71,4.3,4.3,0,0,1,3-1,5.5,5.5,0,0,1,1.52.19Zm-8.54,12.5a1.47,1.47,0,0,0,.73,1.32,4,4,0,0,0,2.1.45,5.85,5.85,0,0,0,3-.61,1.88,1.88,0,0,0,1-1.66,1.3,1.3,0,0,0-.54-1.2,4.1,4.1,0,0,0-2-.34H381a2.56,2.56,0,0,0-1.72.53A1.89,1.89,0,0,0,378.69,124.21Zm.88-9.07a2.15,2.15,0,0,0,.64,1.7,2.54,2.54,0,0,0,1.76.58,2.07,2.07,0,0,0,2.38-2.31,2.13,2.13,0,0,0-2.41-2.41,2.36,2.36,0,0,0-1.75.61A2.48,2.48,0,0,0,379.57,115.14Z"/><path class="cls-2" d="M394.25,113h-2.73v9.45H389.9V113H388v-.73l1.91-.59v-.59q0-3.94,3.45-4a7.33,7.33,0,0,1,2,.34l-.42,1.3a5.38,5.38,0,0,0-1.6-.3,1.57,1.57,0,0,0-1.36.61,3.44,3.44,0,0,0-.44,2v.69h2.73Z"/><path class="cls-2" d="M402.78,122.42l-.32-1.53h-.08a4.38,4.38,0,0,1-1.59,1.36,4.85,4.85,0,0,1-2,.36,3.59,3.59,0,0,1-2.5-.82,3,3,0,0,1-.9-2.33c0-2.16,1.73-3.3,5.19-3.4l1.81-.06v-.66a2.76,2.76,0,0,0-.54-1.87,2.23,2.23,0,0,0-1.73-.6,7.19,7.19,0,0,0-3,.82l-.5-1.24a7.86,7.86,0,0,1,1.74-.67,7.53,7.53,0,0,1,1.89-.24,4,4,0,0,1,2.83.85,3.51,3.51,0,0,1,.93,2.72v7.31Zm-3.66-1.15a3.27,3.27,0,0,0,2.38-.83,3,3,0,0,0,.86-2.32v-1l-1.62.07a6,6,0,0,0-2.79.6,1.84,1.84,0,0,0-.85,1.66,1.67,1.67,0,0,0,.53,1.33A2.2,2.2,0,0,0,399.12,121.27Z"/><path class="cls-2" d="M412.21,111.52a7.1,7.1,0,0,1,1.28.11l-.23,1.51a5.35,5.35,0,0,0-1.17-.15,2.83,2.83,0,0,0-2.22,1.06,3.81,3.81,0,0,0-.92,2.62v5.75h-1.62V111.71h1.33l.19,2h.08a4.7,4.7,0,0,1,1.43-1.61A3.3,3.3,0,0,1,412.21,111.52Z"/><path class="cls-2" d="M417.83,122.42l-4.06-10.71h1.74l2.3,6.35a30,30,0,0,1,.92,2.89h.08a21.89,21.89,0,0,1,.68-2.14c.38-1.09,1.23-3.45,2.56-7.1h1.74l-4.06,10.71Z"/><path class="cls-2" d="M430,122.61a4.91,4.91,0,0,1-3.74-1.44,5.61,5.61,0,0,1-1.38-4,6.22,6.22,0,0,1,1.28-4.11,4.22,4.22,0,0,1,3.42-1.52,4,4,0,0,1,3.18,1.32,5,5,0,0,1,1.18,3.49v1h-7.38a4.3,4.3,0,0,0,1,2.86,3.32,3.32,0,0,0,2.55,1,8.68,8.68,0,0,0,3.42-.72v1.45a9.6,9.6,0,0,1-1.63.53A9,9,0,0,1,430,122.61Zm-.44-9.74a2.63,2.63,0,0,0-2,.84,3.83,3.83,0,0,0-.91,2.33h5.6a3.54,3.54,0,0,0-.69-2.35A2.4,2.4,0,0,0,429.59,112.87Z"/><path class="cls-2" d="M441.61,111.52a7,7,0,0,1,1.28.11l-.22,1.51a5.5,5.5,0,0,0-1.17-.15,2.85,2.85,0,0,0-2.23,1.06,3.86,3.86,0,0,0-.92,2.62v5.75h-1.62V111.71h1.34l.18,2h.08a4.82,4.82,0,0,1,1.44-1.61A3.27,3.27,0,0,1,441.61,111.52Z"/><path class="cls-2" d="M451.71,122.42h-1.62v-15.2h1.62Z"/><path class="cls-2" d="M459.67,122.61a5,5,0,0,1-3.75-1.44,5.65,5.65,0,0,1-1.37-4,6.22,6.22,0,0,1,1.28-4.11,4.22,4.22,0,0,1,3.42-1.52,4,4,0,0,1,3.18,1.32,5.08,5.08,0,0,1,1.17,3.49v1h-7.37a4.25,4.25,0,0,0,.95,2.86,3.31,3.31,0,0,0,2.55,1,8.68,8.68,0,0,0,3.42-.72v1.45a9.6,9.6,0,0,1-1.63.53A9,9,0,0,1,459.67,122.61Zm-.44-9.74a2.65,2.65,0,0,0-2.06.84,3.89,3.89,0,0,0-.9,2.33h5.6a3.54,3.54,0,0,0-.69-2.35A2.4,2.4,0,0,0,459.23,112.87Z"/><path class="cls-2" d="M469.83,121.27a5.69,5.69,0,0,0,.83-.06c.26,0,.47-.09.63-.13v1.24a3.36,3.36,0,0,1-.78.21,6.48,6.48,0,0,1-.92.08q-3.1,0-3.1-3.27V113H465v-.78l1.54-.67.68-2.29h.94v2.48h3.1V113h-3.1v6.3a2.16,2.16,0,0,0,.46,1.49A1.59,1.59,0,0,0,469.83,121.27Z"/><path class="cls-2" d="M476.89,121.27a5.69,5.69,0,0,0,.83-.06c.26,0,.47-.09.63-.13v1.24a3.36,3.36,0,0,1-.78.21,6.48,6.48,0,0,1-.92.08q-3.11,0-3.1-3.27V113H472v-.78l1.54-.67.68-2.29h.94v2.48h3.1V113h-3.1v6.3a2.16,2.16,0,0,0,.46,1.49A1.59,1.59,0,0,0,476.89,121.27Z"/><path class="cls-2" d="M485,122.61a4.91,4.91,0,0,1-3.74-1.44,5.61,5.61,0,0,1-1.38-4,6.22,6.22,0,0,1,1.28-4.11,4.22,4.22,0,0,1,3.42-1.52,4,4,0,0,1,3.18,1.32,5,5,0,0,1,1.18,3.49v1h-7.38a4.25,4.25,0,0,0,1,2.86,3.29,3.29,0,0,0,2.54,1,8.68,8.68,0,0,0,3.42-.72v1.45a9.6,9.6,0,0,1-1.63.53A9,9,0,0,1,485,122.61Zm-.44-9.74a2.63,2.63,0,0,0-2.05.84,3.83,3.83,0,0,0-.91,2.33h5.6a3.54,3.54,0,0,0-.69-2.35A2.4,2.4,0,0,0,484.57,112.87Z"/><path class="cls-2" d="M498.61,119.5a2.68,2.68,0,0,1-1.11,2.3,5.22,5.22,0,0,1-3.12.81,6.78,6.78,0,0,1-3.32-.67v-1.51a7.92,7.92,0,0,0,1.65.62,6.9,6.9,0,0,0,1.7.22,3.9,3.9,0,0,0,2-.4,1.4,1.4,0,0,0,.14-2.31,9.09,9.09,0,0,0-2.11-1,11.18,11.18,0,0,1-2.13-1,3,3,0,0,1-.94-.94,2.5,2.5,0,0,1-.3-1.26,2.41,2.41,0,0,1,1.06-2.07,5,5,0,0,1,2.92-.75,8.53,8.53,0,0,1,3.38.7l-.58,1.32a7.78,7.78,0,0,0-2.92-.67,3.25,3.25,0,0,0-1.73.37,1.1,1.1,0,0,0-.59,1,1.17,1.17,0,0,0,.22.73,2,2,0,0,0,.71.58,15.15,15.15,0,0,0,1.87.79,7,7,0,0,1,2.58,1.4A2.49,2.49,0,0,1,498.61,119.5Z"/><path class="cls-2" d="M504.71,121.27a5.69,5.69,0,0,0,.83-.06,5.59,5.59,0,0,0,.63-.13v1.24a3.26,3.26,0,0,1-.77.21,6.61,6.61,0,0,1-.93.08q-3.11,0-3.1-3.27V113h-1.54v-.78l1.54-.67.68-2.29H503v2.48h3.1V113H503v6.3a2.16,2.16,0,0,0,.46,1.49A1.59,1.59,0,0,0,504.71,121.27Z"/><path class="cls-2" d="M514.61,118.48V118a4.44,4.44,0,0,1,.35-1.88,5.15,5.15,0,0,1,1.31-1.56,9.05,9.05,0,0,0,1.68-1.68,2.6,2.6,0,0,0,.34-1.37,1.89,1.89,0,0,0-.64-1.54,2.77,2.77,0,0,0-1.84-.54,6.28,6.28,0,0,0-1.5.18,8,8,0,0,0-1.68.66l-.58-1.32a8.28,8.28,0,0,1,3.86-1,4.24,4.24,0,0,1,2.9.92,3.28,3.28,0,0,1,1,2.59,3.69,3.69,0,0,1-.19,1.25,3.34,3.34,0,0,1-.56,1,13.31,13.31,0,0,1-1.6,1.56,5.92,5.92,0,0,0-1.3,1.39,3,3,0,0,0-.32,1.49v.32Zm-.48,2.9c0-.89.39-1.33,1.17-1.33a1.16,1.16,0,0,1,.88.34,1.47,1.47,0,0,1,.31,1,1.38,1.38,0,0,1-.32,1,1.12,1.12,0,0,1-.87.35,1.18,1.18,0,0,1-.84-.31A1.32,1.32,0,0,1,514.13,121.38Z"/></g></svg>