<svg xmlns="http://www.w3.org/2000/svg" width="213.8mm" height="95.64mm" viewBox="0 0 606.04 271.11"><defs><style>.cls-1{fill:#28292c;}.cls-2{fill:#fff;}</style></defs><title>spørgsmål 1</title><g id="arbejdslag_start"><polygon class="cls-1" points="570.25 222.09 564.5 185.86 586.99 185.86 586.99 9.09 36.36 9.09 36.36 164.36 36.36 185.86 80.41 185.86 76.36 218.91 58.13 216.07 82.59 256.28 120.54 229.97 104.82 224.65 130.06 185.86 290.92 185.86 296.23 223.06 277.99 225.87 313.46 256.8 341.68 220.24 325.08 219.93 332.1 185.86 516.69 185.86 541.81 227.91 526.11 233.27 564.13 259.47 588.48 219.2 570.25 222.09"/><path class="cls-2" d="M226.41,40.74h-8.07V50.9h-2.6V21.71h10.67q4.67,0,6.87,2.27c1.47,1.51,2.2,3.84,2.2,7Q235.48,40.74,226.41,40.74Zm-8.07-2.31h8.07q6.38,0,6.38-7.48,0-3.57-1.51-5.25T226.41,24h-8.07Z"/><path class="cls-2" d="M254.38,36.16V47.42c.11,1,1,1.65,2.73,1.84l-.12,2a6.09,6.09,0,0,1-4.75-1.68,19.59,19.59,0,0,1-7.9,1.72,5.52,5.52,0,0,1-4.28-1.61,6.64,6.64,0,0,1-1.47-4.62,6,6,0,0,1,1.49-4.46,7.72,7.72,0,0,1,4.68-1.78l7.14-.72v-2a4.63,4.63,0,0,0-1-3.38,3.69,3.69,0,0,0-2.75-1,63.6,63.6,0,0,0-7,.5l-1.3.13-.13-2a44.58,44.58,0,0,1,8.09-.88q3.47,0,5,1.64A7.12,7.12,0,0,1,254.38,36.16Zm-13.19,8.78q0,4.25,3.49,4.24a17.12,17.12,0,0,0,3.32-.36,19.84,19.84,0,0,0,2.85-.73l1.05-.38v-7.6l-6.84.71a4.28,4.28,0,0,0-3,1.18A4.23,4.23,0,0,0,241.19,44.94Z"/><path class="cls-2" d="M263.37,50.9h-2.48v-21h2.48v1.56a14,14,0,0,1,6.84-2q4.2,0,5.61,2.23t1.41,8.15v11h-2.52V40c0-3.22-.31-5.39-.93-6.53s-1.93-1.7-3.94-1.7a11.93,11.93,0,0,0-3.09.44,14,14,0,0,0-2.5.9l-.88.42Z"/><path class="cls-2" d="M300.29,54.09c0,2.38-.77,4.11-2.29,5.17s-3.9,1.6-7.12,1.6-5.45-.47-6.68-1.39-1.85-2.62-1.85-5.08a4.8,4.8,0,0,1,.76-2.84,11.73,11.73,0,0,1,2.64-2.45c-.7-.45-1.05-1.4-1.05-2.86a7.89,7.89,0,0,1,1-2.65l.34-.63q-3.45-1.43-3.45-6.34,0-7.14,7.61-7.14a15.38,15.38,0,0,1,3.78.42l.63.13,6.09-.13v2.23l-4.2-.09c1,1,1.51,2.67,1.51,5s-.64,4-1.91,5-3.29,1.58-6,1.58a12.21,12.21,0,0,1-2.14-.17,10.16,10.16,0,0,0-.84,2.6c0,.93.27,1.49.82,1.7a20.42,20.42,0,0,0,4.89.34c2.72,0,4.64.42,5.78,1.22S300.29,51.71,300.29,54.09Zm-15.42.13c0,1.68.42,2.84,1.26,3.49s2.47,1,4.87,1,4.13-.34,5.17-1a3.8,3.8,0,0,0,1.55-3.44c0-1.61-.37-2.65-1.13-3.13a8.93,8.93,0,0,0-4.33-.71l-4.74-.17a8.12,8.12,0,0,0-2.1,1.91A3.71,3.71,0,0,0,284.87,54.22Zm.3-17.62c0,1.81.39,3.08,1.17,3.82a5.67,5.67,0,0,0,4,1.12,5.76,5.76,0,0,0,4-1.1c.78-.72,1.18-2,1.18-3.84a5.26,5.26,0,0,0-1.18-3.88,7.43,7.43,0,0,0-7.94,0A5.29,5.29,0,0,0,285.17,36.6Z"/><path class="cls-2" d="M308,32.13V50.9h-2.52V32.13h-2.73V29.9h2.73V27.76q0-4.46,1.22-6c.81-1.05,2.26-1.57,4.33-1.57l4.07.21v2.14c-1.65-.06-2.88-.08-3.69-.08a3,3,0,0,0-2.69,1.09c-.48.73-.72,2.15-.72,4.28v2.1h6.35v2.23Z"/><path class="cls-2" d="M332.71,36.16V47.42c.11,1,1,1.65,2.73,1.84l-.13,2a6.07,6.07,0,0,1-4.74-1.68,19.63,19.63,0,0,1-7.9,1.72,5.51,5.51,0,0,1-4.28-1.61,6.64,6.64,0,0,1-1.47-4.62,6,6,0,0,1,1.49-4.46,7.72,7.72,0,0,1,4.68-1.78l7.14-.72v-2a4.63,4.63,0,0,0-1-3.38,3.69,3.69,0,0,0-2.75-1,63.6,63.6,0,0,0-7,.5l-1.3.13-.13-2a44.58,44.58,0,0,1,8.09-.88q3.47,0,5,1.64A7.12,7.12,0,0,1,332.71,36.16Zm-13.19,8.78q0,4.25,3.49,4.24a17,17,0,0,0,3.31-.36,19.68,19.68,0,0,0,2.86-.73l1.05-.38v-7.6l-6.84.71a4.33,4.33,0,0,0-3,1.18A4.27,4.27,0,0,0,319.52,44.94Z"/><path class="cls-2" d="M339.22,50.9v-21h2.48v3a22.41,22.41,0,0,1,3.8-2.1,17.81,17.81,0,0,1,4.13-1.35V32a23.39,23.39,0,0,0-3.78,1.16,31.49,31.49,0,0,0-3.06,1.36l-1.09.63V50.9Z"/><path class="cls-2" d="M351.44,29.9h2.77l5.25,18.82h1.68L366.6,29.9h2.61l-6.14,21h-5.5Z"/><path class="cls-2" d="M387,48.8l1.26-.12.09,2a65.53,65.53,0,0,1-8,.59c-3,0-5.14-.92-6.35-2.69s-1.8-4.48-1.8-8.14q0-11,8.65-11,4.16,0,6.22,2.38t2.05,7.58l-.08,2H374.75q0,3.87,1.32,5.74t4.54,1.86C382.75,49.05,384.89,49,387,48.8Zm-12.26-9.45h11.84q0-4.16-1.36-5.92a5.17,5.17,0,0,0-4.37-1.76,5.69,5.69,0,0,0-4.56,1.82Q374.76,35.32,374.75,39.35Z"/><path class="cls-2" d="M394.28,50.9v-21h2.48v3a22.41,22.41,0,0,1,3.8-2.1,17.88,17.88,0,0,1,4.14-1.35V32a22.8,22.8,0,0,0-3.78,1.16,30.77,30.77,0,0,0-3.07,1.36l-1.09.63V50.9Z"/><path class="cls-2" d="M60.21,116.73H58.55V110H51v6.72H49.37V102.45H51v6.08h7.52v-6.08h1.66Z"/><path class="cls-2" d="M66.23,116.73,62.16,106H63.9l2.31,6.34a29.77,29.77,0,0,1,.91,2.89h.08c.07-.34.3-1.05.68-2.14s1.24-3.45,2.56-7.09h1.74l-4.06,10.7Z"/><path class="cls-2" d="M83.14,111.37a5.92,5.92,0,0,1-1.32,4.09,4.66,4.66,0,0,1-3.64,1.46,4.81,4.81,0,0,1-2.55-.67,4.5,4.5,0,0,1-1.72-1.93,6.81,6.81,0,0,1-.6-2.95,5.9,5.9,0,0,1,1.3-4.08,4.66,4.66,0,0,1,3.64-1.46,4.54,4.54,0,0,1,3.57,1.5A5.87,5.87,0,0,1,83.14,111.37Zm-8.15,0a5,5,0,0,0,.82,3.12,2.83,2.83,0,0,0,2.41,1.08,2.89,2.89,0,0,0,2.42-1.07,5.06,5.06,0,0,0,.82-3.13,5,5,0,0,0-.82-3.1,2.91,2.91,0,0,0-2.44-1.06,2.86,2.86,0,0,0-2.4,1A5.05,5.05,0,0,0,75,111.37Z"/><path class="cls-2" d="M90.86,105.83a6.12,6.12,0,0,1,1.28.12l-.22,1.5a5.28,5.28,0,0,0-1.17-.14,2.84,2.84,0,0,0-2.22,1A3.83,3.83,0,0,0,87.6,111v5.74H86V106h1.34l.19,2h.07A4.73,4.73,0,0,1,89,106.4,3.2,3.2,0,0,1,90.86,105.83Z"/><path class="cls-2" d="M113,116.73v-7a2.89,2.89,0,0,0-.54-1.92,2.11,2.11,0,0,0-1.7-.64,2.75,2.75,0,0,0-2.24.87,4.13,4.13,0,0,0-.72,2.67v6h-1.62v-7a2.84,2.84,0,0,0-.55-1.92,2.11,2.11,0,0,0-1.71-.64,2.64,2.64,0,0,0-2.23.91,5,5,0,0,0-.71,3v5.62H99.34V106h1.32l.26,1.46H101a3.19,3.19,0,0,1,1.3-1.22,4,4,0,0,1,1.87-.44,3.19,3.19,0,0,1,3.28,1.82h.07a3.43,3.43,0,0,1,1.39-1.33,4.28,4.28,0,0,1,2.07-.49,3.63,3.63,0,0,1,2.72.93,4.21,4.21,0,0,1,.9,3v7Z"/><path class="cls-2" d="M124.53,116.73l-.33-1.52h-.07a4.59,4.59,0,0,1-1.6,1.36,4.83,4.83,0,0,1-2,.35,3.54,3.54,0,0,1-2.49-.82,3,3,0,0,1-.91-2.33q0-3.24,5.19-3.4l1.82-.06v-.66a2.67,2.67,0,0,0-.55-1.86,2.23,2.23,0,0,0-1.73-.6,7,7,0,0,0-3,.82l-.5-1.24a7.88,7.88,0,0,1,1.74-.68,7.65,7.65,0,0,1,1.89-.24,4,4,0,0,1,2.83.85,3.52,3.52,0,0,1,.93,2.72v7.31Zm-3.67-1.14a3.3,3.3,0,0,0,2.38-.83,3.08,3.08,0,0,0,.87-2.33v-1l-1.62.06a6,6,0,0,0-2.79.6,1.83,1.83,0,0,0-.86,1.66,1.66,1.66,0,0,0,.54,1.34A2.22,2.22,0,0,0,120.86,115.59Z"/><path class="cls-2" d="M136.39,116.73v-6.92a2.83,2.83,0,0,0-.59-2,2.43,2.43,0,0,0-1.87-.64,3.06,3.06,0,0,0-2.46.91,4.56,4.56,0,0,0-.78,3v5.62h-1.62V106h1.32l.26,1.46h.08a3.31,3.31,0,0,1,1.39-1.22,4.56,4.56,0,0,1,2-.44,4.07,4.07,0,0,1,2.91.93,4,4,0,0,1,1,3v7Z"/><path class="cls-2" d="M150.1,106v1l-2,.24a3.2,3.2,0,0,1,.49.89,3.47,3.47,0,0,1,.21,1.24,3.14,3.14,0,0,1-1.07,2.51,5.1,5.1,0,0,1-3.85.86,1.6,1.6,0,0,0-1,1.38.7.7,0,0,0,.36.65,2.62,2.62,0,0,0,1.24.21h1.89a4.22,4.22,0,0,1,2.67.73,2.53,2.53,0,0,1,.94,2.13,3,3,0,0,1-1.43,2.71,7.65,7.65,0,0,1-4.16.93,5.7,5.7,0,0,1-3.24-.78,2.5,2.5,0,0,1-1.13-2.2,2.44,2.44,0,0,1,.62-1.69,3.16,3.16,0,0,1,1.76-1,1.67,1.67,0,0,1-.69-.58,1.48,1.48,0,0,1-.28-.9,1.77,1.77,0,0,1,.31-1,3.31,3.31,0,0,1,1-.85,2.9,2.9,0,0,1-1.35-1.16,3.41,3.41,0,0,1-.53-1.88,3.49,3.49,0,0,1,1.06-2.71,4.33,4.33,0,0,1,3-1,5.41,5.41,0,0,1,1.51.2Zm-8.53,12.5a1.42,1.42,0,0,0,.73,1.31,4,4,0,0,0,2.1.45,5.81,5.81,0,0,0,3-.61,1.85,1.85,0,0,0,1-1.65,1.34,1.34,0,0,0-.53-1.21,4.29,4.29,0,0,0-2-.33H143.9a2.58,2.58,0,0,0-1.72.52A1.89,1.89,0,0,0,141.57,118.53Zm.88-9.08a2.18,2.18,0,0,0,.63,1.7,2.5,2.5,0,0,0,1.77.58,2.07,2.07,0,0,0,2.37-2.31,2.13,2.13,0,0,0-2.4-2.41,2.39,2.39,0,0,0-1.76.62A2.47,2.47,0,0,0,142.45,109.45Z"/><path class="cls-2" d="M156.82,116.92a4.91,4.91,0,0,1-3.74-1.44,5.56,5.56,0,0,1-1.38-4,6.23,6.23,0,0,1,1.28-4.12,4.25,4.25,0,0,1,3.42-1.52,4.07,4.07,0,0,1,3.19,1.32,5.11,5.11,0,0,1,1.17,3.5v1h-7.38a4.23,4.23,0,0,0,1,2.86,3.29,3.29,0,0,0,2.54,1,8.68,8.68,0,0,0,3.42-.72v1.44a7.9,7.9,0,0,1-1.63.53A9,9,0,0,1,156.82,116.92Zm-.44-9.73a2.63,2.63,0,0,0-2,.84,3.86,3.86,0,0,0-.91,2.32H159a3.62,3.62,0,0,0-.68-2.35A2.43,2.43,0,0,0,156.38,107.19Z"/><path class="cls-2" d="M170.24,106V113a2.78,2.78,0,0,0,.6,2,2.4,2.4,0,0,0,1.86.65,3.06,3.06,0,0,0,2.46-.92,4.68,4.68,0,0,0,.77-3V106h1.62v10.7h-1.33l-.24-1.44h-.09a3.28,3.28,0,0,1-1.38,1.22,4.63,4.63,0,0,1-2,.41,4.09,4.09,0,0,1-2.93-.92,4,4,0,0,1-1-3v-7Z"/><path class="cls-2" d="M182.61,116.73H181v-15.2h1.62Z"/><path class="cls-2" d="M184.35,106h1.74l2.34,6.1a21.73,21.73,0,0,1,1,3h.08c.08-.33.26-.9.53-1.71s1.15-3.27,2.65-7.41h1.74l-4.6,12.18a6.14,6.14,0,0,1-1.6,2.57,3.41,3.41,0,0,1-2.24.75,6.53,6.53,0,0,1-1.46-.16v-1.3a5.54,5.54,0,0,0,1.2.12,2.48,2.48,0,0,0,2.38-1.88l.6-1.52Z"/><path class="cls-2" d="M197.73,111.25a18.52,18.52,0,0,1,1.28-1.56l3.46-3.66h1.92l-4.34,4.56,4.64,6.14h-2L199,111.67l-1.22,1.06v4h-1.6v-15.2h1.6v8.06c0,.36,0,.91-.08,1.66Z"/><path class="cls-2" d="M208.23,111.25a16.72,16.72,0,0,1,1.28-1.56L213,106h1.93l-4.34,4.56,4.64,6.14h-2l-3.78-5.06-1.22,1.06v4h-1.6v-15.2h1.6v8.06c0,.36,0,.91-.08,1.66Z"/><path class="cls-2" d="M221.65,116.92a4.93,4.93,0,0,1-3.75-1.44,5.6,5.6,0,0,1-1.37-4,6.23,6.23,0,0,1,1.27-4.12,4.25,4.25,0,0,1,3.43-1.52,4,4,0,0,1,3.18,1.32,5.11,5.11,0,0,1,1.17,3.5v1h-7.37a4.23,4.23,0,0,0,.95,2.86,3.29,3.29,0,0,0,2.54,1,8.61,8.61,0,0,0,3.42-.72v1.44a7.82,7.82,0,0,1-1.62.53A9,9,0,0,1,221.65,116.92Zm-.44-9.73a2.65,2.65,0,0,0-2.06.84,3.86,3.86,0,0,0-.9,2.32h5.59a3.56,3.56,0,0,0-.68-2.35A2.42,2.42,0,0,0,221.21,107.19Z"/><path class="cls-2" d="M233.23,105.83a6.26,6.26,0,0,1,1.28.12l-.23,1.5a5.28,5.28,0,0,0-1.17-.14,2.84,2.84,0,0,0-2.22,1A3.82,3.82,0,0,0,230,111v5.74h-1.63V106h1.34l.19,2H230a4.61,4.61,0,0,1,1.43-1.61A3.23,3.23,0,0,1,233.23,105.83Z"/><path class="cls-2" d="M243.31,111.25a16.72,16.72,0,0,1,1.28-1.56L248,106H250l-4.34,4.56,4.64,6.14h-2l-3.78-5.06-1.22,1.06v4H241.7v-15.2h1.61v8.06c0,.36,0,.91-.08,1.66Z"/><path class="cls-2" d="M258.78,116.73l-.32-1.52h-.08a4.48,4.48,0,0,1-1.59,1.36,4.86,4.86,0,0,1-2,.35,3.59,3.59,0,0,1-2.5-.82,3,3,0,0,1-.9-2.33q0-3.24,5.19-3.4l1.81-.06v-.66a2.72,2.72,0,0,0-.54-1.86,2.23,2.23,0,0,0-1.73-.6,7,7,0,0,0-3,.82l-.5-1.24a7.88,7.88,0,0,1,1.74-.68,7.53,7.53,0,0,1,1.89-.24,4,4,0,0,1,2.83.85,3.52,3.52,0,0,1,.93,2.72v7.31Zm-3.66-1.14a3.31,3.31,0,0,0,2.38-.83,3.07,3.07,0,0,0,.86-2.33v-1l-1.62.06a6,6,0,0,0-2.78.6,1.83,1.83,0,0,0-.86,1.66,1.69,1.69,0,0,0,.53,1.34A2.25,2.25,0,0,0,255.12,115.59Z"/><path class="cls-2" d="M270.65,116.73v-6.92a2.79,2.79,0,0,0-.6-2,2.41,2.41,0,0,0-1.86-.64,3.06,3.06,0,0,0-2.46.91,4.56,4.56,0,0,0-.78,3v5.62h-1.62V106h1.31l.27,1.46H265a3.25,3.25,0,0,1,1.39-1.22,4.55,4.55,0,0,1,2-.44,4.07,4.07,0,0,1,2.91.93,4,4,0,0,1,1,3v7Z"/><path class="cls-2" d="M282.32,106V113a2.78,2.78,0,0,0,.6,2,2.4,2.4,0,0,0,1.86.65,3.06,3.06,0,0,0,2.46-.92,4.68,4.68,0,0,0,.77-3V106h1.62v10.7H288.3l-.24-1.44H288a3.28,3.28,0,0,1-1.38,1.22,4.63,4.63,0,0,1-2,.41,4.09,4.09,0,0,1-2.93-.92,4,4,0,0,1-1-3v-7Z"/><path class="cls-2" d="M300.4,116.73v-6.92a2.79,2.79,0,0,0-.6-2,2.43,2.43,0,0,0-1.87-.64,3.07,3.07,0,0,0-2.46.91,4.56,4.56,0,0,0-.78,3v5.62h-1.62V106h1.32l.26,1.46h.08a3.27,3.27,0,0,1,1.4-1.22,4.52,4.52,0,0,1,2-.44,4.07,4.07,0,0,1,2.91.93,4,4,0,0,1,1,3v7Z"/><path class="cls-2" d="M312.63,115.29h-.09a3.78,3.78,0,0,1-3.36,1.63,4,4,0,0,1-3.26-1.43,6.31,6.31,0,0,1-1.17-4.08,6.41,6.41,0,0,1,1.17-4.11,3.94,3.94,0,0,1,3.26-1.47,3.89,3.89,0,0,1,3.34,1.58h.13l-.07-.77,0-.75v-4.36h1.63v15.2h-1.32Zm-3.24.28a2.93,2.93,0,0,0,2.41-.91,4.54,4.54,0,0,0,.74-2.91v-.34a5.42,5.42,0,0,0-.75-3.25,2.88,2.88,0,0,0-2.42-1,2.47,2.47,0,0,0-2.18,1.11,5.46,5.46,0,0,0-.76,3.13,5.28,5.28,0,0,0,.75,3.09A2.55,2.55,0,0,0,309.39,115.57Z"/><path class="cls-2" d="M326.36,106v1l-2,.24a3.2,3.2,0,0,1,.49.89,3.47,3.47,0,0,1,.21,1.24,3.14,3.14,0,0,1-1.07,2.51,5.1,5.1,0,0,1-3.85.86,1.6,1.6,0,0,0-1,1.38.7.7,0,0,0,.36.65,2.62,2.62,0,0,0,1.24.21h1.89a4.22,4.22,0,0,1,2.67.73,2.56,2.56,0,0,1,.94,2.13,3,3,0,0,1-1.43,2.71,7.65,7.65,0,0,1-4.16.93,5.7,5.7,0,0,1-3.24-.78,2.51,2.51,0,0,1-1.14-2.2,2.44,2.44,0,0,1,.63-1.69,3.16,3.16,0,0,1,1.76-1,1.61,1.61,0,0,1-.69-.58,1.48,1.48,0,0,1-.28-.9,1.7,1.7,0,0,1,.31-1,3.31,3.31,0,0,1,1-.85,2.9,2.9,0,0,1-1.35-1.16,3.41,3.41,0,0,1-.53-1.88,3.49,3.49,0,0,1,1.06-2.71,4.33,4.33,0,0,1,3-1,5.41,5.41,0,0,1,1.51.2Zm-8.53,12.5a1.42,1.42,0,0,0,.73,1.31,4,4,0,0,0,2.1.45,5.81,5.81,0,0,0,3-.61,1.85,1.85,0,0,0,1-1.65,1.34,1.34,0,0,0-.53-1.21,4.29,4.29,0,0,0-2-.33h-1.94a2.58,2.58,0,0,0-1.72.52A1.89,1.89,0,0,0,317.83,118.53Zm.88-9.08a2.18,2.18,0,0,0,.63,1.7,2.5,2.5,0,0,0,1.77.58,2.07,2.07,0,0,0,2.37-2.31,2.13,2.13,0,0,0-2.4-2.41,2.39,2.39,0,0,0-1.76.62A2.47,2.47,0,0,0,318.71,109.45Z"/><path class="cls-2" d="M335.14,116.73l-.32-1.52h-.08a4.42,4.42,0,0,1-1.6,1.36,4.81,4.81,0,0,1-2,.35,3.57,3.57,0,0,1-2.5-.82,3,3,0,0,1-.9-2.33q0-3.24,5.18-3.4l1.82-.06v-.66a2.72,2.72,0,0,0-.54-1.86,2.23,2.23,0,0,0-1.73-.6,7,7,0,0,0-3,.82l-.5-1.24a8,8,0,0,1,1.73-.68,7.65,7.65,0,0,1,1.89-.24,4.07,4.07,0,0,1,2.84.85,3.52,3.52,0,0,1,.92,2.72v7.31Zm-3.66-1.14a3.31,3.31,0,0,0,2.38-.83,3.11,3.11,0,0,0,.86-2.33v-1l-1.62.06a6,6,0,0,0-2.79.6,1.82,1.82,0,0,0-.85,1.66,1.69,1.69,0,0,0,.53,1.34A2.25,2.25,0,0,0,331.48,115.59Zm3.21-13.1a2,2,0,0,1-.6,1.54,2.47,2.47,0,0,1-3.17,0,2,2,0,0,1-.58-1.53,2,2,0,0,1,.59-1.52,2.18,2.18,0,0,1,1.57-.56,2.21,2.21,0,0,1,1.59.58A2,2,0,0,1,334.69,102.49Zm-1.05,0a1.09,1.09,0,0,0-.32-.84,1.17,1.17,0,0,0-.82-.3,1.13,1.13,0,0,0-.82.3,1.06,1.06,0,0,0-.33.84,1,1,0,0,0,1.15,1.14,1.19,1.19,0,0,0,.82-.29A1.12,1.12,0,0,0,333.64,102.51Z"/><path class="cls-2" d="M346.59,113.81a2.65,2.65,0,0,1-1.12,2.3,5.22,5.22,0,0,1-3.12.81,6.78,6.78,0,0,1-3.32-.67v-1.5a7.9,7.9,0,0,0,1.65.61,7,7,0,0,0,1.71.23,3.85,3.85,0,0,0,1.95-.41,1.39,1.39,0,0,0,.14-2.3,8.17,8.17,0,0,0-2.11-1,11.85,11.85,0,0,1-2.13-1,2.89,2.89,0,0,1-.93-1,2.59,2.59,0,0,1,.75-3.32,4.94,4.94,0,0,1,2.92-.76,8.67,8.67,0,0,1,3.38.7l-.57,1.32a7.83,7.83,0,0,0-2.92-.66,3.37,3.37,0,0,0-1.74.36,1.12,1.12,0,0,0-.59,1,1.26,1.26,0,0,0,.22.73,2.15,2.15,0,0,0,.71.57,15.44,15.44,0,0,0,1.87.8,7,7,0,0,1,2.58,1.39A2.5,2.5,0,0,1,346.59,113.81Z"/><path class="cls-2" d="M356.76,116.73,352.7,106h1.74l2.3,6.34c.52,1.49.83,2.45.92,2.89h.08c.07-.34.3-1.05.68-2.14s1.23-3.45,2.56-7.09h1.74l-4.06,10.7Z"/><path class="cls-2" d="M369,116.92a4.91,4.91,0,0,1-3.74-1.44,5.56,5.56,0,0,1-1.38-4,6.23,6.23,0,0,1,1.28-4.12,4.25,4.25,0,0,1,3.42-1.52,4,4,0,0,1,3.18,1.32,5.06,5.06,0,0,1,1.18,3.5v1h-7.38a4.28,4.28,0,0,0,1,2.86,3.33,3.33,0,0,0,2.55,1,8.68,8.68,0,0,0,3.42-.72v1.44a8.1,8.1,0,0,1-1.63.53A9,9,0,0,1,369,116.92Zm-.44-9.73a2.63,2.63,0,0,0-2,.84,3.8,3.8,0,0,0-.91,2.32h5.6a3.56,3.56,0,0,0-.69-2.35A2.39,2.39,0,0,0,368.52,107.19Z"/><path class="cls-2" d="M382.94,115.29h-.08a3.81,3.81,0,0,1-3.36,1.63,4,4,0,0,1-3.27-1.43,7.72,7.72,0,0,1,0-8.19,4.33,4.33,0,0,1,6.6.11H383l-.06-.77,0-.75v-4.36h1.62v15.2h-1.32Zm-3.24.28a2.93,2.93,0,0,0,2.41-.91,4.53,4.53,0,0,0,.75-2.91v-.34a5.41,5.41,0,0,0-.76-3.25,2.86,2.86,0,0,0-2.42-1,2.47,2.47,0,0,0-2.18,1.11,5.54,5.54,0,0,0-.76,3.13,5.2,5.2,0,0,0,.76,3.09A2.53,2.53,0,0,0,379.7,115.57Z"/><path class="cls-2" d="M398.09,105.85a4,4,0,0,1,3.28,1.44,6.31,6.31,0,0,1,1.16,4.08,6.41,6.41,0,0,1-1.17,4.1,4,4,0,0,1-3.27,1.45,4.59,4.59,0,0,1-1.91-.38,3.61,3.61,0,0,1-1.45-1.19h-.12l-.34,1.38h-1.16v-15.2h1.62v3.7c0,.82,0,1.57-.08,2.22h.08A3.85,3.85,0,0,1,398.09,105.85Zm-.23,1.36a2.86,2.86,0,0,0-2.4,1,7.38,7.38,0,0,0,0,6.44,2.9,2.9,0,0,0,2.42,1,2.51,2.51,0,0,0,2.22-1.09,5.59,5.59,0,0,0,.73-3.13,5.4,5.4,0,0,0-.73-3.12A2.59,2.59,0,0,0,397.86,107.21Z"/><path class="cls-2" d="M410.25,105.83a6.26,6.26,0,0,1,1.28.12l-.23,1.5a5.28,5.28,0,0,0-1.17-.14,2.87,2.87,0,0,0-2.22,1A3.87,3.87,0,0,0,407,111v5.74h-1.62V106h1.33l.19,2H407a4.71,4.71,0,0,1,1.43-1.61A3.23,3.23,0,0,1,410.25,105.83Z"/><path class="cls-2" d="M415.05,106V113a2.78,2.78,0,0,0,.6,2,2.43,2.43,0,0,0,1.86.65,3.06,3.06,0,0,0,2.46-.92,4.61,4.61,0,0,0,.78-3V106h1.62v10.7H421l-.23-1.44h-.09a3.28,3.28,0,0,1-1.38,1.22,4.65,4.65,0,0,1-2,.41,4.06,4.06,0,0,1-2.92-.92,4,4,0,0,1-1-3v-7Z"/><path class="cls-2" d="M434.57,106v1l-2,.24a3,3,0,0,1,.49.89,3.47,3.47,0,0,1,.22,1.24,3.15,3.15,0,0,1-1.08,2.51,5.1,5.1,0,0,1-3.85.86,1.6,1.6,0,0,0-1,1.38.7.7,0,0,0,.36.65,2.62,2.62,0,0,0,1.24.21h1.9a4.26,4.26,0,0,1,2.67.73,2.55,2.55,0,0,1,.93,2.13A3,3,0,0,1,433,120.6a7.63,7.63,0,0,1-4.16.93,5.65,5.65,0,0,1-3.23-.78,2.51,2.51,0,0,1-1.14-2.2,2.48,2.48,0,0,1,.62-1.69,3.2,3.2,0,0,1,1.76-1,1.74,1.74,0,0,1-.69-.58,1.55,1.55,0,0,1-.28-.9,1.71,1.71,0,0,1,.32-1,3.26,3.26,0,0,1,1-.85,2.9,2.9,0,0,1-1.35-1.16,3.41,3.41,0,0,1-.52-1.88,3.48,3.48,0,0,1,1.05-2.71,4.34,4.34,0,0,1,3-1,5.36,5.36,0,0,1,1.51.2ZM426,118.53a1.42,1.42,0,0,0,.73,1.31,4,4,0,0,0,2.1.45,5.87,5.87,0,0,0,3-.61,1.87,1.87,0,0,0,1-1.65,1.32,1.32,0,0,0-.54-1.21,4.24,4.24,0,0,0-2-.33h-1.95a2.55,2.55,0,0,0-1.71.52A1.9,1.9,0,0,0,426,118.53Zm.88-9.08a2.18,2.18,0,0,0,.63,1.7,2.53,2.53,0,0,0,1.77.58,2.07,2.07,0,0,0,2.37-2.31,2.13,2.13,0,0,0-2.4-2.41,2.39,2.39,0,0,0-1.76.62A2.47,2.47,0,0,0,426.91,109.45Z"/><path class="cls-2" d="M448.54,116.73l-.32-1.52h-.08a4.5,4.5,0,0,1-1.6,1.36,4.81,4.81,0,0,1-2,.35,3.55,3.55,0,0,1-2.5-.82,3,3,0,0,1-.9-2.33q0-3.24,5.18-3.4l1.82-.06v-.66a2.72,2.72,0,0,0-.54-1.86,2.24,2.24,0,0,0-1.74-.6,7,7,0,0,0-3,.82l-.5-1.24a7.79,7.79,0,0,1,1.73-.68,7.65,7.65,0,0,1,1.89-.24,4.07,4.07,0,0,1,2.84.85,3.56,3.56,0,0,1,.92,2.72v7.31Zm-3.66-1.14a3.31,3.31,0,0,0,2.38-.83,3.11,3.11,0,0,0,.86-2.33v-1l-1.62.06a6,6,0,0,0-2.79.6,1.82,1.82,0,0,0-.85,1.66,1.66,1.66,0,0,0,.53,1.34A2.23,2.23,0,0,0,444.88,115.59Z"/><path class="cls-2" d="M457.91,107.29h-2.73v9.44h-1.62v-9.44h-1.91v-.74l1.91-.58v-.6q0-3.95,3.45-3.94a7,7,0,0,1,2,.34l-.42,1.3a5.5,5.5,0,0,0-1.6-.31,1.56,1.56,0,0,0-1.36.62,3.38,3.38,0,0,0-.44,2v.7h2.73Z"/><path class="cls-2" d="M470,116.92a4.54,4.54,0,0,1-1.9-.38,3.54,3.54,0,0,1-1.45-1.19h-.12a14.12,14.12,0,0,1,.12,1.78v4.4h-1.63V106h1.32l.23,1.46h.08a3.78,3.78,0,0,1,1.45-1.27,4.42,4.42,0,0,1,1.9-.39,4,4,0,0,1,3.29,1.46,7.73,7.73,0,0,1,0,8.18A4,4,0,0,1,470,116.92Zm-.23-9.71a2.86,2.86,0,0,0-2.37.91,4.63,4.63,0,0,0-.75,2.89v.36a5.39,5.39,0,0,0,.75,3.23,2.87,2.87,0,0,0,2.41,1,2.51,2.51,0,0,0,2.17-1.13,5.25,5.25,0,0,0,.79-3.09,5.06,5.06,0,0,0-.79-3.07A2.56,2.56,0,0,0,469.8,107.21Z"/><path class="cls-2" d="M483.89,116.73l-.32-1.52h-.08a4.42,4.42,0,0,1-1.6,1.36,4.81,4.81,0,0,1-2,.35,3.57,3.57,0,0,1-2.5-.82,3,3,0,0,1-.9-2.33q0-3.24,5.18-3.4l1.82-.06v-.66a2.72,2.72,0,0,0-.54-1.86,2.23,2.23,0,0,0-1.73-.6,7,7,0,0,0-3,.82l-.5-1.24a8,8,0,0,1,1.73-.68,7.65,7.65,0,0,1,1.89-.24,4.07,4.07,0,0,1,2.84.85,3.52,3.52,0,0,1,.92,2.72v7.31Zm-3.66-1.14a3.31,3.31,0,0,0,2.38-.83,3.11,3.11,0,0,0,.86-2.33v-1l-1.62.06a6,6,0,0,0-2.79.6,1.82,1.82,0,0,0-.85,1.66,1.69,1.69,0,0,0,.53,1.34A2.25,2.25,0,0,0,480.23,115.59Z"/><path class="cls-2" d="M495.76,116.73v-6.92a2.79,2.79,0,0,0-.6-2,2.43,2.43,0,0,0-1.86-.64,3.06,3.06,0,0,0-2.46.91,4.5,4.5,0,0,0-.79,3v5.62h-1.62V106h1.32l.26,1.46h.08a3.33,3.33,0,0,1,1.4-1.22,4.55,4.55,0,0,1,2-.44,4.07,4.07,0,0,1,2.91.93,4,4,0,0,1,1,3v7Z"/><path class="cls-2" d="M509.47,106v1l-2,.24a3.2,3.2,0,0,1,.48.89,3.26,3.26,0,0,1,.22,1.24,3.15,3.15,0,0,1-1.08,2.51,5.08,5.08,0,0,1-3.84.86,1.62,1.62,0,0,0-1,1.38.7.7,0,0,0,.36.65,2.65,2.65,0,0,0,1.24.21h1.9a4.22,4.22,0,0,1,2.67.73,2.55,2.55,0,0,1,.93,2.13,3,3,0,0,1-1.42,2.71,7.68,7.68,0,0,1-4.16.93,5.7,5.7,0,0,1-3.24-.78,2.51,2.51,0,0,1-1.14-2.2,2.44,2.44,0,0,1,.63-1.69,3.13,3.13,0,0,1,1.75-1,1.74,1.74,0,0,1-.69-.58,1.54,1.54,0,0,1-.27-.9,1.7,1.7,0,0,1,.31-1,3.31,3.31,0,0,1,1-.85,2.87,2.87,0,0,1-1.36-1.16,3.41,3.41,0,0,1-.52-1.88,3.48,3.48,0,0,1,1.05-2.71,4.34,4.34,0,0,1,3-1,5.49,5.49,0,0,1,1.52.2Zm-8.54,12.5a1.43,1.43,0,0,0,.74,1.31,4,4,0,0,0,2.09.45,5.85,5.85,0,0,0,3-.61,1.87,1.87,0,0,0,1-1.65,1.32,1.32,0,0,0-.54-1.21,4.24,4.24,0,0,0-2-.33h-1.94a2.56,2.56,0,0,0-1.72.52A1.9,1.9,0,0,0,500.93,118.53Zm.88-9.08a2.15,2.15,0,0,0,.64,1.7,2.49,2.49,0,0,0,1.76.58,2.07,2.07,0,0,0,2.38-2.31,2.13,2.13,0,0,0-2.41-2.41,2.36,2.36,0,0,0-1.75.62A2.48,2.48,0,0,0,501.81,109.45Z"/><path class="cls-2" d="M516.49,107.29h-2.73v9.44h-1.62v-9.44h-1.91v-.74l1.91-.58v-.6q0-3.95,3.45-3.94a7,7,0,0,1,2,.34l-.42,1.3a5.44,5.44,0,0,0-1.6-.31,1.57,1.57,0,0,0-1.36.62,3.38,3.38,0,0,0-.44,2v.7h2.73Z"/><path class="cls-2" d="M525,116.73l-.32-1.52h-.08a4.48,4.48,0,0,1-1.59,1.36,4.86,4.86,0,0,1-2,.35,3.54,3.54,0,0,1-2.49-.82,3,3,0,0,1-.91-2.33q0-3.24,5.19-3.4l1.81-.06v-.66a2.72,2.72,0,0,0-.54-1.86,2.23,2.23,0,0,0-1.73-.6,7,7,0,0,0-3,.82l-.5-1.24a7.88,7.88,0,0,1,1.74-.68,7.53,7.53,0,0,1,1.89-.24,4,4,0,0,1,2.83.85,3.52,3.52,0,0,1,.93,2.72v7.31Zm-3.66-1.14a3.31,3.31,0,0,0,2.38-.83,3.07,3.07,0,0,0,.86-2.33v-1l-1.62.06a6,6,0,0,0-2.78.6,1.83,1.83,0,0,0-.86,1.66,1.69,1.69,0,0,0,.53,1.34A2.25,2.25,0,0,0,521.36,115.59Z"/><path class="cls-2" d="M534.45,105.83a6.26,6.26,0,0,1,1.28.12l-.23,1.5a5.28,5.28,0,0,0-1.17-.14,2.86,2.86,0,0,0-2.22,1,3.82,3.82,0,0,0-.92,2.63v5.74h-1.62V106h1.33l.19,2h.08a4.61,4.61,0,0,1,1.43-1.61A3.23,3.23,0,0,1,534.45,105.83Z"/><path class="cls-2" d="M540.07,116.73,536,106h1.74l2.3,6.34c.52,1.49.83,2.45.92,2.89h.08c.07-.34.3-1.05.68-2.14s1.23-3.45,2.56-7.09H546L542,116.73Z"/><path class="cls-2" d="M552.27,116.92a4.91,4.91,0,0,1-3.74-1.44,5.56,5.56,0,0,1-1.38-4,6.23,6.23,0,0,1,1.28-4.12,4.25,4.25,0,0,1,3.42-1.52,4,4,0,0,1,3.18,1.32,5.06,5.06,0,0,1,1.18,3.5v1h-7.38a4.23,4.23,0,0,0,1,2.86,3.29,3.29,0,0,0,2.54,1,8.68,8.68,0,0,0,3.42-.72v1.44a8.1,8.1,0,0,1-1.63.53A9,9,0,0,1,552.27,116.92Zm-.44-9.73a2.63,2.63,0,0,0-2.05.84,3.8,3.8,0,0,0-.91,2.32h5.6a3.56,3.56,0,0,0-.69-2.35A2.39,2.39,0,0,0,551.83,107.19Z"/><path class="cls-2" d="M563.85,105.83a6.19,6.19,0,0,1,1.28.12l-.22,1.5a5.42,5.42,0,0,0-1.17-.14,2.87,2.87,0,0,0-2.23,1,3.87,3.87,0,0,0-.92,2.63v5.74H559V106h1.34l.18,2h.08A4.73,4.73,0,0,1,562,106.4,3.2,3.2,0,0,1,563.85,105.83Z"/><path class="cls-2" d="M573.43,112.79v-.52a4.44,4.44,0,0,1,.35-1.88,5.15,5.15,0,0,1,1.31-1.56,8.7,8.7,0,0,0,1.68-1.69,2.58,2.58,0,0,0,.34-1.37,1.92,1.92,0,0,0-.64-1.54,2.77,2.77,0,0,0-1.84-.54,6.28,6.28,0,0,0-1.5.18,8,8,0,0,0-1.68.66l-.58-1.32a8.26,8.26,0,0,1,3.86-1,4.17,4.17,0,0,1,2.9.92,3.27,3.27,0,0,1,1,2.58,4,4,0,0,1-.19,1.26,3.92,3.92,0,0,1-.56,1,12.88,12.88,0,0,1-1.61,1.56A6.15,6.15,0,0,0,575,111a3,3,0,0,0-.32,1.48v.32Zm-.48,2.9c0-.88.39-1.32,1.18-1.32a1.1,1.1,0,0,1,.87.34,1.39,1.39,0,0,1,.31,1,1.47,1.47,0,0,1-.31,1,1.12,1.12,0,0,1-.87.34,1.2,1.2,0,0,1-.84-.3A1.36,1.36,0,0,1,573,115.69Z"/></g></svg>