<svg xmlns="http://www.w3.org/2000/svg" width="213.8mm" height="95.64mm" viewBox="0 0 606.04 271.11"><defs><style>.cls-1{fill:#28292c;}.cls-2{fill:#fff;}</style></defs><title>spørgsmål 4</title><g id="arbejdslag_start"><path class="cls-1" d="M570.25,222.09l-5.75-36.23H587V9.09H36.36V185.86H80.41l-4,33-18.23-2.84,24.46,40.21,38-26.31-15.72-5.32,25.24-38.79h141a4.4,4.4,0,0,1,2.17-1c22.47-3.7,45.16-1.7,67.79-1.64a4.54,4.54,0,0,1,4.29,2.61H516.69l25.12,42-15.7,5.36,38,26.2,24.35-40.27Z"/><path class="cls-2" d="M233.17,57.43a37.72,37.72,0,0,1-7.39.88,15.55,15.55,0,0,1-4.94-.65,7.9,7.9,0,0,1-3-1.83A8,8,0,0,1,216,52.77a28.1,28.1,0,0,1-1.26-9.37q0-9.49,3-12.56,2.47-2.57,7.56-2.56a40.52,40.52,0,0,1,7.89.88l-.12,2.27a41.37,41.37,0,0,0-7-.8,11.56,11.56,0,0,0-4.09.57,6.53,6.53,0,0,0-2.36,1.51,6.11,6.11,0,0,0-1.36,2.63,25.68,25.68,0,0,0-.84,7.14,52.2,52.2,0,0,0,.29,6.4,12.74,12.74,0,0,0,1.14,3.84,5,5,0,0,0,2.48,2.48,10.92,10.92,0,0,0,4.53.76,41.5,41.5,0,0,0,7.23-.8Z"/><path class="cls-2" d="M235.31,36.89h2.57l5.58,18.82H245l5.63-18.82h2.56l-9.07,30.45h-2.52l2.82-9.45h-2.9Z"/><path class="cls-2" d="M259.88,57.89h-2.47V27.57h2.47V45.63l3.57-.09,6.47-8.65h2.9l-7.18,9.62,7.52,11.38h-2.94L263.5,47.77l-3.62.08Z"/><path class="cls-2" d="M290.46,55.79l1.26-.13.08,2.06a67.45,67.45,0,0,1-8,.59c-3,0-5.14-.92-6.34-2.69s-1.81-4.48-1.81-8.15q0-11,8.65-11,4.17,0,6.22,2.37t2.06,7.58l-.09,2H278.19c0,2.58.45,4.49,1.33,5.73S281.91,56,284.05,56,288.33,56,290.46,55.79Zm-12.27-9.45H290c0-2.77-.46-4.75-1.37-5.92a5.16,5.16,0,0,0-4.36-1.77,5.63,5.63,0,0,0-4.56,1.83Q278.19,42.31,278.19,46.34Z"/><path class="cls-2" d="M298,57.89V27.57h2.47V57.89Z"/><path class="cls-2" d="M309.48,57.89H307V27.57h2.47V38.11a16.2,16.2,0,0,1,6.81-1.64q4.2,0,5.61,2.23c.93,1.48,1.4,4.2,1.4,8.14v11h-2.52V47q0-4.83-.9-6.53c-.6-1.14-1.91-1.7-3.93-1.7a16.36,16.36,0,0,0-5.58,1.09l-.89.34Z"/><path class="cls-2" d="M329.39,57.47V36.89h2.52V57.51a9.71,9.71,0,0,1-1.36,5.63q-1.37,1.94-5.53,4l-1-2a15,15,0,0,0,4.39-3.28A7.69,7.69,0,0,0,329.39,57.47Zm0-25.83V28.49h2.52v3.15Z"/><path class="cls-2" d="M352.07,55.79l1.26-.13.09,2.06a67.6,67.6,0,0,1-8,.59c-3,0-5.13-.92-6.34-2.69s-1.8-4.48-1.8-8.15q0-11,8.65-11,4.16,0,6.21,2.37c1.38,1.58,2.06,4.11,2.06,7.58l-.08,2H339.81q0,3.87,1.32,5.73T345.67,56Q348.88,56,352.07,55.79Zm-12.26-9.45h11.84c0-2.77-.45-4.75-1.36-5.92a5.18,5.18,0,0,0-4.37-1.77,5.66,5.66,0,0,0-4.56,1.83Q339.81,42.31,339.81,46.34Z"/><path class="cls-2" d="M359.59,57.89V27.57h2.48V57.89Z"/><path class="cls-2" d="M371.1,57.89h-2.48v-21h2.48v1.55a12.73,12.73,0,0,1,6.8-2q3.62,0,5.13,2.23a15.28,15.28,0,0,1,3.67-1.58,13.79,13.79,0,0,1,3.89-.65c2.8,0,4.66.73,5.6,2.2s1.41,4.2,1.41,8.17v11h-2.48V47q0-4.83-.9-6.53c-.6-1.14-1.91-1.7-3.93-1.7a13.41,13.41,0,0,0-5.54,1.34l-.84.42c.42,1.07.63,3.22.63,6.47V57.89H382V47.05c0-3.27-.3-5.48-.91-6.61s-1.89-1.7-3.88-1.7a10.58,10.58,0,0,0-3,.44,10.3,10.3,0,0,0-2.33.9l-.8.42Z"/><path class="cls-2" d="M117.8,116.05h-8.36v-15h8.36v1.55h-6.61v4.83h6.21V109h-6.21v5.51h6.61Z"/><path class="cls-2" d="M126,104.61a6.91,6.91,0,0,1,1.35.12l-.24,1.58a5.86,5.86,0,0,0-1.23-.15,3,3,0,0,0-2.33,1.11,4,4,0,0,0-1,2.75v6h-1.7V104.82h1.4l.2,2.08h.08a5,5,0,0,1,1.51-1.7A3.4,3.4,0,0,1,126,104.61Z"/><path class="cls-2" d="M142.54,114.55h-.09a4,4,0,0,1-3.53,1.71,4.16,4.16,0,0,1-3.43-1.51,6.65,6.65,0,0,1-1.22-4.28,6.73,6.73,0,0,1,1.23-4.32,4.12,4.12,0,0,1,3.42-1.54,4.07,4.07,0,0,1,3.51,1.66h.13l-.07-.81,0-.79V100.1h1.7v16h-1.38Zm-3.4.28a3.09,3.09,0,0,0,2.53-1,4.8,4.8,0,0,0,.78-3.06v-.35a5.63,5.63,0,0,0-.79-3.41,3,3,0,0,0-2.54-1,2.59,2.59,0,0,0-2.29,1.16,5.79,5.79,0,0,0-.8,3.29,5.62,5.62,0,0,0,.79,3.25A2.68,2.68,0,0,0,139.14,114.83Z"/><path class="cls-2" d="M152.51,116.26a5.17,5.17,0,0,1-3.93-1.52,5.88,5.88,0,0,1-1.44-4.21,6.49,6.49,0,0,1,1.34-4.32,4.43,4.43,0,0,1,3.59-1.6,4.22,4.22,0,0,1,3.34,1.39,5.33,5.33,0,0,1,1.23,3.66v1.08H148.9a4.52,4.52,0,0,0,1,3,3.46,3.46,0,0,0,2.67,1,9,9,0,0,0,3.59-.76v1.52a8.72,8.72,0,0,1-1.71.56A9.7,9.7,0,0,1,152.51,116.26ZM152.05,106a2.78,2.78,0,0,0-2.16.88,4.07,4.07,0,0,0-.95,2.44h5.88a3.73,3.73,0,0,0-.72-2.47A2.52,2.52,0,0,0,152.05,106Z"/><path class="cls-2" d="M163.17,114.85a6.19,6.19,0,0,0,.88-.06,6,6,0,0,0,.66-.14V116a3,3,0,0,1-.81.22,5.93,5.93,0,0,1-1,.09c-2.18,0-3.26-1.15-3.26-3.44v-6.68h-1.61v-.82l1.61-.71.72-2.4h1v2.61h3.26v1.32h-3.26v6.61a2.28,2.28,0,0,0,.48,1.56A1.68,1.68,0,0,0,163.17,114.85Z"/><path class="cls-2" d="M174.12,116.05h-1.71v-16h1.71Z"/><path class="cls-2" d="M187.43,110.42a6.23,6.23,0,0,1-1.39,4.3,4.9,4.9,0,0,1-3.82,1.54,5.08,5.08,0,0,1-2.68-.71,4.63,4.63,0,0,1-1.8-2,7,7,0,0,1-.64-3.1,6.22,6.22,0,0,1,1.37-4.28,4.88,4.88,0,0,1,3.82-1.53,4.75,4.75,0,0,1,3.75,1.57A6.2,6.2,0,0,1,187.43,110.42Zm-8.57,0a5.4,5.4,0,0,0,.86,3.29,3.44,3.44,0,0,0,5.08,0,5.36,5.36,0,0,0,.86-3.29,5.27,5.27,0,0,0-.86-3.25,3.06,3.06,0,0,0-2.56-1.11,3,3,0,0,0-2.53,1.09A5.34,5.34,0,0,0,178.86,110.42Z"/><path class="cls-2" d="M192.87,116.05l-4.27-11.23h1.83l2.42,6.66a28.35,28.35,0,0,1,1,3h.09a20.72,20.72,0,0,1,.71-2.26c.4-1.13,1.3-3.62,2.69-7.44h1.82l-4.26,11.23Z"/><path class="cls-2" d="M206.16,116.26a4.91,4.91,0,0,1-2-.41,3.78,3.78,0,0,1-1.52-1.24h-.12a15.37,15.37,0,0,1,.12,1.86v4.63h-1.7V104.82h1.38l.24,1.53h.08a4,4,0,0,1,1.53-1.33,4.7,4.7,0,0,1,2-.41,4.15,4.15,0,0,1,3.45,1.53,8.17,8.17,0,0,1,0,8.59A4.18,4.18,0,0,1,206.16,116.26Zm-.25-10.2a3,3,0,0,0-2.49,1,5,5,0,0,0-.79,3v.38a5.6,5.6,0,0,0,.79,3.39,3,3,0,0,0,2.53,1,2.65,2.65,0,0,0,2.29-1.18,5.58,5.58,0,0,0,.82-3.25,5.37,5.37,0,0,0-.82-3.22A2.73,2.73,0,0,0,205.91,106.06Z"/><path class="cls-2" d="M215.5,116.05h-1.7v-16h1.7Z"/><path class="cls-2" d="M219,101.77a1.14,1.14,0,0,1,.28-.86,1.07,1.07,0,0,1,1.43,0,1.1,1.1,0,0,1,.3.85,1.14,1.14,0,0,1-.3.86,1,1,0,0,1-.71.28,1,1,0,0,1-.72-.28A1.17,1.17,0,0,1,219,101.77Zm1.84,14.28h-1.7V104.82h1.7Z"/><path class="cls-2" d="M233.62,104.82v1.07l-2.08.25a3.73,3.73,0,0,1,.74,2.24,3.35,3.35,0,0,1-1.13,2.64,4.59,4.59,0,0,1-3.1,1,4.7,4.7,0,0,1-.94-.08,1.67,1.67,0,0,0-1.09,1.45.75.75,0,0,0,.38.68,2.73,2.73,0,0,0,1.3.22h2a4.5,4.5,0,0,1,2.81.77,2.68,2.68,0,0,1,1,2.23,3.19,3.19,0,0,1-1.5,2.85,8.06,8.06,0,0,1-4.37,1,6,6,0,0,1-3.4-.82,2.81,2.81,0,0,1-.54-4.09,3.39,3.39,0,0,1,1.85-1,1.74,1.74,0,0,1-.72-.6,1.59,1.59,0,0,1-.3-1,1.77,1.77,0,0,1,.33-1.07,3.53,3.53,0,0,1,1-.9,2.93,2.93,0,0,1-1.42-1.22,3.53,3.53,0,0,1-.55-2,3.65,3.65,0,0,1,1.11-2.85,4.48,4.48,0,0,1,3.13-1,5.57,5.57,0,0,1,1.59.21Zm-9,13.12a1.5,1.5,0,0,0,.77,1.38,4.15,4.15,0,0,0,2.2.48,6.19,6.19,0,0,0,3.17-.64,2,2,0,0,0,1-1.74,1.37,1.37,0,0,0-.56-1.27,4.34,4.34,0,0,0-2.12-.35h-2a2.7,2.7,0,0,0-1.81.55A2,2,0,0,0,224.66,117.94Zm.92-9.53a2.27,2.27,0,0,0,.67,1.79,2.66,2.66,0,0,0,1.85.6,2.17,2.17,0,0,0,2.49-2.42,2.23,2.23,0,0,0-2.52-2.53,2.49,2.49,0,0,0-1.84.65A2.6,2.6,0,0,0,225.58,108.41Z"/><path class="cls-2" d="M239.56,114.85a6.15,6.15,0,0,0,.87-.06,6,6,0,0,0,.66-.14V116a3,3,0,0,1-.81.22,5.93,5.93,0,0,1-1,.09q-3.26,0-3.26-3.44v-6.68h-1.61v-.82l1.61-.71.72-2.4h1v2.61H241v1.32h-3.26v6.61a2.28,2.28,0,0,0,.48,1.56A1.7,1.7,0,0,0,239.56,114.85Z"/><path class="cls-2" d="M243.2,101.77a1.14,1.14,0,0,1,.28-.86,1.07,1.07,0,0,1,1.43,0,1.1,1.1,0,0,1,.3.85,1.14,1.14,0,0,1-.3.86,1,1,0,0,1-.71.28,1,1,0,0,1-.72-.28A1.17,1.17,0,0,1,243.2,101.77ZM245,116.05h-1.7V104.82H245Z"/><path class="cls-2" d="M257.85,104.82v1.07l-2.08.25a3.73,3.73,0,0,1,.74,2.24,3.35,3.35,0,0,1-1.13,2.64,4.59,4.59,0,0,1-3.1,1,4.7,4.7,0,0,1-.94-.08,1.67,1.67,0,0,0-1.09,1.45.75.75,0,0,0,.38.68,2.73,2.73,0,0,0,1.3.22h2a4.5,4.5,0,0,1,2.81.77,2.68,2.68,0,0,1,1,2.23,3.19,3.19,0,0,1-1.5,2.85,8.06,8.06,0,0,1-4.37,1,6,6,0,0,1-3.4-.82,2.81,2.81,0,0,1-.54-4.09,3.39,3.39,0,0,1,1.85-1,1.74,1.74,0,0,1-.72-.6,1.59,1.59,0,0,1-.3-1,1.77,1.77,0,0,1,.33-1.07,3.53,3.53,0,0,1,1-.9,2.93,2.93,0,0,1-1.42-1.22,3.53,3.53,0,0,1-.55-2,3.65,3.65,0,0,1,1.11-2.85,4.48,4.48,0,0,1,3.13-1,5.57,5.57,0,0,1,1.59.21Zm-9,13.12a1.5,1.5,0,0,0,.77,1.38,4.15,4.15,0,0,0,2.2.48,6.19,6.19,0,0,0,3.17-.64,2,2,0,0,0,1-1.74,1.37,1.37,0,0,0-.56-1.27,4.34,4.34,0,0,0-2.12-.35h-2a2.7,2.7,0,0,0-1.81.55A2,2,0,0,0,248.89,117.94Zm.92-9.53a2.27,2.27,0,0,0,.67,1.79,2.66,2.66,0,0,0,1.85.6,2.17,2.17,0,0,0,2.49-2.42,2.23,2.23,0,0,0-2.52-2.53,2.49,2.49,0,0,0-1.84.65A2.6,2.6,0,0,0,249.81,108.41Z"/><path class="cls-2" d="M263.79,114.85a6.15,6.15,0,0,0,.87-.06,6,6,0,0,0,.66-.14V116a3,3,0,0,1-.81.22,5.93,5.93,0,0,1-1,.09q-3.26,0-3.26-3.44v-6.68h-1.61v-.82l1.61-.71.72-2.4h1v2.61h3.26v1.32H262v6.61a2.28,2.28,0,0,0,.48,1.56A1.7,1.7,0,0,0,263.79,114.85Z"/><path class="cls-2" d="M279.94,116.05l-.34-1.6h-.08a4.73,4.73,0,0,1-1.68,1.43,5.1,5.1,0,0,1-2.09.38,3.78,3.78,0,0,1-2.62-.86,3.16,3.16,0,0,1-.95-2.45q0-3.4,5.45-3.57l1.91-.06v-.7a2.84,2.84,0,0,0-.57-2,2.35,2.35,0,0,0-1.82-.63,7.31,7.31,0,0,0-3.18.86l-.52-1.31a8.27,8.27,0,0,1,3.8-1,4.31,4.31,0,0,1,3,.89,3.76,3.76,0,0,1,1,2.86v7.67Zm-3.85-1.2a3.47,3.47,0,0,0,2.5-.87,3.23,3.23,0,0,0,.9-2.44v-1l-1.7.07a6.2,6.2,0,0,0-2.92.63A1.9,1.9,0,0,0,274,113a1.73,1.73,0,0,0,.56,1.4A2.31,2.31,0,0,0,276.09,114.85Z"/><path class="cls-2" d="M288.33,114.85a6.29,6.29,0,0,0,.88-.06,6,6,0,0,0,.66-.14V116a3,3,0,0,1-.81.22,6,6,0,0,1-1,.09c-2.18,0-3.26-1.15-3.26-3.44v-6.68h-1.61v-.82l1.61-.71.71-2.4h1v2.61h3.26v1.32h-3.26v6.61a2.28,2.28,0,0,0,.48,1.56A1.68,1.68,0,0,0,288.33,114.85Z"/><path class="cls-2" d="M299.25,110.3c.3-.42.75-1,1.35-1.64l3.63-3.84h2l-4.56,4.78,4.88,6.45H304.5l-4-5.31-1.29,1.11v4.2h-1.68v-16h1.68v8.46c0,.37,0,1-.08,1.74Z"/><path class="cls-2" d="M318.3,110.42a6.23,6.23,0,0,1-1.39,4.3,4.9,4.9,0,0,1-3.82,1.54,5.09,5.09,0,0,1-2.73-.71l-.86,1.2-1.17-.8,1-1.34a6.28,6.28,0,0,1-1.32-4.19,6.22,6.22,0,0,1,1.37-4.28,4.88,4.88,0,0,1,3.82-1.53,5,5,0,0,1,2.77.78l.86-1.22,1.2.78-1,1.36A6.2,6.2,0,0,1,318.3,110.42Zm-8.57,0a6,6,0,0,0,.55,2.8l4.77-6.62a3.31,3.31,0,0,0-1.94-.54,3,3,0,0,0-2.53,1.09A5.34,5.34,0,0,0,309.73,110.42Zm6.8,0a5.93,5.93,0,0,0-.52-2.7l-4.77,6.59a3.17,3.17,0,0,0,1.89.52,3,3,0,0,0,2.54-1.12A5.36,5.36,0,0,0,316.53,110.42Z"/><path class="cls-2" d="M326.41,104.61a6.81,6.81,0,0,1,1.34.12l-.24,1.58a5.86,5.86,0,0,0-1.23-.15,3,3,0,0,0-2.33,1.11,4,4,0,0,0-1,2.75v6h-1.7V104.82h1.4l.2,2.08H323a5,5,0,0,1,1.51-1.7A3.44,3.44,0,0,1,326.41,104.61Z"/><path class="cls-2" d="M334.6,116.26a5.17,5.17,0,0,1-3.93-1.52,5.88,5.88,0,0,1-1.44-4.21,6.54,6.54,0,0,1,1.33-4.32,4.45,4.45,0,0,1,3.6-1.6A4.22,4.22,0,0,1,337.5,106a5.33,5.33,0,0,1,1.23,3.66v1.08H331a4.47,4.47,0,0,0,1,3,3.46,3.46,0,0,0,2.67,1,9,9,0,0,0,3.59-.76v1.52a8.72,8.72,0,0,1-1.71.56A9.7,9.7,0,0,1,334.6,116.26ZM334.14,106a2.78,2.78,0,0,0-2.16.88,4.07,4.07,0,0,0-1,2.44h5.88a3.73,3.73,0,0,0-.72-2.47A2.52,2.52,0,0,0,334.14,106Z"/><path class="cls-2" d="M361.41,116.05v-7.31a3.05,3.05,0,0,0-.57-2,2.22,2.22,0,0,0-1.79-.67,2.86,2.86,0,0,0-2.34.91,4.31,4.31,0,0,0-.76,2.81v6.27h-1.7v-7.31a3,3,0,0,0-.58-2,2.22,2.22,0,0,0-1.79-.67,2.82,2.82,0,0,0-2.35,1,5.25,5.25,0,0,0-.74,3.15v5.89h-1.7V104.82h1.38l.28,1.53h.08a3.43,3.43,0,0,1,1.36-1.28,4.14,4.14,0,0,1,2-.46c1.76,0,2.91.64,3.45,1.91h.08a3.59,3.59,0,0,1,1.46-1.4,4.52,4.52,0,0,1,2.17-.51,3.84,3.84,0,0,1,2.86,1,4.39,4.39,0,0,1,.95,3.13v7.33Z"/><path class="cls-2" d="M371.37,116.26a5.17,5.17,0,0,1-3.93-1.52,5.88,5.88,0,0,1-1.44-4.21,6.49,6.49,0,0,1,1.34-4.32,4.43,4.43,0,0,1,3.59-1.6,4.22,4.22,0,0,1,3.34,1.39,5.33,5.33,0,0,1,1.23,3.66v1.08h-7.74a4.47,4.47,0,0,0,1,3,3.46,3.46,0,0,0,2.67,1A9,9,0,0,0,375,114v1.52a8.72,8.72,0,0,1-1.71.56A9.7,9.7,0,0,1,371.37,116.26ZM370.91,106a2.78,2.78,0,0,0-2.16.88,4.07,4.07,0,0,0-.95,2.44h5.88a3.73,3.73,0,0,0-.72-2.47A2.52,2.52,0,0,0,370.91,106Z"/><path class="cls-2" d="M386.05,114.55H386a4,4,0,0,1-3.53,1.71,4.16,4.16,0,0,1-3.43-1.51,6.65,6.65,0,0,1-1.22-4.28,6.73,6.73,0,0,1,1.23-4.32,4.12,4.12,0,0,1,3.42-1.54,4.07,4.07,0,0,1,3.51,1.66h.13l-.07-.81,0-.79V100.1h1.7v16h-1.38Zm-3.4.28a3.09,3.09,0,0,0,2.53-1,4.8,4.8,0,0,0,.78-3.06v-.35a5.63,5.63,0,0,0-.79-3.41,3,3,0,0,0-2.54-1,2.59,2.59,0,0,0-2.29,1.16,5.79,5.79,0,0,0-.8,3.29,5.62,5.62,0,0,0,.79,3.25A2.68,2.68,0,0,0,382.65,114.83Z"/><path class="cls-2" d="M401.22,116.26a4.8,4.8,0,0,1-3.78-1.5,6.21,6.21,0,0,1-1.34-4.25,6.35,6.35,0,0,1,1.36-4.36,4.89,4.89,0,0,1,3.87-1.54,8.1,8.1,0,0,1,1.62.17,5.74,5.74,0,0,1,1.27.41l-.52,1.45a8.45,8.45,0,0,0-1.23-.37,5.44,5.44,0,0,0-1.18-.15c-2.28,0-3.42,1.45-3.42,4.37a5.14,5.14,0,0,0,.83,3.17,2.91,2.91,0,0,0,2.48,1.11,7.63,7.63,0,0,0,2.88-.6v1.5A6.13,6.13,0,0,1,401.22,116.26Z"/><path class="cls-2" d="M404.94,104.82h1.83l2.46,6.4a24.48,24.48,0,0,1,1,3.17h.08c.09-.35.28-.94.56-1.79s1.21-3.44,2.79-7.78h1.82l-4.83,12.79A6.35,6.35,0,0,1,409,120.3a3.59,3.59,0,0,1-2.36.8,6.68,6.68,0,0,1-1.54-.18v-1.36a6.16,6.16,0,0,0,1.27.12,2.6,2.6,0,0,0,2.5-2l.62-1.59Z"/><path class="cls-2" d="M419,110.3a19.41,19.41,0,0,1,1.34-1.64l3.63-3.84h2l-4.55,4.78,4.87,6.45h-2.06l-4-5.31L419,111.85v4.2h-1.68v-16H419v8.46c0,.37,0,1-.08,1.74Z"/><path class="cls-2" d="M433.08,116.26a5.17,5.17,0,0,1-3.93-1.52,5.84,5.84,0,0,1-1.45-4.21,6.55,6.55,0,0,1,1.34-4.32,4.44,4.44,0,0,1,3.6-1.6A4.22,4.22,0,0,1,436,106a5.33,5.33,0,0,1,1.23,3.66v1.08h-7.74a4.47,4.47,0,0,0,1,3,3.46,3.46,0,0,0,2.67,1,9,9,0,0,0,3.59-.76v1.52a8.72,8.72,0,0,1-1.71.56A9.78,9.78,0,0,1,433.08,116.26ZM432.62,106a2.75,2.75,0,0,0-2.16.88,4.07,4.07,0,0,0-.95,2.44h5.88a3.73,3.73,0,0,0-.72-2.47A2.52,2.52,0,0,0,432.62,106Z"/><path class="cls-2" d="M441.81,116.05h-1.7v-16h1.7Z"/><path class="cls-2" d="M453.11,116.05v-7.27a2.92,2.92,0,0,0-.62-2,2.56,2.56,0,0,0-2-.67,3.22,3.22,0,0,0-2.59,1,4.91,4.91,0,0,0-.81,3.16v5.87h-1.71v-16h1.71v4.83a9.5,9.5,0,0,1-.09,1.44h.11a3.41,3.41,0,0,1,1.43-1.27,4.65,4.65,0,0,1,2.11-.47,4.37,4.37,0,0,1,3.1,1,4.15,4.15,0,0,1,1,3.11v7.33Z"/><path class="cls-2" d="M457,121.1a4.1,4.1,0,0,1-1.58-.26v-1.38a5.25,5.25,0,0,0,1.39.2,1.47,1.47,0,0,0,1.18-.43,2,2,0,0,0,.37-1.33V104.82H460v13Q460,121.1,457,121.1Zm1.22-19.33a1.11,1.11,0,0,1,.29-.86,1,1,0,0,1,.71-.27,1,1,0,0,1,.71.28,1.1,1.1,0,0,1,.3.85,1.14,1.14,0,0,1-.3.86,1,1,0,0,1-.71.28,1,1,0,0,1-.71-.28A1.13,1.13,0,0,1,458.17,101.77Z"/><path class="cls-2" d="M468.37,116.26a5.17,5.17,0,0,1-3.93-1.52,5.88,5.88,0,0,1-1.44-4.21,6.49,6.49,0,0,1,1.34-4.32,4.43,4.43,0,0,1,3.59-1.6,4.22,4.22,0,0,1,3.34,1.39,5.33,5.33,0,0,1,1.23,3.66v1.08h-7.74a4.52,4.52,0,0,0,1,3,3.46,3.46,0,0,0,2.67,1A9,9,0,0,0,472,114v1.52a8.72,8.72,0,0,1-1.71.56A9.7,9.7,0,0,1,468.37,116.26ZM467.91,106a2.78,2.78,0,0,0-2.16.88,4.14,4.14,0,0,0-.95,2.44h5.88a3.73,3.73,0,0,0-.72-2.47A2.52,2.52,0,0,0,467.91,106Z"/><path class="cls-2" d="M477.11,116.05h-1.7v-16h1.7Z"/><path class="cls-2" d="M495,116.05v-7.31a3.05,3.05,0,0,0-.57-2,2.22,2.22,0,0,0-1.79-.67,2.85,2.85,0,0,0-2.34.91,4.31,4.31,0,0,0-.76,2.81v6.27h-1.71v-7.31a3.05,3.05,0,0,0-.57-2,2.22,2.22,0,0,0-1.79-.67,2.82,2.82,0,0,0-2.35,1,5.25,5.25,0,0,0-.74,3.15v5.89h-1.7V104.82h1.38l.28,1.53h.08a3.43,3.43,0,0,1,1.36-1.28,4.11,4.11,0,0,1,2-.46c1.76,0,2.91.64,3.45,1.91h.08a3.59,3.59,0,0,1,1.46-1.4,4.52,4.52,0,0,1,2.17-.51,3.84,3.84,0,0,1,2.86,1,4.39,4.39,0,0,1,.94,3.13v7.33Z"/><path class="cls-2" d="M506.87,111.92v-.55a4.74,4.74,0,0,1,.36-2,5.38,5.38,0,0,1,1.38-1.63,9.51,9.51,0,0,0,1.76-1.78,2.69,2.69,0,0,0,.36-1.43,2,2,0,0,0-.67-1.62,2.91,2.91,0,0,0-1.93-.57,6.9,6.9,0,0,0-1.58.19,8.58,8.58,0,0,0-1.77.7l-.6-1.39a8.68,8.68,0,0,1,4.05-1,4.43,4.43,0,0,1,3,1,3.43,3.43,0,0,1,1.09,2.72,4.07,4.07,0,0,1-.2,1.32,3.76,3.76,0,0,1-.59,1.07,13.87,13.87,0,0,1-1.68,1.64,6.33,6.33,0,0,0-1.37,1.46,3.17,3.17,0,0,0-.33,1.56v.34Zm-.51,3c0-.93.41-1.4,1.23-1.4a1.16,1.16,0,0,1,.92.36,1.49,1.49,0,0,1,.32,1,1.54,1.54,0,0,1-.32,1,1.19,1.19,0,0,1-.92.36,1.27,1.27,0,0,1-.88-.32A1.41,1.41,0,0,1,506.36,115Z"/><rect class="cls-1" x="257.8" y="167.07" width="97.87" height="18.79"/></g></svg>