<svg xmlns="http://www.w3.org/2000/svg" width="213.8mm" height="95.64mm" viewBox="0 0 606.04 271.11"><defs><style>.cls-1{fill:#28292c;}.cls-2{fill:#fff;}</style></defs><title>spørgsmål 3</title><g id="arbejdslag_start"><polygon class="cls-1" points="570.25 222.09 564.5 185.86 586.99 185.86 586.99 9.09 36.36 9.09 36.36 164.36 36.36 185.86 80.41 185.86 76.36 218.91 58.13 216.07 82.59 256.28 120.54 229.97 104.82 224.65 130.06 185.86 290.92 185.86 296.23 223.06 277.99 225.87 313.46 256.8 341.68 220.24 325.08 219.93 332.1 185.86 516.69 185.86 541.81 227.91 526.11 233.27 564.13 259.47 588.48 219.2 570.25 222.09"/><path class="cls-2" d="M239.34,57.43a37.81,37.81,0,0,1-7.4.88,15.44,15.44,0,0,1-4.93-.65,7.94,7.94,0,0,1-3-1.83,8.11,8.11,0,0,1-1.85-3.06,28.4,28.4,0,0,1-1.25-9.37q0-9.49,3-12.56,2.48-2.57,7.56-2.56a40.61,40.61,0,0,1,7.9.88l-.13,2.27a41.27,41.27,0,0,0-7-.8,11.62,11.62,0,0,0-4.1.57,6.4,6.4,0,0,0-2.35,1.51,6.12,6.12,0,0,0-1.37,2.63,25.68,25.68,0,0,0-.84,7.14,49.83,49.83,0,0,0,.3,6.4A12.38,12.38,0,0,0,225,52.72a5.07,5.07,0,0,0,2.48,2.48A10.94,10.94,0,0,0,232,56a41.4,41.4,0,0,0,7.22-.8Z"/><path class="cls-2" d="M241.48,36.89H244l5.59,18.82h1.51l5.63-18.82h2.56l-9.07,30.45h-2.52l2.81-9.45h-2.9Z"/><path class="cls-2" d="M266.05,57.89h-2.48V27.57h2.48V45.63l3.57-.09,6.47-8.65H279l-7.18,9.62,7.52,11.38h-2.94l-6.72-10.12-3.61.08Z"/><path class="cls-2" d="M296.62,55.79l1.26-.13.09,2.06a67.6,67.6,0,0,1-8,.59c-3,0-5.13-.92-6.34-2.69s-1.8-4.48-1.8-8.15q0-11,8.65-11,4.16,0,6.21,2.37c1.38,1.59,2.06,4.11,2.06,7.58l-.08,2H284.36q0,3.87,1.32,5.73c.88,1.25,2.4,1.87,4.54,1.87S294.49,56,296.62,55.79Zm-12.26-9.45H296.2c0-2.77-.45-4.75-1.36-5.92a5.18,5.18,0,0,0-4.37-1.77,5.66,5.66,0,0,0-4.56,1.83Q284.37,42.31,284.36,46.34Z"/><path class="cls-2" d="M304.14,57.89V27.57h2.48V57.89Z"/><path class="cls-2" d="M315.65,57.89h-2.48V27.57h2.48V38.11a16.15,16.15,0,0,1,6.8-1.64q4.2,0,5.61,2.23c.94,1.48,1.41,4.2,1.41,8.14v11H327V47q0-4.83-.91-6.53c-.6-1.13-1.91-1.7-3.92-1.7a17,17,0,0,0-5.59,1.09l-.88.34Z"/><path class="cls-2" d="M335.56,57.47V36.89h2.52V57.51a9.71,9.71,0,0,1-1.37,5.63q-1.36,1.94-5.52,4l-1-2a14.84,14.84,0,0,0,4.39-3.28A7.6,7.6,0,0,0,335.56,57.47Zm0-25.83V28.49h2.52v3.15Z"/><path class="cls-2" d="M358.24,55.79l1.26-.13.08,2.06a67.45,67.45,0,0,1-8,.59c-3,0-5.14-.92-6.34-2.69s-1.81-4.48-1.81-8.15q0-11,8.65-11c2.77,0,4.85.79,6.22,2.37s2.06,4.11,2.06,7.58l-.09,2H346q0,3.87,1.32,5.73T351.83,56Q355,56,358.24,55.79ZM346,46.34h11.85c0-2.77-.46-4.75-1.37-5.92a5.18,5.18,0,0,0-4.37-1.77,5.62,5.62,0,0,0-4.55,1.83Q346,42.31,346,46.34Z"/><path class="cls-2" d="M365.75,57.89V27.57h2.48V57.89Z"/><path class="cls-2" d="M377.26,57.89h-2.48v-21h2.48v1.55a12.79,12.79,0,0,1,6.81-2q3.6,0,5.12,2.23a15.87,15.87,0,0,1,3.67-1.58,13.84,13.84,0,0,1,3.89-.65q4.2,0,5.61,2.21c.93,1.46,1.4,4.19,1.4,8.16v11h-2.47V47c0-3.22-.31-5.4-.91-6.53s-1.91-1.7-3.92-1.7a11.79,11.79,0,0,0-3.11.44,11.37,11.37,0,0,0-2.44.9l-.84.42c.42,1.07.63,3.22.63,6.47V57.89h-2.52V47.05c0-3.27-.3-5.48-.9-6.61s-1.9-1.7-3.89-1.7a11,11,0,0,0-3,.44,10.5,10.5,0,0,0-2.33.9l-.8.42Z"/><path class="cls-2" d="M92.25,108.45H90.59v-6.72H83.07v6.72H81.41V94.17h1.66v6.07h7.52V94.17h1.66Z"/><path class="cls-2" d="M98.26,108.45,94.2,97.74h1.74l2.3,6.35a28.06,28.06,0,0,1,.92,2.89h.08a21.89,21.89,0,0,1,.68-2.14c.38-1.09,1.23-3.45,2.56-7.1h1.74l-4.06,10.71Z"/><path class="cls-2" d="M115.18,103.09a5.89,5.89,0,0,1-1.32,4.08,4.64,4.64,0,0,1-3.64,1.47,4.81,4.81,0,0,1-2.55-.67A4.46,4.46,0,0,1,106,106a6.77,6.77,0,0,1-.61-2.94A5.9,5.9,0,0,1,106.65,99a4.63,4.63,0,0,1,3.64-1.46A4.57,4.57,0,0,1,113.86,99,5.91,5.91,0,0,1,115.18,103.09Zm-8.16,0a5.13,5.13,0,0,0,.82,3.12,3.27,3.27,0,0,0,4.83,0,5.08,5.08,0,0,0,.83-3.13,5,5,0,0,0-.83-3.11,2.9,2.9,0,0,0-2.43-1,2.87,2.87,0,0,0-2.41,1A5.05,5.05,0,0,0,107,103.09Z"/><path class="cls-2" d="M122.9,97.55a6.19,6.19,0,0,1,1.28.12l-.22,1.5a5.5,5.5,0,0,0-1.17-.15,2.85,2.85,0,0,0-2.23,1.06,3.86,3.86,0,0,0-.92,2.62v5.75H118V97.74h1.34l.18,2h.08a4.77,4.77,0,0,1,1.44-1.62A3.27,3.27,0,0,1,122.9,97.55Z"/><path class="cls-2" d="M145,108.45v-7a2.93,2.93,0,0,0-.54-1.92,2.15,2.15,0,0,0-1.7-.63,2.77,2.77,0,0,0-2.24.86,4.16,4.16,0,0,0-.72,2.68v6H138.2v-7a2.93,2.93,0,0,0-.55-1.92,2.15,2.15,0,0,0-1.71-.63,2.63,2.63,0,0,0-2.23.91,4.94,4.94,0,0,0-.71,3v5.62h-1.62V97.74h1.32l.26,1.47H133A3.23,3.23,0,0,1,134.33,98a3.88,3.88,0,0,1,1.87-.44c1.68,0,2.77.6,3.29,1.81h.07A3.41,3.41,0,0,1,141,98a4.28,4.28,0,0,1,2.07-.49,3.63,3.63,0,0,1,2.72.93,4.18,4.18,0,0,1,.9,3v7Z"/><path class="cls-2" d="M156.57,108.45l-.33-1.53h-.08a4.52,4.52,0,0,1-1.59,1.37,5,5,0,0,1-2,.35,3.54,3.54,0,0,1-2.49-.82,3,3,0,0,1-.91-2.33c0-2.16,1.73-3.3,5.19-3.4l1.81-.06v-.66a2.72,2.72,0,0,0-.54-1.86,2.23,2.23,0,0,0-1.73-.6,7,7,0,0,0-3,.82l-.5-1.24a7.41,7.41,0,0,1,1.74-.68,7.65,7.65,0,0,1,1.89-.24,4,4,0,0,1,2.83.85,3.51,3.51,0,0,1,.93,2.72v7.31Zm-3.67-1.15a3.27,3.27,0,0,0,2.38-.83,3,3,0,0,0,.87-2.32v-1l-1.63.07a6,6,0,0,0-2.78.6,1.83,1.83,0,0,0-.86,1.66,1.7,1.7,0,0,0,.53,1.34A2.25,2.25,0,0,0,152.9,107.3Z"/><path class="cls-2" d="M168.43,108.45v-6.93a2.78,2.78,0,0,0-.6-2,2.4,2.4,0,0,0-1.86-.64,3.09,3.09,0,0,0-2.46.9,4.61,4.61,0,0,0-.78,3v5.62h-1.62V97.74h1.31l.27,1.47h.08A3.27,3.27,0,0,1,164.16,98a4.54,4.54,0,0,1,2-.43,4.07,4.07,0,0,1,2.91.93,3.93,3.93,0,0,1,1,3v7Z"/><path class="cls-2" d="M182.14,97.74v1l-2,.23a3.75,3.75,0,0,1,.49.9,3.43,3.43,0,0,1,.21,1.24,3.17,3.17,0,0,1-1.07,2.51,4.32,4.32,0,0,1-2.95.94,5.11,5.11,0,0,1-.9-.08,1.6,1.6,0,0,0-1,1.38.71.71,0,0,0,.37.65,2.62,2.62,0,0,0,1.24.21h1.89a4.22,4.22,0,0,1,2.67.73,2.55,2.55,0,0,1,.93,2.13,3,3,0,0,1-1.42,2.71,7.65,7.65,0,0,1-4.16.93,5.7,5.7,0,0,1-3.24-.78,2.53,2.53,0,0,1-1.14-2.21,2.48,2.48,0,0,1,.63-1.69,3.21,3.21,0,0,1,1.76-1,1.68,1.68,0,0,1-.69-.58,1.49,1.49,0,0,1-.28-.91,1.69,1.69,0,0,1,.31-1,3.18,3.18,0,0,1,1-.85,2.91,2.91,0,0,1-1.35-1.16,3.44,3.44,0,0,1-.53-1.88,3.49,3.49,0,0,1,1.06-2.71,4.33,4.33,0,0,1,3-1,5.43,5.43,0,0,1,1.51.19Zm-8.53,12.5a1.45,1.45,0,0,0,.73,1.32,4,4,0,0,0,2.1.45,5.81,5.81,0,0,0,3-.61,1.88,1.88,0,0,0,1-1.65,1.31,1.31,0,0,0-.54-1.21,4.07,4.07,0,0,0-2-.34h-1.94a2.56,2.56,0,0,0-1.72.53A1.88,1.88,0,0,0,173.61,110.24Zm.88-9.07a2.18,2.18,0,0,0,.63,1.7,2.55,2.55,0,0,0,1.77.58,2.07,2.07,0,0,0,2.37-2.31,2.12,2.12,0,0,0-2.4-2.41,2.35,2.35,0,0,0-1.76.62A2.46,2.46,0,0,0,174.49,101.17Z"/><path class="cls-2" d="M188.86,108.64a5,5,0,0,1-3.75-1.44,5.65,5.65,0,0,1-1.37-4A6.22,6.22,0,0,1,185,99.07a4.25,4.25,0,0,1,3.42-1.52,4,4,0,0,1,3.18,1.32,5.08,5.08,0,0,1,1.18,3.49v1h-7.38a4.3,4.3,0,0,0,1,2.86,3.31,3.31,0,0,0,2.55,1,8.69,8.69,0,0,0,3.42-.73V108a8.78,8.78,0,0,1-1.63.53A9,9,0,0,1,188.86,108.64Zm-.44-9.73a2.67,2.67,0,0,0-2.06.84,3.86,3.86,0,0,0-.9,2.32h5.6a3.54,3.54,0,0,0-.69-2.35A2.39,2.39,0,0,0,188.42,98.91Z"/><path class="cls-2" d="M205.74,108.64a4.72,4.72,0,0,1-1.91-.38,3.62,3.62,0,0,1-1.45-1.19h-.12a14,14,0,0,1,.12,1.78v4.4h-1.63V97.74h1.32l.23,1.47h.08a3.69,3.69,0,0,1,1.45-1.27,4.43,4.43,0,0,1,1.91-.39A4,4,0,0,1,209,99a6.42,6.42,0,0,1,1.16,4.09,6.33,6.33,0,0,1-1.18,4.09A3.93,3.93,0,0,1,205.74,108.64Zm-.24-9.71a2.89,2.89,0,0,0-2.37.9,4.65,4.65,0,0,0-.75,2.89v.37a5.33,5.33,0,0,0,.75,3.22,2.84,2.84,0,0,0,2.41,1,2.5,2.5,0,0,0,2.17-1.12,5.27,5.27,0,0,0,.79-3.09,5.12,5.12,0,0,0-.79-3.08A2.58,2.58,0,0,0,205.5,98.93Z"/><path class="cls-2" d="M217.89,97.55a6.12,6.12,0,0,1,1.28.12l-.22,1.5a5.43,5.43,0,0,0-1.17-.15,2.85,2.85,0,0,0-2.23,1.06,3.86,3.86,0,0,0-.92,2.62v5.75H213V97.74h1.34l.18,2h.08a4.77,4.77,0,0,1,1.44-1.62A3.27,3.27,0,0,1,217.89,97.55Z"/><path class="cls-2" d="M230.41,103.09a5.89,5.89,0,0,1-1.32,4.08,4.62,4.62,0,0,1-3.64,1.47,4.83,4.83,0,0,1-2.55-.67,4.52,4.52,0,0,1-1.72-1.94,6.77,6.77,0,0,1-.6-2.94A5.85,5.85,0,0,1,221.89,99a4.6,4.6,0,0,1,3.63-1.46A4.54,4.54,0,0,1,229.09,99,5.91,5.91,0,0,1,230.41,103.09Zm-8.15,0a5.07,5.07,0,0,0,.82,3.12,2.84,2.84,0,0,0,2.41,1.07,2.88,2.88,0,0,0,2.42-1.06,5.08,5.08,0,0,0,.82-3.13,5,5,0,0,0-.82-3.11,2.91,2.91,0,0,0-2.44-1,2.84,2.84,0,0,0-2.4,1A5.05,5.05,0,0,0,222.26,103.09Z"/><path class="cls-2" d="M237.53,108.64a4.55,4.55,0,0,1-3.6-1.43,5.87,5.87,0,0,1-1.27-4A6.08,6.08,0,0,1,234,99a4.69,4.69,0,0,1,3.69-1.46,7.32,7.32,0,0,1,1.54.16,5.37,5.37,0,0,1,1.21.39l-.49,1.38a7.45,7.45,0,0,0-1.18-.35A4.88,4.88,0,0,0,237.6,99q-3.25,0-3.26,4.16a5,5,0,0,0,.79,3,2.8,2.8,0,0,0,2.36,1.06,7.34,7.34,0,0,0,2.75-.58v1.44A5.89,5.89,0,0,1,237.53,108.64Z"/><path class="cls-2" d="M247.3,108.64a5,5,0,0,1-3.75-1.44,5.65,5.65,0,0,1-1.37-4,6.27,6.27,0,0,1,1.27-4.11,4.27,4.27,0,0,1,3.43-1.52,4,4,0,0,1,3.18,1.32,5.08,5.08,0,0,1,1.17,3.49v1h-7.37a4.25,4.25,0,0,0,.95,2.86,3.3,3.3,0,0,0,2.55,1,8.61,8.61,0,0,0,3.41-.73V108a8.47,8.47,0,0,1-1.62.53A9,9,0,0,1,247.3,108.64Zm-.44-9.73a2.65,2.65,0,0,0-2.06.84,3.86,3.86,0,0,0-.9,2.32h5.59a3.54,3.54,0,0,0-.68-2.35A2.41,2.41,0,0,0,246.86,98.91Z"/><path class="cls-2" d="M261.32,108.45v-6.93a2.82,2.82,0,0,0-.59-2,2.43,2.43,0,0,0-1.87-.64,3.09,3.09,0,0,0-2.46.9,4.61,4.61,0,0,0-.78,3v5.62H254V97.74h1.32l.26,1.47h.08A3.27,3.27,0,0,1,257.05,98a4.56,4.56,0,0,1,2-.43,4.1,4.1,0,0,1,2.91.93,4,4,0,0,1,1,3v7Z"/><path class="cls-2" d="M269.73,107.3a5.62,5.62,0,0,0,1.46-.19v1.24a3.26,3.26,0,0,1-.77.21,6.49,6.49,0,0,1-.93.08q-3.11,0-3.1-3.27V99h-1.53v-.78l1.53-.67.68-2.29H268v2.48h3.11V99H268v6.3a2.16,2.16,0,0,0,.46,1.49A1.62,1.62,0,0,0,269.73,107.3Z"/><path class="cls-2" d="M283.35,99h-2.72v9.45H279V99h-1.92v-.73l1.92-.59v-.59q0-3.95,3.44-4a7.14,7.14,0,0,1,2,.35L284,94.78a5.44,5.44,0,0,0-1.61-.3,1.54,1.54,0,0,0-1.35.61,3.36,3.36,0,0,0-.44,2v.69h2.72Z"/><path class="cls-2" d="M294.54,103.09a5.93,5.93,0,0,1-1.31,4.08,4.66,4.66,0,0,1-3.65,1.47A4.86,4.86,0,0,1,287,108a4.44,4.44,0,0,1-1.71-1.94,6.63,6.63,0,0,1-.61-2.94A5.9,5.9,0,0,1,286,99a4.6,4.6,0,0,1,3.63-1.46A4.54,4.54,0,0,1,293.22,99,5.91,5.91,0,0,1,294.54,103.09Zm-8.15,0a5.07,5.07,0,0,0,.82,3.12,2.84,2.84,0,0,0,2.41,1.07,2.88,2.88,0,0,0,2.42-1.06,5.08,5.08,0,0,0,.82-3.13A5,5,0,0,0,292,100a2.91,2.91,0,0,0-2.44-1,2.84,2.84,0,0,0-2.4,1A5.05,5.05,0,0,0,286.39,103.09Z"/><path class="cls-2" d="M302.27,97.55a6.26,6.26,0,0,1,1.28.12l-.23,1.5a5.35,5.35,0,0,0-1.17-.15,2.83,2.83,0,0,0-2.22,1.06,3.81,3.81,0,0,0-.92,2.62v5.75h-1.62V97.74h1.33l.19,2H299a4.64,4.64,0,0,1,1.43-1.62A3.3,3.3,0,0,1,302.27,97.55Z"/><path class="cls-2" d="M310.53,97.57A4,4,0,0,1,313.81,99a7.74,7.74,0,0,1,0,8.17,4,4,0,0,1-3.27,1.46,4.75,4.75,0,0,1-1.91-.38,3.62,3.62,0,0,1-1.45-1.19h-.12l-.34,1.38h-1.16V93.25h1.62v3.69c0,.83,0,1.57-.08,2.23h.08A3.85,3.85,0,0,1,310.53,97.57Zm-.23,1.36a2.83,2.83,0,0,0-2.4.95,7.35,7.35,0,0,0,0,6.43,2.86,2.86,0,0,0,2.41,1,2.51,2.51,0,0,0,2.23-1.08,5.59,5.59,0,0,0,.73-3.13,5.36,5.36,0,0,0-.73-3.12A2.59,2.59,0,0,0,310.3,98.93Z"/><path class="cls-2" d="M322.33,108.64a4.93,4.93,0,0,1-3.75-1.44,5.65,5.65,0,0,1-1.37-4,6.22,6.22,0,0,1,1.27-4.11,4.25,4.25,0,0,1,3.43-1.52,4,4,0,0,1,3.18,1.32,5.08,5.08,0,0,1,1.17,3.49v1h-7.37a4.25,4.25,0,0,0,.95,2.86,3.3,3.3,0,0,0,2.55,1,8.61,8.61,0,0,0,3.41-.73V108a8.47,8.47,0,0,1-1.62.53A9,9,0,0,1,322.33,108.64Zm-.44-9.73a2.65,2.65,0,0,0-2.06.84,3.86,3.86,0,0,0-.9,2.32h5.59a3.54,3.54,0,0,0-.68-2.35A2.42,2.42,0,0,0,321.89,98.91Z"/><path class="cls-2" d="M336.31,107h-.09a3.81,3.81,0,0,1-3.36,1.63,4,4,0,0,1-3.26-1.43,6.33,6.33,0,0,1-1.17-4.09A6.44,6.44,0,0,1,329.6,99a4,4,0,0,1,3.26-1.46,3.89,3.89,0,0,1,3.34,1.58h.13l-.07-.77,0-.75V93.25h1.62v15.2h-1.31Zm-3.24.27a3,3,0,0,0,2.41-.9,4.6,4.6,0,0,0,.74-2.91v-.35a5.38,5.38,0,0,0-.75-3.24,2.88,2.88,0,0,0-2.42-1,2.46,2.46,0,0,0-2.18,1.1,5.49,5.49,0,0,0-.76,3.13,5.31,5.31,0,0,0,.75,3.1A2.54,2.54,0,0,0,333.07,107.28Z"/><path class="cls-2" d="M346.16,97.55a6.12,6.12,0,0,1,1.28.12l-.22,1.5a5.35,5.35,0,0,0-1.17-.15,2.82,2.82,0,0,0-2.22,1.06,3.82,3.82,0,0,0-.93,2.62v5.75h-1.62V97.74h1.34l.19,2h.07a4.77,4.77,0,0,1,1.44-1.62A3.27,3.27,0,0,1,346.16,97.55Z"/><path class="cls-2" d="M354,108.64a5,5,0,0,1-3.75-1.44,5.65,5.65,0,0,1-1.37-4,6.27,6.27,0,0,1,1.27-4.11,4.27,4.27,0,0,1,3.43-1.52,4,4,0,0,1,3.18,1.32,5.08,5.08,0,0,1,1.17,3.49v1h-7.37a4.25,4.25,0,0,0,1,2.86,3.3,3.3,0,0,0,2.55,1,8.61,8.61,0,0,0,3.41-.73V108a8.47,8.47,0,0,1-1.62.53A9,9,0,0,1,354,108.64Zm-.44-9.73a2.65,2.65,0,0,0-2.06.84,3.86,3.86,0,0,0-.9,2.32h5.59a3.54,3.54,0,0,0-.68-2.35A2.41,2.41,0,0,0,353.53,98.91Z"/><path class="cls-2" d="M367.57,105.53a2.68,2.68,0,0,1-1.11,2.3,5.25,5.25,0,0,1-3.13.81A6.8,6.8,0,0,1,360,108v-1.51a8.23,8.23,0,0,0,1.66.62,6.84,6.84,0,0,0,1.7.22,3.83,3.83,0,0,0,1.95-.4,1.34,1.34,0,0,0,.69-1.24,1.36,1.36,0,0,0-.54-1.07,9,9,0,0,0-2.12-1,11.32,11.32,0,0,1-2.12-1,2.9,2.9,0,0,1-.94-.94,2.5,2.5,0,0,1-.31-1.26,2.39,2.39,0,0,1,1.07-2.06,4.92,4.92,0,0,1,2.92-.76,8.53,8.53,0,0,1,3.38.7l-.58,1.32a7.79,7.79,0,0,0-2.92-.66,3.37,3.37,0,0,0-1.74.36,1.11,1.11,0,0,0-.58,1,1.22,1.22,0,0,0,.22.74,2.1,2.1,0,0,0,.7.57,15.5,15.5,0,0,0,1.88.79,6.87,6.87,0,0,1,2.57,1.4A2.45,2.45,0,0,1,367.57,105.53Z"/><path class="cls-2" d="M382.69,107h-.09a3.81,3.81,0,0,1-3.36,1.63,4,4,0,0,1-3.27-1.43,7.8,7.8,0,0,1,0-8.2,4,4,0,0,1,3.26-1.46,3.9,3.9,0,0,1,3.34,1.58h.13l-.07-.77,0-.75V93.25h1.62v15.2H382.9Zm-3.24.27a2.94,2.94,0,0,0,2.4-.9,4.53,4.53,0,0,0,.75-2.91v-.35a5.3,5.3,0,0,0-.76-3.24,2.86,2.86,0,0,0-2.41-1,2.49,2.49,0,0,0-2.19,1.1,5.57,5.57,0,0,0-.75,3.13,5.31,5.31,0,0,0,.75,3.1A2.54,2.54,0,0,0,379.45,107.28Z"/><path class="cls-2" d="M387.52,94.84a1,1,0,0,1,.28-.81.92.92,0,0,1,.68-.26,1,1,0,0,1,.67.26,1.29,1.29,0,0,1,0,1.63.94.94,0,0,1-.67.27.93.93,0,0,1-.68-.27A1.07,1.07,0,0,1,387.52,94.84Zm1.76,13.61h-1.62V97.74h1.62Z"/><path class="cls-2" d="M400,108.45v-6.93a2.82,2.82,0,0,0-.59-2,2.43,2.43,0,0,0-1.87-.64,3.09,3.09,0,0,0-2.46.9,4.61,4.61,0,0,0-.78,3v5.62h-1.62V97.74H394l.26,1.47h.08A3.33,3.33,0,0,1,395.77,98a4.56,4.56,0,0,1,2-.43,4.07,4.07,0,0,1,2.91.93,4,4,0,0,1,1,3v7Z"/><path class="cls-2" d="M409.51,108.64a4.91,4.91,0,0,1-3.74-1.44,5.6,5.6,0,0,1-1.37-4,6.22,6.22,0,0,1,1.27-4.11,4.25,4.25,0,0,1,3.42-1.52,4,4,0,0,1,3.19,1.32,5.08,5.08,0,0,1,1.17,3.49v1h-7.37a4.25,4.25,0,0,0,.95,2.86,3.29,3.29,0,0,0,2.54,1,8.66,8.66,0,0,0,3.42-.73V108a8.33,8.33,0,0,1-1.63.53A8.9,8.9,0,0,1,409.51,108.64Zm-.44-9.73a2.65,2.65,0,0,0-2.05.84,3.86,3.86,0,0,0-.9,2.32h5.59a3.6,3.6,0,0,0-.68-2.35A2.43,2.43,0,0,0,409.07,98.91Z"/><path class="cls-2" d="M425.69,108.64a4.55,4.55,0,0,1-3.6-1.43,5.87,5.87,0,0,1-1.28-4,6,6,0,0,1,1.3-4.15,4.67,4.67,0,0,1,3.68-1.46,7.42,7.42,0,0,1,1.55.16,5.74,5.74,0,0,1,1.21.39l-.5,1.38a7.64,7.64,0,0,0-1.17-.35,5,5,0,0,0-1.13-.15q-3.25,0-3.26,4.16a5,5,0,0,0,.8,3,2.79,2.79,0,0,0,2.36,1.06,7.29,7.29,0,0,0,2.74-.58v1.44A5.85,5.85,0,0,1,425.69,108.64Z"/><path class="cls-2" d="M438.25,108.45v-6.93a2.78,2.78,0,0,0-.59-2,2.43,2.43,0,0,0-1.87-.64,3.06,3.06,0,0,0-2.46.91,4.66,4.66,0,0,0-.78,3v5.6h-1.62V93.25h1.62v4.6a9,9,0,0,1-.08,1.38h.1A3.3,3.3,0,0,1,433.93,98a4.51,4.51,0,0,1,2-.44,4.12,4.12,0,0,1,2.94.93,3.9,3.9,0,0,1,1,3v7Z"/><path class="cls-2" d="M449.79,108.45l-.32-1.53h-.08a4.63,4.63,0,0,1-1.6,1.37,5,5,0,0,1-2,.35,3.54,3.54,0,0,1-2.49-.82,3,3,0,0,1-.91-2.33c0-2.16,1.73-3.3,5.19-3.4l1.82-.06v-.66a2.67,2.67,0,0,0-.55-1.86,2.21,2.21,0,0,0-1.73-.6,7,7,0,0,0-3,.82l-.49-1.24a7.17,7.17,0,0,1,1.73-.68,7.65,7.65,0,0,1,1.89-.24,4.07,4.07,0,0,1,2.84.85,3.54,3.54,0,0,1,.92,2.72v7.31Zm-3.66-1.15a3.25,3.25,0,0,0,2.37-.83,3,3,0,0,0,.87-2.32v-1l-1.62.07a6,6,0,0,0-2.79.6,1.83,1.83,0,0,0-.86,1.66,1.68,1.68,0,0,0,.54,1.34A2.23,2.23,0,0,0,446.13,107.3Z"/><path class="cls-2" d="M461.65,108.45v-6.93a2.82,2.82,0,0,0-.59-2,2.43,2.43,0,0,0-1.87-.64,3.09,3.09,0,0,0-2.46.9,4.61,4.61,0,0,0-.78,3v5.62h-1.62V97.74h1.32l.26,1.47H456a3.3,3.3,0,0,1,1.4-1.23,4.48,4.48,0,0,1,2-.43,4.07,4.07,0,0,1,2.91.93,4,4,0,0,1,1,3v7Z"/><path class="cls-2" d="M470.88,108.64a4.55,4.55,0,0,1-3.6-1.43,5.87,5.87,0,0,1-1.27-4A6.08,6.08,0,0,1,467.3,99,4.69,4.69,0,0,1,471,97.55a7.32,7.32,0,0,1,1.54.16,5.37,5.37,0,0,1,1.21.39l-.5,1.38a7,7,0,0,0-1.17-.35A4.88,4.88,0,0,0,471,99q-3.26,0-3.26,4.16a5,5,0,0,0,.79,3,2.79,2.79,0,0,0,2.36,1.06,7.34,7.34,0,0,0,2.75-.58v1.44A5.89,5.89,0,0,1,470.88,108.64Z"/><path class="cls-2" d="M480.65,108.64a5,5,0,0,1-3.75-1.44,5.65,5.65,0,0,1-1.37-4,6.22,6.22,0,0,1,1.27-4.11,4.27,4.27,0,0,1,3.43-1.52,4,4,0,0,1,3.18,1.32,5.08,5.08,0,0,1,1.17,3.49v1h-7.37a4.25,4.25,0,0,0,1,2.86,3.3,3.3,0,0,0,2.55,1,8.61,8.61,0,0,0,3.41-.73V108a8.47,8.47,0,0,1-1.62.53A9,9,0,0,1,480.65,108.64Zm-.44-9.73a2.65,2.65,0,0,0-2.06.84,3.86,3.86,0,0,0-.9,2.32h5.59a3.54,3.54,0,0,0-.68-2.35A2.41,2.41,0,0,0,480.21,98.91Z"/><path class="cls-2" d="M492.23,97.55a6.26,6.26,0,0,1,1.28.12l-.23,1.5a5.35,5.35,0,0,0-1.17-.15,2.85,2.85,0,0,0-2.22,1.06,3.86,3.86,0,0,0-.92,2.62v5.75h-1.62V97.74h1.33l.19,2H489a4.64,4.64,0,0,1,1.43-1.62A3.3,3.3,0,0,1,492.23,97.55Z"/><path class="cls-2" d="M505.53,99h-2.72v9.45h-1.63V99h-1.91v-.73l1.91-.59v-.59q0-3.95,3.45-4a7,7,0,0,1,2,.35l-.42,1.29a5.33,5.33,0,0,0-1.6-.3,1.57,1.57,0,0,0-1.36.61,3.45,3.45,0,0,0-.43,2v.69h2.72Z"/><path class="cls-2" d="M516.72,103.09a5.89,5.89,0,0,1-1.32,4.08,4.64,4.64,0,0,1-3.64,1.47,4.81,4.81,0,0,1-2.55-.67,4.52,4.52,0,0,1-1.72-1.94,6.77,6.77,0,0,1-.6-2.94A5.85,5.85,0,0,1,508.2,99a4.6,4.6,0,0,1,3.63-1.46A4.54,4.54,0,0,1,515.4,99,5.91,5.91,0,0,1,516.72,103.09Zm-8.15,0a5.07,5.07,0,0,0,.82,3.12,2.82,2.82,0,0,0,2.41,1.07,2.88,2.88,0,0,0,2.42-1.06,5.08,5.08,0,0,0,.82-3.13,5,5,0,0,0-.82-3.11,2.92,2.92,0,0,0-2.44-1,2.84,2.84,0,0,0-2.4,1A5.05,5.05,0,0,0,508.57,103.09Z"/><path class="cls-2" d="M524.45,97.55a6.26,6.26,0,0,1,1.28.12l-.23,1.5a5.35,5.35,0,0,0-1.17-.15,2.82,2.82,0,0,0-2.22,1.06,3.82,3.82,0,0,0-.93,2.62v5.75h-1.62V97.74h1.34l.19,2h.07a4.77,4.77,0,0,1,1.44-1.62A3.3,3.3,0,0,1,524.45,97.55Z"/><path class="cls-2" d="M539.5,108.45l-.32-1.53h-.08a4.52,4.52,0,0,1-1.59,1.37,5,5,0,0,1-2,.35,3.54,3.54,0,0,1-2.49-.82,3,3,0,0,1-.91-2.33c0-2.16,1.73-3.3,5.19-3.4l1.81-.06v-.66a2.72,2.72,0,0,0-.54-1.86,2.23,2.23,0,0,0-1.73-.6,7,7,0,0,0-3,.82l-.5-1.24a7.41,7.41,0,0,1,1.74-.68,7.53,7.53,0,0,1,1.89-.24,4,4,0,0,1,2.83.85,3.51,3.51,0,0,1,.93,2.72v7.31Zm-3.66-1.15a3.27,3.27,0,0,0,2.38-.83,3,3,0,0,0,.86-2.32v-1l-1.62.07a6,6,0,0,0-2.78.6,1.83,1.83,0,0,0-.86,1.66,1.7,1.7,0,0,0,.53,1.34A2.25,2.25,0,0,0,535.84,107.3Z"/><path class="cls-2" d="M547.5,107.3a5.49,5.49,0,0,0,.83-.06,6.4,6.4,0,0,0,.64-.13v1.24a3.51,3.51,0,0,1-.78.21,6.48,6.48,0,0,1-.92.08q-3.1,0-3.11-3.27V99h-1.53v-.78l1.53-.67.69-2.29h.93v2.48h3.11V99h-3.11v6.3a2.21,2.21,0,0,0,.46,1.49A1.62,1.62,0,0,0,547.5,107.3Z"/><path class="cls-2" d="M69.22,126.74v7a2.78,2.78,0,0,0,.6,1.95,2.41,2.41,0,0,0,1.86.64,3.06,3.06,0,0,0,2.46-.91,4.63,4.63,0,0,0,.77-3v-5.63h1.63v10.71H75.2L75,136h-.08a3.28,3.28,0,0,1-1.39,1.21,4.63,4.63,0,0,1-2,.42,4.11,4.11,0,0,1-2.93-.93,3.91,3.91,0,0,1-1-3v-7Z"/><path class="cls-2" d="M87.3,137.45v-6.93a2.78,2.78,0,0,0-.6-2,2.43,2.43,0,0,0-1.86-.64,3.09,3.09,0,0,0-2.46.9,4.55,4.55,0,0,0-.79,3v5.62H80V126.74h1.32l.27,1.47h.07A3.35,3.35,0,0,1,83,127a4.54,4.54,0,0,1,2-.43,4.07,4.07,0,0,1,2.91.93,4,4,0,0,1,1,3v7Z"/><path class="cls-2" d="M99.53,136h-.08a3.81,3.81,0,0,1-3.36,1.63,4,4,0,0,1-3.27-1.43,6.33,6.33,0,0,1-1.17-4.09A6.44,6.44,0,0,1,92.82,128a4,4,0,0,1,3.27-1.46,3.91,3.91,0,0,1,3.34,1.58h.12l-.06-.77,0-.75v-4.36h1.62v15.2H99.75Zm-3.24.27a3,3,0,0,0,2.41-.9,4.53,4.53,0,0,0,.75-2.91v-.35a5.37,5.37,0,0,0-.76-3.24,2.88,2.88,0,0,0-2.42-1,2.46,2.46,0,0,0-2.18,1.1,5.57,5.57,0,0,0-.76,3.13,5.31,5.31,0,0,0,.75,3.1A2.55,2.55,0,0,0,96.29,136.28Z"/><path class="cls-2" d="M113.26,126.74v1l-2,.23a3.55,3.55,0,0,1,.71,2.14,3.15,3.15,0,0,1-1.08,2.51,4.32,4.32,0,0,1-3,.94,5.11,5.11,0,0,1-.9-.08,1.59,1.59,0,0,0-1,1.38.7.7,0,0,0,.36.65,2.62,2.62,0,0,0,1.24.21h1.89a4.27,4.27,0,0,1,2.68.73,2.55,2.55,0,0,1,.93,2.13,3,3,0,0,1-1.43,2.71,7.65,7.65,0,0,1-4.16.93,5.7,5.7,0,0,1-3.24-.78,2.68,2.68,0,0,1-.51-3.9,3.21,3.21,0,0,1,1.76-1,1.82,1.82,0,0,1-.69-.58,1.56,1.56,0,0,1-.28-.91,1.7,1.7,0,0,1,.32-1,3,3,0,0,1,1-.85,3,3,0,0,1-1.35-1.16,3.43,3.43,0,0,1-.52-1.88,3.48,3.48,0,0,1,1-2.71,4.33,4.33,0,0,1,3-1,5.43,5.43,0,0,1,1.51.19Zm-8.53,12.5a1.45,1.45,0,0,0,.73,1.32,4,4,0,0,0,2.1.45,5.81,5.81,0,0,0,3-.61,1.87,1.87,0,0,0,1-1.65,1.31,1.31,0,0,0-.54-1.21,4.1,4.1,0,0,0-2-.34h-2a2.58,2.58,0,0,0-1.72.53A1.88,1.88,0,0,0,104.73,139.24Zm.88-9.07a2.18,2.18,0,0,0,.63,1.7,2.58,2.58,0,0,0,1.77.58,2.07,2.07,0,0,0,2.37-2.31,2.12,2.12,0,0,0-2.4-2.41,2.35,2.35,0,0,0-1.76.62A2.46,2.46,0,0,0,105.61,130.17Z"/><path class="cls-2" d="M122,137.45l-.32-1.53h-.08a4.52,4.52,0,0,1-1.59,1.37,5,5,0,0,1-2,.35,3.59,3.59,0,0,1-2.5-.82,3,3,0,0,1-.9-2.33c0-2.16,1.73-3.3,5.19-3.4l1.81-.06v-.66a2.72,2.72,0,0,0-.54-1.86,2.23,2.23,0,0,0-1.73-.6,7,7,0,0,0-3,.82l-.5-1.24a7.41,7.41,0,0,1,1.74-.68,7.53,7.53,0,0,1,1.89-.24,4,4,0,0,1,2.83.85,3.51,3.51,0,0,1,.92,2.72v7.31Zm-3.66-1.15a3.27,3.27,0,0,0,2.38-.83,3,3,0,0,0,.86-2.32v-1l-1.62.07a6,6,0,0,0-2.79.6,1.82,1.82,0,0,0-.85,1.66,1.7,1.7,0,0,0,.53,1.34A2.25,2.25,0,0,0,118.38,136.3Zm3.21-13.09a2,2,0,0,1-.6,1.54,2.22,2.22,0,0,1-1.59.58,2.19,2.19,0,0,1-1.58-.57,2,2,0,0,1-.58-1.53,2,2,0,0,1,.59-1.52,2.48,2.48,0,0,1,3.16,0A2,2,0,0,1,121.59,123.21Zm-1,0a1.12,1.12,0,0,0-.32-.85,1.16,1.16,0,0,0-.82-.29,1.14,1.14,0,0,0-.82.29,1.09,1.09,0,0,0-.33.85,1.18,1.18,0,0,0,2,.84A1.11,1.11,0,0,0,120.54,123.23Z"/><path class="cls-2" d="M138.36,137.45l-.32-1.53H138a4.46,4.46,0,0,1-1.6,1.37,5,5,0,0,1-2,.35,3.57,3.57,0,0,1-2.5-.82,3,3,0,0,1-.9-2.33c0-2.16,1.73-3.3,5.18-3.4L138,131v-.66a2.72,2.72,0,0,0-.54-1.86,2.23,2.23,0,0,0-1.73-.6,7,7,0,0,0-3,.82l-.5-1.24a7.51,7.51,0,0,1,1.73-.68,7.65,7.65,0,0,1,1.89-.24,4.05,4.05,0,0,1,2.84.85,3.51,3.51,0,0,1,.92,2.72v7.31Zm-3.66-1.15a3.27,3.27,0,0,0,2.38-.83,3.07,3.07,0,0,0,.86-2.32v-1l-1.62.07a6,6,0,0,0-2.79.6,1.82,1.82,0,0,0-.85,1.66,1.7,1.7,0,0,0,.53,1.34A2.25,2.25,0,0,0,134.7,136.3Z"/><path class="cls-2" d="M144.52,137.45H142.9v-15.2h1.62Z"/><path class="cls-2" d="M150.31,137.45l-4.07-10.71H148l2.31,6.35a29.77,29.77,0,0,1,.91,2.89h.08a21.89,21.89,0,0,1,.68-2.14c.38-1.09,1.24-3.45,2.56-7.1h1.74l-4.06,10.71Z"/><path class="cls-2" d="M167.22,132.09a5.89,5.89,0,0,1-1.32,4.08,4.64,4.64,0,0,1-3.64,1.47,4.81,4.81,0,0,1-2.55-.67A4.46,4.46,0,0,1,158,135a6.77,6.77,0,0,1-.6-2.94,5.9,5.9,0,0,1,1.3-4.08,4.63,4.63,0,0,1,3.64-1.46A4.57,4.57,0,0,1,165.9,128,5.91,5.91,0,0,1,167.22,132.09Zm-8.15,0a5.07,5.07,0,0,0,.82,3.12,2.82,2.82,0,0,0,2.41,1.07,2.86,2.86,0,0,0,2.41-1.06,5.08,5.08,0,0,0,.83-3.13,5,5,0,0,0-.83-3.11,2.9,2.9,0,0,0-2.43-1,2.84,2.84,0,0,0-2.4,1A5.05,5.05,0,0,0,159.07,132.09Z"/><path class="cls-2" d="M174.94,126.55a6.12,6.12,0,0,1,1.28.12l-.22,1.5a5.35,5.35,0,0,0-1.17-.15,2.82,2.82,0,0,0-2.22,1.06,3.82,3.82,0,0,0-.93,2.62v5.75h-1.62V126.74h1.34l.18,2h.08a4.77,4.77,0,0,1,1.44-1.62A3.27,3.27,0,0,1,174.94,126.55Z"/><path class="cls-2" d="M179.85,137.45h-1.62v-15.2h1.62Z"/><path class="cls-2" d="M183.15,123.84a1.07,1.07,0,0,1,.27-.81.92.92,0,0,1,.68-.26,1,1,0,0,1,.68.26,1.33,1.33,0,0,1,0,1.63,1,1,0,0,1-.68.27.93.93,0,0,1-.68-.27A1.11,1.11,0,0,1,183.15,123.84Zm1.75,13.61h-1.62V126.74h1.62Z"/><path class="cls-2" d="M197.1,126.74v1l-2,.23a3.47,3.47,0,0,1,.7,2.14,3.14,3.14,0,0,1-1.07,2.51,4.32,4.32,0,0,1-2.95.94,5.11,5.11,0,0,1-.9-.08,1.59,1.59,0,0,0-1,1.38.7.7,0,0,0,.36.65,2.62,2.62,0,0,0,1.24.21h1.89a4.22,4.22,0,0,1,2.67.73,2.56,2.56,0,0,1,.94,2.13,3,3,0,0,1-1.43,2.71,7.65,7.65,0,0,1-4.16.93,5.7,5.7,0,0,1-3.24-.78,2.53,2.53,0,0,1-1.14-2.21,2.48,2.48,0,0,1,.63-1.69,3.21,3.21,0,0,1,1.76-1,1.68,1.68,0,0,1-.69-.58,1.49,1.49,0,0,1-.28-.91,1.69,1.69,0,0,1,.31-1,3.18,3.18,0,0,1,1-.85,3,3,0,0,1-1.35-1.16,3.44,3.44,0,0,1-.53-1.88,3.49,3.49,0,0,1,1.06-2.71,4.33,4.33,0,0,1,3-1,5.43,5.43,0,0,1,1.51.19Zm-8.53,12.5a1.45,1.45,0,0,0,.73,1.32,4,4,0,0,0,2.1.45,5.81,5.81,0,0,0,3-.61,1.86,1.86,0,0,0,1-1.65,1.33,1.33,0,0,0-.53-1.21,4.14,4.14,0,0,0-2-.34H190.9a2.58,2.58,0,0,0-1.72.53A1.88,1.88,0,0,0,188.57,139.24Zm.88-9.07a2.18,2.18,0,0,0,.63,1.7,2.55,2.55,0,0,0,1.77.58,2.07,2.07,0,0,0,2.37-2.31,2.12,2.12,0,0,0-2.4-2.41,2.35,2.35,0,0,0-1.76.62A2.46,2.46,0,0,0,189.45,130.17Z"/><path class="cls-2" d="M203.82,137.64a4.91,4.91,0,0,1-3.74-1.44,5.61,5.61,0,0,1-1.38-4,6.22,6.22,0,0,1,1.28-4.11,4.25,4.25,0,0,1,3.42-1.52,4,4,0,0,1,3.18,1.32,5,5,0,0,1,1.18,3.49v1h-7.38a4.25,4.25,0,0,0,1,2.86,3.29,3.29,0,0,0,2.54,1,8.69,8.69,0,0,0,3.42-.73V137a8.78,8.78,0,0,1-1.63.53A9,9,0,0,1,203.82,137.64Zm-.44-9.73a2.63,2.63,0,0,0-2,.84,3.8,3.8,0,0,0-.91,2.32H206a3.54,3.54,0,0,0-.69-2.35A2.39,2.39,0,0,0,203.38,127.91Z"/><path class="cls-2" d="M223,137.45v-6.93a2.78,2.78,0,0,0-.6-2,2.4,2.4,0,0,0-1.86-.64,3.07,3.07,0,0,0-2.47.91,4.73,4.73,0,0,0-.77,3v5.6h-1.62v-15.2h1.62v4.6a10.47,10.47,0,0,1-.08,1.38h.1a3.3,3.3,0,0,1,1.36-1.22,4.51,4.51,0,0,1,2-.44,4.13,4.13,0,0,1,2.94.93,3.94,3.94,0,0,1,1,3v7Z"/><path class="cls-2" d="M237.23,132.09a5.89,5.89,0,0,1-1.32,4.08,4.64,4.64,0,0,1-3.64,1.47,4.81,4.81,0,0,1-2.55-.67A4.46,4.46,0,0,1,228,135a6.77,6.77,0,0,1-.6-2.94,5.9,5.9,0,0,1,1.3-4.08,4.63,4.63,0,0,1,3.64-1.46,4.57,4.57,0,0,1,3.57,1.49A5.91,5.91,0,0,1,237.23,132.09Zm-8.16,0a5.06,5.06,0,0,0,.83,3.12,2.82,2.82,0,0,0,2.41,1.07,2.86,2.86,0,0,0,2.41-1.06,5.08,5.08,0,0,0,.83-3.13,5,5,0,0,0-.83-3.11,2.9,2.9,0,0,0-2.43-1,2.84,2.84,0,0,0-2.4,1A5,5,0,0,0,229.07,132.09Z"/><path class="cls-2" d="M242.41,137.45l-4.06-10.71h1.74l2.31,6.35a29.77,29.77,0,0,1,.91,2.89h.08a21.89,21.89,0,0,1,.68-2.14c.38-1.09,1.24-3.45,2.56-7.1h1.74l-4.06,10.71Z"/><path class="cls-2" d="M254.61,137.64a4.91,4.91,0,0,1-3.74-1.44,5.61,5.61,0,0,1-1.38-4,6.22,6.22,0,0,1,1.28-4.11,4.25,4.25,0,0,1,3.42-1.52,4.07,4.07,0,0,1,3.19,1.32,5.08,5.08,0,0,1,1.17,3.49v1h-7.38a4.25,4.25,0,0,0,1,2.86,3.29,3.29,0,0,0,2.54,1,8.69,8.69,0,0,0,3.42-.73V137a8.55,8.55,0,0,1-1.63.53A9,9,0,0,1,254.61,137.64Zm-.44-9.73a2.63,2.63,0,0,0-2,.84,3.86,3.86,0,0,0-.91,2.32h5.6a3.6,3.6,0,0,0-.68-2.35A2.43,2.43,0,0,0,254.17,127.91Z"/><path class="cls-2" d="M268.6,136h-.09a3.81,3.81,0,0,1-3.36,1.63,4,4,0,0,1-3.27-1.43,6.33,6.33,0,0,1-1.16-4.09,6.44,6.44,0,0,1,1.17-4.11,4,4,0,0,1,3.26-1.46,3.91,3.91,0,0,1,3.34,1.58h.13l-.07-.77,0-.75v-4.36h1.62v15.2h-1.32Zm-3.25.27a3,3,0,0,0,2.41-.9,4.53,4.53,0,0,0,.75-2.91v-.35a5.3,5.3,0,0,0-.76-3.24,2.86,2.86,0,0,0-2.42-1,2.47,2.47,0,0,0-2.18,1.1,5.57,5.57,0,0,0-.75,3.13,5.31,5.31,0,0,0,.75,3.1A2.52,2.52,0,0,0,265.35,136.28Z"/><path class="cls-2" d="M280.47,134.53a2.68,2.68,0,0,1-1.11,2.3,5.25,5.25,0,0,1-3.13.81,6.8,6.8,0,0,1-3.32-.67v-1.51a8.23,8.23,0,0,0,1.66.62,6.9,6.9,0,0,0,1.7.22,3.9,3.9,0,0,0,2-.4,1.4,1.4,0,0,0,.14-2.31,9,9,0,0,0-2.12-1.05,11.32,11.32,0,0,1-2.12-1,2.9,2.9,0,0,1-.94-.94,2.5,2.5,0,0,1-.31-1.26,2.39,2.39,0,0,1,1.07-2.06,4.92,4.92,0,0,1,2.92-.76,8.53,8.53,0,0,1,3.38.7l-.58,1.32a7.79,7.79,0,0,0-2.92-.66,3.37,3.37,0,0,0-1.74.36,1.11,1.11,0,0,0-.58,1,1.22,1.22,0,0,0,.22.74,2.1,2.1,0,0,0,.7.57,15.5,15.5,0,0,0,1.88.79,6.87,6.87,0,0,1,2.57,1.4A2.45,2.45,0,0,1,280.47,134.53Z"/><path class="cls-2" d="M284.71,132a18.52,18.52,0,0,1,1.28-1.56l3.46-3.67h1.92L287,131.3l4.64,6.15h-2l-3.78-5.06-1.22,1.05v4h-1.6v-15.2h1.6v8.06c0,.36,0,.91-.08,1.66Z"/><path class="cls-2" d="M300.19,137.45l-.32-1.53h-.08a4.63,4.63,0,0,1-1.6,1.37,5,5,0,0,1-2,.35,3.54,3.54,0,0,1-2.49-.82,3,3,0,0,1-.9-2.33c0-2.16,1.72-3.3,5.18-3.4l1.82-.06v-.66a2.72,2.72,0,0,0-.54-1.86,2.25,2.25,0,0,0-1.74-.6,7,7,0,0,0-3,.82l-.49-1.24a7.17,7.17,0,0,1,1.73-.68,7.65,7.65,0,0,1,1.89-.24,4.07,4.07,0,0,1,2.84.85,3.54,3.54,0,0,1,.92,2.72v7.31Zm-3.66-1.15a3.23,3.23,0,0,0,2.37-.83,3,3,0,0,0,.87-2.32v-1l-1.62.07a6,6,0,0,0-2.79.6,1.83,1.83,0,0,0-.86,1.66,1.68,1.68,0,0,0,.54,1.34A2.23,2.23,0,0,0,296.53,136.3Z"/><path class="cls-2" d="M312,136h-.08a3.81,3.81,0,0,1-3.36,1.63,4,4,0,0,1-3.27-1.43,7.74,7.74,0,0,1,0-8.2,4.34,4.34,0,0,1,6.6.12H312l-.06-.77,0-.75v-4.36h1.62v15.2h-1.32Zm-3.24.27a3,3,0,0,0,2.41-.9,4.53,4.53,0,0,0,.75-2.91v-.35a5.37,5.37,0,0,0-.76-3.24,2.86,2.86,0,0,0-2.42-1,2.46,2.46,0,0,0-2.18,1.1,5.57,5.57,0,0,0-.76,3.13,5.23,5.23,0,0,0,.76,3.1A2.52,2.52,0,0,0,308.77,136.28Z"/><path class="cls-2" d="M321.51,137.64a4.93,4.93,0,0,1-3.75-1.44,5.65,5.65,0,0,1-1.37-4,6.22,6.22,0,0,1,1.27-4.11,4.25,4.25,0,0,1,3.43-1.52,4,4,0,0,1,3.18,1.32,5.08,5.08,0,0,1,1.17,3.49v1h-7.37a4.25,4.25,0,0,0,.95,2.86,3.3,3.3,0,0,0,2.55,1,8.61,8.61,0,0,0,3.41-.73V137a8.47,8.47,0,0,1-1.62.53A9,9,0,0,1,321.51,137.64Zm-.44-9.73a2.65,2.65,0,0,0-2.06.84,3.86,3.86,0,0,0-.9,2.32h5.59a3.54,3.54,0,0,0-.68-2.35A2.42,2.42,0,0,0,321.07,127.91Z"/><path class="cls-2" d="M333.09,126.55a6.26,6.26,0,0,1,1.28.12l-.23,1.5A5.35,5.35,0,0,0,333,128a2.83,2.83,0,0,0-2.22,1.06,3.81,3.81,0,0,0-.92,2.62v5.75h-1.62V126.74h1.33l.19,2h.08a4.64,4.64,0,0,1,1.43-1.62A3.3,3.3,0,0,1,333.09,126.55Z"/><path class="cls-2" d="M343.91,137.45l-4.06-10.71h1.73l2.31,6.35c.52,1.49.83,2.45.92,2.89h.08a20.84,20.84,0,0,1,.67-2.14c.39-1.09,1.24-3.45,2.57-7.1h1.74l-4.07,10.71Z"/><path class="cls-2" d="M356.11,137.64a4.93,4.93,0,0,1-3.75-1.44,5.65,5.65,0,0,1-1.37-4,6.22,6.22,0,0,1,1.27-4.11,4.25,4.25,0,0,1,3.43-1.52,4,4,0,0,1,3.18,1.32,5.08,5.08,0,0,1,1.17,3.49v1h-7.37a4.25,4.25,0,0,0,.95,2.86,3.29,3.29,0,0,0,2.54,1,8.62,8.62,0,0,0,3.42-.73V137a8.47,8.47,0,0,1-1.62.53A9,9,0,0,1,356.11,137.64Zm-.44-9.73a2.65,2.65,0,0,0-2.06.84,3.86,3.86,0,0,0-.9,2.32h5.59a3.54,3.54,0,0,0-.68-2.35A2.42,2.42,0,0,0,355.67,127.91Z"/><path class="cls-2" d="M370.09,136H370a3.81,3.81,0,0,1-3.36,1.63,4,4,0,0,1-3.26-1.43,6.33,6.33,0,0,1-1.17-4.09,6.44,6.44,0,0,1,1.17-4.11,4,4,0,0,1,3.26-1.46,3.9,3.9,0,0,1,3.34,1.58h.13l-.07-.77,0-.75v-4.36h1.62v15.2h-1.31Zm-3.24.27a3,3,0,0,0,2.41-.9,4.6,4.6,0,0,0,.74-2.91v-.35a5.38,5.38,0,0,0-.75-3.24,2.88,2.88,0,0,0-2.42-1,2.46,2.46,0,0,0-2.18,1.1,5.49,5.49,0,0,0-.76,3.13,5.31,5.31,0,0,0,.75,3.1A2.54,2.54,0,0,0,366.85,136.28Z"/><path class="cls-2" d="M385.24,126.57a4,4,0,0,1,3.27,1.44,7.69,7.69,0,0,1,0,8.17,3.93,3.93,0,0,1-3.26,1.46,4.72,4.72,0,0,1-1.91-.38,3.62,3.62,0,0,1-1.45-1.19h-.12l-.34,1.38h-1.16v-15.2h1.62v3.69c0,.83,0,1.57-.08,2.23h.08A3.83,3.83,0,0,1,385.24,126.57Zm-.24,1.36a2.82,2.82,0,0,0-2.39.95,7.35,7.35,0,0,0,0,6.43,2.84,2.84,0,0,0,2.41,1,2.51,2.51,0,0,0,2.23-1.08,5.59,5.59,0,0,0,.73-3.13,5.36,5.36,0,0,0-.73-3.12A2.61,2.61,0,0,0,385,127.93Z"/><path class="cls-2" d="M397.4,126.55a6.09,6.09,0,0,1,1.27.12l-.22,1.5a5.35,5.35,0,0,0-1.17-.15,2.82,2.82,0,0,0-2.22,1.06,3.82,3.82,0,0,0-.93,2.62v5.75h-1.62V126.74h1.34l.19,2h.07a4.77,4.77,0,0,1,1.44-1.62A3.28,3.28,0,0,1,397.4,126.55Z"/><path class="cls-2" d="M402.2,126.74v7a2.78,2.78,0,0,0,.6,1.95,2.4,2.4,0,0,0,1.86.64,3.06,3.06,0,0,0,2.46-.91,4.69,4.69,0,0,0,.77-3v-5.63h1.62v10.71h-1.33l-.24-1.44h-.09a3.19,3.19,0,0,1-1.38,1.21,4.63,4.63,0,0,1-2,.42,4.09,4.09,0,0,1-2.93-.93,3.91,3.91,0,0,1-1-3v-7Z"/><path class="cls-2" d="M421.71,126.74v1l-2,.23a3.75,3.75,0,0,1,.49.9,3.43,3.43,0,0,1,.21,1.24,3.17,3.17,0,0,1-1.07,2.51,4.32,4.32,0,0,1-2.95.94,5.11,5.11,0,0,1-.9-.08,1.59,1.59,0,0,0-1,1.38.7.7,0,0,0,.36.65,2.62,2.62,0,0,0,1.24.21H418a4.22,4.22,0,0,1,2.67.73,2.55,2.55,0,0,1,.93,2.13,3,3,0,0,1-1.42,2.71,7.65,7.65,0,0,1-4.16.93,5.7,5.7,0,0,1-3.24-.78,2.53,2.53,0,0,1-1.14-2.21,2.48,2.48,0,0,1,.63-1.69,3.21,3.21,0,0,1,1.76-1,1.68,1.68,0,0,1-.69-.58,1.49,1.49,0,0,1-.28-.91,1.69,1.69,0,0,1,.31-1,3.18,3.18,0,0,1,1-.85,2.91,2.91,0,0,1-1.35-1.16,3.44,3.44,0,0,1-.53-1.88,3.49,3.49,0,0,1,1.06-2.71,4.33,4.33,0,0,1,3-1,5.43,5.43,0,0,1,1.51.19Zm-8.53,12.5a1.45,1.45,0,0,0,.73,1.32,4,4,0,0,0,2.1.45,5.81,5.81,0,0,0,3-.61,1.86,1.86,0,0,0,1-1.65,1.33,1.33,0,0,0-.53-1.21,4.14,4.14,0,0,0-2-.34h-1.94a2.56,2.56,0,0,0-1.72.53A1.88,1.88,0,0,0,413.18,139.24Zm.88-9.07a2.18,2.18,0,0,0,.63,1.7,2.55,2.55,0,0,0,1.77.58,2.07,2.07,0,0,0,2.37-2.31,2.12,2.12,0,0,0-2.4-2.41,2.35,2.35,0,0,0-1.76.62A2.46,2.46,0,0,0,414.06,130.17Z"/><path class="cls-2" d="M435.69,137.45l-.33-1.53h-.07a4.63,4.63,0,0,1-1.6,1.37,5,5,0,0,1-2,.35,3.54,3.54,0,0,1-2.49-.82,3,3,0,0,1-.91-2.33c0-2.16,1.73-3.3,5.19-3.4l1.82-.06v-.66a2.72,2.72,0,0,0-.55-1.86,2.23,2.23,0,0,0-1.73-.6,7,7,0,0,0-3,.82l-.5-1.24a7.41,7.41,0,0,1,1.74-.68,7.65,7.65,0,0,1,1.89-.24,4,4,0,0,1,2.83.85,3.51,3.51,0,0,1,.93,2.72v7.31ZM432,136.3a3.26,3.26,0,0,0,2.38-.83,3,3,0,0,0,.87-2.32v-1l-1.62.07a6,6,0,0,0-2.79.6,1.83,1.83,0,0,0-.86,1.66,1.7,1.7,0,0,0,.53,1.34A2.27,2.27,0,0,0,432,136.3Z"/><path class="cls-2" d="M445.05,128h-2.72v9.45h-1.62V128h-1.92v-.73l1.92-.59v-.59c0-2.63,1.14-4,3.44-4a7.14,7.14,0,0,1,2,.35l-.42,1.29a5.44,5.44,0,0,0-1.61-.3,1.54,1.54,0,0,0-1.35.61,3.36,3.36,0,0,0-.44,2v.69h2.72Z"/><path class="cls-2" d="M456.48,137.64a4.55,4.55,0,0,1-3.6-1.43,5.87,5.87,0,0,1-1.28-4.05,6.09,6.09,0,0,1,1.3-4.15,4.67,4.67,0,0,1,3.68-1.46,7.42,7.42,0,0,1,1.55.16,5.55,5.55,0,0,1,1.21.39l-.5,1.38a7.64,7.64,0,0,0-1.17-.35,5,5,0,0,0-1.12-.15q-3.27,0-3.27,4.16a5,5,0,0,0,.8,3,2.79,2.79,0,0,0,2.36,1.06,7.29,7.29,0,0,0,2.74-.58v1.44A5.85,5.85,0,0,1,456.48,137.64Z"/><path class="cls-2" d="M460,126.74h1.74l2.34,6.11a22.15,22.15,0,0,1,1,3h.08c.08-.33.26-.9.53-1.7s1.16-3.28,2.65-7.42h1.74l-4.6,12.19a5.93,5.93,0,0,1-1.6,2.56,3.34,3.34,0,0,1-2.24.76,6.53,6.53,0,0,1-1.46-.16v-1.3a6.29,6.29,0,0,0,1.2.11,2.47,2.47,0,0,0,2.38-1.87l.6-1.52Z"/><path class="cls-2" d="M473.4,132a18.52,18.52,0,0,1,1.28-1.56l3.46-3.67h1.92l-4.33,4.56,4.63,6.15h-2l-3.78-5.06-1.22,1.05v4h-1.6v-15.2h1.6v8.06c0,.36,0,.91-.08,1.66Z"/><path class="cls-2" d="M486.82,137.64a5,5,0,0,1-3.75-1.44,5.65,5.65,0,0,1-1.37-4,6.22,6.22,0,0,1,1.28-4.11,4.25,4.25,0,0,1,3.42-1.52,4,4,0,0,1,3.18,1.32,5.08,5.08,0,0,1,1.17,3.49v1h-7.37a4.25,4.25,0,0,0,.95,2.86,3.31,3.31,0,0,0,2.55,1,8.69,8.69,0,0,0,3.42-.73V137a8.78,8.78,0,0,1-1.63.53A9,9,0,0,1,486.82,137.64Zm-.44-9.73a2.67,2.67,0,0,0-2.06.84,3.86,3.86,0,0,0-.9,2.32H489a3.54,3.54,0,0,0-.69-2.35A2.39,2.39,0,0,0,486.38,127.91Z"/><path class="cls-2" d="M495.14,137.45h-1.62v-15.2h1.62Z"/><path class="cls-2" d="M505.9,137.45v-6.93a2.82,2.82,0,0,0-.59-2,2.43,2.43,0,0,0-1.87-.64,3.07,3.07,0,0,0-2.47.91,4.73,4.73,0,0,0-.77,3v5.6h-1.62v-15.2h1.62v4.6a10.47,10.47,0,0,1-.08,1.38h.1a3.3,3.3,0,0,1,1.36-1.22,4.51,4.51,0,0,1,2-.44,4.13,4.13,0,0,1,2.94.93,3.9,3.9,0,0,1,1,3v7Z"/><path class="cls-2" d="M509.55,142.25a3.92,3.92,0,0,1-1.5-.24v-1.32a4.75,4.75,0,0,0,1.33.19,1.39,1.39,0,0,0,1.12-.41,2,2,0,0,0,.35-1.27V126.74h1.62v12.35Q512.47,142.26,509.55,142.25Zm1.17-18.41A1.07,1.07,0,0,1,511,123a.92.92,0,0,1,.68-.26,1,1,0,0,1,.68.26,1.33,1.33,0,0,1,0,1.63,1,1,0,0,1-.68.27.93.93,0,0,1-.68-.27A1.11,1.11,0,0,1,510.72,123.84Z"/><path class="cls-2" d="M520.43,137.64a4.91,4.91,0,0,1-3.74-1.44,5.6,5.6,0,0,1-1.37-4,6.22,6.22,0,0,1,1.27-4.11,4.25,4.25,0,0,1,3.42-1.52,4.07,4.07,0,0,1,3.19,1.32,5.08,5.08,0,0,1,1.17,3.49v1H517a4.25,4.25,0,0,0,1,2.86,3.29,3.29,0,0,0,2.54,1,8.69,8.69,0,0,0,3.42-.73V137a8.55,8.55,0,0,1-1.63.53A9,9,0,0,1,520.43,137.64Zm-.44-9.73a2.63,2.63,0,0,0-2,.84,3.92,3.92,0,0,0-.91,2.32h5.6a3.6,3.6,0,0,0-.68-2.35A2.43,2.43,0,0,0,520,127.91Z"/><path class="cls-2" d="M528.75,137.45h-1.62v-15.2h1.62Z"/><path class="cls-2" d="M545.83,137.45v-7a2.93,2.93,0,0,0-.54-1.92,2.15,2.15,0,0,0-1.7-.63,2.77,2.77,0,0,0-2.24.86,4.16,4.16,0,0,0-.72,2.68v6H539v-7a2.93,2.93,0,0,0-.55-1.92,2.15,2.15,0,0,0-1.71-.63,2.64,2.64,0,0,0-2.23.91,4.94,4.94,0,0,0-.71,3v5.62h-1.62V126.74h1.32l.26,1.47h.08a3.23,3.23,0,0,1,1.29-1.22,3.88,3.88,0,0,1,1.87-.44c1.68,0,2.77.6,3.29,1.81h.07a3.41,3.41,0,0,1,1.39-1.32,4.28,4.28,0,0,1,2.07-.49,3.63,3.63,0,0,1,2.72.93,4.18,4.18,0,0,1,.9,3v7Z"/><path class="cls-2" d="M557.09,133.51V133a4.47,4.47,0,0,1,.35-1.88,5,5,0,0,1,1.31-1.55,9,9,0,0,0,1.68-1.69,2.6,2.6,0,0,0,.34-1.37,1.9,1.9,0,0,0-.64-1.54,2.77,2.77,0,0,0-1.84-.54,6.28,6.28,0,0,0-1.5.18,8,8,0,0,0-1.68.66l-.58-1.32a8.28,8.28,0,0,1,3.86-1,4.24,4.24,0,0,1,2.9.92,3.29,3.29,0,0,1,1,2.59,3.91,3.91,0,0,1-.19,1.25,3.6,3.6,0,0,1-.57,1,13.31,13.31,0,0,1-1.6,1.56,6.15,6.15,0,0,0-1.3,1.39,3,3,0,0,0-.32,1.49v.32Zm-.48,2.9c0-.88.39-1.33,1.18-1.33a1.12,1.12,0,0,1,.87.35,1.42,1.42,0,0,1,.31,1,1.38,1.38,0,0,1-.32,1,1.09,1.09,0,0,1-.86.35,1.16,1.16,0,0,1-.84-.31A1.28,1.28,0,0,1,556.61,136.41Z"/></g></svg>