<svg xmlns="http://www.w3.org/2000/svg" width="89.77mm" height="36.27mm" viewBox="0 0 254.46 102.8"><defs><style>.cls-1{fill:#6ab42d;}.cls-2{fill:#fff;}</style></defs><title>startknap</title><g id="startknap"><rect class="cls-1" x="10.4" y="7.88" width="234.23" height="84.63"/><path class="cls-2" d="M72.86,38.14c-3.44,0-5.15,1.31-5.15,3.94,0,1.53.38,2.57,1.16,3.1a13.93,13.93,0,0,0,4.58,1.47,11.41,11.41,0,0,1,4.86,1.86,4.84,4.84,0,0,1,1.46,4q0,3.59-1.78,5.16a7.54,7.54,0,0,1-5.2,1.59A43.52,43.52,0,0,1,67,58.78l-1.15-.16.22-1.7a57.91,57.91,0,0,0,6.79.55,5.16,5.16,0,0,0,3.65-1.17,4.47,4.47,0,0,0,1.24-3.42c0-1.51-.36-2.53-1.1-3.08a8.88,8.88,0,0,0-3.52-1.26,29.38,29.38,0,0,1-3.54-.82,7.74,7.74,0,0,1-2.09-1,3.78,3.78,0,0,1-1.39-1.76,7.52,7.52,0,0,1-.42-2.71q0-5.82,7-5.82a43.62,43.62,0,0,1,5.5.45l1.06.16-.16,1.69A59.67,59.67,0,0,0,72.86,38.14Z"/><path class="cls-2" d="M91.55,44.67H86.2v7.9a11.58,11.58,0,0,0,.45,4.07c.3.64,1,1,2.11,1l2.95-.23L91.83,59a22.17,22.17,0,0,1-3.23.32,4.05,4.05,0,0,1-3.37-1.2c-.63-.8-1-2.33-1-4.59V44.67H81.91V43h2.37V38H86.2v5h5.35Z"/><path class="cls-2" d="M105.56,47.74v8.58c.09.79.78,1.25,2.08,1.4l-.09,1.54A4.65,4.65,0,0,1,103.93,58a15,15,0,0,1-6,1.31,4.19,4.19,0,0,1-3.26-1.23,5,5,0,0,1-1.12-3.52,4.51,4.51,0,0,1,1.14-3.39,5.82,5.82,0,0,1,3.56-1.36l5.44-.55v-1.5a3.57,3.57,0,0,0-.78-2.58,2.84,2.84,0,0,0-2.1-.78,48.85,48.85,0,0,0-5.31.38l-1,.1-.1-1.54a34.12,34.12,0,0,1,6.16-.67,5.1,5.1,0,0,1,3.83,1.25A5.4,5.4,0,0,1,105.56,47.74Zm-10,6.69c0,2.15.89,3.23,2.66,3.23a13.23,13.23,0,0,0,2.53-.27,15.78,15.78,0,0,0,2.17-.56l.8-.29V50.75l-5.21.54a3.31,3.31,0,0,0-2.26.9A3.25,3.25,0,0,0,95.51,54.43Z"/><path class="cls-2" d="M110.52,59V43h1.89v2.31a17,17,0,0,1,2.89-1.6,13.44,13.44,0,0,1,3.16-1v1.92a18,18,0,0,0-2.88.88,23.52,23.52,0,0,0-2.34,1l-.83.48V59Z"/><path class="cls-2" d="M129.46,44.67h-5.34v7.9a11.58,11.58,0,0,0,.45,4.07c.3.64,1,1,2.11,1l2.94-.23.13,1.63a22.29,22.29,0,0,1-3.23.32,4.09,4.09,0,0,1-3.38-1.2c-.62-.8-.94-2.33-.94-4.59V44.67h-2.37V43h2.37V38h1.92v5h5.34Z"/><path class="cls-2" d="M147.61,44.67h-5.35v7.9a11.58,11.58,0,0,0,.45,4.07c.3.64,1,1,2.11,1l3-.23L147.9,59a22.4,22.4,0,0,1-3.24.32,4.06,4.06,0,0,1-3.37-1.2c-.63-.8-.95-2.33-.95-4.59V44.67H138V43h2.36V38h1.92v5h5.35Z"/><path class="cls-2" d="M161.21,57.37l1-.09.06,1.56a50.85,50.85,0,0,1-6.11.45q-3.47,0-4.83-2T149.91,51q0-8.38,6.59-8.39a5.94,5.94,0,0,1,4.74,1.81c1,1.2,1.57,3.13,1.57,5.78l-.07,1.53H151.86a7.64,7.64,0,0,0,1,4.37,4,4,0,0,0,3.46,1.42C158,57.56,159.58,57.5,161.21,57.37Zm-9.35-7.2h9a7.54,7.54,0,0,0-1-4.51,4,4,0,0,0-3.33-1.34,4.29,4.29,0,0,0-3.47,1.39A6.82,6.82,0,0,0,151.86,50.17Z"/><path class="cls-2" d="M171.58,44.41q-3.78,0-3.78,2.72a1.91,1.91,0,0,0,.83,1.76,12.82,12.82,0,0,0,3.76,1,10.35,10.35,0,0,1,4.13,1.36c.8.58,1.2,1.68,1.2,3.31a4.13,4.13,0,0,1-1.57,3.59,7.86,7.86,0,0,1-4.61,1.13,29.73,29.73,0,0,1-4.54-.45l-.93-.12.13-1.7a39.83,39.83,0,0,0,5.5.54,5.65,5.65,0,0,0,3-.67,2.47,2.47,0,0,0,1.07-2.27,2.3,2.3,0,0,0-.88-2.13,12.27,12.27,0,0,0-3.78-1A10.3,10.3,0,0,1,167,50.24c-.79-.56-1.18-1.6-1.18-3.14a3.69,3.69,0,0,1,1.63-3.36,7.3,7.3,0,0,1,4-1.06,34.35,34.35,0,0,1,4.8.42l.87.13-.07,1.69A39.34,39.34,0,0,0,171.58,44.41Z"/><path class="cls-2" d="M189.69,44.67h-5.35v7.9a11.58,11.58,0,0,0,.45,4.07c.3.64,1,1,2.11,1l2.95-.23L190,59a22.4,22.4,0,0,1-3.24.32,4.06,4.06,0,0,1-3.37-1.2c-.63-.8-1-2.33-1-4.59V44.67h-2.36V43h2.36V38h1.92v5h5.35Z"/></g></svg>
