<svg xmlns="http://www.w3.org/2000/svg" width="75.76mm" height="32.72mm" viewBox="0 0 214.75 92.75"><defs><style>.cls-1{fill:#6ab42d;}.cls-2{fill:#fff;}</style></defs><title>svar2.1</title><g id="arbejdslag_start"><rect class="cls-1" x="3.11" y="3.16" width="207.78" height="83.07"/><path class="cls-2" d="M57.51,57.33H48.15V31.62h9.36q9.15,0,9.14,12.5Q66.65,57.34,57.51,57.33Zm6.77-13.21q0-10.42-6.77-10.43H50.45V55.3h7.06Q64.29,55.3,64.28,44.12Z"/><path class="cls-2" d="M84.34,44.34v9.92c.1.91.9,1.46,2.4,1.63l-.11,1.77a5.35,5.35,0,0,1-4.18-1.48,17.14,17.14,0,0,1-7,1.52,4.84,4.84,0,0,1-3.78-1.42,5.86,5.86,0,0,1-1.29-4.07,5.25,5.25,0,0,1,1.31-3.93,6.85,6.85,0,0,1,4.13-1.57l6.29-.63V44.34a4.09,4.09,0,0,0-.91-3,3.26,3.26,0,0,0-2.42-.91,56.3,56.3,0,0,0-6.15.44L71.54,41l-.11-1.77a38.38,38.38,0,0,1,7.12-.78c2,0,3.51.48,4.42,1.44A6.29,6.29,0,0,1,84.34,44.34ZM72.72,52.08q0,3.73,3.07,3.73a15.06,15.06,0,0,0,2.92-.31,18.62,18.62,0,0,0,2.52-.65l.93-.33v-6.7l-6,.63a3.8,3.8,0,0,0-2.6,1A3.75,3.75,0,0,0,72.72,52.08Z"/><path class="cls-2" d="M105.06,60.14a5.13,5.13,0,0,1-2,4.55q-2,1.41-6.27,1.41t-5.88-1.22c-1.09-.81-1.63-2.31-1.63-4.48a4.23,4.23,0,0,1,.67-2.5,10.48,10.48,0,0,1,2.33-2.16q-.93-.59-.93-2.52a7,7,0,0,1,.89-2.33l.3-.55q-3-1.26-3-5.59,0-6.28,6.7-6.29a13.29,13.29,0,0,1,3.33.37l.55.11,5.37-.11v2l-3.7-.07c.89.89,1.33,2.35,1.33,4.38a5.42,5.42,0,0,1-1.68,4.44q-1.69,1.4-5.31,1.39a10.49,10.49,0,0,1-1.89-.15,9.12,9.12,0,0,0-.74,2.3c0,.81.24,1.31.72,1.49a17.85,17.85,0,0,0,4.31.3q3.59,0,5.09,1.07T105.06,60.14Zm-13.58.11a3.68,3.68,0,0,0,1.11,3.08c.74.56,2.17.85,4.29.85a8.6,8.6,0,0,0,4.55-.91,3.38,3.38,0,0,0,1.37-3c0-1.42-.33-2.34-1-2.76A7.84,7.84,0,0,0,98,56.85l-4.18-.15A7.16,7.16,0,0,0,92,58.39,3.29,3.29,0,0,0,91.48,60.25Zm.26-15.52a4.51,4.51,0,0,0,1,3.37,5,5,0,0,0,3.5,1,5.11,5.11,0,0,0,3.5-1,4.51,4.51,0,0,0,1-3.39,4.65,4.65,0,0,0-1-3.42,5,5,0,0,0-3.5-1,4.9,4.9,0,0,0-3.5,1A4.64,4.64,0,0,0,91.74,44.73Z"/><path class="cls-2" d="M114.49,40.5c-2.91,0-4.36,1-4.36,3.14a2.22,2.22,0,0,0,1,2,14.84,14.84,0,0,0,4.35,1.16,12.15,12.15,0,0,1,4.77,1.57c.92.67,1.39,2,1.39,3.83a4.78,4.78,0,0,1-1.82,4.15,9,9,0,0,1-5.32,1.31,34,34,0,0,1-5.26-.52L108.13,57l.15-2a45.61,45.61,0,0,0,6.36.63,6.6,6.6,0,0,0,3.46-.77,2.86,2.86,0,0,0,1.24-2.63,2.64,2.64,0,0,0-1-2.46A14.3,14.3,0,0,0,114,48.71a11.68,11.68,0,0,1-4.72-1.48c-.91-.64-1.37-1.85-1.37-3.63a4.28,4.28,0,0,1,1.89-3.88,8.42,8.42,0,0,1,4.66-1.22A40.18,40.18,0,0,1,120,39l1,.15-.08,2A44.45,44.45,0,0,0,114.49,40.5Z"/><path class="cls-2" d="M126.3,57.33V30.62h2.18V57.33Z"/><path class="cls-2" d="M132.47,38.83h2.26l4.92,16.58H141l5-16.58h2.26l-8,26.83H138l2.48-8.33h-2.56Z"/><path class="cls-2" d="M157.26,40.5c-2.91,0-4.36,1-4.36,3.14a2.22,2.22,0,0,0,1,2,14.84,14.84,0,0,0,4.35,1.16A12.09,12.09,0,0,1,163,48.41c.93.67,1.39,2,1.39,3.83a4.8,4.8,0,0,1-1.81,4.15,9.09,9.09,0,0,1-5.33,1.31,34,34,0,0,1-5.26-.52L150.9,57l.15-2a45.61,45.61,0,0,0,6.36.63,6.6,6.6,0,0,0,3.46-.77,2.86,2.86,0,0,0,1.24-2.63,2.64,2.64,0,0,0-1-2.46,14.21,14.21,0,0,0-4.36-1.13A11.73,11.73,0,0,1,152,47.23c-.91-.64-1.37-1.85-1.37-3.63a4.28,4.28,0,0,1,1.89-3.88,8.44,8.44,0,0,1,4.66-1.22,40.18,40.18,0,0,1,5.55.48l1,.15-.07,2A44.57,44.57,0,0,0,157.26,40.5Z"/></g></svg>
