<svg xmlns="http://www.w3.org/2000/svg" width="76.54mm" height="33.2mm" viewBox="0 0 216.96 94.11"><defs><style>.cls-1{fill:#6ab42d;}.cls-2{fill:#fff;}</style></defs><title>svar2.2</title><g id="arbejdslag_start"><rect class="cls-1" x="4.55" y="7.03" width="207.78" height="83.07"/><path class="cls-2" d="M66.91,60.42l7.4-25.72h5.36L87,60.42H84.78l-2.07-7.11H71.24l-2,7.11ZM76,36.7,71.79,51.28H82.15L78,36.7Z"/><path class="cls-2" d="M93.44,43.88V60.42H91.22V43.88H88.81v-2h2.41V40c0-2.61.36-4.39,1.07-5.31s2-1.39,3.81-1.39l3.59.19V35.4c-1.45,0-2.54-.07-3.25-.07a2.63,2.63,0,0,0-2.37,1,7.64,7.64,0,0,0-.63,3.78v1.85H99v2Z"/><path class="cls-2" d="M111.83,43.88h-6.18V53a13.32,13.32,0,0,0,.52,4.7c.34.74,1.16,1.11,2.44,1.11l3.4-.26.15,1.88a26.44,26.44,0,0,1-3.74.37q-2.81,0-3.9-1.38t-1.09-5.31V43.88h-2.74v-2h2.74V36.11h2.22v5.81h6.18Z"/><path class="cls-2" d="M127.55,58.57l1.11-.11.08,1.81a60.37,60.37,0,0,1-7.07.52q-4,0-5.59-2.37t-1.59-7.18q0-9.69,7.62-9.69a6.85,6.85,0,0,1,5.48,2.09q1.82,2.09,1.81,6.68l-.07,1.77H116.75a8.86,8.86,0,0,0,1.16,5c.78,1.1,2.11,1.65,4,1.65S125.68,58.71,127.55,58.57Zm-10.8-8.33h10.43q0-3.66-1.2-5.22a4.58,4.58,0,0,0-3.85-1.55,5,5,0,0,0-4,1.61C117.2,46.15,116.75,47.87,116.75,50.24Z"/><path class="cls-2" d="M136.14,60.42H134V41.92h2.19v1.37a12.31,12.31,0,0,1,6-1.74q3.69,0,4.94,2c.82,1.3,1.24,3.7,1.24,7.17v9.74h-2.22V50.8c0-2.84-.28-4.76-.82-5.76s-1.7-1.5-3.48-1.5a10.32,10.32,0,0,0-2.72.39,11.52,11.52,0,0,0-2.2.8l-.77.37Z"/></g></svg>
