<svg xmlns="http://www.w3.org/2000/svg" width="77.32mm" height="34.19mm" viewBox="0 0 219.18 96.91"><defs><style>.cls-1{fill:#6ab42d;}.cls-2{fill:#fffffe;}</style></defs><title>svar 1.1</title><g id="arbejdslag_start"><rect class="cls-1" x="6.47" y="5.49" width="207.78" height="83.07"/><path class="cls-2" d="M95.35,60.8H77.25V58.56l8.86-9.37q2.15-2.28,3.12-3.42A13.59,13.59,0,0,0,91,43a7.54,7.54,0,0,0,.8-3.32q0-2.88-1.62-4.08a8.31,8.31,0,0,0-5-1.21,29.09,29.09,0,0,0-6.32.78l-1.17.26-.21-2.28A29.75,29.75,0,0,1,85.83,32c2.85,0,5,.59,6.49,1.78s2.22,3.09,2.22,5.7a9.72,9.72,0,0,1-1.34,5.16A30.41,30.41,0,0,1,88.73,50l-8.25,8.51H95.35Z"/><path class="cls-2" d="M101.42,37.92a8.57,8.57,0,0,1,3.37-4.66A9.8,9.8,0,0,1,109.91,32a13.19,13.19,0,0,1,4.79.71,7.4,7.4,0,0,1,3.14,2.38q2.67,3.27,2.67,11.55T118,58.07c-1.7,2.1-4.25,3.16-7.63,3.16s-5.92-1-7.61-3.12-2.54-5.74-2.54-11A27.49,27.49,0,0,1,101.42,37.92Zm13.11-2.49a7.2,7.2,0,0,0-4.19-1.08,7.53,7.53,0,0,0-4.19,1c-2.15,1.47-3.23,5.39-3.23,11.79q0,6.66,1.81,9.16t5.63,2.49a7.67,7.67,0,0,0,4-1q3.36-2.05,3.36-10.75Q117.76,37.67,114.53,35.43Z"/><path class="cls-2" d="M128.38,32q4.6,0,4.6,5.89a7,7,0,0,1-1.23,4.51,4.53,4.53,0,0,1-6.75,0,7.16,7.16,0,0,1-1.22-4.56Q123.78,32,128.38,32ZM126,37.83Q126,42,128.38,42a2,2,0,0,0,1.89-1,6.69,6.69,0,0,0,.56-3.1,6.35,6.35,0,0,0-.56-3,2.29,2.29,0,0,0-3.74,0A6.17,6.17,0,0,0,126,37.83Zm3.4,23.1,8.51-29.2,1.81.56-8.52,29.15Zm6.53-5.77q0-5.83,4.63-5.84t4.62,5.89a7,7,0,0,1-1.25,4.51,4.16,4.16,0,0,1-3.4,1.51,4.1,4.1,0,0,1-3.37-1.51A7.09,7.09,0,0,1,135.9,55.16Zm2.2,0q0,4.17,2.43,4.17T143,55.21a6.29,6.29,0,0,0-.56-3,2.31,2.31,0,0,0-3.74,0A6.11,6.11,0,0,0,138.1,55.16Z"/></g></svg>