<svg xmlns="http://www.w3.org/2000/svg" width="77.08mm" height="34.37mm" viewBox="0 0 218.49 97.42"><defs><style>.cls-1{fill:#6ab42d;}.cls-2{fill:#fffffe;}</style></defs><title>svar3.2</title><g id="arbejdslag_start"><rect class="cls-1" x="5.42" y="8.67" width="207.78" height="83.07"/><path class="cls-2" d="M100.27,63.2H82.16V61L91,51.59c1.44-1.52,2.47-2.66,3.12-3.42A13.32,13.32,0,0,0,95.9,45.4a7.53,7.53,0,0,0,.8-3.31c0-1.92-.54-3.29-1.61-4.09a8.35,8.35,0,0,0-5-1.2,29.73,29.73,0,0,0-6.32.77l-1.16.26-.22-2.28a30.18,30.18,0,0,1,8.32-1.16q4.28,0,6.5,1.78t2.21,5.7A9.72,9.72,0,0,1,98.12,47a30.87,30.87,0,0,1-4.47,5.33l-8.26,8.52h14.88Z"/><path class="cls-2" d="M123.57,34.82v2.45H109.51l-.77,10a14.46,14.46,0,0,1,7.05-1.89q9,0,9,8.34,0,4.82-2.49,7.31a9.45,9.45,0,0,1-7,2.49,39.59,39.59,0,0,1-7.91-.86l-1.38-.3.35-2.19a42.86,42.86,0,0,0,8.38,1,6.55,6.55,0,0,0,7.27-7.2c0-2.28-.58-3.89-1.72-4.82a7.46,7.46,0,0,0-4.82-1.4,12.61,12.61,0,0,0-3.4.5,13.14,13.14,0,0,0-2.7,1l-1,.47-2-.34.82-14.58Z"/><path class="cls-2" d="M133.29,34.39q4.61,0,4.6,5.89a7.11,7.11,0,0,1-1.22,4.52,4.55,4.55,0,0,1-6.75,0,7.13,7.13,0,0,1-1.23-4.56Q128.69,34.39,133.29,34.39Zm-2.41,5.85c0,2.78.81,4.17,2.41,4.17a2,2,0,0,0,1.89-1,6.56,6.56,0,0,0,.56-3.1,6.23,6.23,0,0,0-.56-3,2.29,2.29,0,0,0-3.74,0A6.19,6.19,0,0,0,130.88,40.24Zm3.4,23.09,8.51-29.2,1.81.56-8.51,29.15Zm6.54-5.76q0-5.85,4.62-5.85t4.62,5.89a6.88,6.88,0,0,1-1.25,4.51,4.15,4.15,0,0,1-3.39,1.51A4.1,4.1,0,0,1,142,62.12,7.08,7.08,0,0,1,140.82,57.57Zm2.19,0q0,4.17,2.43,4.17t2.43-4.13a6.29,6.29,0,0,0-.56-3,2.3,2.3,0,0,0-3.74,0A6.17,6.17,0,0,0,143,57.57Z"/></g></svg>
