<svg xmlns="http://www.w3.org/2000/svg" width="78.1mm" height="31.59mm" viewBox="0 0 221.4 89.55"><defs><style>.cls-1{fill:#6ab42d;}.cls-2{fill:#fff;}</style></defs><title>svar 5.2</title><g id="arbejdslag_start"><rect class="cls-1" x="8" y="4.13" width="207.78" height="83.07"/><path class="cls-2" d="M56.9,39.26H55.13V23.34H56.9v7.41l2.63-.09,4.07-7.32h2l-4.55,8,4.8,7.91H63.78l-4.23-7-2.65.09Z"/><path class="cls-2" d="M76,31.23v5.89c0,.57.49.9,1.33,1l-.07,1.36a3.71,3.71,0,0,1-2.73-.92,10.17,10.17,0,0,1-4.14.92,3.12,3.12,0,0,1-2.42-.9A3.68,3.68,0,0,1,67.18,36,3.24,3.24,0,0,1,68,33.54a4.45,4.45,0,0,1,2.66-1l3.61-.35v-1a2.31,2.31,0,0,0-.5-1.68,1.9,1.9,0,0,0-1.38-.5,31.65,31.65,0,0,0-3.82.23l-.71.07L67.83,28a23.73,23.73,0,0,1,4.48-.5,3.84,3.84,0,0,1,2.84.9A3.84,3.84,0,0,1,76,31.23ZM69,35.92c0,1.41.58,2.12,1.74,2.12a9.43,9.43,0,0,0,3.09-.53l.52-.18v-3.8l-3.4.32a2.17,2.17,0,0,0-1.49.6A2.11,2.11,0,0,0,69,35.92Z"/><path class="cls-2" d="M81.17,39.26H79.44V27.76h1.71v.8a7.33,7.33,0,0,1,3.56-1c1.53,0,2.56.41,3.09,1.24a8.76,8.76,0,0,1,.8,4.42v6.07H86.9v-6A7.7,7.7,0,0,0,86.42,30a2.06,2.06,0,0,0-2-.88,5.79,5.79,0,0,0-1.55.22,7.76,7.76,0,0,0-1.25.42l-.44.21Z"/><path class="cls-2" d="M97.68,29.25H94v5.5a7.51,7.51,0,0,0,.28,2.6c.19.41.65.62,1.37.62l2-.14.11,1.43a15.39,15.39,0,0,1-2.34.25A3,3,0,0,1,93,38.64a5.71,5.71,0,0,1-.69-3.34v-6H90.69V27.76h1.63V24.24H94v3.52h3.65Z"/><path class="cls-2" d="M103.41,29.07c-1.67,0-2.51.58-2.51,1.75a1.22,1.22,0,0,0,.58,1.14,9.82,9.82,0,0,0,2.62.69,6.92,6.92,0,0,1,2.9,1,2.89,2.89,0,0,1,.85,2.41,3,3,0,0,1-1.14,2.6,5.63,5.63,0,0,1-3.32.83,21.37,21.37,0,0,1-3.36-.32l-.69-.12.09-1.49a29.45,29.45,0,0,0,4,.39,3.88,3.88,0,0,0,2-.43,1.52,1.52,0,0,0,.7-1.42,1.45,1.45,0,0,0-.6-1.36,8.82,8.82,0,0,0-2.62-.68,6.91,6.91,0,0,1-2.87-.94,2.68,2.68,0,0,1-.85-2.3,2.8,2.8,0,0,1,1.18-2.49,5.21,5.21,0,0,1,3-.8,24.89,24.89,0,0,1,3.52.32l.64.12,0,1.47A29.17,29.17,0,0,0,103.41,29.07Z"/><path class="cls-2" d="M116.45,29.25h-3.66v5.5a7.43,7.43,0,0,0,.29,2.6c.19.41.65.62,1.37.62l2-.14.11,1.43a15.52,15.52,0,0,1-2.34.25,3,3,0,0,1-2.49-.87,5.71,5.71,0,0,1-.69-3.34v-6h-1.63V27.76h1.63V24.24h1.7v3.52h3.66Z"/><path class="cls-2" d="M126.39,37.83l.66-.07,0,1.36a32.31,32.31,0,0,1-4.49.37,4,4,0,0,1-3.52-1.44,7.72,7.72,0,0,1-1-4.47c0-4,1.6-6,4.81-6a4.38,4.38,0,0,1,3.47,1.3,6,6,0,0,1,1.15,4.08l-.09,1.31h-7.59a4.72,4.72,0,0,0,.69,2.83,2.83,2.83,0,0,0,2.4.92C124,38,125.2,37.92,126.39,37.83Zm-.63-5a5,5,0,0,0-.67-3,2.64,2.64,0,0,0-2.21-.87,2.8,2.8,0,0,0-2.3.92,4.61,4.61,0,0,0-.8,2.94Z"/><path class="cls-2" d="M131.91,39.26h-1.73V27.76h1.7v.8a7.34,7.34,0,0,1,3.57-1c1.53,0,2.56.41,3.09,1.24a8.78,8.78,0,0,1,.79,4.42v6.07h-1.7v-6a7.74,7.74,0,0,0-.47-3.28,2.06,2.06,0,0,0-2-.88,5.79,5.79,0,0,0-1.55.22,7.94,7.94,0,0,0-1.26.42l-.43.21Z"/><path class="cls-2" d="M147.08,33.48a7.3,7.3,0,0,1,1.13-4.55,5.86,5.86,0,0,1,7.6,0,7.31,7.31,0,0,1,1.12,4.55,7.73,7.73,0,0,1-1.06,4.58c-.7.95-2,1.43-3.86,1.43s-3.16-.48-3.87-1.43A7.81,7.81,0,0,1,147.08,33.48Zm1.78,0a7.41,7.41,0,0,0,.6,3.53c.41.68,1.26,1,2.56,1s2.14-.33,2.54-1a7.36,7.36,0,0,0,.6-3.53,6.41,6.41,0,0,0-.67-3.48A2.81,2.81,0,0,0,152,29a2.86,2.86,0,0,0-2.49,1A6.36,6.36,0,0,0,148.86,33.45Z"/><path class="cls-2" d="M164.17,44.66a7.29,7.29,0,0,1-3.85-.74,3.08,3.08,0,0,1-1.09-2.73,2.64,2.64,0,0,1,.41-1.53,6.58,6.58,0,0,1,1.41-1.32,1.78,1.78,0,0,1-.65-1.59A3.91,3.91,0,0,1,161,35.3l.2-.37c-1.21-.55-1.81-1.7-1.81-3.47q0-3.93,4.3-3.93a8.73,8.73,0,0,1,2,.23l.35.07,3.4-.1v1.48l-2.18-.05a3.15,3.15,0,0,1,.76,2.3,3.72,3.72,0,0,1-1.07,3,5.4,5.4,0,0,1-3.37.86,6.47,6.47,0,0,1-1.13-.09,4.93,4.93,0,0,0-.41,1.31c0,.47.14.77.43.88a10.6,10.6,0,0,0,2.65.18,5.58,5.58,0,0,1,3.17.69,3.1,3.1,0,0,1,1,2.69Q169.28,44.66,164.17,44.66Zm-3.24-3.61a1.92,1.92,0,0,0,.68,1.69,4.66,4.66,0,0,0,2.51.47,5.08,5.08,0,0,0,2.62-.5,1.85,1.85,0,0,0,.79-1.69q0-1.19-.57-1.53a5,5,0,0,0-2.26-.35L162.22,39a4,4,0,0,0-1,1A1.92,1.92,0,0,0,160.93,41.05Zm.16-9.59a2.54,2.54,0,0,0,.61,1.93,2.86,2.86,0,0,0,2,.58,2.78,2.78,0,0,0,2-.58,2.6,2.6,0,0,0,.6-1.94,2.6,2.6,0,0,0-.6-1.94,2.78,2.78,0,0,0-2-.58,2.86,2.86,0,0,0-2,.59A2.59,2.59,0,0,0,161.09,31.46Z"/><path class="cls-2" d="M87.54,68.26H85.81V51.74h1.73V57.4a8.29,8.29,0,0,1,3.54-.87c1.54,0,2.57.41,3.1,1.24A8.89,8.89,0,0,1,95,62.19v6.07H93.24v-6A7.74,7.74,0,0,0,92.77,59a2,2,0,0,0-2-.88,7.69,7.69,0,0,0-2.8.53l-.44.16Z"/><path class="cls-2" d="M105.34,56.76h1.73v11.5h-1.73v-.81a6.58,6.58,0,0,1-3.4,1c-1.57,0-2.61-.41-3.12-1.22a9.23,9.23,0,0,1-.77-4.51v-6h1.73v6a8.55,8.55,0,0,0,.43,3.36c.29.56,1,.85,2,.85a5.9,5.9,0,0,0,1.54-.22,7.45,7.45,0,0,0,1.2-.43l.41-.2Z"/><path class="cls-2" d="M110.52,68.26V51.74h1.72V68.26Z"/><path class="cls-2" d="M115.83,68.26V51.74h1.72V68.26Z"/><path class="cls-2" d="M128.82,66.83l.67-.07,0,1.36a32.43,32.43,0,0,1-4.49.37,4,4,0,0,1-3.52-1.44,7.72,7.72,0,0,1-1-4.47c0-4,1.6-6,4.8-6a4.4,4.4,0,0,1,3.48,1.3,6.08,6.08,0,0,1,1.15,4.08l-.09,1.31h-7.59a4.72,4.72,0,0,0,.69,2.83,2.83,2.83,0,0,0,2.4.92C126.48,67,127.64,66.92,128.82,66.83Zm-.62-5a4.93,4.93,0,0,0-.68-3,2.61,2.61,0,0,0-2.2-.87,2.8,2.8,0,0,0-2.3.92,4.61,4.61,0,0,0-.8,2.94Z"/><path class="cls-2" d="M132.62,68.26V56.76h1.7v1.56a11.15,11.15,0,0,1,4.21-1.81v1.74a15.2,15.2,0,0,0-3.61,1.27l-.58.3v8.44Z"/></g></svg>