<svg xmlns="http://www.w3.org/2000/svg" width="78.83mm" height="34.75mm" viewBox="0 0 223.46 98.49"><defs><style>.cls-1{fill:#6ab42d;}.cls-2{fill:#fffffe;}</style></defs><title>svar 3.3</title><g id="arbejdslag_start"><rect class="cls-1" x="6.33" y="7.89" width="207.78" height="83.07"/><path class="cls-2" d="M100.76,33.44v2.45H86.7l-.78,10A14.52,14.52,0,0,1,93,44q9,0,9,8.34c0,3.21-.84,5.65-2.5,7.31a9.41,9.41,0,0,1-7,2.49,40.44,40.44,0,0,1-7.92-.86L83.26,61l.34-2.19a43,43,0,0,0,8.39,1,6.55,6.55,0,0,0,7.26-7.21c0-2.27-.57-3.88-1.72-4.81a7.43,7.43,0,0,0-4.81-1.4,12.61,12.61,0,0,0-3.4.5,13,13,0,0,0-2.71,1l-1,.47-2-.34.82-14.58Z"/><path class="cls-2" d="M107.6,38.94A8.57,8.57,0,0,1,111,34.28,9.8,9.8,0,0,1,116.09,33a13.19,13.19,0,0,1,4.79.71A7.48,7.48,0,0,1,124,36.1q2.67,3.27,2.67,11.55t-2.56,11.44q-2.56,3.16-7.63,3.16c-3.39,0-5.92-1-7.61-3.12s-2.54-5.74-2.54-11A27.24,27.24,0,0,1,107.6,38.94Zm13.11-2.49a7.2,7.2,0,0,0-4.19-1.08,7.44,7.44,0,0,0-4.19,1q-3.22,2.19-3.23,11.78,0,6.66,1.81,9.16t5.63,2.49a7.58,7.58,0,0,0,4-1q3.36-2.05,3.36-10.75Q123.94,38.69,120.71,36.45Z"/><path class="cls-2" d="M134.56,33c3.06,0,4.6,2,4.6,5.89a7,7,0,0,1-1.23,4.51,4.53,4.53,0,0,1-6.75,0A7.08,7.08,0,0,1,130,38.86Q130,33,134.56,33Zm-2.41,5.85q0,4.17,2.41,4.17a2,2,0,0,0,1.89-1,6.69,6.69,0,0,0,.56-3.1,6.35,6.35,0,0,0-.56-3.05,2.29,2.29,0,0,0-3.74,0A6.07,6.07,0,0,0,132.15,38.86ZM135.55,62l8.51-29.2,1.81.56-8.52,29.15Zm6.53-5.76q0-5.85,4.62-5.85t4.63,5.89a6.93,6.93,0,0,1-1.25,4.51,4.16,4.16,0,0,1-3.4,1.51,4.08,4.08,0,0,1-3.37-1.51A7.08,7.08,0,0,1,142.08,56.19Zm2.19,0q0,4.17,2.43,4.17t2.43-4.13a6.17,6.17,0,0,0-.56-3,2,2,0,0,0-1.87-1,2,2,0,0,0-1.87,1A6.17,6.17,0,0,0,144.27,56.19Z"/></g></svg>