<svg xmlns="http://www.w3.org/2000/svg" width="74.77mm" height="32.95mm" viewBox="0 0 211.95 93.41"><defs><style>.cls-1{fill:#6ab42d;}.cls-2{fill:#fffffe;}</style></defs><title>svar 1.3</title><g id="arbejdslag_start"><rect class="cls-1" x="2.95" y="5.12" width="207.78" height="83.07"/><path class="cls-2" d="M95.6,30.66v2.45H81.54l-.77,10a14.46,14.46,0,0,1,7-1.89q9,0,9,8.34,0,4.81-2.5,7.31a9.41,9.41,0,0,1-7,2.5,40.26,40.26,0,0,1-7.91-.86l-1.38-.31L78.44,56a43,43,0,0,0,8.39,1,6.57,6.57,0,0,0,7.27-7.2c0-2.28-.58-3.89-1.72-4.82a7.48,7.48,0,0,0-4.82-1.39,12.58,12.58,0,0,0-3.4.49,13.88,13.88,0,0,0-2.71,1l-1,.47-2-.34.81-14.58Z"/><path class="cls-2" d="M102.44,36.17a8.6,8.6,0,0,1,3.37-4.67,9.89,9.89,0,0,1,5.12-1.27,13.41,13.41,0,0,1,4.79.71,7.43,7.43,0,0,1,3.14,2.39q2.67,3.27,2.67,11.54T119,56.31c-1.7,2.11-4.25,3.16-7.63,3.16s-5.92-1-7.61-3.12-2.54-5.74-2.54-11A27.45,27.45,0,0,1,102.44,36.17Zm13.11-2.5a7.28,7.28,0,0,0-4.19-1.07,7.45,7.45,0,0,0-4.19,1q-3.23,2.19-3.23,11.78c0,4.44.6,7.5,1.81,9.16s3.08,2.49,5.63,2.49a7.67,7.67,0,0,0,4-.94q3.36-2.07,3.36-10.75Q118.78,35.91,115.55,33.67Z"/><path class="cls-2" d="M129.4,30.23c3.07,0,4.6,2,4.6,5.89a7,7,0,0,1-1.23,4.52,4.55,4.55,0,0,1-6.75,0,7.16,7.16,0,0,1-1.22-4.56Q124.8,30.23,129.4,30.23ZM127,36.08q0,4.17,2.41,4.17a2,2,0,0,0,1.89-1,6.63,6.63,0,0,0,.56-3.1,6.38,6.38,0,0,0-.56-3,2.29,2.29,0,0,0-3.74,0A6.21,6.21,0,0,0,127,36.08Zm3.4,23.09L138.9,30l1.81.56-8.52,29.16Zm6.53-5.76q0-5.85,4.63-5.85t4.62,5.89A7,7,0,0,1,144.92,58a4.18,4.18,0,0,1-3.4,1.5,4.12,4.12,0,0,1-3.37-1.5A7.13,7.13,0,0,1,136.92,53.41Zm2.2,0q0,4.17,2.43,4.17T144,53.45a6.34,6.34,0,0,0-.56-3,2.3,2.3,0,0,0-3.74,0A6.05,6.05,0,0,0,139.12,53.41Z"/></g></svg>