<svg xmlns="http://www.w3.org/2000/svg" width="79.38mm" height="34.75mm" viewBox="0 0 225.01 98.49"><defs><style>.cls-1{fill:#6ab42d;}.cls-2{fill:#fff;}</style></defs><title>svar 4.2</title><g id="arbejdslag_start"><rect class="cls-1" x="7.88" y="7.89" width="207.78" height="83.07"/><path class="cls-2" d="M87.84,62.15V32.26h5.25L105.6,59.78h1V32.26h2.62V62.15h-5.16L91.45,34.67h-.94V62.15Z"/><path class="cls-2" d="M130.24,60l1.29-.13.08,2.1a67,67,0,0,1-8.21.61c-3.09,0-5.26-.95-6.49-2.76s-1.85-4.58-1.85-8.34q0-11.26,8.86-11.26,4.26,0,6.36,2.43c1.41,1.62,2.11,4.2,2.11,7.76l-.09,2.06H117.68q0,4,1.36,5.87t4.64,1.92Q127,60.26,130.24,60Zm-12.56-9.68h12.13q0-4.26-1.4-6.06a5.28,5.28,0,0,0-4.47-1.81,5.81,5.81,0,0,0-4.67,1.87Q117.68,46.2,117.68,50.32Z"/><path class="cls-2" d="M137.68,61.72V40.65h2.58V61.76a10,10,0,0,1-1.4,5.76q-1.4,2-5.66,4.13l-1-2.06a15.36,15.36,0,0,0,4.5-3.36A7.8,7.8,0,0,0,137.68,61.72Zm0-26.45V32.05h2.58v3.22Z"/></g></svg>