<svg xmlns="http://www.w3.org/2000/svg" width="79.38mm" height="34.75mm" viewBox="0 0 225.01 98.49"><defs><style>.cls-1{fill:#6ab42d;}.cls-2{fill:#fff;}</style></defs><title>svar 2.3</title><g id="arbejdslag_start"><rect class="cls-1" x="7.88" y="7.89" width="207.78" height="83.07"/><path class="cls-2" d="M86.91,60.68V35h4.51l10.77,23.68H103V35h2.25V60.68h-4.44L90,37H89.2V60.68Z"/><path class="cls-2" d="M124.05,47.69v9.92c.1.91.9,1.45,2.41,1.63L126.35,61a5.33,5.33,0,0,1-4.18-1.48,17.32,17.32,0,0,1-7,1.52,4.8,4.8,0,0,1-3.77-1.43,5.78,5.78,0,0,1-1.3-4.06,5.28,5.28,0,0,1,1.31-3.93,6.85,6.85,0,0,1,4.13-1.57l6.29-.63V47.69a4.09,4.09,0,0,0-.91-3,3.28,3.28,0,0,0-2.42-.9,56,56,0,0,0-6.14.44l-1.15.11-.11-1.77a38.47,38.47,0,0,1,7.12-.78c2,0,3.51.48,4.42,1.44A6.22,6.22,0,0,1,124.05,47.69Zm-11.62,7.74q0,3.74,3.08,3.73a15.14,15.14,0,0,0,2.92-.31,18,18,0,0,0,2.51-.65l.93-.33v-6.7l-6,.63a3.2,3.2,0,0,0-3.41,3.63Z"/><path class="cls-2" d="M139.15,44.14H133v9.14a13.29,13.29,0,0,0,.52,4.7c.34.74,1.16,1.11,2.44,1.11l3.4-.26.15,1.89a28,28,0,0,1-3.74.37c-1.87,0-3.17-.47-3.9-1.39s-1.09-2.7-1.09-5.31V44.14H128v-2h2.74V36.37H133v5.81h6.18Z"/></g></svg>