<svg xmlns="http://www.w3.org/2000/svg" width="79.9mm" height="33.01mm" viewBox="0 0 226.48 93.58"><defs><style>.cls-1{fill:#6ab42d;}.cls-2{fill:#fff;}</style></defs><title>svar4.1</title><g id="arbejdslag_start"><rect class="cls-1" x="13.77" y="3.78" width="207.78" height="83.07"/><path class="cls-2" d="M108,28.74V54.8a14.15,14.15,0,0,1-.41,3.8,3.49,3.49,0,0,1-1.5,2.09,6,6,0,0,1-2.35.86,29.31,29.31,0,0,1-3.61.17V59.36a23.45,23.45,0,0,0,2.67-.11,3.3,3.3,0,0,0,1.52-.62,2.23,2.23,0,0,0,.88-1.51,17.27,17.27,0,0,0,.18-2.88V28.74Z"/><path class="cls-2" d="M129.59,43.53V55.06q.16,1.59,2.79,1.89L132.25,59a6.24,6.24,0,0,1-4.86-1.72,20,20,0,0,1-8.08,1.76,5.66,5.66,0,0,1-4.39-1.65,6.8,6.8,0,0,1-1.5-4.73A6.1,6.1,0,0,1,115,48.11a7.88,7.88,0,0,1,4.79-1.83l7.31-.73v-2a4.77,4.77,0,0,0-1-3.46,3.83,3.83,0,0,0-2.82-1,64.65,64.65,0,0,0-7.14.51l-1.33.13-.13-2.06a45,45,0,0,1,8.28-.9c2.36,0,4.08.55,5.14,1.67S129.59,41.21,129.59,43.53Zm-13.5,9c0,2.9,1.18,4.34,3.56,4.34a17.82,17.82,0,0,0,3.4-.36,21.87,21.87,0,0,0,2.93-.76l1.07-.38V47.57l-7,.73a4.43,4.43,0,0,0-3,1.21A4.36,4.36,0,0,0,116.09,52.52Z"/></g></svg>
