<svg xmlns="http://www.w3.org/2000/svg" width="77.32mm" height="32.56mm" viewBox="0 0 219.18 92.29"><defs><style>.cls-1{fill:#6ab42d;}.cls-2{fill:#fffffe;}</style></defs><title>svar1.2</title><g id="arbejdslag_start"><rect class="cls-1" x="6.47" y="4.05" width="207.78" height="83.07"/><path class="cls-2" d="M94.33,58.58V52.82H80.14V50.76L88.48,30.2h2.93L83,50.46H94.33V41.38H97v9.08h3.83v2.36H97v5.76Z"/><path class="cls-2" d="M105.6,35.71A8.65,8.65,0,0,1,109,31a9.89,9.89,0,0,1,5.12-1.27,13.5,13.5,0,0,1,4.8.71A7.4,7.4,0,0,1,122,32.87q2.67,3.27,2.67,11.54t-2.56,11.44C120.43,58,117.88,59,114.5,59s-5.92-1-7.61-3.11-2.54-5.74-2.54-11A27.45,27.45,0,0,1,105.6,35.71Zm13.11-2.5a7.28,7.28,0,0,0-4.19-1.07,7.45,7.45,0,0,0-4.19,1Q107.11,35.36,107.1,45c0,4.45.61,7.5,1.81,9.16a6.49,6.49,0,0,0,5.63,2.5,7.67,7.67,0,0,0,4-1q3.36-2.07,3.36-10.75Q121.94,35.45,118.71,33.21Z"/><path class="cls-2" d="M132.56,29.77c3.07,0,4.6,2,4.6,5.89a7.09,7.09,0,0,1-1.22,4.52,4.56,4.56,0,0,1-6.76,0A7.16,7.16,0,0,1,128,35.62Q128,29.77,132.56,29.77Zm-2.41,5.85q0,4.17,2.41,4.17a2,2,0,0,0,1.89-1,6.61,6.61,0,0,0,.56-3.09,6.39,6.39,0,0,0-.56-3.06,2.29,2.29,0,0,0-3.74,0A6.21,6.21,0,0,0,130.15,35.62Zm3.4,23.09,8.51-29.2,1.81.56-8.52,29.16ZM140.08,53c0-3.9,1.55-5.85,4.63-5.85s4.62,2,4.62,5.89a7,7,0,0,1-1.25,4.52,4.17,4.17,0,0,1-3.39,1.5,4.13,4.13,0,0,1-3.38-1.5A7.11,7.11,0,0,1,140.08,53Zm2.2,0q0,4.17,2.43,4.17T147.14,53a6.34,6.34,0,0,0-.56-3,2.3,2.3,0,0,0-3.74,0A6.05,6.05,0,0,0,142.28,53Z"/></g></svg>
