<svg xmlns="http://www.w3.org/2000/svg" width="77.93mm" height="33.43mm" viewBox="0 0 220.89 94.77"><defs><style>.cls-1{fill:#6ab42d;}.cls-2{fill:#fff;}</style></defs><title>svar 5.1</title><g id="arbejdslag_start"><rect class="cls-1" x="7.82" y="6.9" width="207.78" height="83.07"/><path class="cls-2" d="M38.92,35.19h7.65q6.36,0,6.36,5.43,0,3.81-2.85,5c2.37.74,3.56,2.45,3.56,5.11q0,3.26-1.69,4.62A7.66,7.66,0,0,1,47,56.74H38.92Zm7.59,1.71H40.84v8h5.95a4.28,4.28,0,0,0,3.18-1,4.27,4.27,0,0,0,1-3.09,3.66,3.66,0,0,0-1.1-3A5.1,5.1,0,0,0,46.51,36.9Zm.31,9.7h-6V55H47a5.49,5.49,0,0,0,3.47-1,4.12,4.12,0,0,0,1.21-3.38C51.69,48,50.06,46.6,46.82,46.6Z"/><path class="cls-2" d="M57.67,37.36V35H59.5v2.32Zm0,19.38V41.24H59.5v15.5Z"/><path class="cls-2" d="M64.33,56.74V34.36h1.83V56.74Z"/><path class="cls-2" d="M77.82,63.71V41.24h1.83v1.17a9.58,9.58,0,0,1,5.1-1.48,4.55,4.55,0,0,1,4,1.89c.88,1.26,1.31,3.31,1.31,6.15s-.51,4.9-1.55,6.17-2.75,1.91-5.14,1.91a16.9,16.9,0,0,1-3.72-.41v7.07ZM84.36,42.6a7.81,7.81,0,0,0-2.2.34,9.08,9.08,0,0,0-1.83.71l-.68.35V55a21.14,21.14,0,0,0,3.66.37,4.34,4.34,0,0,0,3.75-1.5c.72-1,1.08-2.66,1.08-5S87.83,45,87.2,44A3.17,3.17,0,0,0,84.36,42.6Z"/><path class="cls-2" d="M104.7,45.86v8.3c.08.77.75,1.22,2,1.37L106.62,57a4.5,4.5,0,0,1-3.5-1.24,14.64,14.64,0,0,1-5.83,1.27,4,4,0,0,1-3.16-1.2A4.85,4.85,0,0,1,93,52.44a4.4,4.4,0,0,1,1.1-3.28,5.7,5.7,0,0,1,3.46-1.32l5.27-.53V45.86a3.48,3.48,0,0,0-.76-2.5,2.75,2.75,0,0,0-2-.76,47.82,47.82,0,0,0-5.15.37l-1,.1-.09-1.49a31.78,31.78,0,0,1,6-.65,4.91,4.91,0,0,1,3.71,1.21A5.24,5.24,0,0,1,104.7,45.86ZM95,52.33c0,2.09.86,3.14,2.58,3.14A12.37,12.37,0,0,0,100,55.2a13.72,13.72,0,0,0,2.11-.54l.78-.28V48.77l-5.06.53a3.17,3.17,0,0,0-2.18.86A3.13,3.13,0,0,0,95,52.33Zm4.57-12.52a3.07,3.07,0,1,1,2.22-.9A3,3,0,0,1,99.53,39.81Zm0-4.93a1.71,1.71,0,0,0-1.27.53,1.78,1.78,0,0,0-.51,1.29,1.84,1.84,0,0,0,.51,1.3,1.69,1.69,0,0,0,1.27.54,1.71,1.71,0,0,0,1.28-.54,1.84,1.84,0,0,0,.51-1.3,1.78,1.78,0,0,0-.51-1.29A1.74,1.74,0,0,0,99.53,34.88Z"/><path class="cls-2" d="M111.33,56.74H109.5V34.36h1.83V47.69l2.63-.07,4.78-6.38h2.14l-5.3,7.1,5.55,8.4H119l-5-7.47-2.67.06Z"/><path class="cls-2" d="M129.5,40.93a9.07,9.07,0,0,1,2.41.28L133.25,38l1.33.47-1.37,3.25Q136,43.22,136,48.77q0,4.56-1.34,6.42t-5.13,1.86a11.33,11.33,0,0,1-2.45-.25l-1.4,3.44-1.3-.46,1.36-3.45a4.23,4.23,0,0,1-2.12-2.57,16.39,16.39,0,0,1-.6-5q0-4.19,1.47-6T129.5,40.93Zm0,1.64c-1.76,0-3,.44-3.62,1.33a7.6,7.6,0,0,0-1,4.39,22.18,22.18,0,0,0,.31,4.43,3.05,3.05,0,0,0,1.24,2l4.83-11.93A5.85,5.85,0,0,0,129.5,42.57Zm0,12.83c1.9,0,3.14-.47,3.71-1.42s.87-2.77.87-5.44-.51-4.41-1.55-5.19l-4.86,11.87A7.85,7.85,0,0,0,129.5,55.4Z"/><path class="cls-2" d="M140,56.74V41.24h1.83v2.23a16.48,16.48,0,0,1,2.81-1.55,12.65,12.65,0,0,1,3-1v1.86a16.89,16.89,0,0,0-2.79.85,21.55,21.55,0,0,0-2.26,1l-.81.46V56.74Z"/><path class="cls-2" d="M155.16,42.63q-3.66,0-3.66,2.64a1.83,1.83,0,0,0,.81,1.7A12.33,12.33,0,0,0,156,48a10,10,0,0,1,4,1.32c.78.55,1.17,1.62,1.17,3.2A4,4,0,0,1,159.6,56a7.64,7.64,0,0,1-4.47,1.1,29,29,0,0,1-4.4-.44l-.9-.12.13-1.64a38.23,38.23,0,0,0,5.33.52,5.42,5.42,0,0,0,2.9-.65,2.39,2.39,0,0,0,1-2.2,2.21,2.21,0,0,0-.85-2.06,12,12,0,0,0-3.66-1,9.7,9.7,0,0,1-4-1.24,3.48,3.48,0,0,1-1.15-3A3.59,3.59,0,0,1,151.2,42a7,7,0,0,1,3.9-1,33.32,33.32,0,0,1,4.65.4l.84.13-.06,1.64A38.29,38.29,0,0,0,155.16,42.63Z"/><path class="cls-2" d="M175.13,55.19l.93-.1.06,1.52a49.56,49.56,0,0,1-5.92.44c-2.23,0-3.79-.69-4.68-2s-1.34-3.3-1.34-6q0-8.13,6.39-8.12a5.75,5.75,0,0,1,4.59,1.75q1.51,1.76,1.52,5.59l-.06,1.49H166.08a7.39,7.39,0,0,0,1,4.23,3.82,3.82,0,0,0,3.35,1.38C172,55.37,173.56,55.31,175.13,55.19Zm-9-7h8.74a7.3,7.3,0,0,0-1-4.37,3.82,3.82,0,0,0-3.23-1.3,4.18,4.18,0,0,0-3.36,1.35A6.65,6.65,0,0,0,166.08,48.21Z"/><path class="cls-2" d="M180.68,56.74V34.36h1.82V56.74Z"/></g></svg>