<svg xmlns="http://www.w3.org/2000/svg" width="78.66mm" height="33.54mm" viewBox="0 0 222.98 95.07"><defs><style>.cls-1{fill:#6ab42d;}.cls-2{fill:#fffffe;}</style></defs><title>svar3.1</title><g id="arbejdslag_start"><rect class="cls-1" x="11.15" y="6.19" width="207.78" height="83.07"/><path class="cls-2" d="M115.35,33.11v2.45H101.29l-.77,10a14.46,14.46,0,0,1,7-1.89q9,0,9,8.34,0,4.81-2.5,7.31a9.37,9.37,0,0,1-7,2.5A40.26,40.26,0,0,1,99.23,61l-1.38-.3.34-2.2a43,43,0,0,0,8.39,1,6.55,6.55,0,0,0,7.27-7.2c0-2.28-.58-3.88-1.72-4.82a7.48,7.48,0,0,0-4.82-1.39,12.58,12.58,0,0,0-3.4.49,13.88,13.88,0,0,0-2.71,1l-1,.47-2-.34.81-14.58Z"/><path class="cls-2" d="M125.07,32.68c3.07,0,4.6,2,4.6,5.89a7.09,7.09,0,0,1-1.22,4.52,4.56,4.56,0,0,1-6.76,0,7.16,7.16,0,0,1-1.22-4.56Q120.47,32.68,125.07,32.68Zm-2.41,5.85q0,4.17,2.41,4.17a2,2,0,0,0,1.89-1,6.61,6.61,0,0,0,.56-3.09,6.42,6.42,0,0,0-.56-3.06,2.3,2.3,0,0,0-3.74,0A6.21,6.21,0,0,0,122.66,38.53Zm3.4,23.09,8.51-29.19,1.81.55-8.52,29.16Zm6.53-5.76c0-3.9,1.55-5.85,4.63-5.85s4.62,2,4.62,5.89a7,7,0,0,1-1.25,4.52,4.17,4.17,0,0,1-3.39,1.5,4.13,4.13,0,0,1-3.38-1.5A7.09,7.09,0,0,1,132.59,55.86Zm2.2,0q0,4.17,2.43,4.17c1.62,0,2.43-1.37,2.43-4.13a6.34,6.34,0,0,0-.56-3,2.3,2.3,0,0,0-3.74,0A6.05,6.05,0,0,0,134.79,55.86Z"/></g></svg>
