<svg xmlns="http://www.w3.org/2000/svg" width="78.03mm" height="34.75mm" viewBox="0 0 221.18 98.49"><defs><style>.cls-1{fill:#6ab42d;}.cls-2{fill:#fff;}</style></defs><title>svar 5.3</title><g id="arbejdslag_start"><rect class="cls-1" x="4.05" y="7.89" width="207.78" height="83.07"/><path class="cls-2" d="M44.19,38c-3.32,0-5,1.27-5,3.81,0,1.49.38,2.5,1.13,3a13.46,13.46,0,0,0,4.44,1.43A10.92,10.92,0,0,1,49.48,48a4.67,4.67,0,0,1,1.41,3.84q0,3.47-1.72,5a7.37,7.37,0,0,1-5,1.53A42.14,42.14,0,0,1,38.52,58l-1.12-.16.22-1.64a57.16,57.16,0,0,0,6.57.52,5,5,0,0,0,3.54-1.13,4.34,4.34,0,0,0,1.21-3.31,3.52,3.52,0,0,0-1.07-3,8.5,8.5,0,0,0-3.41-1.22A30.78,30.78,0,0,1,41,47.27a7.62,7.62,0,0,1-2-1,3.67,3.67,0,0,1-1.35-1.7,7.29,7.29,0,0,1-.4-2.62q0-5.64,6.82-5.64a42.31,42.31,0,0,1,5.33.43l1,.16-.15,1.64A57.93,57.93,0,0,0,44.19,38Z"/><path class="cls-2" d="M54.11,50.38q0-4.37,1.48-6.2t5-1.83c2.36,0,4,.61,5,1.83s1.47,3.29,1.47,6.2-.45,5-1.35,6.23-2.61,1.86-5.13,1.86-4.23-.62-5.14-1.86S54.11,53.29,54.11,50.38ZM56,50.33c0,2.45.28,4.15.85,5.09s1.81,1.41,3.72,1.41,3.15-.48,3.73-1.43.87-2.64.87-5.07-.32-4.09-1-5S62.38,44,60.62,44s-3,.44-3.61,1.33S56,47.89,56,50.33Z"/><path class="cls-2" d="M71.29,58.16V35.78h1.83V58.16Z"/><path class="cls-2" d="M77.3,50.38q0-4.37,1.47-6.2t5-1.83c2.36,0,4,.61,5,1.83s1.47,3.29,1.47,6.2-.45,5-1.35,6.23-2.61,1.86-5.13,1.86-4.24-.62-5.15-1.86S77.3,53.29,77.3,50.38Zm1.92-.05c0,2.45.29,4.15.86,5.09s1.8,1.41,3.72,1.41,3.15-.48,3.73-1.43.87-2.64.87-5.07-.33-4.09-1-5S85.57,44,83.81,44s-3,.44-3.61,1.33S79.22,47.89,79.22,50.33Z"/><path class="cls-2" d="M104.08,42.66h1.83v15.5h-1.83V57a9,9,0,0,1-4.77,1.46c-2.11,0-3.5-.54-4.17-1.61s-1-3.11-1-6.11V42.66H96v8.06a11.54,11.54,0,0,0,.67,4.84c.44.82,1.41,1.24,2.9,1.24a8.09,8.09,0,0,0,2.23-.33,8.3,8.3,0,0,0,1.74-.66l.58-.31Z"/><path class="cls-2" d="M110.75,58.16V35.78h1.83V58.16Z"/><path class="cls-2" d="M115.93,42.66h1.89l4.12,13.89h1.12l4.15-13.89h1.89l-6.69,22.48h-1.86l2.07-7h-2.14Z"/><path class="cls-2" d="M134.06,58.16h-1.83V35.78h1.83V49.11l2.64-.06,4.77-6.39h2.14l-5.3,7.1,5.55,8.4h-2.17l-5-7.47-2.67.06Z"/><path class="cls-2" d="M148.63,58.16H146.8V35.78h1.83V49.11l2.64-.06L156,42.66h2.14l-5.3,7.1,5.55,8.4h-2.17l-5-7.47-2.67.06Z"/><path class="cls-2" d="M171.2,56.61l.93-.09.06,1.52a49.29,49.29,0,0,1-5.92.43q-3.35,0-4.68-2t-1.33-6q0-8.11,6.38-8.12a5.77,5.77,0,0,1,4.59,1.75q1.52,1.76,1.52,5.6l-.06,1.49H162.15a7.39,7.39,0,0,0,1,4.23,3.82,3.82,0,0,0,3.35,1.38C168.05,56.8,169.63,56.74,171.2,56.61Zm-9-7h8.74a7.26,7.26,0,0,0-1-4.37A3.82,3.82,0,0,0,166.66,44a4.19,4.19,0,0,0-3.37,1.35A6.66,6.66,0,0,0,162.15,49.64Z"/><path class="cls-2" d="M176.56,58.16V42.66h1.83v2.23a17.53,17.53,0,0,1,2.81-1.55,13.6,13.6,0,0,1,3.05-1v1.86a17.91,17.91,0,0,0-2.79.85,22.75,22.75,0,0,0-2.26,1l-.81.47V58.16Z"/></g></svg>