<svg xmlns="http://www.w3.org/2000/svg" width="161.41mm" height="33.58mm" viewBox="0 0 457.54 95.2"><defs><style>.cls-1{fill:#28292c;}.cls-2{fill:#fff;}</style></defs><title>tak</title><g id="overskrift"><rect class="cls-1" x="13.74" y="4.28" width="438.93" height="84"/><path class="cls-2" d="M72.57,36.85V34.43h17.5v2.42H82.68v21.8H80V36.85Z"/><path class="cls-2" d="M102.28,46.44v9c.07.86.75,1.37,2,1.54l-.1,2.06A5.66,5.66,0,0,1,100,57.6a15.45,15.45,0,0,1-6.3,1.4,4.78,4.78,0,0,1-3.67-1.36,5.58,5.58,0,0,1-1.26-3.92A5,5,0,0,1,90.1,50a6.85,6.85,0,0,1,4.06-1.48l5.5-.53v-1.5a3.53,3.53,0,0,0-.77-2.56,2.87,2.87,0,0,0-2.1-.77,51,51,0,0,0-5.81.35l-1.09.11-.1-2a35.46,35.46,0,0,1,6.82-.77,5.9,5.9,0,0,1,4.32,1.36A5.89,5.89,0,0,1,102.28,46.44ZM91.5,53.57c0,2.15.89,3.22,2.66,3.22a14.06,14.06,0,0,0,4.69-.8l.81-.28V49.94l-5.18.49a3.39,3.39,0,0,0-2.28.9A3.28,3.28,0,0,0,91.5,53.57Z"/><path class="cls-2" d="M110.09,58.65h-2.63V33.52h2.63V48.36l2.73-.14,5-7.07h3l-5.71,8.05,6,9.45h-3l-5.22-8.12-2.76.11Z"/><path class="cls-2" d="M135.29,43.43V58.65h-2.63V43.43h-2.2V41.15h2.2V39.57q0-3.7,1.05-5c.7-.9,1.93-1.35,3.68-1.35l3.53.24,0,2.17q-2-.06-3.24-.06a2,2,0,0,0-1.82.84,6.61,6.61,0,0,0-.54,3.25v1.54h5.07v2.28Z"/><path class="cls-2" d="M142.43,49.86q0-4.78,1.71-6.92c1.14-1.43,3.08-2.14,5.79-2.14s4.65.71,5.78,2.14,1.7,3.73,1.7,6.92-.54,5.52-1.61,7-3,2.17-5.88,2.17-4.81-.72-5.88-2.17S142.43,53.06,142.43,49.86Zm2.69,0q0,3.84.93,5.38c.62,1,1.91,1.54,3.88,1.54s3.26-.51,3.87-1.53.91-2.8.91-5.37-.34-4.33-1-5.3-1.93-1.46-3.77-1.46-3.09.49-3.78,1.46S145.12,47.26,145.12,49.81Z"/><path class="cls-2" d="M161.68,58.65V41.15h2.59v2.38a17,17,0,0,1,6.4-2.76v2.66a17.8,17.8,0,0,0-3.06.87,21.51,21.51,0,0,0-2.43,1.05l-.88.46V58.65Z"/><path class="cls-2" d="M194.93,33.52V58.65h-2.59V57.46A10.64,10.64,0,0,1,187,59a7.82,7.82,0,0,1-2.45-.35,4.91,4.91,0,0,1-2-1.26q-1.89-1.89-1.89-7t1.69-7.35q1.71-2.27,5.62-2.26a21.61,21.61,0,0,1,4.31.46V33.52Zm-9.1,22.89a4.61,4.61,0,0,0,1.62.24,8.8,8.8,0,0,0,2.24-.33,13.47,13.47,0,0,0,1.95-.64l.7-.32V43.49a23.74,23.74,0,0,0-4.17-.42,4,4,0,0,0-3.71,1.7A10.28,10.28,0,0,0,183.41,50q0,4.07,1.23,5.46A3,3,0,0,0,185.83,56.41Z"/><path class="cls-2" d="M200,37.19v-3h2.63v3Zm0,21.46V41.15h2.63v17.5Z"/><path class="cls-2" d="M210.29,58.65h-2.62V41.15h2.59v1.22a11.15,11.15,0,0,1,5.42-1.57q3.49,0,4.71,1.89c.8,1.26,1.21,3.5,1.21,6.72v9.24H219V49.48a11.79,11.79,0,0,0-.72-5c-.48-.9-1.5-1.34-3.06-1.34a9.25,9.25,0,0,0-2.37.33,11.45,11.45,0,0,0-1.9.64l-.67.32Z"/><path class="cls-2" d="M247.6,33.52V58.65H245V57.46A10.64,10.64,0,0,1,239.69,59a7.87,7.87,0,0,1-2.45-.35,5,5,0,0,1-2-1.26q-1.89-1.89-1.89-7c0-3.4.56-5.85,1.7-7.35s3-2.26,5.61-2.26a21.53,21.53,0,0,1,4.31.46V33.52Zm-9.1,22.89a4.64,4.64,0,0,0,1.63.24,8.86,8.86,0,0,0,2.24-.33,13.7,13.7,0,0,0,1.94-.64l.7-.32V43.49a23.56,23.56,0,0,0-4.17-.42,4,4,0,0,0-3.71,1.7,10.28,10.28,0,0,0-1,5.27q0,4.07,1.23,5.46A3,3,0,0,0,238.5,56.41Z"/><path class="cls-2" d="M264.57,56.48l1-.11.07,2.07a50.85,50.85,0,0,1-6.83.56q-3.78,0-5.35-2.19T251.9,50q0-9.21,7.32-9.21a6.66,6.66,0,0,1,5.28,2q1.75,2,1.75,6.21l-.14,2H254.56a7.18,7.18,0,0,0,1.05,4.31,4.3,4.3,0,0,0,3.66,1.4C261,56.69,262.78,56.62,264.57,56.48Zm-.94-7.59c0-2.15-.35-3.67-1-4.56A4,4,0,0,0,259.24,43a4.3,4.3,0,0,0-3.5,1.39,7,7,0,0,0-1.21,4.49Z"/><path class="cls-2" d="M270.56,58.65V33.52h2.62V58.65Z"/><path class="cls-2" d="M287.5,43.43h-5.57v8.36a11.27,11.27,0,0,0,.44,4c.29.63,1,.95,2.08.95l3.12-.21.17,2.17a23.27,23.27,0,0,1-3.57.38c-1.82,0-3.08-.44-3.78-1.33s-1.05-2.57-1.05-5.07v-9.2h-2.48V41.15h2.48V35.79h2.59v5.36h5.57Z"/><path class="cls-2" d="M303.07,46.44v9c.07.86.75,1.37,2,1.54L305,59a5.68,5.68,0,0,1-4.17-1.4,15.45,15.45,0,0,1-6.3,1.4,4.78,4.78,0,0,1-3.67-1.36,5.58,5.58,0,0,1-1.26-3.92A5,5,0,0,1,290.89,50,6.88,6.88,0,0,1,295,48.47l5.5-.53v-1.5a3.53,3.53,0,0,0-.77-2.56,2.87,2.87,0,0,0-2.1-.77,51.08,51.08,0,0,0-5.81.35l-1.09.11-.1-2a35.46,35.46,0,0,1,6.82-.77,5.93,5.93,0,0,1,4.33,1.36A5.93,5.93,0,0,1,303.07,46.44Zm-10.78,7.13c0,2.15.89,3.22,2.66,3.22a14.06,14.06,0,0,0,4.69-.8l.81-.28V49.94l-5.18.49a3.39,3.39,0,0,0-2.28.9A3.28,3.28,0,0,0,292.29,53.57Z"/><path class="cls-2" d="M315,66.87c-2.8,0-4.76-.37-5.86-1.13s-1.67-2.14-1.67-4.15a4,4,0,0,1,.63-2.33,9.87,9.87,0,0,1,2.14-2,2.7,2.7,0,0,1-1-2.42,6,6,0,0,1,.87-2.2l.32-.56q-2.77-1.26-2.77-5.29,0-6,6.55-6a13.22,13.22,0,0,1,3.11.35l.53.11,5.18-.15v2.25l-3.33-.08a4.78,4.78,0,0,1,1.16,3.5c0,2.2-.54,3.73-1.63,4.61s-2.79,1.31-5.13,1.31a9.86,9.86,0,0,1-1.71-.14,7.32,7.32,0,0,0-.63,2c0,.72.22,1.17.66,1.34a16.5,16.5,0,0,0,4,.26,8.5,8.5,0,0,1,4.83,1.06c1,.69,1.47,2.06,1.47,4.09Q322.78,66.88,315,66.87Zm-4.94-5.49a2.91,2.91,0,0,0,1,2.57,7.11,7.11,0,0,0,3.81.72,7.75,7.75,0,0,0,4-.77,2.8,2.8,0,0,0,1.21-2.57c0-1.2-.29-2-.88-2.33a7.48,7.48,0,0,0-3.43-.52L312,58.3a6,6,0,0,0-1.55,1.47A2.94,2.94,0,0,0,310.07,61.38Zm.25-14.6a3.94,3.94,0,0,0,.93,2.95,4.37,4.37,0,0,0,3.06.87,4.31,4.31,0,0,0,3-.87,4,4,0,0,0,.91-3,4,4,0,0,0-.91-3,5.73,5.73,0,0,0-6.1,0A4,4,0,0,0,310.32,46.78Z"/><path class="cls-2" d="M338.14,56.48l1-.11.07,2.07a50.85,50.85,0,0,1-6.83.56q-3.78,0-5.35-2.19T325.47,50q0-9.21,7.32-9.21a6.68,6.68,0,0,1,5.28,2q1.76,2,1.75,6.21l-.14,2H328.13a7.18,7.18,0,0,0,1.05,4.31,4.3,4.3,0,0,0,3.66,1.4C334.58,56.69,336.35,56.62,338.14,56.48Zm-.94-7.59c0-2.15-.35-3.67-1-4.56A4,4,0,0,0,332.81,43a4.3,4.3,0,0,0-3.5,1.39,7,7,0,0,0-1.21,4.49Z"/><path class="cls-2" d="M344.13,58.65V33.52h2.62V58.65Z"/><path class="cls-2" d="M357.5,43.15c-2.55,0-3.82.88-3.82,2.66a1.83,1.83,0,0,0,.88,1.73,14.64,14.64,0,0,0,4,1.05A10.73,10.73,0,0,1,363,50.11c.86.65,1.29,1.88,1.29,3.67a4.58,4.58,0,0,1-1.73,4A8.55,8.55,0,0,1,357.46,59a31.35,31.35,0,0,1-5.11-.49l-1.05-.18.14-2.27a43.92,43.92,0,0,0,6,.59,6,6,0,0,0,3.1-.64,2.34,2.34,0,0,0,1.07-2.17,2.22,2.22,0,0,0-.91-2.07,13.71,13.71,0,0,0-4-1,10.58,10.58,0,0,1-4.38-1.43c-.86-.63-1.29-1.8-1.29-3.5a4.24,4.24,0,0,1,1.8-3.78,7.8,7.8,0,0,1,4.5-1.23,36.24,36.24,0,0,1,5.35.49l1,.18-.07,2.23A45.77,45.77,0,0,0,357.5,43.15Z"/><path class="cls-2" d="M380.18,56.48l1-.11.07,2.07a50.72,50.72,0,0,1-6.82.56q-3.78,0-5.36-2.19T367.51,50q0-9.21,7.31-9.21a6.7,6.7,0,0,1,5.29,2c1.16,1.32,1.75,3.39,1.75,6.21l-.14,2H370.17a7.18,7.18,0,0,0,1.05,4.31,4.3,4.3,0,0,0,3.65,1.4Q377.48,56.69,380.18,56.48Zm-.95-7.59c0-2.15-.34-3.67-1-4.56A4,4,0,0,0,374.84,43a4.31,4.31,0,0,0-3.5,1.39,7.15,7.15,0,0,0-1.21,4.49Z"/><path class="cls-2" d="M393.48,58.65v-4h2.87v4Z"/><path class="cls-2" d="M401,58.65v-4h2.87v4Z"/><path class="cls-2" d="M408.59,58.65v-4h2.87v4Z"/></g></svg>
