<svg xmlns="http://www.w3.org/2000/svg" width="411" height="250" viewBox="0 0 411 250"><defs><style>.cls-1{fill:#cbcdd2;}.cls-2{fill:#28292c;}.cls-3,.cls-4,.cls-5,.cls-6,.cls-7,.cls-8{fill:none;stroke-miterlimit:10;}.cls-3{stroke:#edeff2;}.cls-3,.cls-4,.cls-5,.cls-6,.cls-7{stroke-linecap:round;}.cls-3,.cls-6,.cls-7{stroke-width:2px;}.cls-4,.cls-5,.cls-8{stroke:#28292c;}.cls-4{stroke-width:4px;}.cls-5,.cls-8{stroke-width:3px;}.cls-6,.cls-7{stroke:#020202;}.cls-7{opacity:0.9;}</style></defs><title>cykel</title><g id="Layer_1" data-name="Layer 1"><circle class="cls-1" cx="60" cy="138.5" r="34"/><path class="cls-2" d="M60,106a32.5,32.5,0,1,1-32.5,32.5A32.54,32.54,0,0,1,60,106m0-3a35.5,35.5,0,1,0,35.5,35.5A35.5,35.5,0,0,0,60,103Z"/><circle class="cls-1" cx="172" cy="138.5" r="34"/><path class="cls-2" d="M172,106a32.5,32.5,0,1,1-32.5,32.5A32.54,32.54,0,0,1,172,106m0-3a35.5,35.5,0,1,0,35.5,35.5A35.5,35.5,0,0,0,172,103Z"/><path class="cls-2" d="M60,136a2.5,2.5,0,1,1-2.5,2.5A2.5,2.5,0,0,1,60,136m0-4a6.5,6.5,0,1,0,6.5,6.5A6.5,6.5,0,0,0,60,132Z"/><path class="cls-2" d="M172,136a2.5,2.5,0,1,1-2.5,2.5A2.5,2.5,0,0,1,172,136m0-4a6.5,6.5,0,1,0,6.5,6.5A6.5,6.5,0,0,0,172,132Z"/><circle class="cls-3" cx="172" cy="138.5" r="31.5"/><circle class="cls-3" cx="60" cy="138.5" r="31.5"/><line class="cls-4" x1="108.5" y1="127" x2="141.5" y2="91"/><line class="cls-4" x1="171.5" y1="134" x2="135.48" y2="78.01"/><line class="cls-4" x1="66.5" y1="138" x2="112.5" y2="138"/><line class="cls-4" x1="112.5" y1="138" x2="146.5" y2="96"/><line class="cls-4" x1="60.5" y1="133" x2="91.5" y2="91"/><line class="cls-4" x1="112.5" y1="138" x2="88.5" y2="78"/><line class="cls-4" x1="81.5" y1="78" x2="98.5" y2="78"/><line class="cls-4" x1="81.5" y1="78" x2="77.5" y2="73"/><line class="cls-4" x1="135.5" y1="78" x2="132.5" y2="73"/><line class="cls-4" x1="132.71" y1="72.87" x2="150.71" y2="61.87"/><line class="cls-4" x1="111.69" y1="138.15" x2="113.16" y2="147.03"/><line class="cls-4" x1="107.4" y1="149" x2="120.23" y2="146.87"/><line class="cls-5" x1="17" y1="174.5" x2="96" y2="174.5"/><line class="cls-5" x1="102" y1="174.5" x2="120" y2="174.5"/><line class="cls-5" x1="126" y1="174.5" x2="134" y2="174.5"/><line class="cls-5" x1="142" y1="174.5" x2="149" y2="174.5"/><line class="cls-5" x1="157" y1="174.5" x2="201" y2="174.5"/><path class="cls-6" d="M59.5,165c-14.36,0-26-13-26-29"/><path class="cls-7" d="M171.84,111.7c14.35.34,25.69,13.58,25.32,29.6"/><path class="cls-2" d="M245.25,97H218.67V92.92l12.16-12.79c2.09-2.19,3.63-3.85,4.59-5a19.88,19.88,0,0,0,2.62-4,10.32,10.32,0,0,0,1.16-4.66q0-4-2.2-5.67c-1.47-1.1-3.76-1.64-6.87-1.64A43.86,43.86,0,0,0,221,60.22l-1.64.31-.38-4a45.12,45.12,0,0,1,12.35-1.7q6.36,0,9.61,2.68c2.16,1.78,3.24,4.61,3.24,8.47a14.77,14.77,0,0,1-2,7.69,40.85,40.85,0,0,1-6.74,7.87L224.4,92.79h20.85Z"/><path class="cls-2" d="M275.56,55.43v4.41H255.33L254.2,73.39A20.5,20.5,0,0,1,264,70.8q13.23,0,13.23,12.29,0,7.05-3.65,10.77t-10.27,3.72a55.66,55.66,0,0,1-11.72-1.39l-2.08-.44.57-3.84a67.08,67.08,0,0,0,12.19,1.38q4.95,0,7.47-2.55a9.73,9.73,0,0,0,2.52-7.15c0-3.06-.77-5.24-2.3-6.52a9.92,9.92,0,0,0-6.52-1.92,19.37,19.37,0,0,0-4.76.63A21.55,21.55,0,0,0,254.83,77l-1.32.63L250.17,77l1.13-21.61Z"/><path class="cls-2" d="M285.38,54.8q6.93,0,6.93,8.69c0,3-.61,5.21-1.82,6.68a7,7,0,0,1-10.21,0c-1.22-1.47-1.83-3.69-1.83-6.68Q278.45,54.81,285.38,54.8Zm-3.08,8.69q0,5.67,3.12,5.67t3.11-5.67a9,9,0,0,0-.72-4.15,2.82,2.82,0,0,0-4.79,0A9,9,0,0,0,282.3,63.49Zm4.15,33.77,12.92-43.15,3,1-12.91,43Zm10-8.57q0-8.62,6.9-8.63t6.9,8.7q0,4.41-1.83,6.64a6.2,6.2,0,0,1-5.1,2.24,6.12,6.12,0,0,1-5.08-2.24C297,93.91,296.41,91.68,296.41,88.69Zm3.78,0q0,5.75,3.09,5.74A2.5,2.5,0,0,0,305.73,93a10,10,0,0,0,.7-4.28,9.39,9.39,0,0,0-.7-4.19,2.48,2.48,0,0,0-2.39-1.29,2.57,2.57,0,0,0-2.43,1.29A8.85,8.85,0,0,0,300.19,88.69Z"/><line class="cls-8" x1="217.5" y1="104.5" x2="310.5" y2="104.5"/><path d="M223.43,114.82q-3.6,0-3.6,2.71a2.32,2.32,0,0,0,.82,2.07,10.93,10.93,0,0,0,3.36,1.13,8.56,8.56,0,0,1,3.59,1.47,3.67,3.67,0,0,1,1.06,3q0,5.11-5.31,5.11a28.78,28.78,0,0,1-4.39-.41l-.86-.12.19-1.53a40.61,40.61,0,0,0,5,.43q3.56,0,3.55-3.34a2.27,2.27,0,0,0-.78-1.93,7.58,7.58,0,0,0-2.92-1,9.82,9.82,0,0,1-4-1.55,3.87,3.87,0,0,1-1.18-3.18q0-4.47,5.36-4.47a29.7,29.7,0,0,1,4.2.36l.81.12-.17,1.56A45,45,0,0,0,223.43,114.82Z"/><path d="M231,124c0-2.19.39-3.77,1.18-4.75s2.1-1.46,4-1.46,3.18.48,4,1.46a7.72,7.72,0,0,1,1.16,4.75,8.18,8.18,0,0,1-1.1,4.78c-.74,1-2.08,1.49-4,1.49s-3.3-.5-4-1.49A8.18,8.18,0,0,1,231,124Zm1.85,0a7.68,7.68,0,0,0,.63,3.68,2.91,2.91,0,0,0,2.67,1.06c1.35,0,2.23-.35,2.65-1.05a7.65,7.65,0,0,0,.62-3.68,6.84,6.84,0,0,0-.69-3.64,3.87,3.87,0,0,0-5.17,0A6.58,6.58,0,0,0,232.86,124Z"/><path d="M244.35,130.06V112.82h1.8v17.24Z"/><path d="M249.23,124c0-2.19.39-3.77,1.17-4.75s2.11-1.46,4-1.46,3.19.48,4,1.46,1.17,2.56,1.17,4.75a8.09,8.09,0,0,1-1.11,4.78c-.73,1-2.08,1.49-4,1.49s-3.29-.5-4-1.49A8.1,8.1,0,0,1,249.23,124Zm1.84,0a7.66,7.66,0,0,0,.64,3.68c.42.7,1.31,1.06,2.66,1.06s2.24-.35,2.66-1.05a7.78,7.78,0,0,0,.62-3.68,6.73,6.73,0,0,0-.7-3.64,2.94,2.94,0,0,0-2.58-1,3,3,0,0,0-2.59,1A6.67,6.67,0,0,0,251.07,124Z"/><path d="M269.91,118.06h1.8v12h-1.8v-.84a6.86,6.86,0,0,1-3.55,1.08c-1.63,0-2.71-.43-3.25-1.28s-.8-2.41-.8-4.7v-6.26h1.8v6.24a8.92,8.92,0,0,0,.45,3.5c.31.59,1,.89,2.06.89a6,6,0,0,0,1.61-.23,7.48,7.48,0,0,0,1.25-.44l.43-.22Z"/><path d="M275.31,130.06V112.82h1.8v17.24Z"/><path d="M279.58,118.06h1.8l3,10.44h.8l3-10.44H290l-5,17.32h-1.8l1.56-5.32H283Z"/><path d="M294.1,130.06h-1.8V112.82h1.8V123l1.88-.1,3.43-4.84h2l-3.91,5.52,4.08,6.48h-2L296,124.49l-1.9.07Z"/><path d="M305.6,130.06h-1.8V112.82h1.8V123l1.87-.1,3.43-4.84h2L309,123.58l4.08,6.48h-2l-3.57-5.57-1.9.07Z"/><path d="M323.14,128.57l.7-.07.05,1.41a34.08,34.08,0,0,1-4.68.39,4.21,4.21,0,0,1-3.67-1.5,8.07,8.07,0,0,1-1.08-4.67q0-6.31,5-6.31a4.61,4.61,0,0,1,3.63,1.35,6.34,6.34,0,0,1,1.2,4.26l-.1,1.37h-7.92a4.91,4.91,0,0,0,.72,3,3,3,0,0,0,2.51,1C320.7,128.71,321.91,128.66,323.14,128.57Zm-.64-5.21a5.23,5.23,0,0,0-.71-3.12,2.73,2.73,0,0,0-2.31-.91,3,3,0,0,0-2.4,1,4.84,4.84,0,0,0-.82,3.07Z"/><path d="M327.1,130.06v-12h1.78v1.63a11.81,11.81,0,0,1,4.39-1.9v1.83a11.59,11.59,0,0,0-2.1.6,13.61,13.61,0,0,0-1.67.72l-.6.31v8.81Z"/><path d="M222.78,145.57h-5.05V145l2.47-2.62c.4-.42.69-.74.87-1a3.39,3.39,0,0,0,.49-.77,2.13,2.13,0,0,0,.23-.93,1.35,1.35,0,0,0-.45-1.14,2.37,2.37,0,0,0-1.39-.33,8.31,8.31,0,0,0-1.76.21l-.33.07-.06-.63a8.23,8.23,0,0,1,2.32-.33,2.88,2.88,0,0,1,1.82.5,1.92,1.92,0,0,1,.61,1.59,2.71,2.71,0,0,1-.37,1.44,8.22,8.22,0,0,1-1.25,1.49l-2.3,2.38h4.15Z"/><path d="M229.29,137.65v.69h-3.93l-.21,2.79a4,4,0,0,1,2-.52c1.68,0,2.52.77,2.52,2.32a2.77,2.77,0,0,1-.69,2,2.62,2.62,0,0,1-1.95.7,11.1,11.1,0,0,1-2.2-.24l-.39-.08.1-.62a11.51,11.51,0,0,0,2.34.28,1.84,1.84,0,0,0,2-2,1.63,1.63,0,0,0-.48-1.34,2.09,2.09,0,0,0-1.35-.39,3.61,3.61,0,0,0-.95.13,3.93,3.93,0,0,0-.75.29l-.28.13-.55-.1.23-4.07Z"/><path d="M232,137.53c.85,0,1.28.55,1.28,1.65a2,2,0,0,1-.34,1.26,1.15,1.15,0,0,1-.94.42,1.13,1.13,0,0,1-.94-.42,2,2,0,0,1-.35-1.27C230.71,138.08,231.14,137.53,232,137.53Zm-.67,1.64c0,.77.22,1.16.67,1.16a.56.56,0,0,0,.53-.28,1.94,1.94,0,0,0,.15-.87,1.84,1.84,0,0,0-.15-.85.57.57,0,0,0-.53-.27.56.56,0,0,0-.52.27A1.8,1.8,0,0,0,231.33,139.17Zm.94,6.44,2.38-8.15.5.16-2.37,8.13ZM234.1,144c0-1.09.43-1.63,1.29-1.63s1.29.55,1.29,1.64a2,2,0,0,1-.35,1.26,1.17,1.17,0,0,1-1,.42,1.15,1.15,0,0,1-.94-.42A2,2,0,0,1,234.1,144Zm.61,0c0,.78.23,1.17.68,1.17s.68-.39.68-1.16a1.78,1.78,0,0,0-.16-.84.64.64,0,0,0-1,0A1.66,1.66,0,0,0,234.71,144Z"/><path d="M240,139.57h.8l1.5,5.38h.48l1.56-5.38h.74l-1.75,6h-1.57Z"/><path d="M252,145c.39,0,1,0,1.83-.08l.35,0,0,.6a18.9,18.9,0,0,1-2.28.16,2.16,2.16,0,0,1-1.75-.67l-.41.18a5.67,5.67,0,0,1-2.36.49c-1.06,0-1.6-.6-1.6-1.81a1.53,1.53,0,0,1,.49-1.31,3.66,3.66,0,0,1,1.7-.49l1.62-.15v-.54c0-.83-.39-1.24-1.15-1.24-.53,0-1.17,0-1.91.1l-.37,0,0-.65a22.53,22.53,0,0,1,2.33-.15,1.51,1.51,0,0,1,1.63,1,2.11,2.11,0,0,1,2-1,2.21,2.21,0,0,1,1.77.67,3.22,3.22,0,0,1,.59,2.16l0,.57h-4.08a2.79,2.79,0,0,0,.39,1.64A1.48,1.48,0,0,0,252,145Zm-4.52,0a6.59,6.59,0,0,0,2.38-.51,5.61,5.61,0,0,1-.28-2l-1.93.18a1.36,1.36,0,0,0-.84.33,1.19,1.19,0,0,0-.26.84,1.37,1.37,0,0,0,.24.87A.84.84,0,0,0,247.51,145.06Zm2.84-2.79h3.38a2.74,2.74,0,0,0-.39-1.66,1.46,1.46,0,0,0-1.24-.51C250.93,140.1,250.35,140.83,250.35,142.27Z"/><path d="M256,145.57v-8.66h.71v8.66Z"/><path d="M261.61,140.21h-2v3a4.41,4.41,0,0,0,.17,1.53c.11.24.37.36.79.36l1.1-.09.05.62a8.76,8.76,0,0,1-1.21.12,1.54,1.54,0,0,1-1.27-.45,3,3,0,0,1-.35-1.73v-3.32H258v-.64h.89v-1.88h.72v1.88h2Z"/><path d="M266.71,145l.36,0,0,.59a19.45,19.45,0,0,1-2.29.16,2.06,2.06,0,0,1-1.82-.76,4.24,4.24,0,0,1-.51-2.33c0-2.1.82-3.15,2.47-3.15a2.26,2.26,0,0,1,1.78.68,3.29,3.29,0,0,1,.58,2.17l0,.57h-4.08a2.85,2.85,0,0,0,.38,1.64,1.46,1.46,0,0,0,1.29.54C265.5,145.05,266.11,145,266.71,145Zm-3.5-2.7h3.38a2.82,2.82,0,0,0-.39-1.69,1.48,1.48,0,0,0-1.24-.5,1.62,1.62,0,0,0-1.31.52A2.61,2.61,0,0,0,263.21,142.27Z"/><path d="M268.79,145.57v-6h.71v.87a6.3,6.3,0,0,1,1.08-.6,5.66,5.66,0,0,1,1.19-.39v.72a8.25,8.25,0,0,0-1.08.33,9.39,9.39,0,0,0-.88.39l-.31.18v4.5Z"/><path d="M275.5,148.27v-8.7h.71V140a3.73,3.73,0,0,1,2-.58,1.77,1.77,0,0,1,1.55.74,4.25,4.25,0,0,1,.51,2.38,3.81,3.81,0,0,1-.6,2.39,2.45,2.45,0,0,1-2,.73,6.74,6.74,0,0,1-1.43-.15v2.73ZM278,140.1a3.32,3.32,0,0,0-.85.13,3.16,3.16,0,0,0-.71.28l-.26.13v4.27a7.89,7.89,0,0,0,1.41.15,1.69,1.69,0,0,0,1.45-.58,3.37,3.37,0,0,0,.42-1.92,3.67,3.67,0,0,0-.36-1.9A1.24,1.24,0,0,0,278,140.1Z"/><path d="M285.9,141.36v3.22c0,.29.29.47.78.53l0,.57a1.74,1.74,0,0,1-1.36-.48,5.55,5.55,0,0,1-2.26.49,1.56,1.56,0,0,1-1.22-.46,1.9,1.9,0,0,1-.42-1.32,1.68,1.68,0,0,1,.43-1.27,2.12,2.12,0,0,1,1.33-.51l2-.2v-.57a1.33,1.33,0,0,0-.29-1,1.06,1.06,0,0,0-.79-.3,17.14,17.14,0,0,0-2,.15l-.37,0,0-.57a12.43,12.43,0,0,1,2.31-.26,1.93,1.93,0,0,1,1.44.47A2.05,2.05,0,0,1,285.9,141.36Zm-3.77,2.51c0,.81.33,1.21,1,1.21a4.8,4.8,0,0,0,.95-.1,6.55,6.55,0,0,0,.81-.21l.3-.11v-2.17l-1.95.2a1.27,1.27,0,0,0-.85.34A1.22,1.22,0,0,0,282.13,143.87ZM283.9,139a1.18,1.18,0,0,1-1.2-1.2A1.17,1.17,0,0,1,283,137a1.19,1.19,0,0,1,.86-.35,1.2,1.2,0,0,1,1.21,1.21,1.15,1.15,0,0,1-.35.85A1.14,1.14,0,0,1,283.9,139Zm0-1.91a.65.65,0,0,0-.49.21.69.69,0,0,0-.2.5.72.72,0,0,0,.2.5.65.65,0,0,0,.49.21.67.67,0,0,0,.5-.21.71.71,0,0,0,.19-.5.68.68,0,0,0-.69-.71Z"/><path d="M292.63,139.45a8.34,8.34,0,0,1,1.29.12l.27,0,0,.61a12.33,12.33,0,0,0-1.41-.12,1.75,1.75,0,0,0-1.46.52,3.38,3.38,0,0,0-.4,1.92,3.76,3.76,0,0,0,.36,2,1.68,1.68,0,0,0,1.5.56l1.43-.11,0,.61a12.4,12.4,0,0,1-1.59.14,2.3,2.3,0,0,1-1.95-.7,4.27,4.27,0,0,1-.52-2.44,3.83,3.83,0,0,1,.57-2.41A2.35,2.35,0,0,1,292.63,139.45Z"/><path d="M295,139.57h.73l1.6,5.38h.43l1.61-5.38h.73l-2.59,8.7h-.72l.8-2.7h-.82Z"/><path d="M302,145.57h-.71v-8.66H302v5.16l1,0,1.85-2.48h.83l-2.05,2.75,2.14,3.25H305l-1.92-2.89-1,0Z"/><path d="M307,145.57v-8.66h.71v8.66Z"/><path d="M313.6,145l.36,0,0,.59a19.32,19.32,0,0,1-2.29.16,2,2,0,0,1-1.81-.76,4.14,4.14,0,0,1-.52-2.33c0-2.1.83-3.15,2.47-3.15a2.23,2.23,0,0,1,1.78.68,3.29,3.29,0,0,1,.59,2.17l0,.57h-4.08a2.85,2.85,0,0,0,.38,1.64,1.48,1.48,0,0,0,1.3.54C312.38,145.05,313,145,313.6,145Zm-3.51-2.7h3.39a2.82,2.82,0,0,0-.39-1.69,1.5,1.5,0,0,0-1.25-.5,1.6,1.6,0,0,0-1.3.52A2.55,2.55,0,0,0,310.09,142.27Z"/><path d="M316.38,145.57h-.71v-6h.71V140a4,4,0,0,1,2-.57,1.77,1.77,0,0,1,1.6.64,4.69,4.69,0,0,1,.4,2.33v3.15h-.72v-3.12a4.49,4.49,0,0,0-.26-1.86,1.16,1.16,0,0,0-1.13-.49,3.13,3.13,0,0,0-.88.13,3.39,3.39,0,0,0-.72.26l-.25.12Z"/><path d="M321.62,147.05l.53-2.66H323l-.74,2.66Z"/><path d="M218.75,154.61V160H218v-5.36h-.78V154H218v-.61a3,3,0,0,1,.35-1.72,1.46,1.46,0,0,1,1.23-.45l1.17.06v.61l-1.06,0a.83.83,0,0,0-.76.31,2.43,2.43,0,0,0-.21,1.22v.6h1.81v.64Z"/><path d="M221.31,157a3.88,3.88,0,0,1,.57-2.4,3,3,0,0,1,3.88,0,3.88,3.88,0,0,1,.57,2.4,4.2,4.2,0,0,1-.52,2.41,2.31,2.31,0,0,1-2,.72,2.36,2.36,0,0,1-2-.72A4.2,4.2,0,0,1,221.31,157Zm.74,0a4.12,4.12,0,0,0,.33,2c.22.37.7.55,1.44.55a1.61,1.61,0,0,0,1.45-.55,4.17,4.17,0,0,0,.33-2,3.43,3.43,0,0,0-.38-1.93,1.6,1.6,0,0,0-1.39-.52,1.62,1.62,0,0,0-1.4.52A3.49,3.49,0,0,0,222.05,156.94Z"/><path d="M227.88,160v-6h.71v.87a6.42,6.42,0,0,1,1.09-.6,5.41,5.41,0,0,1,1.18-.39v.72a8.25,8.25,0,0,0-1.08.33,9.39,9.39,0,0,0-.88.39l-.31.18V160Z"/><path d="M236.25,151.31V160h-.72v-.44a3.72,3.72,0,0,1-1.92.56,2.48,2.48,0,0,1-.77-.1,1.8,1.8,0,0,1-.66-.4,3.17,3.17,0,0,1-.69-2.39,4.45,4.45,0,0,1,.58-2.57,2.25,2.25,0,0,1,1.94-.78,11.19,11.19,0,0,1,1.52.16v-2.7Zm-3.09,8.05a1.51,1.51,0,0,0,.57.09,3,3,0,0,0,.82-.14,4.15,4.15,0,0,0,.72-.25l.26-.13v-4.3a11.7,11.7,0,0,0-1.49-.14,1.54,1.54,0,0,0-1.41.62,3.76,3.76,0,0,0-.39,1.94,2.92,2.92,0,0,0,.47,2A1.22,1.22,0,0,0,233.16,159.36Z"/><path d="M238,152.47v-.9h.7v.9Zm0,7.5v-6h.7v6Z"/><path d="M247.67,151.31V160H247v-.44a3.67,3.67,0,0,1-1.92.56,2.52,2.52,0,0,1-.77-.1,2,2,0,0,1-.66-.4,3.22,3.22,0,0,1-.68-2.39,4.46,4.46,0,0,1,.57-2.57,2.28,2.28,0,0,1,1.95-.78A11.24,11.24,0,0,1,247,154v-2.7Zm-3.09,8.05a1.57,1.57,0,0,0,.58.09,3,3,0,0,0,.81-.14,4.65,4.65,0,0,0,.73-.25l.25-.13v-4.3a11.7,11.7,0,0,0-1.49-.14,1.54,1.54,0,0,0-1.41.62,3.76,3.76,0,0,0-.39,1.94,3,3,0,0,0,.47,2A1.22,1.22,0,0,0,244.58,159.36Z"/><path d="M253.43,159.37l.36,0,0,.59a19.18,19.18,0,0,1-2.29.16,2,2,0,0,1-1.81-.76,4.23,4.23,0,0,1-.52-2.33c0-2.1.83-3.15,2.48-3.15a2.22,2.22,0,0,1,1.77.68,3.29,3.29,0,0,1,.59,2.17l0,.57h-4.08a2.86,2.86,0,0,0,.37,1.64,1.49,1.49,0,0,0,1.3.54C252.21,159.45,252.82,159.42,253.43,159.37Zm-3.5-2.7h3.38a2.82,2.82,0,0,0-.39-1.69,1.5,1.5,0,0,0-1.25-.5,1.61,1.61,0,0,0-1.3.52A2.55,2.55,0,0,0,249.93,156.67Z"/><path d="M258.85,160h-.7v-6h.7v.45a3.63,3.63,0,0,1,1.95-.57,1.64,1.64,0,0,1,1.46.64,4.25,4.25,0,0,1,1.05-.45,4,4,0,0,1,1.11-.19,1.75,1.75,0,0,1,1.6.63,4.69,4.69,0,0,1,.41,2.34V160h-.71v-3.12a4.49,4.49,0,0,0-.26-1.86c-.17-.33-.55-.49-1.12-.49a3.09,3.09,0,0,0-.89.13,3.16,3.16,0,0,0-.7.26l-.24.12a6,6,0,0,1,.18,1.84V160H262v-3.09a4.64,4.64,0,0,0-.25-1.89,1.15,1.15,0,0,0-1.11-.49,2.9,2.9,0,0,0-.86.13,2.83,2.83,0,0,0-.67.26l-.23.12Z"/><path d="M268.17,152.47v-.9h.7v.9Zm0,7.5v-6h.7v6Z"/><path d="M272.49,154.51c-.95,0-1.42.34-1.42,1a.69.69,0,0,0,.31.66,4.61,4.61,0,0,0,1.41.38,4.13,4.13,0,0,1,1.55.51,1.45,1.45,0,0,1,.45,1.24,1.56,1.56,0,0,1-.59,1.35,3,3,0,0,1-1.73.42,11.27,11.27,0,0,1-1.7-.16l-.35-.05.05-.64a14.44,14.44,0,0,0,2.06.21,2.12,2.12,0,0,0,1.13-.26.93.93,0,0,0,.4-.85.87.87,0,0,0-.33-.8,4.66,4.66,0,0,0-1.42-.36,3.8,3.8,0,0,1-1.53-.48,1.37,1.37,0,0,1-.44-1.18,1.4,1.4,0,0,1,.61-1.26,2.76,2.76,0,0,1,1.51-.39,13.51,13.51,0,0,1,1.8.15l.32,0,0,.64A14.56,14.56,0,0,0,272.49,154.51Z"/><path d="M279.28,154.61h-2v3a4.41,4.41,0,0,0,.17,1.53c.11.24.38.36.79.36l1.11-.09,0,.62a8.62,8.62,0,0,1-1.21.12,1.5,1.5,0,0,1-1.26-.45,2.94,2.94,0,0,1-.36-1.73v-3.32h-.88V154h.88v-1.88h.72V154h2Z"/><path d="M284.38,159.37l.36,0,0,.59a19.32,19.32,0,0,1-2.29.16,2,2,0,0,1-1.81-.76,4.14,4.14,0,0,1-.52-2.33c0-2.1.82-3.15,2.47-3.15a2.23,2.23,0,0,1,1.78.68,3.29,3.29,0,0,1,.59,2.17l0,.57h-4.08a2.85,2.85,0,0,0,.38,1.64,1.47,1.47,0,0,0,1.3.54C283.16,159.45,283.77,159.42,284.38,159.37Zm-3.51-2.7h3.39a2.82,2.82,0,0,0-.39-1.69,1.5,1.5,0,0,0-1.25-.5,1.6,1.6,0,0,0-1.3.52A2.55,2.55,0,0,0,280.87,156.67Z"/><path d="M286.45,160v-6h.71v.87a6.42,6.42,0,0,1,1.09-.6,5.41,5.41,0,0,1,1.18-.39v.72a8.25,8.25,0,0,0-1.08.33,9.39,9.39,0,0,0-.88.39l-.31.18V160Z"/><path d="M295.74,153.85a1.88,1.88,0,0,1,1.67.7,4.55,4.55,0,0,1,.47,2.41,3.79,3.79,0,0,1-.6,2.42,2.75,2.75,0,0,1-2.21.71c-.45,0-1,0-1.61-.09l-.31,0v-8.66h.72v3A4.28,4.28,0,0,1,295.74,153.85Zm-1.87,5.52c.56,0,1,.08,1.35.08a2.69,2.69,0,0,0,.92-.15,1.22,1.22,0,0,0,.63-.48,2.21,2.21,0,0,0,.29-.78,7.33,7.33,0,0,0,.07-1.16,4.09,4.09,0,0,0-.3-1.83,1.22,1.22,0,0,0-1.15-.55,4.46,4.46,0,0,0-.86.1,4.52,4.52,0,0,0-.71.21l-.24.1Z"/><path d="M303.54,155.76V159c0,.29.29.47.78.53l0,.57a1.74,1.74,0,0,1-1.35-.48,5.58,5.58,0,0,1-2.26.49,1.56,1.56,0,0,1-1.22-.46,1.9,1.9,0,0,1-.42-1.32,1.72,1.72,0,0,1,.42-1.27,2.18,2.18,0,0,1,1.34-.51l2-.2v-.57a1.33,1.33,0,0,0-.29-1,1.06,1.06,0,0,0-.79-.3,17.14,17.14,0,0,0-2,.15l-.37,0,0-.57a12.43,12.43,0,0,1,2.31-.26,1.93,1.93,0,0,1,1.44.47A2.05,2.05,0,0,1,303.54,155.76Zm-3.77,2.51c0,.81.33,1.21,1,1.21a4.8,4.8,0,0,0,1-.1,6.55,6.55,0,0,0,.81-.21l.3-.11v-2.17l-1.95.2a1.27,1.27,0,0,0-.85.34A1.22,1.22,0,0,0,299.77,158.27Z"/><path d="M305.47,160v-8.66h.71V160Z"/><path d="M312.18,155.76V159c0,.29.29.47.78.53l0,.57a1.74,1.74,0,0,1-1.35-.48,5.58,5.58,0,0,1-2.26.49,1.56,1.56,0,0,1-1.22-.46,1.9,1.9,0,0,1-.42-1.32,1.72,1.72,0,0,1,.42-1.27,2.18,2.18,0,0,1,1.34-.51l2-.2v-.57a1.33,1.33,0,0,0-.29-1,1.06,1.06,0,0,0-.79-.3,17.14,17.14,0,0,0-2,.15l-.37,0,0-.57a12.43,12.43,0,0,1,2.31-.26,1.93,1.93,0,0,1,1.44.47A2.05,2.05,0,0,1,312.18,155.76Zm-3.77,2.51c0,.81.33,1.21,1,1.21a4.8,4.8,0,0,0,.95-.1,6.55,6.55,0,0,0,.81-.21l.3-.11v-2.17l-2,.2a1.27,1.27,0,0,0-.85.34A1.22,1.22,0,0,0,308.41,158.27Z"/><path d="M314.75,160H314v-6h.71v.45a4,4,0,0,1,2-.57,1.78,1.78,0,0,1,1.6.64,4.81,4.81,0,0,1,.4,2.33V160H318v-3.12a4.28,4.28,0,0,0-.27-1.86c-.17-.33-.55-.49-1.12-.49a3.19,3.19,0,0,0-.89.13,3.48,3.48,0,0,0-.71.26l-.25.12Z"/><path d="M322.67,153.85A8.12,8.12,0,0,1,324,154l.28,0,0,.61a12.37,12.37,0,0,0-1.4-.12,1.79,1.79,0,0,0-1.47.52,3.4,3.4,0,0,0-.39,1.92,3.76,3.76,0,0,0,.36,1.95,1.68,1.68,0,0,0,1.5.56l1.43-.11,0,.61a12.14,12.14,0,0,1-1.58.14,2.27,2.27,0,0,1-2-.7,4.26,4.26,0,0,1-.53-2.44,3.83,3.83,0,0,1,.57-2.41A2.36,2.36,0,0,1,322.67,153.85Z"/><path d="M329.52,159.37l.36,0,0,.59a19.18,19.18,0,0,1-2.29.16,2,2,0,0,1-1.81-.76,4.23,4.23,0,0,1-.52-2.33c0-2.1.83-3.15,2.48-3.15a2.22,2.22,0,0,1,1.77.68,3.29,3.29,0,0,1,.59,2.17l0,.57H326a2.86,2.86,0,0,0,.37,1.64,1.49,1.49,0,0,0,1.3.54C328.3,159.45,328.91,159.42,329.52,159.37Zm-3.5-2.7h3.38A2.82,2.82,0,0,0,329,155a1.5,1.5,0,0,0-1.25-.5,1.61,1.61,0,0,0-1.3.52A2.55,2.55,0,0,0,326,156.67Z"/><path d="M332.3,160h-.7v-6h.7v.45a4,4,0,0,1,2-.57,1.77,1.77,0,0,1,1.6.64,4.69,4.69,0,0,1,.4,2.33V160h-.72v-3.12a4.32,4.32,0,0,0-.26-1.86,1.16,1.16,0,0,0-1.13-.49,3.13,3.13,0,0,0-.88.13,3.08,3.08,0,0,0-.71.26l-.26.12Z"/><path d="M217.21,168.37h.8l1.5,5.38H220l1.56-5.38h.74l-1.75,6H219Z"/><path d="M227.38,173.77l.36,0,0,.59a19.32,19.32,0,0,1-2.29.16,2,2,0,0,1-1.81-.76,4.14,4.14,0,0,1-.52-2.33c0-2.1.83-3.15,2.48-3.15a2.22,2.22,0,0,1,1.77.68,3.29,3.29,0,0,1,.59,2.17l0,.57h-4.08a2.86,2.86,0,0,0,.37,1.64,1.48,1.48,0,0,0,1.3.54C226.16,173.85,226.77,173.82,227.38,173.77Zm-3.5-2.7h3.38a2.82,2.82,0,0,0-.39-1.69,1.5,1.5,0,0,0-1.25-.5,1.6,1.6,0,0,0-1.3.52A2.55,2.55,0,0,0,223.88,171.07Z"/><path d="M233.94,165.71v8.66h-.72v-.44a3.67,3.67,0,0,1-1.92.56,2.46,2.46,0,0,1-.76-.1,1.8,1.8,0,0,1-.66-.4,3.17,3.17,0,0,1-.69-2.39,4.37,4.37,0,0,1,.58-2.57,2.25,2.25,0,0,1,1.94-.78,11.08,11.08,0,0,1,1.51.16v-2.7Zm-3.09,8a1.57,1.57,0,0,0,.58.09,3,3,0,0,0,.82-.14,4.87,4.87,0,0,0,.72-.25l.25-.13V169a11.54,11.54,0,0,0-1.49-.14,1.54,1.54,0,0,0-1.41.62,3.76,3.76,0,0,0-.39,1.94,3,3,0,0,0,.47,2A1.22,1.22,0,0,0,230.85,173.76Z"/><path d="M238.37,177.07v-8.7h.71v.46a3.73,3.73,0,0,1,2-.58,1.77,1.77,0,0,1,1.55.74,4.25,4.25,0,0,1,.51,2.38,3.81,3.81,0,0,1-.6,2.39,2.42,2.42,0,0,1-2,.73,6.76,6.76,0,0,1-1.44-.15v2.73Zm2.53-8.17a3.63,3.63,0,0,0-1.56.41l-.26.13v4.27a7.9,7.9,0,0,0,1.42.15,1.7,1.7,0,0,0,1.45-.58,3.37,3.37,0,0,0,.42-1.92,3.55,3.55,0,0,0-.37-1.9A1.23,1.23,0,0,0,240.9,168.9Z"/><path d="M248.78,170.16v3.22c0,.29.29.47.77.53l0,.57a1.74,1.74,0,0,1-1.36-.48,5.54,5.54,0,0,1-2.25.49,1.57,1.57,0,0,1-1.23-.46,1.9,1.9,0,0,1-.42-1.32,1.72,1.72,0,0,1,.43-1.27,2.15,2.15,0,0,1,1.34-.51l2-.2v-.57a1.28,1.28,0,0,0-.3-1,1,1,0,0,0-.78-.3,16.84,16.84,0,0,0-2,.15l-.38,0,0-.57a12.43,12.43,0,0,1,2.31-.26,1.89,1.89,0,0,1,1.43.47A2,2,0,0,1,248.78,170.16ZM245,172.67c0,.81.33,1.21,1,1.21a4.73,4.73,0,0,0,.95-.1,6.78,6.78,0,0,0,.82-.21l.3-.11v-2.17l-2,.2a1.31,1.31,0,0,0-.85.34A1.22,1.22,0,0,0,245,172.67Zm1.77-4.85a1.14,1.14,0,0,1-.86-.35,1.15,1.15,0,0,1-.35-.85,1.2,1.2,0,0,1,1.21-1.21,1.15,1.15,0,0,1,.85.35,1.14,1.14,0,0,1,.35.86,1.2,1.2,0,0,1-1.2,1.2Zm0-1.91a.64.64,0,0,0-.49.21.65.65,0,0,0-.2.5.68.68,0,0,0,.2.5.64.64,0,0,0,.49.21.65.65,0,0,0,.49-.21.72.72,0,0,0,.2-.5.69.69,0,0,0-.2-.5A.65.65,0,0,0,246.78,165.91Z"/><path d="M250.59,171.39v-.68h3.65v.68Z"/><path d="M258.36,171.36a3.88,3.88,0,0,1,.57-2.4,3,3,0,0,1,3.89,0,3.88,3.88,0,0,1,.57,2.4,4.2,4.2,0,0,1-.52,2.41,3.11,3.11,0,0,1-4,0A4.19,4.19,0,0,1,258.36,171.36Zm.75,0a4.12,4.12,0,0,0,.33,2c.22.37.7.55,1.44.55a1.58,1.58,0,0,0,1.44-.55,4,4,0,0,0,.34-2,3.52,3.52,0,0,0-.38-1.93,2.14,2.14,0,0,0-2.8,0A3.51,3.51,0,0,0,259.11,171.34Z"/><path d="M269.8,175.29a1.67,1.67,0,0,1-.65,1.47,3.58,3.58,0,0,1-2,.46,3.28,3.28,0,0,1-1.91-.4,1.72,1.72,0,0,1-.53-1.45,1.39,1.39,0,0,1,.22-.81,3.57,3.57,0,0,1,.76-.7.91.91,0,0,1-.3-.82,2.12,2.12,0,0,1,.28-.75l.1-.18a1.76,1.76,0,0,1-1-1.82c0-1.36.72-2,2.17-2a4.35,4.35,0,0,1,1.08.12l.18,0,1.74,0V169l-1.2,0a1.93,1.93,0,0,1,.43,1.42,1.77,1.77,0,0,1-.54,1.44,2.71,2.71,0,0,1-1.73.45,3.67,3.67,0,0,1-.61-.05,2.91,2.91,0,0,0-.24.74c0,.27.08.43.23.49a6.32,6.32,0,0,0,1.4.1,3,3,0,0,1,1.65.34A1.58,1.58,0,0,1,269.8,175.29Zm-4.4,0a1.2,1.2,0,0,0,.35,1,2.54,2.54,0,0,0,1.4.27,2.73,2.73,0,0,0,1.47-.29,1.08,1.08,0,0,0,.45-1q0-.69-.33-.9a2.59,2.59,0,0,0-1.23-.2l-1.36-.05a2.56,2.56,0,0,0-.6.55A1.07,1.07,0,0,0,265.4,175.32Zm.08-5a1.44,1.44,0,0,0,.34,1.09,1.62,1.62,0,0,0,1.13.32,1.68,1.68,0,0,0,1.13-.31,2,2,0,0,0,0-2.21,2.1,2.1,0,0,0-2.26,0A1.49,1.49,0,0,0,265.48,170.29Z"/><path d="M277.81,170.16v3.22c0,.29.3.47.78.53l0,.57a1.74,1.74,0,0,1-1.36-.48,5.54,5.54,0,0,1-2.25.49,1.57,1.57,0,0,1-1.23-.46,1.9,1.9,0,0,1-.42-1.32,1.68,1.68,0,0,1,.43-1.27,2.15,2.15,0,0,1,1.34-.51l2-.2v-.57a1.28,1.28,0,0,0-.3-1,1,1,0,0,0-.78-.3,17.14,17.14,0,0,0-2,.15l-.37,0,0-.57a12.43,12.43,0,0,1,2.31-.26,1.91,1.91,0,0,1,1.43.47A2,2,0,0,1,277.81,170.16Zm-3.76,2.51c0,.81.33,1.21,1,1.21a4.73,4.73,0,0,0,.95-.1,6.78,6.78,0,0,0,.82-.21l.3-.11v-2.17l-2,.2a1.31,1.31,0,0,0-.85.34A1.22,1.22,0,0,0,274.05,172.67Z"/><path d="M280.63,169v5.36h-.72V169h-.78v-.64h.78v-.61a3,3,0,0,1,.35-1.72,1.49,1.49,0,0,1,1.24-.45l1.16.06v.61l-1.05,0a.84.84,0,0,0-.77.31,2.43,2.43,0,0,0-.21,1.22v.6h1.82V169Z"/><path d="M285.37,168.91q-1.41,0-1.41,1a.69.69,0,0,0,.31.66,4.61,4.61,0,0,0,1.41.38,4.13,4.13,0,0,1,1.55.51,1.45,1.45,0,0,1,.45,1.24,1.56,1.56,0,0,1-.59,1.35,3,3,0,0,1-1.73.42,11.16,11.16,0,0,1-1.7-.16l-.35-.05.05-.64a14.31,14.31,0,0,0,2.06.21,2.06,2.06,0,0,0,1.12-.26.92.92,0,0,0,.41-.85.87.87,0,0,0-.33-.8,4.76,4.76,0,0,0-1.42-.36,3.8,3.8,0,0,1-1.53-.48,1.34,1.34,0,0,1-.44-1.18,1.4,1.4,0,0,1,.61-1.26,2.76,2.76,0,0,1,1.51-.39,13.51,13.51,0,0,1,1.8.15l.32.05,0,.64A14.68,14.68,0,0,0,285.37,168.91Z"/><path d="M292.17,169h-2v3a4.41,4.41,0,0,0,.17,1.53c.11.24.38.36.79.36l1.11-.09,0,.62a8.62,8.62,0,0,1-1.21.12,1.5,1.5,0,0,1-1.26-.45,2.94,2.94,0,0,1-.36-1.73V169h-.89v-.64h.89v-1.88h.72v1.88h2Z"/><path d="M293.29,166.87V166H294v.9Zm0,7.5v-6H294v6Z"/><path d="M300.66,175.29a1.67,1.67,0,0,1-.65,1.47,3.58,3.58,0,0,1-2,.46,3.25,3.25,0,0,1-1.9-.4,1.69,1.69,0,0,1-.53-1.45,1.39,1.39,0,0,1,.21-.81,3.57,3.57,0,0,1,.76-.7.91.91,0,0,1-.3-.82,2.22,2.22,0,0,1,.29-.75l.09-.18a1.76,1.76,0,0,1-1-1.82c0-1.36.72-2,2.17-2a4.35,4.35,0,0,1,1.08.12l.18,0,1.74,0V169l-1.2,0a1.93,1.93,0,0,1,.43,1.42,1.77,1.77,0,0,1-.54,1.44,2.7,2.7,0,0,1-1.72.45,3.7,3.7,0,0,1-.62-.05,2.91,2.91,0,0,0-.24.74c0,.27.08.43.24.49a6.18,6.18,0,0,0,1.4.1,3.08,3.08,0,0,1,1.65.34A1.6,1.6,0,0,1,300.66,175.29Zm-4.4,0a1.2,1.2,0,0,0,.36,1,2.48,2.48,0,0,0,1.39.27,2.77,2.77,0,0,0,1.48-.29,1.1,1.1,0,0,0,.44-1,1,1,0,0,0-.32-.9,2.67,2.67,0,0,0-1.24-.2l-1.36-.05a2.56,2.56,0,0,0-.6.55A1.07,1.07,0,0,0,296.26,175.32Zm.08-5a1.44,1.44,0,0,0,.34,1.09,1.62,1.62,0,0,0,1.13.32,1.73,1.73,0,0,0,1.14-.31,2,2,0,0,0,0-2.21,1.62,1.62,0,0,0-1.14-.33,1.57,1.57,0,0,0-1.13.33A1.49,1.49,0,0,0,296.34,170.29Z"/><path d="M302.62,174.37h-.71v-6h.71v.45a4,4,0,0,1,1.95-.57,1.79,1.79,0,0,1,1.61.64,4.81,4.81,0,0,1,.4,2.33v3.15h-.72v-3.12a4.28,4.28,0,0,0-.27-1.86c-.17-.33-.55-.49-1.12-.49a3.19,3.19,0,0,0-.89.13,3.48,3.48,0,0,0-.71.26l-.25.12Z"/><path d="M308.31,166.87V166h.7v.9Zm0,7.5v-6h.7v6Z"/><path d="M311.52,174.37h-.71v-6h.71v.45a4,4,0,0,1,2-.57,1.77,1.77,0,0,1,1.6.64,4.69,4.69,0,0,1,.4,2.33v3.15h-.72v-3.12a4.49,4.49,0,0,0-.26-1.86,1.16,1.16,0,0,0-1.13-.49,3.08,3.08,0,0,0-.88.13,3.39,3.39,0,0,0-.72.26l-.25.12Z"/><path d="M322.07,175.29a1.67,1.67,0,0,1-.65,1.47,3.58,3.58,0,0,1-2,.46,3.28,3.28,0,0,1-1.91-.4,1.72,1.72,0,0,1-.53-1.45,1.39,1.39,0,0,1,.22-.81,3.34,3.34,0,0,1,.76-.7.91.91,0,0,1-.3-.82,2.12,2.12,0,0,1,.28-.75l.1-.18a1.75,1.75,0,0,1-1-1.82c0-1.36.72-2,2.17-2a4.35,4.35,0,0,1,1.08.12l.18,0,1.74,0V169l-1.2,0a1.93,1.93,0,0,1,.43,1.42,1.77,1.77,0,0,1-.54,1.44,2.71,2.71,0,0,1-1.73.45,3.67,3.67,0,0,1-.61-.05,2.91,2.91,0,0,0-.24.74c0,.27.08.43.23.49a6.32,6.32,0,0,0,1.4.1,3,3,0,0,1,1.65.34A1.58,1.58,0,0,1,322.07,175.29Zm-4.4,0a1.2,1.2,0,0,0,.35,1,2.52,2.52,0,0,0,1.4.27,2.73,2.73,0,0,0,1.47-.29,1.08,1.08,0,0,0,.45-1q0-.69-.33-.9a2.62,2.62,0,0,0-1.23-.2l-1.36-.05a2.2,2.2,0,0,0-.6.55A1.07,1.07,0,0,0,317.67,175.32Zm.08-5a1.48,1.48,0,0,0,.33,1.09,2.2,2.2,0,0,0,2.27,0,2,2,0,0,0,0-2.21,1.57,1.57,0,0,0-1.13-.33,1.62,1.62,0,0,0-1.14.33A1.53,1.53,0,0,0,317.75,170.29Z"/><path d="M323.26,174.37v-1.21h.79v1.21Z"/></g></svg>
