<svg xmlns="http://www.w3.org/2000/svg" width="411" height="250" viewBox="0 0 411 250"><defs><style>.cls-1,.cls-6,.cls-7,.cls-8{fill:none;}.cls-1,.cls-2,.cls-6,.cls-8{stroke:#28292c;}.cls-1,.cls-4,.cls-7,.cls-8{stroke-linecap:round;}.cls-1,.cls-2,.cls-4,.cls-6,.cls-7,.cls-8{stroke-miterlimit:10;}.cls-1{stroke-width:2px;}.cls-2{fill:#020202;}.cls-3{fill:#414b5a;}.cls-4{fill:#37393d;stroke:#373d46;stroke-width:10px;opacity:0.5;}.cls-5{fill:#28292c;}.cls-6{stroke-width:3px;}.cls-7{stroke:#fff;}</style></defs><title>hjelm</title><g id="Layer_1" data-name="Layer 1"><path class="cls-1" d="M44.5,114.5C44.5,153.44,65.77,185,92,185s47.5-31.56,47.5-70.5"/><path class="cls-2" d="M104.5,183c0,2.76-5.6,5-12.5,5s-12.5-2.24-12.5-5"/><line class="cls-1" x1="133.5" y1="113" x2="136.5" y2="139"/><line class="cls-1" x1="50.5" y1="113" x2="47.5" y2="139"/><path class="cls-3" d="M40.5,114a52,52,0,0,1,104,0"/><path class="cls-3" d="M45.5,114c.34-25.63,21.11-47,47-47s46.66,21.37,47,47c.09,6.43,10.09,6.45,10,0a57.78,57.78,0,0,0-37-53.36c-22.31-8.54-48.7-1.49-63.84,16.94A58.11,58.11,0,0,0,35.5,114c-.09,6.44,9.91,6.44,10,0Z"/><line class="cls-4" x1="94" y1="62.54" x2="94" y2="89.46"/><line class="cls-4" x1="122.17" y1="71.92" x2="117.5" y2="92"/><line class="cls-4" x1="63.2" y1="71.31" x2="70.47" y2="90.6"/><line class="cls-4" x1="138.79" y1="90.54" x2="135.21" y2="95.46"/><line class="cls-4" x1="46.85" y1="89.85" x2="51.15" y2="94.15"/><path class="cls-5" d="M158.17,68.84V64.43H184v6.36l-16,35.85-4.6-1.45,15.69-34.71V68.84Z"/><path class="cls-5" d="M202.08,63.74a16,16,0,0,1,8.38,1.95q6.81,4,6.8,20.16,0,11.4-3.77,16.1t-11.35,4.69q-7.56,0-11.37-4.63T187,85.5q0-11.86,3.75-16.82T202.08,63.74Zm.06,4.34a9.46,9.46,0,0,0-5.67,1.52Q192,72.69,192,85.91q0,9.33,2.46,12.89t7.68,3.56q5.24,0,7.69-3.59t2.46-13.33q0-9.73-2.36-13.54C208.35,69.36,205.76,68.08,202.14,68.08Z"/><path class="cls-5" d="M224.38,63.8q6.93,0,6.93,8.69c0,3-.61,5.21-1.82,6.68a7,7,0,0,1-10.21,0c-1.22-1.47-1.83-3.69-1.83-6.68Q217.45,63.81,224.38,63.8Zm-3.08,8.69q0,5.67,3.12,5.67t3.11-5.67a9,9,0,0,0-.72-4.15,2.82,2.82,0,0,0-4.79,0A9,9,0,0,0,221.3,72.49Zm4.15,33.77,12.92-43.15,3,1-12.91,43Zm10-8.57q0-8.62,6.9-8.63t6.9,8.7q0,4.41-1.83,6.64a6.2,6.2,0,0,1-5.1,2.24,6.12,6.12,0,0,1-5.08-2.24C236,102.91,235.41,100.68,235.41,97.69Zm3.78,0q0,5.75,3.09,5.74a2.5,2.5,0,0,0,2.45-1.39,10,10,0,0,0,.7-4.28,9.39,9.39,0,0,0-.7-4.19,2.48,2.48,0,0,0-2.39-1.29,2.57,2.57,0,0,0-2.43,1.29A8.85,8.85,0,0,0,239.19,97.69Z"/><line class="cls-6" x1="158.5" y1="113.5" x2="251.5" y2="113.5"/><path d="M170.14,139.06v-7.52h-8.45v7.52h-1.85V122.45h1.85v7.44h8.45v-7.44H172v16.61Z"/><path d="M175.08,133c0-2.19.39-3.77,1.18-4.75s2.11-1.46,4-1.46,3.18.48,4,1.46,1.16,2.56,1.16,4.75a8.1,8.1,0,0,1-1.1,4.78c-.74,1-2.08,1.49-4,1.49s-3.3-.5-4-1.49A8.09,8.09,0,0,1,175.08,133Zm1.85,0a7.54,7.54,0,0,0,.64,3.68c.42.7,1.31,1.06,2.66,1.06s2.24-.35,2.65-1.05a7.63,7.63,0,0,0,.63-3.68,6.82,6.82,0,0,0-.7-3.64,2.94,2.94,0,0,0-2.58-1,3,3,0,0,0-2.59,1A6.67,6.67,0,0,0,176.93,133Z"/><path d="M186.94,127.06h1.92l2.81,10.44h.88l2.91-10.44h1.85l-3.39,12h-3.6Z"/><path d="M207.55,137.57l.7-.07.05,1.41a34.08,34.08,0,0,1-4.68.39,4.21,4.21,0,0,1-3.67-1.5,8.07,8.07,0,0,1-1.08-4.67q0-6.32,5-6.31a4.61,4.61,0,0,1,3.63,1.35,6.34,6.34,0,0,1,1.2,4.26l-.1,1.37h-7.92a4.91,4.91,0,0,0,.72,2.95,3,3,0,0,0,2.51,1C205.11,137.71,206.32,137.66,207.55,137.57Zm-.64-5.21a5.23,5.23,0,0,0-.71-3.12,2.73,2.73,0,0,0-2.31-.91,3,3,0,0,0-2.4,1,4.84,4.84,0,0,0-.82,3.07Z"/><path d="M220.73,121.82v17.24H219v-.82a7.33,7.33,0,0,1-3.64,1.06,5.32,5.32,0,0,1-1.68-.24,3.47,3.47,0,0,1-1.35-.87Q211,136.9,211,133.4c0-2.32.38-4,1.16-5a4.52,4.52,0,0,1,3.85-1.54,14.88,14.88,0,0,1,2.95.31v-5.31Zm-6.24,15.7a3.18,3.18,0,0,0,1.12.17,6.11,6.11,0,0,0,1.53-.23,9.33,9.33,0,0,0,1.33-.44l.48-.22v-8.14a15.59,15.59,0,0,0-2.85-.28,2.74,2.74,0,0,0-2.55,1.16,7.05,7.05,0,0,0-.72,3.61q0,2.79.84,3.75A2.1,2.1,0,0,0,214.49,137.52Z"/><path d="M228,128.42c-1.75,0-2.62.61-2.62,1.83a1.27,1.27,0,0,0,.6,1.19,10.31,10.31,0,0,0,2.74.72,7.14,7.14,0,0,1,3,1,3,3,0,0,1,.89,2.52,3.13,3.13,0,0,1-1.19,2.71,5.83,5.83,0,0,1-3.47.87,22.16,22.16,0,0,1-3.5-.34l-.72-.12.1-1.56a31,31,0,0,0,4.12.41,4.12,4.12,0,0,0,2.13-.45,1.58,1.58,0,0,0,.73-1.48,1.53,1.53,0,0,0-.62-1.42,9.4,9.4,0,0,0-2.74-.71,7.19,7.19,0,0,1-3-1,2.8,2.8,0,0,1-.89-2.4,2.9,2.9,0,0,1,1.24-2.59,5.35,5.35,0,0,1,3.08-.84,25.59,25.59,0,0,1,3.67.33l.68.12,0,1.54A30.87,30.87,0,0,0,228,128.42Z"/><path d="M237.17,139.06h-1.8V121.82h1.8V132l1.87-.1,3.43-4.84h2l-3.91,5.52,4.08,6.48h-2l-3.57-5.57-1.9.07Z"/><path d="M255.27,130.68v6.14c0,.6.51,1,1.39,1.06l-.08,1.42a3.87,3.87,0,0,1-2.85-1,10.56,10.56,0,0,1-4.32,1,3.29,3.29,0,0,1-2.52-.94,3.8,3.8,0,0,1-.86-2.69,3.37,3.37,0,0,1,.88-2.58,4.73,4.73,0,0,1,2.79-1l3.77-.36v-1a2.41,2.41,0,0,0-.53-1.75,2,2,0,0,0-1.44-.53,34.66,34.66,0,0,0-4,.24l-.74.07-.07-1.37a24.28,24.28,0,0,1,4.68-.52,3.35,3.35,0,0,1,3.89,3.86Zm-7.4,4.9c0,1.47.61,2.2,1.83,2.2a9.59,9.59,0,0,0,3.21-.55l.56-.19v-4l-3.56.34a2.3,2.3,0,0,0-1.56.62A2.2,2.2,0,0,0,247.87,135.58Z"/><path d="M268,121.82v17.24h-1.77v-.82a7.39,7.39,0,0,1-3.65,1.06,5.32,5.32,0,0,1-1.68-.24,3.47,3.47,0,0,1-1.35-.87q-1.29-1.29-1.29-4.79t1.16-5a4.52,4.52,0,0,1,3.85-1.54,15,15,0,0,1,3,.31v-5.31Zm-6.24,15.7a3.18,3.18,0,0,0,1.12.17,6.12,6.12,0,0,0,1.54-.23,9.79,9.79,0,0,0,1.33-.44l.48-.22v-8.14a15.78,15.78,0,0,0-2.86-.28,2.73,2.73,0,0,0-2.54,1.16,7.05,7.05,0,0,0-.72,3.61q0,2.79.84,3.75A2,2,0,0,0,261.79,137.52Z"/><path d="M279.67,137.57l.7-.07.05,1.41a34.08,34.08,0,0,1-4.68.39,4.21,4.21,0,0,1-3.67-1.5,8,8,0,0,1-1.08-4.67q0-6.32,5-6.31a4.57,4.57,0,0,1,3.62,1.35,6.34,6.34,0,0,1,1.21,4.26l-.1,1.37h-7.92a4.91,4.91,0,0,0,.72,2.95,2.94,2.94,0,0,0,2.51,1C277.23,137.71,278.44,137.66,279.67,137.57Zm-.64-5.21a5.23,5.23,0,0,0-.71-3.12,2.75,2.75,0,0,0-2.31-.91,3,3,0,0,0-2.4,1,4.84,4.84,0,0,0-.82,3.07Z"/><path d="M283.63,139.06v-12h1.78v1.63a11.74,11.74,0,0,1,4.39-1.9v1.83a11.59,11.59,0,0,0-2.1.6,13.61,13.61,0,0,0-1.67.72l-.6.31v8.81Z"/><path d="M158.84,147.33v-.68h4.88v1.06l-3.11,7-.7-.24,3.06-6.81v-.31Z"/><path d="M165.47,148.19a2.41,2.41,0,0,1,.95-1.3,2.68,2.68,0,0,1,1.42-.36,3.75,3.75,0,0,1,1.34.2,2.1,2.1,0,0,1,.88.67,7.45,7.45,0,0,1,0,6.41,3,3,0,0,1-4.26,0,5,5,0,0,1-.7-3.06A7.75,7.75,0,0,1,165.47,148.19Zm3.66-.7a2,2,0,0,0-1.17-.3,2.11,2.11,0,0,0-1.17.29c-.6.41-.9,1.51-.9,3.29a4.61,4.61,0,0,0,.51,2.56A1.81,1.81,0,0,0,168,154a2.22,2.22,0,0,0,1.13-.26q.93-.58.93-3Q170,148.12,169.13,147.49Z"/><path d="M173,146.53c.85,0,1.28.55,1.28,1.65a2,2,0,0,1-.34,1.26,1.15,1.15,0,0,1-.94.42,1.13,1.13,0,0,1-.94-.42,2,2,0,0,1-.35-1.27C171.71,147.08,172.14,146.53,173,146.53Zm-.67,1.64c0,.77.22,1.16.67,1.16a.56.56,0,0,0,.53-.28,1.94,1.94,0,0,0,.15-.87,1.84,1.84,0,0,0-.15-.85.57.57,0,0,0-.53-.27.56.56,0,0,0-.52.27A1.8,1.8,0,0,0,172.33,148.17Zm.94,6.44,2.38-8.15.5.16-2.37,8.13ZM175.1,153c0-1.09.43-1.63,1.29-1.63s1.29.55,1.29,1.64a2,2,0,0,1-.35,1.26,1.17,1.17,0,0,1-1,.42,1.15,1.15,0,0,1-.94-.42A2,2,0,0,1,175.1,153Zm.61,0c0,.78.23,1.17.68,1.17s.68-.39.68-1.16a1.78,1.78,0,0,0-.16-.84.64.64,0,0,0-1,0A1.66,1.66,0,0,0,175.71,153Z"/><path d="M185.72,150.36v3.22c0,.29.29.47.78.53l0,.57a1.72,1.72,0,0,1-1.35-.48,5.62,5.62,0,0,1-2.26.49,1.58,1.58,0,0,1-1.23-.46,2,2,0,0,1-.41-1.32,1.72,1.72,0,0,1,.42-1.27,2.18,2.18,0,0,1,1.34-.51l2-.2v-.57a1.33,1.33,0,0,0-.29-1,1.06,1.06,0,0,0-.79-.3,17,17,0,0,0-2,.15l-.37,0,0-.57a12.43,12.43,0,0,1,2.31-.26,1.89,1.89,0,0,1,1.43.47A2,2,0,0,1,185.72,150.36ZM182,152.87c0,.81.33,1.21,1,1.21a4.71,4.71,0,0,0,.94-.1,6.32,6.32,0,0,0,.82-.21l.3-.11v-2.17l-2,.2a1.26,1.26,0,0,0-.84.34A1.22,1.22,0,0,0,182,152.87Z"/><path d="M188.54,149.21v5.36h-.72v-5.36H187v-.64h.78V148a2.92,2.92,0,0,1,.35-1.72,1.46,1.46,0,0,1,1.23-.45l1.17.06v.61l-1.06,0a.85.85,0,0,0-.77.31,2.57,2.57,0,0,0-.2,1.22v.6h1.81v.64Z"/><path d="M198.23,150.36v3.22c0,.29.3.47.78.53l0,.57a1.74,1.74,0,0,1-1.36-.48,5.54,5.54,0,0,1-2.25.49,1.57,1.57,0,0,1-1.23-.46,1.9,1.9,0,0,1-.42-1.32,1.68,1.68,0,0,1,.43-1.27,2.15,2.15,0,0,1,1.34-.51l2-.2v-.57a1.28,1.28,0,0,0-.3-1,1,1,0,0,0-.78-.3,17.14,17.14,0,0,0-2,.15l-.37,0,0-.57a12.53,12.53,0,0,1,2.32-.26,1.92,1.92,0,0,1,1.43.47A2.05,2.05,0,0,1,198.23,150.36Zm-3.77,2.51c0,.81.34,1.21,1,1.21a4.73,4.73,0,0,0,.95-.1,6.1,6.1,0,0,0,.81-.21l.31-.11v-2.17l-2,.2a1.29,1.29,0,0,0-.85.34A1.22,1.22,0,0,0,194.46,152.87Z"/><path d="M200.17,154.57v-8.66h.7v8.66Z"/><path d="M202.82,154.57v-8.66h.71v8.66Z"/><path d="M209.37,154l.36,0,0,.59a19.18,19.18,0,0,1-2.29.16,2,2,0,0,1-1.81-.76,4.23,4.23,0,0,1-.52-2.33c0-2.1.83-3.15,2.48-3.15a2.22,2.22,0,0,1,1.77.68,3.29,3.29,0,0,1,.59,2.17l0,.57h-4.08a2.86,2.86,0,0,0,.37,1.64,1.49,1.49,0,0,0,1.3.54C208.15,154.05,208.76,154,209.37,154Zm-3.5-2.7h3.38a2.82,2.82,0,0,0-.39-1.69,1.5,1.5,0,0,0-1.25-.5,1.61,1.61,0,0,0-1.3.52A2.55,2.55,0,0,0,205.87,151.27Z"/><path d="M214.79,154.57h-.7v-8.66h.7v3a4.68,4.68,0,0,1,2-.47,1.77,1.77,0,0,1,1.6.64,4.69,4.69,0,0,1,.4,2.33v3.15H218v-3.12a4.32,4.32,0,0,0-.26-1.86c-.17-.33-.54-.49-1.12-.49a4.66,4.66,0,0,0-.88.1,4.21,4.21,0,0,0-.71.21l-.26.1Z"/><path d="M220.23,151.56a3.88,3.88,0,0,1,.57-2.4,3,3,0,0,1,3.89,0,3.88,3.88,0,0,1,.57,2.4,4.28,4.28,0,0,1-.52,2.41,3.11,3.11,0,0,1-4,0A4.19,4.19,0,0,1,220.23,151.56Zm.74,0a4.12,4.12,0,0,0,.33,2c.22.37.7.55,1.44.55a1.61,1.61,0,0,0,1.45-.55,4.15,4.15,0,0,0,.34-2,3.52,3.52,0,0,0-.38-1.93,2.14,2.14,0,0,0-2.8,0A3.49,3.49,0,0,0,221,151.54Z"/><path d="M226.12,148.57h.79l1.5,5.38h.48l1.56-5.38h.75l-1.75,6h-1.58Z"/><path d="M236.29,154l.36,0,0,.59a19.45,19.45,0,0,1-2.29.16,2,2,0,0,1-1.81-.76,4.14,4.14,0,0,1-.52-2.33c0-2.1.82-3.15,2.47-3.15a2.24,2.24,0,0,1,1.78.68,3.29,3.29,0,0,1,.58,2.17l0,.57h-4.08a2.85,2.85,0,0,0,.38,1.64,1.47,1.47,0,0,0,1.3.54C235.07,154.05,235.68,154,236.29,154Zm-3.51-2.7h3.39a2.82,2.82,0,0,0-.39-1.69,1.51,1.51,0,0,0-1.25-.5,1.63,1.63,0,0,0-1.31.52A2.61,2.61,0,0,0,232.78,151.27Z"/><path d="M242.85,145.91v8.66h-.72v-.44a3.67,3.67,0,0,1-1.92.56,2.52,2.52,0,0,1-.77-.1,1.8,1.8,0,0,1-.66-.4,3.22,3.22,0,0,1-.68-2.39,4.46,4.46,0,0,1,.57-2.57,2.28,2.28,0,0,1,2-.78,11.24,11.24,0,0,1,1.51.16v-2.7ZM239.76,154a1.55,1.55,0,0,0,.57.09,3,3,0,0,0,.82-.14,4.65,4.65,0,0,0,.73-.25l.25-.13v-4.3a11.7,11.7,0,0,0-1.49-.14,1.54,1.54,0,0,0-1.41.62,3.76,3.76,0,0,0-.39,1.94,3,3,0,0,0,.47,2A1.22,1.22,0,0,0,239.76,154Z"/><path d="M246.45,149.11c-.95,0-1.42.34-1.42,1a.7.7,0,0,0,.32.66,4.43,4.43,0,0,0,1.4.38,4.06,4.06,0,0,1,1.55.51,1.45,1.45,0,0,1,.45,1.24,1.56,1.56,0,0,1-.58,1.35,3,3,0,0,1-1.73.42,11.38,11.38,0,0,1-1.71-.16l-.34-.05,0-.64a14.55,14.55,0,0,0,2.07.21,2.08,2.08,0,0,0,1.12-.26.91.91,0,0,0,.4-.85.87.87,0,0,0-.33-.8,4.66,4.66,0,0,0-1.41-.36,3.69,3.69,0,0,1-1.53-.48,1.34,1.34,0,0,1-.45-1.18,1.4,1.4,0,0,1,.61-1.26,2.79,2.79,0,0,1,1.52-.39,13.64,13.64,0,0,1,1.8.15l.32,0,0,.64A14.68,14.68,0,0,0,246.45,149.11Z"/><path d="M250.91,154.57h-.7v-8.66h.7v5.16l1,0,1.85-2.48h.83l-2.05,2.75,2.15,3.25h-.84L252,151.68l-1,0Z"/><path d="M259.93,150.36v3.22c0,.29.29.47.78.53l0,.57a1.74,1.74,0,0,1-1.36-.48,5.54,5.54,0,0,1-2.25.49,1.57,1.57,0,0,1-1.23-.46,1.9,1.9,0,0,1-.42-1.32,1.72,1.72,0,0,1,.43-1.27,2.15,2.15,0,0,1,1.34-.51l2-.2v-.57a1.28,1.28,0,0,0-.3-1,1,1,0,0,0-.78-.3,16.84,16.84,0,0,0-2,.15l-.38,0,0-.57a12.43,12.43,0,0,1,2.31-.26,1.89,1.89,0,0,1,1.43.47A2,2,0,0,1,259.93,150.36Zm-3.77,2.51c0,.81.33,1.21,1,1.21a4.73,4.73,0,0,0,1-.1,6.32,6.32,0,0,0,.82-.21l.3-.11v-2.17l-2,.2a1.26,1.26,0,0,0-.84.34A1.18,1.18,0,0,0,256.16,152.87Z"/><path d="M266.27,145.91v8.66h-.72v-.44a3.67,3.67,0,0,1-1.92.56,2.46,2.46,0,0,1-.76-.1,1.8,1.8,0,0,1-.66-.4,3.17,3.17,0,0,1-.69-2.39,4.37,4.37,0,0,1,.58-2.57,2.25,2.25,0,0,1,1.94-.78,11.08,11.08,0,0,1,1.51.16v-2.7ZM263.18,154a1.57,1.57,0,0,0,.58.09,3,3,0,0,0,.82-.14,4.48,4.48,0,0,0,.72-.25l.25-.13v-4.3a11.57,11.57,0,0,0-1.48-.14,1.54,1.54,0,0,0-1.41.62,3.76,3.76,0,0,0-.39,1.94,3,3,0,0,0,.46,2A1.4,1.4,0,0,0,263.18,154Z"/><path d="M272,154l.36,0,0,.59a19.45,19.45,0,0,1-2.29.16,2.06,2.06,0,0,1-1.82-.76,4.24,4.24,0,0,1-.51-2.33c0-2.1.82-3.15,2.47-3.15a2.26,2.26,0,0,1,1.78.68,3.29,3.29,0,0,1,.58,2.17l0,.57h-4.08a2.85,2.85,0,0,0,.38,1.64,1.46,1.46,0,0,0,1.29.54C270.82,154.05,271.43,154,272,154Zm-3.5-2.7h3.38a2.82,2.82,0,0,0-.39-1.69,1.48,1.48,0,0,0-1.24-.5,1.62,1.62,0,0,0-1.31.52A2.61,2.61,0,0,0,268.53,151.27Z"/><path d="M274.11,154.57v-6h.71v.87a6.3,6.3,0,0,1,1.08-.6,5.66,5.66,0,0,1,1.19-.39v.72a8.25,8.25,0,0,0-1.08.33,9.39,9.39,0,0,0-.88.39l-.31.18v4.5Z"/><path d="M159.5,169h-.71v-8.66h.71v3a4.63,4.63,0,0,1,1.94-.47,1.75,1.75,0,0,1,1.6.64,4.67,4.67,0,0,1,.41,2.33V169h-.72v-3.12a4.49,4.49,0,0,0-.26-1.86c-.17-.33-.55-.49-1.12-.49a4.76,4.76,0,0,0-.89.1,4.88,4.88,0,0,0-.71.21l-.25.1Z"/><path d="M169.31,164.76V168c0,.29.3.47.78.53l0,.57a1.74,1.74,0,0,1-1.36-.48,5.54,5.54,0,0,1-2.25.49,1.57,1.57,0,0,1-1.23-.46,1.9,1.9,0,0,1-.42-1.32,1.68,1.68,0,0,1,.43-1.27,2.15,2.15,0,0,1,1.34-.51l2-.2v-.57a1.28,1.28,0,0,0-.3-1,1,1,0,0,0-.78-.3,17.14,17.14,0,0,0-2,.15l-.37,0,0-.57a12.43,12.43,0,0,1,2.31-.26,1.91,1.91,0,0,1,1.43.47A2,2,0,0,1,169.31,164.76Zm-3.76,2.51c0,.81.33,1.21,1,1.21a4.73,4.73,0,0,0,1-.1,6.78,6.78,0,0,0,.82-.21l.3-.11v-2.17l-2,.2a1.31,1.31,0,0,0-.85.34A1.22,1.22,0,0,0,165.55,167.27Z"/><path d="M171.17,169v-6h.71v.87a6.42,6.42,0,0,1,1.09-.6,5.59,5.59,0,0,1,1.18-.39v.72a9.3,9.3,0,0,0-1.08.33,9.39,9.39,0,0,0-.88.39l-.31.18V169Z"/><path d="M177.31,163h.79l1.5,5.38h.48l1.56-5.38h.74l-1.75,6h-1.57Z"/><path d="M189.32,168.43c.39,0,1,0,1.83-.08l.35,0,0,.6a19.17,19.17,0,0,1-2.28.16,2.16,2.16,0,0,1-1.76-.67l-.41.18a5.67,5.67,0,0,1-2.36.49c-1.06,0-1.6-.6-1.6-1.81a1.53,1.53,0,0,1,.49-1.31,3.7,3.7,0,0,1,1.7-.49l1.62-.15v-.54c0-.83-.39-1.24-1.15-1.24-.53,0-1.17,0-1.91.1l-.37,0,0-.65a22.53,22.53,0,0,1,2.33-.15,1.5,1.5,0,0,1,1.63,1,2.12,2.12,0,0,1,2-1,2.25,2.25,0,0,1,1.78.67,3.28,3.28,0,0,1,.58,2.16l0,.57h-4.08a3,3,0,0,0,.39,1.64A1.48,1.48,0,0,0,189.32,168.43Zm-4.51,0a6.58,6.58,0,0,0,2.37-.51,5.65,5.65,0,0,1-.27-2l-1.94.18a1.36,1.36,0,0,0-.84.33,1.19,1.19,0,0,0-.26.84,1.31,1.31,0,0,0,.25.87A.81.81,0,0,0,184.81,168.46Zm2.83-2.79H191a2.74,2.74,0,0,0-.39-1.66,1.46,1.46,0,0,0-1.24-.51C188.22,163.5,187.64,164.23,187.64,165.67Z"/><path d="M193.22,169v-6h.71v.87a5.94,5.94,0,0,1,1.08-.6,5.59,5.59,0,0,1,1.18-.39v.72a9.3,9.3,0,0,0-1.08.33q-.56.22-.87.39l-.31.18V169Z"/><path d="M201.1,168.37l.36,0,0,.59a19.18,19.18,0,0,1-2.29.16,2,2,0,0,1-1.81-.76,4.23,4.23,0,0,1-.52-2.33c0-2.1.83-3.15,2.48-3.15a2.22,2.22,0,0,1,1.77.68,3.29,3.29,0,0,1,.59,2.17l0,.57H197.6a2.86,2.86,0,0,0,.37,1.64,1.49,1.49,0,0,0,1.3.54C199.88,168.45,200.49,168.42,201.1,168.37Zm-3.5-2.7H201a2.82,2.82,0,0,0-.39-1.69,1.5,1.5,0,0,0-1.25-.5,1.61,1.61,0,0,0-1.3.52A2.55,2.55,0,0,0,197.6,165.67Z"/><path d="M206.16,163.61h-2v3a4.41,4.41,0,0,0,.17,1.53c.11.24.37.36.79.36l1.1-.09.05.62a8.76,8.76,0,0,1-1.21.12,1.54,1.54,0,0,1-1.27-.45,3,3,0,0,1-.35-1.73v-3.32h-.89V163h.89v-1.88h.72V163h2Z"/><path d="M213.72,163h.71v6h-.71v-.44a3.45,3.45,0,0,1-1.84.56,1.77,1.77,0,0,1-1.62-.62,4.9,4.9,0,0,1-.39-2.36V163h.71v3.12a4.57,4.57,0,0,0,.26,1.88c.17.32.54.48,1.12.48a3.26,3.26,0,0,0,.86-.13,2.94,2.94,0,0,0,.68-.26l.22-.12Z"/><path d="M220.72,160.31V169H220v-.44a3.67,3.67,0,0,1-1.92.56,2.52,2.52,0,0,1-.77-.1,2,2,0,0,1-.66-.4,3.22,3.22,0,0,1-.68-2.39,4.46,4.46,0,0,1,.57-2.57,2.28,2.28,0,0,1,2-.78A11.24,11.24,0,0,1,220,163v-2.7Zm-3.09,8.05a1.57,1.57,0,0,0,.58.09,3,3,0,0,0,.81-.14,4.65,4.65,0,0,0,.73-.25l.25-.13v-4.3a11.7,11.7,0,0,0-1.49-.14,1.54,1.54,0,0,0-1.41.62,3.76,3.76,0,0,0-.39,1.94,3,3,0,0,0,.47,2A1.22,1.22,0,0,0,217.63,168.36Z"/><path d="M226.48,168.37l.36,0,0,.59a19.18,19.18,0,0,1-2.29.16,2,2,0,0,1-1.81-.76,4.23,4.23,0,0,1-.52-2.33c0-2.1.83-3.15,2.48-3.15a2.22,2.22,0,0,1,1.77.68,3.29,3.29,0,0,1,.59,2.17l0,.57H223a2.86,2.86,0,0,0,.37,1.64,1.49,1.49,0,0,0,1.3.54C225.26,168.45,225.87,168.42,226.48,168.37Zm-3.5-2.7h3.38A2.82,2.82,0,0,0,226,164a1.5,1.5,0,0,0-1.25-.5,1.61,1.61,0,0,0-1.3.52A2.55,2.55,0,0,0,223,165.67Z"/><path d="M229.26,169h-.7v-6h.7v.45a4,4,0,0,1,2-.57,1.77,1.77,0,0,1,1.6.64,4.69,4.69,0,0,1,.4,2.33V169h-.72v-3.12a4.32,4.32,0,0,0-.26-1.86,1.16,1.16,0,0,0-1.13-.49,3.13,3.13,0,0,0-.88.13,3.08,3.08,0,0,0-.71.26l-.26.12Z"/><path d="M240.17,162.85a1.88,1.88,0,0,1,1.67.7,4.55,4.55,0,0,1,.47,2.41,3.79,3.79,0,0,1-.6,2.42,2.75,2.75,0,0,1-2.21.71c-.45,0-1,0-1.61-.09l-.31,0v-8.66h.72v3A4.28,4.28,0,0,1,240.17,162.85Zm-1.87,5.52c.56,0,1,.08,1.35.08a2.69,2.69,0,0,0,.92-.15,1.22,1.22,0,0,0,.63-.48,2,2,0,0,0,.29-.78,7.33,7.33,0,0,0,.07-1.16,4.09,4.09,0,0,0-.3-1.83,1.22,1.22,0,0,0-1.15-.55,4.46,4.46,0,0,0-.86.1,4.52,4.52,0,0,0-.71.21l-.24.1Z"/><path d="M243.84,169v-6h.71v.87a6.42,6.42,0,0,1,1.09-.6,5.59,5.59,0,0,1,1.18-.39v.72a9.3,9.3,0,0,0-1.08.33,9.39,9.39,0,0,0-.88.39l-.31.18V169Z"/><path d="M251.7,163h.71v6h-.71v-.44a3.46,3.46,0,0,1-1.85.56,1.76,1.76,0,0,1-1.61-.62,4.9,4.9,0,0,1-.39-2.36V163h.71v3.12a4.4,4.4,0,0,0,.26,1.88c.17.32.54.48,1.12.48a3.26,3.26,0,0,0,.86-.13,2.67,2.67,0,0,0,.67-.26l.23-.12Z"/><path d="M259.07,169.89a1.67,1.67,0,0,1-.65,1.47,3.58,3.58,0,0,1-2,.46,3.3,3.3,0,0,1-1.91-.4A1.71,1.71,0,0,1,254,170a1.39,1.39,0,0,1,.21-.81,3.57,3.57,0,0,1,.76-.7.91.91,0,0,1-.3-.82,2,2,0,0,1,.29-.75l.09-.18a1.76,1.76,0,0,1-1-1.82c0-1.36.72-2,2.17-2a4.35,4.35,0,0,1,1.08.12l.18,0,1.74,0v.64l-1.2,0a1.93,1.93,0,0,1,.43,1.42,1.77,1.77,0,0,1-.54,1.44,2.71,2.71,0,0,1-1.73.45,3.67,3.67,0,0,1-.61-.05,2.91,2.91,0,0,0-.24.74c0,.27.08.43.24.49a6.13,6.13,0,0,0,1.39.1,3,3,0,0,1,1.65.34A1.58,1.58,0,0,1,259.07,169.89Zm-4.4,0a1.2,1.2,0,0,0,.36,1,2.48,2.48,0,0,0,1.39.27,2.7,2.7,0,0,0,1.47-.29,1.08,1.08,0,0,0,.45-1q0-.69-.33-.9a2.59,2.59,0,0,0-1.23-.2l-1.36,0a2.56,2.56,0,0,0-.6.55A1.07,1.07,0,0,0,254.67,169.92Zm.08-5a1.44,1.44,0,0,0,.34,1.09,1.62,1.62,0,0,0,1.13.32,1.68,1.68,0,0,0,1.13-.31,2,2,0,0,0,0-2.21,2.1,2.1,0,0,0-2.26,0A1.49,1.49,0,0,0,254.75,164.89Z"/><path d="M267.09,164.76V168c0,.29.29.47.78.53l0,.57a1.74,1.74,0,0,1-1.36-.48,5.54,5.54,0,0,1-2.25.49,1.57,1.57,0,0,1-1.23-.46,1.9,1.9,0,0,1-.42-1.32A1.72,1.72,0,0,1,263,166a2.15,2.15,0,0,1,1.34-.51l2-.2v-.57a1.28,1.28,0,0,0-.3-1,1,1,0,0,0-.78-.3,17,17,0,0,0-2,.15l-.38,0,0-.57a12.43,12.43,0,0,1,2.31-.26,1.89,1.89,0,0,1,1.43.47A2,2,0,0,1,267.09,164.76Zm-3.77,2.51c0,.81.33,1.21,1,1.21a4.73,4.73,0,0,0,.95-.1,6.32,6.32,0,0,0,.82-.21l.3-.11v-2.17l-2,.2a1.26,1.26,0,0,0-.84.34A1.18,1.18,0,0,0,263.32,167.27Z"/><path d="M269.91,163.61V169h-.72v-5.36h-.78V163h.78v-.61a3,3,0,0,1,.34-1.72,1.5,1.5,0,0,1,1.24-.45l1.16.06v.61l-1.05,0a.85.85,0,0,0-.77.31,2.45,2.45,0,0,0-.2,1.22v.6h1.81v.64Z"/><path d="M159.5,183.37h-.71v-8.66h.71v3a4.63,4.63,0,0,1,1.94-.47,1.75,1.75,0,0,1,1.6.64,4.67,4.67,0,0,1,.41,2.33v3.15h-.72v-3.12a4.49,4.49,0,0,0-.26-1.86c-.17-.33-.55-.49-1.12-.49a4.76,4.76,0,0,0-.89.1,4.88,4.88,0,0,0-.71.21l-.25.1Z"/><path d="M165.19,183.25v-5.88h.72v5.9a2.74,2.74,0,0,1-.39,1.6,4.35,4.35,0,0,1-1.58,1.16l-.29-.58a4,4,0,0,0,1.25-.94A2.12,2.12,0,0,0,165.19,183.25Zm0-7.38V175h.72v.9Z"/><path d="M171.67,182.77l.36,0,0,.59a19.32,19.32,0,0,1-2.29.16,2,2,0,0,1-1.81-.76,4.14,4.14,0,0,1-.52-2.33c0-2.1.82-3.15,2.47-3.15a2.24,2.24,0,0,1,1.78.68,3.29,3.29,0,0,1,.59,2.17l0,.57h-4.08a2.85,2.85,0,0,0,.38,1.64,1.47,1.47,0,0,0,1.3.54C170.45,182.85,171.06,182.82,171.67,182.77Zm-3.51-2.7h3.39a2.82,2.82,0,0,0-.39-1.69,1.5,1.5,0,0,0-1.25-.5,1.6,1.6,0,0,0-1.3.52A2.55,2.55,0,0,0,168.16,180.07Z"/><path d="M173.81,183.37v-8.66h.71v8.66Z"/><path d="M177.1,183.37h-.71v-6h.71v.45a3.63,3.63,0,0,1,2-.57,1.66,1.66,0,0,1,1.46.64,4.25,4.25,0,0,1,1.05-.45,4,4,0,0,1,1.11-.19,1.76,1.76,0,0,1,1.6.63,4.71,4.71,0,0,1,.4,2.34v3.15H184v-3.12a4.49,4.49,0,0,0-.26-1.86c-.17-.33-.55-.49-1.12-.49a3.09,3.09,0,0,0-.89.13,3,3,0,0,0-.7.26l-.24.12a6,6,0,0,1,.18,1.84v3.12h-.72v-3.09a4.42,4.42,0,0,0-.26-1.89c-.17-.33-.54-.49-1.11-.49a2.83,2.83,0,0,0-.85.13,2.67,2.67,0,0,0-.67.26l-.23.12Z"/><path d="M186.35,183.37v-1.21h.8v1.21Z"/></g><g id="Lag_3" data-name="Lag 3"><path class="cls-1" d="M49,83.5s14-19,37-22"/><path class="cls-7" d="M62.5,75A40,40,0,0,1,85,65.5"/><line class="cls-8" x1="117.5" y1="112" x2="137.5" y2="112"/></g></svg>
