<svg xmlns="http://www.w3.org/2000/svg" width="433" height="250" viewBox="0 0 433 250"><defs><style>.cls-1{fill:#28292c;}.cls-10,.cls-2,.cls-9{fill:none;}.cls-2{stroke:#28292c;stroke-width:3px;}.cls-10,.cls-2,.cls-3,.cls-6,.cls-7,.cls-9{stroke-miterlimit:10;}.cls-3{fill:#fdfffd;}.cls-10,.cls-3,.cls-9{stroke:#fff;}.cls-4{fill:#cbcdd2;}.cls-5,.cls-6,.cls-7{fill:#414b5a;}.cls-6{stroke:#2f363f;}.cls-7{stroke:#37393d;}.cls-8{fill:#2f363f;}.cls-10,.cls-9{stroke-linecap:round;}.cls-9{stroke-width:2px;}</style></defs><title>vest</title><g id="Layer_1" data-name="Layer 1"><path class="cls-1" d="M212.69,64.84a84.19,84.19,0,0,0-11-.76,9.84,9.84,0,0,0-8.25,3.72q-2.91,3.72-2.9,10.65l1.57-.63a41.26,41.26,0,0,1,4.19-1.2A20.12,20.12,0,0,1,200.9,76q14,0,14,12.92,0,6.61-3.81,10.17t-10.74,3.56q-14.88,0-14.87-21.61,0-10.89,4.25-16.06t12-5.17a59.26,59.26,0,0,1,9.71.76l1.7.31Zm-12.1,15.5a20.57,20.57,0,0,0-4.69.6,30.46,30.46,0,0,0-4,1.16l-1.45.63q.06,7.18,2.42,11.41a7.75,7.75,0,0,0,7.21,4.22c3.24,0,5.67-.81,7.31-2.43a9.21,9.21,0,0,0,2.46-6.87q0-4.44-2.43-6.58T200.59,80.34Z"/><path class="cls-1" d="M229.07,98.36q11.4,0,11.46-14.49a31.5,31.5,0,0,1-10.83,2.39q-13.62,0-13.61-12.66,0-6.36,3.9-10.08t10.52-3.72q7.63,0,11.34,5.64T245.57,82q0,10.93-4.19,15.78t-12.31,4.85a56.48,56.48,0,0,1-9.77-.88l-1.64-.25.44-3.91A83.76,83.76,0,0,0,229.07,98.36Zm1-16.38a28.44,28.44,0,0,0,8.89-1.7l1.63-.57q-.18-15.63-10.08-15.63a9.18,9.18,0,0,0-6.89,2.56,9.53,9.53,0,0,0-2.49,7Q221.13,82,230.07,82Z"/><path class="cls-1" d="M253.38,59.8q6.93,0,6.93,8.69c0,3-.61,5.21-1.82,6.68a7,7,0,0,1-10.21,0c-1.22-1.47-1.83-3.69-1.83-6.68Q246.45,59.81,253.38,59.8Zm-3.08,8.69q0,5.67,3.12,5.67t3.11-5.67a9,9,0,0,0-.72-4.15,2.82,2.82,0,0,0-4.79,0A9,9,0,0,0,250.3,68.49Zm4.15,33.77,12.92-43.15,3,1-12.91,43Zm10-8.57q0-8.62,6.9-8.63t6.9,8.7q0,4.41-1.83,6.64a6.2,6.2,0,0,1-5.1,2.24,6.12,6.12,0,0,1-5.08-2.24C265,98.91,264.41,96.68,264.41,93.69Zm3.78,0q0,5.75,3.09,5.74A2.5,2.5,0,0,0,273.73,98a10,10,0,0,0,.7-4.28,9.39,9.39,0,0,0-.7-4.19,2.48,2.48,0,0,0-2.39-1.29,2.57,2.57,0,0,0-2.43,1.29A8.85,8.85,0,0,0,268.19,93.69Z"/><line class="cls-2" x1="186.5" y1="109.5" x2="279.5" y2="109.5"/><path d="M189.69,135.06h-1.85V118.45h1.85v7.73l2.74-.1,4.24-7.63h2.12L194,126.8l5,8.26h-2.18l-4.42-7.35-2.76.1Z"/><path d="M201.11,135.06v-12h1.78v1.63a11.81,11.81,0,0,1,4.39-1.9v1.83a11.59,11.59,0,0,0-2.1.6,13.61,13.61,0,0,0-1.67.72l-.6.31v8.81Z"/><path d="M208.29,123.06h1.8l3,10.44h.79l3-10.44h1.8l-5,17.32h-1.8l1.56-5.32H211.7Z"/><path d="M230,117.82v17.24h-1.78v-.82a7.34,7.34,0,0,1-3.65,1.06,5.3,5.3,0,0,1-1.67-.24,3.47,3.47,0,0,1-1.35-.87q-1.29-1.29-1.29-4.79c0-2.32.38-4,1.16-5a4.52,4.52,0,0,1,3.85-1.54,14.88,14.88,0,0,1,2.95.31v-5.31Zm-6.24,15.7a3.18,3.18,0,0,0,1.12.17,6.11,6.11,0,0,0,1.53-.23,9.33,9.33,0,0,0,1.33-.44l.48-.22v-8.14a15.59,15.59,0,0,0-2.85-.28,2.74,2.74,0,0,0-2.55,1.16,7.05,7.05,0,0,0-.72,3.61q0,2.79.84,3.75A2.1,2.1,0,0,0,223.77,133.52Z"/><path d="M237.26,124.42c-1.75,0-2.62.61-2.62,1.83a1.27,1.27,0,0,0,.6,1.19,10.31,10.31,0,0,0,2.74.72,7.14,7.14,0,0,1,3,1,3,3,0,0,1,.89,2.52,3.13,3.13,0,0,1-1.19,2.71,5.83,5.83,0,0,1-3.47.87,22.16,22.16,0,0,1-3.5-.34l-.72-.12.1-1.56a31,31,0,0,0,4.12.41,4.12,4.12,0,0,0,2.13-.45,1.58,1.58,0,0,0,.73-1.48,1.53,1.53,0,0,0-.62-1.42,9.4,9.4,0,0,0-2.74-.71,7.19,7.19,0,0,1-3-1,2.8,2.8,0,0,1-.89-2.4,2.9,2.9,0,0,1,1.24-2.59,5.35,5.35,0,0,1,3.08-.84,25.59,25.59,0,0,1,3.67.33l.68.12,0,1.54A30.87,30.87,0,0,0,237.26,124.42Z"/><path d="M252.14,123.06h1.8v12h-1.8v-.84a6.89,6.89,0,0,1-3.56,1.08c-1.63,0-2.71-.43-3.25-1.28s-.8-2.41-.8-4.7v-6.26h1.8v6.24a8.68,8.68,0,0,0,.46,3.5c.3.59,1,.89,2.06.89a6.08,6.08,0,0,0,1.61-.23,7.82,7.82,0,0,0,1.25-.44l.43-.22Z"/><path d="M257.54,135.06V117.82h1.8v17.24Z"/><path d="M261.81,123.06h1.8l3,10.44h.79l3-10.44h1.8l-5,17.32h-1.8l1.56-5.32h-1.77Z"/><path d="M276.33,135.06h-1.8V117.82h1.8V128l1.87-.1,3.43-4.84h2l-3.91,5.52,4.08,6.48h-2l-3.58-5.57-1.89.07Z"/><path d="M287.82,135.06H286V117.82h1.8V128l1.88-.1,3.43-4.84h2l-3.91,5.52,4.08,6.48h-2l-3.58-5.57-1.9.07Z"/><path d="M305.37,133.57l.69-.07.05,1.41a33.84,33.84,0,0,1-4.68.39,4.21,4.21,0,0,1-3.67-1.5,8.07,8.07,0,0,1-1.08-4.67q0-6.31,5-6.31a4.6,4.6,0,0,1,3.62,1.35,6.34,6.34,0,0,1,1.2,4.26l-.1,1.37H298.5a4.91,4.91,0,0,0,.72,2.95,3,3,0,0,0,2.51,1C302.92,133.71,304.14,133.66,305.37,133.57Zm-.65-5.21a5.23,5.23,0,0,0-.71-3.12,2.72,2.72,0,0,0-2.3-.91,2.94,2.94,0,0,0-2.4,1,4.83,4.83,0,0,0-.83,3.07Z"/><path d="M309.33,135.06v-12h1.77v1.63a11.86,11.86,0,0,1,4.4-1.9v1.83a11.15,11.15,0,0,0-2.1.6,13,13,0,0,0-1.67.72l-.6.31v8.81Z"/><path d="M191.5,142.9a18.18,18.18,0,0,0-2.09-.12,2,2,0,0,0-1.64.76,3.55,3.55,0,0,0-.59,2.19l.32-.12a5,5,0,0,1,1.78-.38c1.76,0,2.64.8,2.64,2.42a2.55,2.55,0,0,1-.7,1.93,2.81,2.81,0,0,1-2,.69q-2.77,0-2.77-4.13a4.82,4.82,0,0,1,.79-3,2.72,2.72,0,0,1,2.24-1,12,12,0,0,1,1.81.14l.32,0Zm-2.26,3a4.19,4.19,0,0,0-1,.12,5.37,5.37,0,0,0-.82.26l-.3.13c0,2.13.7,3.19,2,3.19a2,2,0,0,0,1.46-.49,1.92,1.92,0,0,0,.51-1.43C191.16,146.48,190.52,145.89,189.24,145.89Z"/><path d="M193.4,149.46a16.73,16.73,0,0,0,2.14.13c1.48,0,2.22-1,2.24-3l-.35.12a6.09,6.09,0,0,1-1.85.36c-1.71,0-2.56-.79-2.56-2.39a2.54,2.54,0,0,1,.73-1.91,2.72,2.72,0,0,1,2-.71,2.34,2.34,0,0,1,2.12,1.08,5.85,5.85,0,0,1,.7,3.16,4.61,4.61,0,0,1-.78,3,2.88,2.88,0,0,1-2.32.92,11.14,11.14,0,0,1-1.81-.15l-.31-.05Zm2.23-3a4.38,4.38,0,0,0,.93-.12,8,8,0,0,0,.88-.24l.35-.12c0-2.13-.73-3.2-2.06-3.2a1.86,1.86,0,0,0-1.42.53,1.92,1.92,0,0,0-.53,1.42C193.78,145.89,194.4,146.46,195.63,146.46Z"/><path d="M200.88,142.11c.85,0,1.28.54,1.28,1.64a2,2,0,0,1-.34,1.26,1.15,1.15,0,0,1-.94.42,1.17,1.17,0,0,1-.95-.42,2,2,0,0,1-.34-1.27C199.59,142.65,200,142.11,200.88,142.11Zm-.68,1.63c0,.77.23,1.16.68,1.16a.54.54,0,0,0,.52-.28,1.78,1.78,0,0,0,.16-.86,1.72,1.72,0,0,0-.16-.86.54.54,0,0,0-.52-.27.55.55,0,0,0-.52.27A1.78,1.78,0,0,0,200.2,143.74Zm1,6.44,2.38-8.15.5.16-2.37,8.14Zm1.83-1.61c0-1.08.43-1.63,1.29-1.63s1.29.55,1.29,1.65a2,2,0,0,1-.35,1.26,1.17,1.17,0,0,1-1,.42,1.15,1.15,0,0,1-.94-.42A2,2,0,0,1,203,148.57Zm.61,0c0,.78.22,1.17.68,1.17s.67-.39.67-1.15a1.82,1.82,0,0,0-.15-.85.56.56,0,0,0-.52-.27.58.58,0,0,0-.53.26A1.8,1.8,0,0,0,203.59,148.57Z"/><path d="M213.6,145.93v3.22c0,.3.29.47.78.53l0,.57a1.74,1.74,0,0,1-1.36-.48,5.55,5.55,0,0,1-2.25.5,1.58,1.58,0,0,1-1.23-.47,1.87,1.87,0,0,1-.42-1.32,1.72,1.72,0,0,1,.43-1.27,2.28,2.28,0,0,1,1.34-.51l2-.2v-.57a1.3,1.3,0,0,0-.3-1,1,1,0,0,0-.78-.3,16.84,16.84,0,0,0-2,.15l-.38,0,0-.57a12.34,12.34,0,0,1,2.31-.25,1.89,1.89,0,0,1,1.43.46A2,2,0,0,1,213.6,145.93Zm-3.77,2.51c0,.81.33,1.21,1,1.21a4.73,4.73,0,0,0,1-.1,6.32,6.32,0,0,0,.82-.21l.3-.11v-2.17l-2,.21a1.26,1.26,0,0,0-.85.33A1.22,1.22,0,0,0,209.83,148.44Z"/><path d="M216.42,144.78v5.37h-.72v-5.37h-.78v-.63h.78v-.62a3,3,0,0,1,.34-1.72,1.5,1.5,0,0,1,1.24-.45l1.16.06V142l-1.05,0a.85.85,0,0,0-.77.31,2.47,2.47,0,0,0-.2,1.23v.6h1.81v.63Z"/><path d="M226.11,145.93v3.22c0,.3.29.47.78.53l0,.57a1.74,1.74,0,0,1-1.36-.48,5.56,5.56,0,0,1-2.26.5,1.57,1.57,0,0,1-1.22-.47,1.87,1.87,0,0,1-.42-1.32,1.68,1.68,0,0,1,.43-1.27,2.24,2.24,0,0,1,1.33-.51l2-.2v-.57a1.34,1.34,0,0,0-.29-1,1.06,1.06,0,0,0-.79-.3,17.14,17.14,0,0,0-2,.15l-.37,0,0-.57a12.34,12.34,0,0,1,2.31-.25,1.93,1.93,0,0,1,1.44.46A2.08,2.08,0,0,1,226.11,145.93Zm-3.77,2.51c0,.81.33,1.21,1,1.21a4.8,4.8,0,0,0,.95-.1,6.55,6.55,0,0,0,.81-.21l.3-.11v-2.17l-2,.21a1,1,0,0,0-1.11,1.17Z"/><path d="M228,150.15v-8.67h.71v8.67Z"/><path d="M230.7,150.15v-8.67h.7v8.67Z"/><path d="M237.25,149.55l.36,0,0,.59a19.6,19.6,0,0,1-2.29.17,2.07,2.07,0,0,1-1.81-.77,4.14,4.14,0,0,1-.52-2.33c0-2.1.83-3.14,2.47-3.14a2.22,2.22,0,0,1,1.78.67,3.31,3.31,0,0,1,.59,2.17l0,.58h-4.08a2.84,2.84,0,0,0,.38,1.63,1.48,1.48,0,0,0,1.3.54C236,149.62,236.64,149.59,237.25,149.55Zm-3.51-2.7h3.39a2.84,2.84,0,0,0-.39-1.7,1.5,1.5,0,0,0-1.25-.5,1.6,1.6,0,0,0-1.3.52A2.56,2.56,0,0,0,233.74,146.85Z"/><path d="M245.76,144.15h.7v6h-.7v-.45a3.53,3.53,0,0,1-1.85.57,1.77,1.77,0,0,1-1.62-.63,4.87,4.87,0,0,1-.39-2.36v-3.13h.71v3.12a4.54,4.54,0,0,0,.26,1.87,1.16,1.16,0,0,0,1.12.48,3,3,0,0,0,.87-.13,2.83,2.83,0,0,0,.67-.26l.23-.12Z"/><path d="M248.33,150.15v-8.67H249v8.67Z"/><path d="M250.34,144.15h.73l1.6,5.37h.43l1.61-5.37h.73l-2.59,8.7h-.72l.8-2.7h-.83Z"/><path d="M257.36,150.15h-.71v-8.67h.71v5.16l1,0,1.85-2.47h.83L259,146.89l2.15,3.26h-.84l-1.92-2.9-1,0Z"/><path d="M263,150.15h-.71v-8.67H263v5.16l1,0,1.85-2.47h.83l-2.06,2.74,2.15,3.26H266l-1.92-2.9-1,0Z"/><path d="M271.74,149.55l.36,0,0,.59a19.75,19.75,0,0,1-2.29.17,2.06,2.06,0,0,1-1.81-.77,4.14,4.14,0,0,1-.52-2.33c0-2.1.82-3.14,2.47-3.14a2.24,2.24,0,0,1,1.78.67,3.31,3.31,0,0,1,.58,2.17l0,.58h-4.08a2.84,2.84,0,0,0,.38,1.63,1.47,1.47,0,0,0,1.3.54C270.52,149.62,271.13,149.59,271.74,149.55Zm-3.51-2.7h3.39a2.84,2.84,0,0,0-.39-1.7,1.51,1.51,0,0,0-1.25-.5,1.63,1.63,0,0,0-1.31.52A2.62,2.62,0,0,0,268.23,146.85Z"/><path d="M273.81,150.15v-6h.71V145a6.42,6.42,0,0,1,1.09-.6,4.87,4.87,0,0,1,1.18-.38v.72a8.68,8.68,0,0,0-2,.72l-.31.18v4.5Z"/><path d="M282.33,144.69c-.94,0-1.42.34-1.42,1a.72.72,0,0,0,.32.66,4.82,4.82,0,0,0,1.41.37,4.07,4.07,0,0,1,1.54.51,1.46,1.46,0,0,1,.45,1.25,1.54,1.54,0,0,1-.58,1.34,3,3,0,0,1-1.73.43,11.61,11.61,0,0,1-1.71-.17l-.34,0,0-.64a14.55,14.55,0,0,0,2.07.21,2.19,2.19,0,0,0,1.12-.25.94.94,0,0,0,.4-.86.84.84,0,0,0-.33-.79,4.3,4.3,0,0,0-1.41-.37,3.69,3.69,0,0,1-1.53-.48,1.34,1.34,0,0,1-.45-1.18,1.42,1.42,0,0,1,.61-1.26,2.79,2.79,0,0,1,1.52-.39,13.51,13.51,0,0,1,1.8.15l.32.05,0,.64A14.42,14.42,0,0,0,282.33,144.69Z"/><path d="M286.79,150.15h-.7v-8.67h.7v5.16l1,0,1.85-2.47h.83l-2.05,2.74,2.15,3.26h-.84l-1.92-2.9-1,0Z"/><path d="M291.15,144.15h.73l1.6,5.37h.43l1.61-5.37h.73l-2.59,8.7h-.72l.8-2.7h-.83Z"/><path d="M297.53,150.15v-8.67h.71v8.67Z"/><path d="M304.6,141.48v8.67h-.72v-.45a3.68,3.68,0,0,1-1.92.57,2.55,2.55,0,0,1-.77-.11,1.82,1.82,0,0,1-.66-.4,3.2,3.2,0,0,1-.68-2.39,4.34,4.34,0,0,1,.58-2.56,2.25,2.25,0,0,1,1.94-.78,10.75,10.75,0,0,1,1.51.15v-2.7Zm-3.09,8.05a1.57,1.57,0,0,0,.58.09,3.3,3.3,0,0,0,.81-.13,5.77,5.77,0,0,0,.73-.26l.25-.13v-4.29a10.26,10.26,0,0,0-1.49-.15,1.52,1.52,0,0,0-1.41.63,3.72,3.72,0,0,0-.39,1.93,3,3,0,0,0,.47,2A1.22,1.22,0,0,0,301.51,149.53Z"/><path d="M310.36,149.55l.36,0,0,.59a19.75,19.75,0,0,1-2.3.17,2.08,2.08,0,0,1-1.81-.77,4.24,4.24,0,0,1-.51-2.33c0-2.1.82-3.14,2.47-3.14a2.21,2.21,0,0,1,1.77.67,3.25,3.25,0,0,1,.59,2.17l0,.58h-4.08a2.76,2.76,0,0,0,.38,1.63,1.46,1.46,0,0,0,1.29.54C309.14,149.62,309.75,149.59,310.36,149.55Zm-3.5-2.7h3.38a2.84,2.84,0,0,0-.39-1.7,1.49,1.49,0,0,0-1.25-.5,1.61,1.61,0,0,0-1.3.52A2.62,2.62,0,0,0,306.86,146.85Z"/><path d="M314.25,144.69c-.94,0-1.42.34-1.42,1a.72.72,0,0,0,.32.66,4.82,4.82,0,0,0,1.41.37,4.07,4.07,0,0,1,1.54.51,1.46,1.46,0,0,1,.45,1.25,1.54,1.54,0,0,1-.58,1.34,3,3,0,0,1-1.73.43,11.61,11.61,0,0,1-1.71-.17l-.34,0,0-.64a14.55,14.55,0,0,0,2.07.21,2.19,2.19,0,0,0,1.12-.25.94.94,0,0,0,.4-.86.84.84,0,0,0-.33-.79,4.3,4.3,0,0,0-1.41-.37,3.69,3.69,0,0,1-1.53-.48,1.34,1.34,0,0,1-.45-1.18,1.42,1.42,0,0,1,.61-1.26,2.79,2.79,0,0,1,1.52-.39,13.51,13.51,0,0,1,1.8.15l.32.05,0,.64A14.42,14.42,0,0,0,314.25,144.69Z"/><path d="M187.46,164.55h-.7v-6h.7V159a4,4,0,0,1,2-.56,1.76,1.76,0,0,1,1.6.63,4.72,4.72,0,0,1,.4,2.33v3.16h-.72v-3.12a4.37,4.37,0,0,0-.26-1.87,1.18,1.18,0,0,0-1.13-.49,3.54,3.54,0,0,0-.88.13,3.08,3.08,0,0,0-.71.26l-.26.12Z"/><path d="M197.12,164l.36,0,0,.59a19.75,19.75,0,0,1-2.29.17,2.09,2.09,0,0,1-1.82-.77,4.24,4.24,0,0,1-.51-2.33c0-2.1.82-3.14,2.47-3.14a2.25,2.25,0,0,1,1.78.67,3.31,3.31,0,0,1,.58,2.17l0,.58h-4.08a2.84,2.84,0,0,0,.38,1.63,1.46,1.46,0,0,0,1.29.54C195.91,164,196.52,164,197.12,164Zm-3.5-2.7H197a2.84,2.84,0,0,0-.39-1.7,1.48,1.48,0,0,0-1.24-.5,1.62,1.62,0,0,0-1.31.52A2.62,2.62,0,0,0,193.62,161.25Z"/><path d="M203.69,155.88v8.67H203v-.45a3.68,3.68,0,0,1-1.92.57,2.51,2.51,0,0,1-.77-.11,1.67,1.67,0,0,1-.66-.4,3.16,3.16,0,0,1-.68-2.39,4.42,4.42,0,0,1,.57-2.56,2.27,2.27,0,0,1,2-.78,10.88,10.88,0,0,1,1.51.15v-2.7Zm-3.09,8.05a1.55,1.55,0,0,0,.57.09,3.37,3.37,0,0,0,.82-.13,5.77,5.77,0,0,0,.73-.26l.25-.13v-4.29a10.39,10.39,0,0,0-1.49-.15,1.52,1.52,0,0,0-1.41.63,3.72,3.72,0,0,0-.39,1.93,3,3,0,0,0,.47,2A1.22,1.22,0,0,0,200.6,163.93Z"/><path d="M207.29,159.09c-.95,0-1.42.34-1.42,1a.73.73,0,0,0,.31.66,5,5,0,0,0,1.41.37,4.06,4.06,0,0,1,1.55.51,1.46,1.46,0,0,1,.45,1.25,1.52,1.52,0,0,1-.59,1.34,2.93,2.93,0,0,1-1.72.43,11.61,11.61,0,0,1-1.71-.17l-.35-.05.05-.64a14.55,14.55,0,0,0,2.07.21,2.19,2.19,0,0,0,1.12-.25.94.94,0,0,0,.4-.86.84.84,0,0,0-.33-.79,4.31,4.31,0,0,0-1.42-.37,3.8,3.8,0,0,1-1.53-.48,1.37,1.37,0,0,1-.44-1.18,1.4,1.4,0,0,1,.61-1.26,2.76,2.76,0,0,1,1.51-.39,13.51,13.51,0,0,1,1.8.15l.33,0,0,.64A14.19,14.19,0,0,0,207.29,159.09Z"/><path d="M215.17,160.33v3.22c0,.3.29.47.78.53l0,.57a1.74,1.74,0,0,1-1.36-.48,5.56,5.56,0,0,1-2.26.5,1.57,1.57,0,0,1-1.22-.47,1.87,1.87,0,0,1-.42-1.32,1.68,1.68,0,0,1,.43-1.27,2.27,2.27,0,0,1,1.33-.51l2-.2v-.57a1.3,1.3,0,0,0-.29-1,1.06,1.06,0,0,0-.79-.3,17.14,17.14,0,0,0-2,.15l-.37,0,0-.57a12.34,12.34,0,0,1,2.31-.25,1.93,1.93,0,0,1,1.44.46A2.08,2.08,0,0,1,215.17,160.33Zm-3.77,2.51c0,.81.34,1.21,1,1.21a4.8,4.8,0,0,0,.95-.1,6.55,6.55,0,0,0,.81-.21l.3-.11v-2.17l-2,.21a1.24,1.24,0,0,0-.85.33A1.22,1.22,0,0,0,211.4,162.84Z"/><path d="M220.07,159.18h-2v3a4.38,4.38,0,0,0,.17,1.52c.11.24.38.36.79.36l1.11-.08.05.61a8.73,8.73,0,0,1-1.22.12,1.52,1.52,0,0,1-1.26-.45,2.92,2.92,0,0,1-.36-1.72v-3.33h-.88v-.63h.88v-1.89h.72v1.89h2Z"/><path d="M225.65,159.09c-1,0-1.42.34-1.42,1a.73.73,0,0,0,.31.66,5,5,0,0,0,1.41.37,4.06,4.06,0,0,1,1.55.51,1.46,1.46,0,0,1,.45,1.25,1.52,1.52,0,0,1-.59,1.34,2.93,2.93,0,0,1-1.72.43,11.61,11.61,0,0,1-1.71-.17l-.35-.05,0-.64a14.55,14.55,0,0,0,2.07.21,2.19,2.19,0,0,0,1.12-.25.94.94,0,0,0,.4-.86.84.84,0,0,0-.33-.79,4.31,4.31,0,0,0-1.42-.37,3.8,3.8,0,0,1-1.53-.48,1.37,1.37,0,0,1-.44-1.18,1.4,1.4,0,0,1,.61-1.26,2.76,2.76,0,0,1,1.51-.39,13.51,13.51,0,0,1,1.8.15l.33,0,0,.64A14.19,14.19,0,0,0,225.65,159.09Z"/><path d="M228.73,158.55h.73l1.6,5.37h.43l1.61-5.37h.73l-2.59,8.7h-.72l.8-2.7h-.82Z"/><path d="M235.75,164.55H235v-6h.71V159a4,4,0,0,1,2-.56,1.76,1.76,0,0,1,1.6.63,4.72,4.72,0,0,1,.4,2.33v3.16H239v-3.12a4.54,4.54,0,0,0-.26-1.87,1.18,1.18,0,0,0-1.13-.49,3.54,3.54,0,0,0-.88.13,3.39,3.39,0,0,0-.72.26l-.25.12Z"/><path d="M241.51,164.55v-8.67h.71v8.67Z"/><path d="M244.09,157.05v-.9h.71v.9Zm0,7.5v-6h.71v6Z"/><path d="M251.46,165.46a1.67,1.67,0,0,1-.65,1.47,3.58,3.58,0,0,1-2,.46,3.3,3.3,0,0,1-1.91-.4,1.7,1.7,0,0,1-.52-1.45,1.43,1.43,0,0,1,.21-.81,3.57,3.57,0,0,1,.76-.7.91.91,0,0,1-.3-.82,2.08,2.08,0,0,1,.29-.75l.09-.18a1.75,1.75,0,0,1-1-1.81c0-1.36.72-2,2.17-2a4.35,4.35,0,0,1,1.08.12l.18,0,1.74,0v.63l-1.2,0a2,2,0,0,1,.43,1.42,1.77,1.77,0,0,1-.54,1.44,2.71,2.71,0,0,1-1.73.45,3.67,3.67,0,0,1-.61-.05,2.82,2.82,0,0,0-.24.75q0,.39.24.48a6.13,6.13,0,0,0,1.39.1,2.93,2.93,0,0,1,1.65.35A1.54,1.54,0,0,1,251.46,165.46Zm-4.4,0a1.19,1.19,0,0,0,.36,1,2.46,2.46,0,0,0,1.39.28,2.69,2.69,0,0,0,1.47-.3,1.07,1.07,0,0,0,.45-1q0-.69-.33-.9a2.59,2.59,0,0,0-1.23-.2l-1.36,0a2.56,2.56,0,0,0-.6.55A1.09,1.09,0,0,0,247.06,165.49Zm.08-5a1.42,1.42,0,0,0,.34,1.09,2.18,2.18,0,0,0,2.26,0,1.45,1.45,0,0,0,.34-1.1,1.49,1.49,0,0,0-.34-1.11,2.13,2.13,0,0,0-2.26,0A1.46,1.46,0,0,0,247.14,160.46Z"/><path d="M253.42,164.55h-.71v-8.67h.71v3a4.61,4.61,0,0,1,1.94-.46,1.76,1.76,0,0,1,1.6.63,4.72,4.72,0,0,1,.4,2.33v3.16h-.72v-3.12a4.59,4.59,0,0,0-.25-1.87,1.18,1.18,0,0,0-1.13-.49,4,4,0,0,0-.88.11,3.06,3.06,0,0,0-.71.21l-.25.09Z"/><path d="M263.08,164l.36,0,0,.59a19.75,19.75,0,0,1-2.29.17,2.06,2.06,0,0,1-1.81-.77,4.14,4.14,0,0,1-.52-2.33c0-2.1.82-3.14,2.47-3.14a2.24,2.24,0,0,1,1.78.67,3.31,3.31,0,0,1,.58,2.17l0,.58h-4.08a2.84,2.84,0,0,0,.38,1.63,1.47,1.47,0,0,0,1.3.54C261.86,164,262.47,164,263.08,164Zm-3.51-2.7H263a2.84,2.84,0,0,0-.39-1.7,1.51,1.51,0,0,0-1.25-.5,1.63,1.63,0,0,0-1.31.52A2.62,2.62,0,0,0,259.57,161.25Z"/><path d="M269.64,155.88v8.67h-.72v-.45a3.68,3.68,0,0,1-1.92.57,2.51,2.51,0,0,1-.77-.11,1.67,1.67,0,0,1-.66-.4,3.2,3.2,0,0,1-.68-2.39,4.42,4.42,0,0,1,.57-2.56,2.28,2.28,0,0,1,2-.78,10.88,10.88,0,0,1,1.51.15v-2.7Zm-3.09,8.05a1.55,1.55,0,0,0,.57.09,3.37,3.37,0,0,0,.82-.13,5.77,5.77,0,0,0,.73-.26l.25-.13v-4.29a10.39,10.39,0,0,0-1.49-.15,1.52,1.52,0,0,0-1.41.63,3.72,3.72,0,0,0-.39,1.93,3,3,0,0,0,.47,2A1.22,1.22,0,0,0,266.55,163.93Z"/><path d="M274.07,157.05v-.9h.71v.9Zm0,7.5v-6h.71v6Z"/><path d="M282.25,159.18h-2v3a4.46,4.46,0,0,0,.16,1.52c.12.24.38.36.8.36l1.1-.08.05.61a8.76,8.76,0,0,1-1.21.12,1.54,1.54,0,0,1-1.27-.45,2.94,2.94,0,0,1-.35-1.72v-3.33h-.89v-.63h.89v-1.89h.72v1.89h2Z"/><path d="M283.38,164.55v-6h.71v.86a5.94,5.94,0,0,1,1.08-.6,5,5,0,0,1,1.18-.38v.72a6.56,6.56,0,0,0-1.08.33,6.33,6.33,0,0,0-.87.39l-.31.18v4.5Z"/><path d="M291.58,160.33v3.22c0,.3.29.47.77.53l0,.57a1.74,1.74,0,0,1-1.36-.48,5.55,5.55,0,0,1-2.25.5,1.58,1.58,0,0,1-1.23-.47,1.87,1.87,0,0,1-.42-1.32,1.72,1.72,0,0,1,.43-1.27,2.28,2.28,0,0,1,1.34-.51l2-.2v-.57a1.3,1.3,0,0,0-.3-1,1,1,0,0,0-.78-.3,17.14,17.14,0,0,0-2,.15l-.37,0,0-.57a12.34,12.34,0,0,1,2.31-.25,1.91,1.91,0,0,1,1.43.46A2,2,0,0,1,291.58,160.33Zm-3.77,2.51c0,.81.33,1.21,1,1.21a4.73,4.73,0,0,0,.95-.1,6.78,6.78,0,0,0,.82-.21l.3-.11v-2.17l-2,.21a1.26,1.26,0,0,0-.85.33A1.22,1.22,0,0,0,287.81,162.84Z"/><path d="M294.4,159.18v5.37h-.73v-5.37h-.77v-.63h.77v-.62a3,3,0,0,1,.35-1.72,1.49,1.49,0,0,1,1.24-.45l1.16.06v.61l-1.05,0a.85.85,0,0,0-.77.31,2.47,2.47,0,0,0-.2,1.23v.6h1.81v.63Z"/><path d="M297.32,157.05v-.9H298v.9Zm0,7.5v-6H298v6Z"/><path d="M300.54,164.55h-.71v-8.67h.71V161l1,0,1.85-2.47h.82l-2.05,2.74,2.15,3.26h-.84l-1.92-2.9-1,0Z"/><path d="M306.18,164.55h-.71v-8.67h.71V161l1,0,1.85-2.47h.82l-2.05,2.74,2.15,3.26h-.84l-1.92-2.9-1,0Z"/><path d="M314.91,164l.36,0,0,.59a19.75,19.75,0,0,1-2.29.17,2.09,2.09,0,0,1-1.82-.77,4.24,4.24,0,0,1-.51-2.33c0-2.1.82-3.14,2.47-3.14a2.25,2.25,0,0,1,1.78.67,3.31,3.31,0,0,1,.58,2.17l0,.58h-4.08a2.84,2.84,0,0,0,.38,1.63,1.46,1.46,0,0,0,1.29.54C313.7,164,314.31,164,314.91,164Zm-3.5-2.7h3.38a2.84,2.84,0,0,0-.39-1.7,1.48,1.48,0,0,0-1.24-.5,1.62,1.62,0,0,0-1.31.52A2.62,2.62,0,0,0,311.41,161.25Z"/><path d="M317.7,164.55H317v-6h.71V159a3.93,3.93,0,0,1,1.95-.56,1.78,1.78,0,0,1,1.61.63,4.84,4.84,0,0,1,.4,2.33v3.16h-.72v-3.12a4.33,4.33,0,0,0-.27-1.87,1.16,1.16,0,0,0-1.12-.49,3.61,3.61,0,0,0-.89.13,3.48,3.48,0,0,0-.71.26l-.25.12Z"/><path d="M322.94,166l.53-2.66h.8l-.73,2.66Z"/><path d="M188.66,173.49c-.95,0-1.42.34-1.42,1a.71.71,0,0,0,.31.66,5,5,0,0,0,1.41.37,4.13,4.13,0,0,1,1.55.51,1.46,1.46,0,0,1,.45,1.25,1.54,1.54,0,0,1-.59,1.34,3,3,0,0,1-1.73.43,11.49,11.49,0,0,1-1.7-.17l-.35-.05,0-.64a14.44,14.44,0,0,0,2.06.21,2.23,2.23,0,0,0,1.13-.25,1,1,0,0,0,.4-.86.84.84,0,0,0-.33-.79,4.31,4.31,0,0,0-1.42-.37,3.8,3.8,0,0,1-1.53-.48,1.37,1.37,0,0,1-.44-1.18,1.4,1.4,0,0,1,.61-1.26,2.76,2.76,0,0,1,1.51-.39,13.51,13.51,0,0,1,1.8.15l.33,0,0,.64A14.31,14.31,0,0,0,188.66,173.49Z"/><path d="M192.41,181.65V173h.71v.45a3.72,3.72,0,0,1,2-.57,1.75,1.75,0,0,1,1.55.73,4.27,4.27,0,0,1,.51,2.38,3.79,3.79,0,0,1-.6,2.39,2.43,2.43,0,0,1-2,.74,6.76,6.76,0,0,1-1.44-.16v2.74Zm2.53-8.18a3.07,3.07,0,0,0-.85.14,3.43,3.43,0,0,0-.71.27l-.26.13v4.28a8.91,8.91,0,0,0,1.42.14,1.67,1.67,0,0,0,1.45-.58,3.37,3.37,0,0,0,.42-1.92A3.57,3.57,0,0,0,196,174,1.23,1.23,0,0,0,194.94,173.47Z"/><path d="M202.66,178.35l.36,0,0,.59a19.45,19.45,0,0,1-2.29.17,2.07,2.07,0,0,1-1.81-.77,4.23,4.23,0,0,1-.52-2.33c0-2.1.83-3.14,2.48-3.14a2.21,2.21,0,0,1,1.77.67,3.31,3.31,0,0,1,.59,2.17l0,.58h-4.08a2.85,2.85,0,0,0,.37,1.63,1.49,1.49,0,0,0,1.3.54C201.44,178.42,202.05,178.39,202.66,178.35Zm-3.5-2.7h3.38a2.84,2.84,0,0,0-.39-1.7,1.5,1.5,0,0,0-1.25-.5,1.61,1.61,0,0,0-1.3.52A2.56,2.56,0,0,0,199.16,175.65Z"/><path d="M207,172.83a8.12,8.12,0,0,1,1.28.12l.28,0,0,.61a12.37,12.37,0,0,0-1.4-.12,1.76,1.76,0,0,0-1.47.53,3.35,3.35,0,0,0-.39,1.92,3.81,3.81,0,0,0,.36,2,1.7,1.7,0,0,0,1.5.55l1.43-.11,0,.61a12.6,12.6,0,0,1-1.58.15,2.27,2.27,0,0,1-2-.71,4.24,4.24,0,0,1-.53-2.44,3.85,3.85,0,0,1,.57-2.41A2.36,2.36,0,0,1,207,172.83Z"/><path d="M209.93,171.45v-.9h.71v.9Zm0,7.5v-6h.71v6Z"/><path d="M216.41,178.35l.36,0,0,.59a19.75,19.75,0,0,1-2.3.17,2.08,2.08,0,0,1-1.81-.77,4.24,4.24,0,0,1-.51-2.33c0-2.1.82-3.14,2.47-3.14a2.21,2.21,0,0,1,1.77.67,3.25,3.25,0,0,1,.59,2.17l0,.58h-4.08a2.76,2.76,0,0,0,.38,1.63,1.46,1.46,0,0,0,1.29.54C215.19,178.42,215.8,178.39,216.41,178.35Zm-3.5-2.7h3.38a2.84,2.84,0,0,0-.39-1.7,1.49,1.49,0,0,0-1.25-.5,1.61,1.61,0,0,0-1.3.52A2.62,2.62,0,0,0,212.91,175.65Z"/><path d="M218.56,179v-8.67h.71V179Z"/><path d="M224.18,173.58h-2v3a4.38,4.38,0,0,0,.17,1.52c.11.24.38.36.79.36l1.11-.08,0,.61a8.62,8.62,0,0,1-1.21.12,1.5,1.5,0,0,1-1.26-.45,2.92,2.92,0,0,1-.36-1.72v-3.33h-.89V173h.89v-1.89h.72V173h2Z"/><path d="M227.94,171.45v-.9h.71v.9Zm0,7.5v-6h.71v6Z"/><path d="M236.13,173.58h-2v3a4.38,4.38,0,0,0,.17,1.52c.11.24.38.36.79.36l1.11-.08.05.61a8.87,8.87,0,0,1-1.22.12,1.52,1.52,0,0,1-1.26-.45,2.92,2.92,0,0,1-.36-1.72v-3.33h-.88V173h.88v-1.89h.72V173h2Z"/><path d="M237.26,179v-6h.7v.86a6.42,6.42,0,0,1,1.09-.6,5,5,0,0,1,1.18-.38v.72a6.56,6.56,0,0,0-1.08.33,5.82,5.82,0,0,0-.87.39l-.32.18V179Z"/><path d="M245.45,174.73V178c0,.3.29.47.78.53l0,.57a1.74,1.74,0,0,1-1.36-.48,5.56,5.56,0,0,1-2.26.5,1.57,1.57,0,0,1-1.22-.47,1.87,1.87,0,0,1-.42-1.32,1.68,1.68,0,0,1,.43-1.27,2.27,2.27,0,0,1,1.33-.51l2-.2v-.57a1.3,1.3,0,0,0-.29-1,1.06,1.06,0,0,0-.79-.3,17.14,17.14,0,0,0-2,.15l-.37,0,0-.57a12.34,12.34,0,0,1,2.31-.25,1.93,1.93,0,0,1,1.44.46A2.08,2.08,0,0,1,245.45,174.73Zm-3.77,2.51c0,.81.34,1.21,1,1.21a4.8,4.8,0,0,0,.95-.1,6.55,6.55,0,0,0,.81-.21l.3-.11v-2.17l-2,.21a1.24,1.24,0,0,0-.85.33A1.22,1.22,0,0,0,241.68,177.24Z"/><path d="M248.27,173.58V179h-.72v-5.37h-.78V173h.78v-.62a3,3,0,0,1,.35-1.72,1.47,1.47,0,0,1,1.24-.45l1.16.06v.61l-1.06,0a.83.83,0,0,0-.76.31,2.44,2.44,0,0,0-.21,1.23v.6h1.81v.63Z"/><path d="M251.2,171.45v-.9h.71v.9Zm0,7.5v-6h.71v6Z"/><path d="M254.42,179h-.71v-8.67h.71v5.16l1,0,1.84-2.47h.83l-2.05,2.74,2.15,3.26h-.84l-1.92-2.9-1,0Z"/><path d="M260.06,179h-.71v-8.67h.71v5.16l1,0,1.84-2.47h.83l-2.05,2.74,2.15,3.26H263l-1.92-2.9-1,0Z"/><path d="M265,179v-6h.71v.86a5.94,5.94,0,0,1,1.08-.6,5,5,0,0,1,1.18-.38v.72a6.56,6.56,0,0,0-1.08.33,5.82,5.82,0,0,0-.87.39l-.31.18V179Z"/><path d="M268.48,173h.73l1.6,5.37h.43l1.61-5.37h.73l-2.59,8.7h-.72l.8-2.7h-.83Z"/><path d="M279.16,170.28V179h-.72v-.45a3.68,3.68,0,0,1-1.92.57,2.51,2.51,0,0,1-.77-.11,1.67,1.67,0,0,1-.66-.4,3.16,3.16,0,0,1-.68-2.39,4.42,4.42,0,0,1,.57-2.56,2.27,2.27,0,0,1,1.95-.78,10.88,10.88,0,0,1,1.51.15v-2.7Zm-3.09,8.05a1.55,1.55,0,0,0,.57.09,3.37,3.37,0,0,0,.82-.13,5.77,5.77,0,0,0,.73-.26l.25-.13v-4.29a10.39,10.39,0,0,0-1.49-.15,1.52,1.52,0,0,0-1.41.63,3.72,3.72,0,0,0-.39,1.93,3,3,0,0,0,.47,2A1.22,1.22,0,0,0,276.07,178.33Z"/><path d="M282.76,173.49c-.95,0-1.42.34-1.42,1a.72.72,0,0,0,.32.66,4.83,4.83,0,0,0,1.4.37,4.06,4.06,0,0,1,1.55.51,1.46,1.46,0,0,1,.45,1.25,1.52,1.52,0,0,1-.59,1.34,2.93,2.93,0,0,1-1.72.43,11.61,11.61,0,0,1-1.71-.17l-.34-.05,0-.64a14.55,14.55,0,0,0,2.07.21,2.19,2.19,0,0,0,1.12-.25.94.94,0,0,0,.4-.86.84.84,0,0,0-.33-.79,4.31,4.31,0,0,0-1.42-.37,3.8,3.8,0,0,1-1.53-.48,1.37,1.37,0,0,1-.44-1.18,1.4,1.4,0,0,1,.61-1.26,2.77,2.77,0,0,1,1.52-.39,13.77,13.77,0,0,1,1.8.15l.32,0,0,.64A14.19,14.19,0,0,0,282.76,173.49Z"/><path d="M286.45,179v-1.22h.8V179Z"/></g><g id="Lag_3" data-name="Lag 3"><circle class="cls-3" cx="130.04" cy="206.99" r="0.66"/><path class="cls-4" d="M126.1,201.39c-27.65,0-44.22-3.53-45.54-6.09l-.06-.1V116.82c6.28-15.57,6.28-35.3,0-52.86V58.82l.71-.28-.64-1a.44.44,0,0,1-.07-.17c0-2.17,15.66-6.22,45.6-6.22s45.6,4,45.6,6.22a.39.39,0,0,1-.07.17l-.63,1,.69.27a67.59,67.59,0,0,0-2.56,11.65A129.11,129.11,0,0,0,167.55,94c.28,9.17,1.68,16.38,4.15,21.43V195.2l0,.1C170.32,197.86,153.75,201.39,126.1,201.39Z"/><path class="cls-5" d="M126.1,52.13a233.89,233.89,0,0,1,31,1.84c9.63,1.35,12.61,2.88,13.44,3.48l-1,1.57.93.37a72.94,72.94,0,0,0-2.29,10.92A128.46,128.46,0,0,0,166.55,94c.29,9.19,1.68,16.46,4.15,21.63v79.23c-.41.39-2.83,2.15-13.66,3.66a233.62,233.62,0,0,1-30.94,1.84,233.62,233.62,0,0,1-30.94-1.84c-10.93-1.53-13.29-3.3-13.66-3.65V117c6.28-15.71,6.28-35.55,0-53.23V59.5L82.69,59l-1-1.57c.83-.6,3.81-2.13,13.44-3.48a233.89,233.89,0,0,1,30.95-1.84m0-2c-25.74,0-46.6,3.23-46.6,7.22a1.37,1.37,0,0,0,.22.7.32.32,0,0,0-.22.29v5.79c5.91,16.41,6.62,36.24,0,52.49v78.55h0v.32a.3.3,0,0,0,.17.26c1.93,3.71,22,6.63,46.43,6.63s44.5-2.92,46.43-6.63a.3.3,0,0,0,.17-.26v-.32h0v-80c-3.24-6.47-4-15.39-4.15-21.23a128.68,128.68,0,0,1,1.57-23.36,66.44,66.44,0,0,1,2.58-11.67v-.6a.32.32,0,0,0-.22-.29,1.37,1.37,0,0,0,.22-.7c0-4-20.86-7.22-46.6-7.22Z"/><rect class="cls-6" x="125.44" y="69.76" width="5.25" height="130.74"/><path class="cls-7" d="M127.84,47.49h11.38a3.48,3.48,0,0,1,3,5.22l-5.69,9.86-5.69,9.86a3.47,3.47,0,0,1-6,0l-5.69-9.86-5.69-9.86a3.48,3.48,0,0,1,3-5.22Z"/><rect class="cls-6" x="91.32" y="145.95" width="21" height="26.25" rx="6.14"/><rect class="cls-6" x="142.51" y="145.95" width="20.49" height="26.25" rx="6.51"/><rect class="cls-8" x="87.69" y="144.95" width="27.81" height="5.05" rx="1.26"/><rect class="cls-8" x="138.88" y="144.95" width="27.62" height="5.05" rx="1.26"/><path class="cls-9" d="M145,57.5s11-2,21,4"/><path class="cls-10" d="M160.5,164s1,6-6,6"/></g></svg>
