<svg id="Layer_1" data-name="Layer 1" xmlns="http://www.w3.org/2000/svg" width="210.85mm" height="196.58mm" viewBox="0 0 597.7 557.24"><defs><style>.cls-1{fill:#f0f0f0;}</style></defs><title>instagram</title><path class="cls-1" d="M347.15,280.37a49,49,0,1,1-49-49A49,49,0,0,1,347.15,280.37Z"/><path class="cls-1" d="M412.74,193.67a48.73,48.73,0,0,0-27.9-27.9c-5.18-2-13-4.4-27.29-5.06-15.5-.7-20.15-.85-59.4-.85s-43.91.14-59.41.85c-14.33.66-22.11,3-27.29,5.06a48.73,48.73,0,0,0-27.9,27.9c-2,5.18-4.41,13-5.06,27.3-.71,15.5-.86,20.15-.86,59.4s.15,43.9.86,59.4c.65,14.34,3,22.12,5.06,27.3A48.68,48.68,0,0,0,211.45,395c5.18,2,13,4.41,27.29,5.07,15.5.7,20.15.85,59.4.85s43.91-.15,59.41-.85c14.33-.66,22.11-3,27.29-5.07a48.64,48.64,0,0,0,27.9-27.89c2-5.18,4.41-13,5.06-27.3.71-15.5.86-20.15.86-59.4s-.15-43.9-.86-59.4C417.15,206.64,414.76,198.85,412.74,193.67ZM298.15,355.85a75.49,75.49,0,1,1,75.48-75.48A75.48,75.48,0,0,1,298.15,355.85Zm78.47-136.31a17.64,17.64,0,1,1,17.64-17.64A17.65,17.65,0,0,1,376.62,219.54Z"/><path class="cls-1" d="M298.15,24.37c-141.37,0-256,114.63-256,256s114.63,256,256,256,256-114.64,256-256S439.51,24.37,298.15,24.37ZM444.26,341c-.71,15.65-3.2,26.33-6.83,35.69a75.21,75.21,0,0,1-43,43c-9.35,3.63-20,6.12-35.68,6.83s-20.69.89-60.61.89-44.93-.17-60.61-.89-26.33-3.2-35.68-6.83a75.17,75.17,0,0,1-43-43c-3.63-9.35-6.12-20-6.83-35.68s-.89-20.69-.89-60.61.16-44.93.88-60.61,3.2-26.33,6.83-35.68a75.15,75.15,0,0,1,43-43c9.35-3.64,20-6.12,35.68-6.84s20.68-.88,60.61-.88,44.93.17,60.6.89,26.33,3.19,35.69,6.82a75.23,75.23,0,0,1,43,43c3.63,9.35,6.12,20,6.83,35.68s.89,20.69.89,60.61S445,325.3,444.26,341Z"/></svg>
