<svg id="Layer_1" data-name="Layer 1" xmlns="http://www.w3.org/2000/svg" width="238.38mm" height="232.57mm" viewBox="0 0 675.73 659.25"><defs><style>.cls-1{fill:#f0f0f0;}</style></defs><title>youtube</title><path class="cls-1" d="M317.89,384.18l83.27-48-83.27-48Z"/><path class="cls-1" d="M349.78,80.22c-141.37,0-256,114.63-256,256s114.63,256,256,256,256-114.64,256-256S491.14,80.22,349.78,80.22Zm160,256.26s0,51.92-6.59,76.95a40.09,40.09,0,0,1-28.2,28.2c-25,6.59-125.17,6.59-125.17,6.59s-99.88,0-125.18-6.85a40.1,40.1,0,0,1-28.2-28.2c-6.59-24.77-6.59-76.95-6.59-76.95s0-51.92,6.59-77a40.92,40.92,0,0,1,28.2-28.46c25-6.59,125.18-6.59,125.18-6.59s100.14,0,125.17,6.85a40.1,40.1,0,0,1,28.2,28.2C510,284.3,509.74,336.48,509.74,336.48Z"/></svg>
